<svg xmlns="http://www.w3.org/2000/svg" width="65.722" height="80" viewBox="0 0 65.722 80">
  <path id="mantenimiento" d="M75.426,52.421a1.384,1.384,0,0,1,1.358,2.411L69.394,59l0,0c-2.421,1.4-4.754,1.2-6.984,1a10.76,10.76,0,0,0-3.51.054,6.217,6.217,0,0,0-2.778,1.59c-.078.078-.155.158-.229.24l3.131-.838a1.387,1.387,0,0,1,1.341.36l0,0,3.16,3.16a1.391,1.391,0,0,1,.339,1.413L62.73,70.235a1.387,1.387,0,0,1-1,.987l-3.11.834c.1.034.21.064.315.093a6.219,6.219,0,0,0,3.2-.011C64.887,71.4,65.847,69.4,66.8,67.4c.942-1.966,1.878-3.922,4.15-5.234L71,62.146l16.11-9.1a11.141,11.141,0,0,1,7.658-1.5,9.818,9.818,0,0,0,3.63-.141,6.389,6.389,0,0,0,2.741-1.661c.045-.043.088-.088.131-.133l-3.294.883a1.387,1.387,0,0,1-1.341-.36l0,0-3.16-3.16a1.391,1.391,0,0,1-.339-1.413l1.138-4.246a1.387,1.387,0,0,1,1-.987l3.507-.939c-.131-.045-.262-.086-.4-.122a6.2,6.2,0,0,0-3.222.067c-2.534.678-3.53,2.6-4.573,4.616-1.1,2.115-2.234,4.314-4.9,5.85-.032.019-.066.037-.1.053L81.85,51.971a1.384,1.384,0,0,1-1.358-2.411l3.738-2.11.069-.043c1.963-1.133,2.91-2.962,3.821-4.72,1.333-2.574,2.606-5.032,6.322-6.027a8.646,8.646,0,0,1,8.6,2.226,1.372,1.372,0,0,1,.43.69,1.387,1.387,0,0,1-.982,1.7l-5.747,1.541L96,45.581l2.027,2.027,5.747-1.541v0a1.366,1.366,0,0,1,.726,0,1.387,1.387,0,0,1,.966,1.706,9.078,9.078,0,0,1-2.382,3.936,9.226,9.226,0,0,1-3.979,2.378,12.116,12.116,0,0,1-4.6.216,8.824,8.824,0,0,0-6.029,1.141L72.354,64.554l-.026.016c-1.523.878-2.275,2.45-3.03,4.027-1.232,2.571-2.47,5.157-6.445,6.222a9.019,9.019,0,0,1-8.6-2.226,1.389,1.389,0,0,1,.55-2.39l5.45-1.461.741-2.766-2.027-2.027-5.45,1.461v0a1.366,1.366,0,0,1-.726,0,1.387,1.387,0,0,1-.966-1.706,9.024,9.024,0,0,1,6.362-6.314,12.662,12.662,0,0,1,4.454-.142c1.813.155,3.71.318,5.365-.637l0,0ZM55.838,14.8a1.39,1.39,0,0,1,0-2.781H82.265a1.39,1.39,0,1,1,0,2.781Zm0,7.546a1.39,1.39,0,0,1,0-2.781h45.435a1.39,1.39,0,1,1,0,2.781ZM85.354,29.89a1.39,1.39,0,1,1,0-2.781h15.918a1.39,1.39,0,0,1,0,2.781ZM70.617,44.866a7.88,7.88,0,1,0-11.142,0A1.389,1.389,0,0,0,61.439,42.9a5.1,5.1,0,1,1,7.211,0,1.389,1.389,0,1,0,1.966,1.963ZM56.6,32.227l-.509-.509c.214-.254.434-.493.661-.72s.462-.443.714-.658l.51.51a1.389,1.389,0,0,0,1.822.125,9.636,9.636,0,0,1,1.477-.765,9.738,9.738,0,0,1,1.691-.525,1.387,1.387,0,0,0,1.1-1.45V27.61c.334-.029.659-.043.979-.043s.645.014.979.042v.722a1.386,1.386,0,0,0,1.1,1.355v0a9.932,9.932,0,0,1,1.691.525,9.731,9.731,0,0,1,1.56.819,1.385,1.385,0,0,0,1.734-.182l0,0,.509-.509c.254.214.493.434.72.661s.443.462.658.714l-.51.51a1.389,1.389,0,0,0-.125,1.822,9.715,9.715,0,0,1,1.29,3.168,1.389,1.389,0,0,0,1.45,1.1h.627c.029.334.043.659.043.979s-.014.642-.042.973h-.722a1.39,1.39,0,0,0-1.374,1.178A9.709,9.709,0,0,1,73.3,44.626a1.385,1.385,0,0,0,.182,1.734l0,0,.509.509c-.214.254-.434.493-.661.72s-.462.443-.714.658l-.51-.51A1.389,1.389,0,1,0,70.143,49.7l1.374,1.374,0,0a1.386,1.386,0,0,0,1.789.144,15.9,15.9,0,0,0,1.99-1.672,15.628,15.628,0,0,0,1.594-1.888,1.391,1.391,0,0,0-.07-1.891l-.619-.619c.178-.338.338-.682.483-1.034s.275-.707.387-1.067h.877v0a1.385,1.385,0,0,0,1.368-1.168,15.977,15.977,0,0,0,.221-2.581,15.81,15.81,0,0,0-.224-2.586h0a1.384,1.384,0,0,0-1.366-1.162h-.872c-.114-.362-.243-.72-.389-1.072s-.307-.7-.483-1.034l.621-.621,0,0a1.386,1.386,0,0,0,.144-1.789,15.9,15.9,0,0,0-1.672-1.99,15.627,15.627,0,0,0-1.888-1.594,1.391,1.391,0,0,0-1.891.07l-.619.619q-.506-.264-1.034-.483t-1.074-.389v-.824a1.384,1.384,0,0,0-1.168-1.418,15.977,15.977,0,0,0-2.581-.221,15.81,15.81,0,0,0-2.586.224v0a1.384,1.384,0,0,0-1.162,1.366v.872q-.542.17-1.074.389t-1.034.483l-.621-.621,0,0a1.386,1.386,0,0,0-1.789-.144,15.9,15.9,0,0,0-1.99,1.672,15.627,15.627,0,0,0-1.594,1.888,1.389,1.389,0,0,0,.07,1.89L54.631,34.2a1.393,1.393,0,0,0,1.971-1.97Zm9.421,18.03v.72c-.334.029-.659.043-.979.043s-.642-.013-.973-.042v-.722A1.393,1.393,0,0,0,62.9,48.883a9.682,9.682,0,0,1-3.178-1.328,1.385,1.385,0,0,0-1.734.182l0,0-.509.509c-.254-.214-.493-.434-.722-.662s-.443-.462-.656-.712l.51-.51a1.389,1.389,0,0,0,.125-1.822,9.636,9.636,0,0,1-.765-1.477,9.739,9.739,0,0,1-.525-1.691,1.389,1.389,0,0,0-1.45-1.1h-.627c-.029-.334-.043-.659-.043-.979s.014-.645.042-.979h.722a1.384,1.384,0,1,0,0-2.768H52.19a1.384,1.384,0,0,0-1.418,1.168,15.977,15.977,0,0,0-.221,2.581,15.81,15.81,0,0,0,.224,2.586h0a1.385,1.385,0,0,0,1.366,1.162h.872c.114.362.243.72.389,1.072s.307.7.483,1.034l-.621.621,0,0a1.386,1.386,0,0,0-.144,1.789A16.048,16.048,0,0,0,54.8,49.547a15.569,15.569,0,0,0,1.888,1.6,1.391,1.391,0,0,0,1.891-.07l.619-.619q.506.264,1.034.483c.35.146.707.275,1.067.387V52.2h0a1.385,1.385,0,0,0,1.168,1.368,15.977,15.977,0,0,0,2.581.221,15.81,15.81,0,0,0,2.586-.224v0A1.384,1.384,0,0,0,68.8,52.2V50.256a1.387,1.387,0,0,0-2.774,0ZM97.343,4.746V9.32A3.693,3.693,0,0,0,101.026,13H105.6Zm10.226,11.037-.133,49.187a1.384,1.384,0,0,0,2.768,0l.138-50.576a1.385,1.385,0,0,0-.4-.979l0,0-13-13A1.392,1.392,0,0,0,95.954,0H51.082A6.473,6.473,0,0,0,44.62,6.462V48.29a1.39,1.39,0,1,0,2.781,0V6.462a3.693,3.693,0,0,1,3.683-3.683H94.566V9.32a6.473,6.473,0,0,0,6.462,6.462ZM44.62,55.008v18.53A6.473,6.473,0,0,0,51.082,80h52.8a6.267,6.267,0,0,0,6.325-6.346,1.39,1.39,0,0,0-2.781,0,3.575,3.575,0,0,1-1.016,2.552,3.525,3.525,0,0,1-2.53,1.014h-52.8A3.693,3.693,0,0,1,47.4,73.538V55.008a1.39,1.39,0,1,0-2.779,0Z" transform="translate(-44.62)" fill="#b13e8d" fill-rule="evenodd"/>
</svg>
