<svg xmlns="http://www.w3.org/2000/svg" width="120" height="120" viewBox="0 0 120 120">
  <g id="Grupo_136143" data-name="Grupo 136143" transform="translate(-265 -2528)">
    <circle id="Elipse_5210" data-name="Elipse 5210" cx="60" cy="60" r="60" transform="translate(265 2528)" fill="#b13e8d"/>
    <g id="dieta-equilibrada" transform="translate(287.285 2534.571)">
      <g id="Grupo_135114" data-name="Grupo 135114" transform="translate(0 18.429)">
        <path id="Trazado_192783" data-name="Trazado 192783" d="M226.159,281.526a5.09,5.09,0,1,0,5.09,5.09A5.1,5.1,0,0,0,226.159,281.526Zm0,7.97a2.88,2.88,0,1,1,2.88-2.88A2.883,2.883,0,0,1,226.159,289.5Z" transform="translate(-188.5 -242.766)" fill="#fff"/>
        <path id="Trazado_192784" data-name="Trazado 192784" d="M452.6,157.483v-1.6a1.105,1.105,0,1,0-2.21,0v1.6a1.105,1.105,0,1,0,2.21,0Z" transform="translate(-384.036 -134.69)" fill="#fff"/>
        <path id="Trazado_192785" data-name="Trazado 192785" d="M338.385,154.777a1.105,1.105,0,0,0-1.105,1.105v1.6a1.105,1.105,0,1,0,2.21,0v-1.6A1.105,1.105,0,0,0,338.385,154.777Z" transform="translate(-287.591 -134.69)" fill="#fff"/>
        <path id="Trazado_192786" data-name="Trazado 192786" d="M385.149,165.593a1.1,1.1,0,0,0-1.559.107,1.807,1.807,0,0,1-2.727,0,1.105,1.105,0,0,0-1.666,1.452,4.018,4.018,0,0,0,6.06,0A1.105,1.105,0,0,0,385.149,165.593Z" transform="translate(-323.1 -143.68)" fill="#fff"/>
        <path id="Trazado_192787" data-name="Trazado 192787" d="M61.973,75.584a1.105,1.105,0,0,0,1.105-1.105V72.843a1.105,1.105,0,1,0-2.21,0v1.636A1.105,1.105,0,0,0,61.973,75.584Z" transform="translate(-51.901 -63.884)" fill="#fff"/>
        <path id="Trazado_192788" data-name="Trazado 192788" d="M177.544,75.584a1.105,1.105,0,0,0,1.105-1.105V72.843a1.105,1.105,0,1,0-2.21,0v1.636A1.105,1.105,0,0,0,177.544,75.584Z" transform="translate(-150.445 -63.884)" fill="#fff"/>
        <path id="Trazado_192789" data-name="Trazado 192789" d="M109.846,84.341a1.105,1.105,0,0,0-1.666-1.452,1.87,1.87,0,0,1-2.823,0,1.105,1.105,0,1,0-1.666,1.452A4.081,4.081,0,0,0,109.846,84.341Z" transform="translate(-88.183 -73.07)" fill="#fff"/>
        <path id="Trazado_192790" data-name="Trazado 192790" d="M73.682,33.6a10.526,10.526,0,0,0-5.961-4.8,6.992,6.992,0,0,0,.552-3.723,2.982,2.982,0,0,0-2.6-2.6,6.979,6.979,0,0,0-5.069,1.344,12.173,12.173,0,0,0-1.452-1.833,3.355,3.355,0,0,0-4.838,4.65,5.906,5.906,0,0,1,1.176,1.821A10.5,10.5,0,0,0,44.571,33.6C41.587,38.7,42.1,46.952,48.65,52.737H45.63a10.224,10.224,0,0,0-7.971-3.661,11.082,11.082,0,0,0-1.5.1,6.782,6.782,0,0,0,.068-.944,3.922,3.922,0,0,0-1.715-3.241,5.513,5.513,0,0,0-.485-8.4,5.481,5.481,0,0,0,2.2-4.39V30.077A11.661,11.661,0,0,0,24.582,18.429H12.59A11.661,11.661,0,0,0,.942,30.077V32.2a5.481,5.481,0,0,0,2.2,4.391,5.513,5.513,0,0,0-.485,8.4A3.922,3.922,0,0,0,.942,48.235,6.692,6.692,0,0,0,2.974,53.04,4.2,4.2,0,0,0,.55,58.213a9.569,9.569,0,0,0,9.142,6.671H24.4l-3.45,8.943H10.28A10.431,10.431,0,0,0,.173,81.666a5.415,5.415,0,0,0,5.246,6.763H69.9a5.415,5.415,0,0,0,5.245-6.763,10.431,10.431,0,0,0-10.107-7.839H54.365l-3.45-8.943H57.3a1.105,1.105,0,1,0,0-2.21H50.062c-2.657-6.887-2.76-7.189-3.017-7.726H70.773a1.984,1.984,0,0,1,1.891,2.591,7.366,7.366,0,0,1-7.037,5.135H61.72a1.105,1.105,0,1,0,0,2.21h3.907a9.569,9.569,0,0,0,9.142-6.671,4.154,4.154,0,0,0-.607-3.753c-1.607-2.2-4.029-1.634-4.558-1.722C76.153,46.952,76.666,38.7,73.682,33.6ZM3.152,30.077a9.448,9.448,0,0,1,9.438-9.438H24.582a9.448,9.448,0,0,1,9.438,9.438V32.2a3.28,3.28,0,0,1-3.276,3.276H6.428A3.28,3.28,0,0,1,3.152,32.2V30.077Zm9.271,14.234H6.465a3.313,3.313,0,0,1,0-6.625H30.707a3.313,3.313,0,0,1,0,6.625H16.844a1.105,1.105,0,0,0,0,2.21H32.307a1.715,1.715,0,0,1,1.713,1.713,4.461,4.461,0,0,1-.283,1.573,10.043,10.043,0,0,0-4.045,2.926c-.171.007,1.259,0-22.037,0a4.508,4.508,0,0,1-4.5-4.5,1.715,1.715,0,0,1,1.713-1.713h7.558a1.105,1.105,0,1,0,0-2.21ZM25.256,62.674H9.691a7.366,7.366,0,0,1-7.037-5.135,1.984,1.984,0,0,1,1.891-2.591H28.274c-.333.692-.313.747-3.017,7.726ZM73,82.216a3.205,3.205,0,0,1-3.1,4H5.419a3.205,3.205,0,0,1-3.1-4,8.222,8.222,0,0,1,7.966-6.179H65.038A8.222,8.222,0,0,1,73,82.216ZM23.322,73.827l3.723-9.65c3.206-8.3,3.09-8.317,4.076-9.69a7.89,7.89,0,0,1,2.836-2.345,8.5,8.5,0,0,1,3.7-.855,8.161,8.161,0,0,1,6.53,3.188c.007.01.012.02.019.029.952,1.275.957,1.626,4.065,9.673L52,73.827H23.322ZM65.406,24.671a.784.784,0,0,1,.674.674,4.785,4.785,0,0,1-.619,3.021A12.319,12.319,0,0,0,62.5,28.5a14.791,14.791,0,0,0-.838-2.691,4.787,4.787,0,0,1,3.746-1.137Zm-9.5.432a1.125,1.125,0,0,1-.134-1.367,1.141,1.141,0,0,1,1.79-.214,11.053,11.053,0,0,1,2.78,5.492q-.6.188-1.218.432c-.376-.149-.746-.28-1.11-.4A8.6,8.6,0,0,0,55.908,25.1Zm-3.33,27.635A7.047,7.047,0,0,1,51,51.813c-6.491-5.029-7.173-12.562-4.52-17.1,2.108-3.6,6.151-5.207,11.218-3.443,1.019.352,1.289.625,1.861.384,4.8-2.026,9.631-1.363,12.218,3.059,2.653,4.535,1.971,12.069-4.52,17.1a7.053,7.053,0,0,1-1.58.924Z" transform="translate(0 -18.429)" fill="#fff"/>
      </g>
    </g>
  </g>
</svg>
