<svg xmlns="http://www.w3.org/2000/svg" width="120" height="120" viewBox="0 0 120 120">
  <g id="Grupo_136144" data-name="Grupo 136144" transform="translate(-579.629 -2528)">
    <circle id="Elipse_5352" data-name="Elipse 5352" cx="60" cy="60" r="60" transform="translate(579.629 2528)" fill="#b13e8d"/>
    <g id="gimnasio" transform="translate(595 2488.734)">
      <path id="Trazado_192807" data-name="Trazado 192807" d="M1.5,95.265H6v2.25a5.216,5.216,0,0,0,7.5,4.724v2.027a6,6,0,0,0,12,0v-9h3v5.015a7.449,7.449,0,0,0,2.2,5.3l3.8,3.8v24.879h3v-25.5a1.5,1.5,0,0,0-.439-1.06l-4.242-4.244A4.528,4.528,0,0,1,31.5,100.28V90.765h8.786a1.8,1.8,0,0,1,1.452.7c.011.015.023.03.033.047a1.325,1.325,0,0,1,.15.329,1.418,1.418,0,0,1,.057.284,1.275,1.275,0,0,1,0,.284,1.246,1.246,0,0,1-.02.15,1.565,1.565,0,0,1-.172.45,1.479,1.479,0,0,1-1.285.754H36a1.5,1.5,0,0,0-1.5,1.5v3a1.5,1.5,0,0,0,1.026,1.423l3.3,1.1c2.679.889,4.674,4.944,4.674,7.974h3c0-4.126-2.568-9.438-6.719-10.821l-2.281-.76v-.419h3a4.471,4.471,0,0,0,3.3-1.5H57v5.5a4.528,4.528,0,0,1-.9,2.7l-3.3,4.4a1.5,1.5,0,0,0-.3.9v25.5h3v-25l3-4a7.542,7.542,0,0,0,1.5-4.5v-5.5h4.5v9a6,6,0,0,0,12,0v-2.027a5.2,5.2,0,0,0,2.25.526A5.25,5.25,0,0,0,84,97.515v-2.25h4.5a1.5,1.5,0,0,0,1.5-1.5v-9a1.5,1.5,0,0,0-1.5-1.5H84v-2.25a5.216,5.216,0,0,0-7.5-4.724V74.265a6,6,0,0,0-12,0v9h-6v-1.5a4.481,4.481,0,0,0-7.5-3.33,4.431,4.431,0,0,0-6,0,4.431,4.431,0,0,0-6,0,4.481,4.481,0,0,0-7.5,3.33v1.5h-6v-9a6,6,0,0,0-12,0v2.027a5.2,5.2,0,0,0-2.25-.526A5.25,5.25,0,0,0,6,81.015v2.25H1.5a1.5,1.5,0,0,0-1.5,1.5v9A1.5,1.5,0,0,0,1.5,95.265Zm85.5-9v6H84v-6Zm-8.25-7.5A2.251,2.251,0,0,1,81,81.015v16.5a2.25,2.25,0,0,1-4.5,0v-16.5A2.251,2.251,0,0,1,78.75,78.765Zm-11.25-4.5a3,3,0,0,1,6,0v30a3,3,0,0,1-6,0Zm-3,12v6H45v-.042a4.541,4.541,0,0,0-.093-.888c-.009-.04-.028-.078-.037-.12-.027-.11-.066-.211-.1-.318a4.221,4.221,0,0,0-.23-.561c-.043-.09-.065-.192-.114-.279l.05-.037c.069-.045.129-.1.195-.15.112-.084.231-.162.336-.256.087.078.188.14.281.21s.185.15.285.213a4.748,4.748,0,0,0,.438.239c.1.05.2.108.3.15a4.18,4.18,0,0,0,.537.166c.095.025.183.062.281.081a4.348,4.348,0,0,0,1.749,0c.1-.02.186-.056.281-.081a4.178,4.178,0,0,0,.537-.166c.107-.043.2-.1.3-.15a4.988,4.988,0,0,0,.439-.239c.1-.066.189-.141.284-.213s.194-.132.281-.21c.087.078.188.14.281.21s.185.15.285.213a4.748,4.748,0,0,0,.438.239c.1.05.2.108.3.15a4.18,4.18,0,0,0,.537.166c.095.025.183.062.281.081a4.489,4.489,0,0,0,5.292-3.5,4.569,4.569,0,0,0,.09-.9h6Zm-10.5-6a1.5,1.5,0,0,1,1.5,1.5v4.5a1.5,1.5,0,1,1-3,0v-4.5A1.5,1.5,0,0,1,54,80.265Zm-6,0a1.5,1.5,0,0,1,1.5,1.5v4.5a1.5,1.5,0,1,1-3,0v-4.5A1.5,1.5,0,0,1,48,80.265Zm-6,0a1.5,1.5,0,0,1,1.5,1.5v4.5a1.5,1.5,0,0,1-3,0v-4.5A1.5,1.5,0,0,1,42,80.265Zm-7.5,1.5a1.5,1.5,0,0,1,3,0v4.5a1.5,1.5,0,1,1-3,0Zm-3,4.5a4.447,4.447,0,0,0,.085.844c.017.088.045.169.066.255.034.133.06.272.1.4H30a1.5,1.5,0,0,0-1.5,1.5v3h-3v-6Zm-15-12a3,3,0,1,1,6,0v30a3,3,0,0,1-6,0v-30ZM9,81.015a2.25,2.25,0,0,1,4.5,0v16.5a2.25,2.25,0,0,1-4.5,0Zm-6,5.25H6v6H3Z" transform="translate(0 0)" fill="#fff"/>
    </g>
  </g>
</svg>
