<svg xmlns="http://www.w3.org/2000/svg" width="120" height="120" viewBox="0 0 120 120">
  <g id="Grupo_136145" data-name="Grupo 136145" transform="translate(-895 -2528)">
    <circle id="Elipse_5353" data-name="Elipse 5353" cx="60" cy="60" r="60" transform="translate(895 2528)" fill="#b13e8d"/>
    <g id="dia" transform="translate(915 2523.385)">
      <path id="Trazado_192814" data-name="Trazado 192814" d="M21.8,160.665a27.926,27.926,0,0,0-12.716.357L4.1,162.359a1.4,1.4,0,0,1-1.713-1.713l1.484-5.537A27.225,27.225,0,0,0,4.38,143.07a27.227,27.227,0,0,1,0-9.754,27.226,27.226,0,0,0-.512-12.038l-1.484-5.537A1.4,1.4,0,0,1,4.1,114.028l4.99,1.337a27.424,27.424,0,0,0,8.86.87,1.166,1.166,0,1,0-.148-2.328,25.1,25.1,0,0,1-8.108-.8L4.7,111.774a3.732,3.732,0,0,0-4.57,4.571l1.484,5.537a24.88,24.88,0,0,1,.474,11,29.559,29.559,0,0,0,0,10.622,24.882,24.882,0,0,1-.474,11L.13,160.042a3.737,3.737,0,0,0,3.588,4.7,3.8,3.8,0,0,0,.983-.13l4.99-1.337a25.582,25.582,0,0,1,11.648-.324,1.166,1.166,0,1,0,.464-2.286Z" transform="translate(0 -70.686)" fill="#fff"/>
      <path id="Trazado_192815" data-name="Trazado 192815" d="M184.571,151.4a24.88,24.88,0,0,1-.474-11,29.559,29.559,0,0,0,0-10.622,24.88,24.88,0,0,1,.474-11l1.484-5.537a3.732,3.732,0,0,0-4.571-4.571l-4.99,1.337a25.624,25.624,0,0,1-13.241-.05,66.517,66.517,0,0,0-17.069-1.992,66.517,66.517,0,0,0-17.069,1.992,1.166,1.166,0,0,0,.6,2.253,64.2,64.2,0,0,1,16.465-1.913,64.212,64.212,0,0,1,16.465,1.913,27.961,27.961,0,0,0,14.448.05l4.99-1.337a1.4,1.4,0,0,1,1.713,1.713l-1.484,5.537a27.226,27.226,0,0,0-.512,12.038,27.237,27.237,0,0,1,0,9.754A27.226,27.226,0,0,0,182.317,152l1.484,5.537a1.4,1.4,0,0,1-1.713,1.713l-4.99-1.337a27.963,27.963,0,0,0-14.448.05c-.8.214-1.623.41-2.47.589a15.726,15.726,0,0,0,1.734-4.806c2.509-.805,4.381-4.013,4.588-6.826a4.971,4.971,0,0,0-1.395-4.116,4.778,4.778,0,0,0-.778-.606v-7.324a13.176,13.176,0,0,0-13.161-13.161H141.3a13.176,13.176,0,0,0-13.161,13.161v7.261a4.8,4.8,0,0,0-.88.67,4.972,4.972,0,0,0-1.4,4.116c.218,2.961,2.237,6.207,4.8,6.888a15.882,15.882,0,0,0,27.578,7.481c1.739-.289,3.422-.649,5-1.072a25.623,25.623,0,0,1,13.241-.05l4.99,1.337a3.792,3.792,0,0,0,.983.13,3.737,3.737,0,0,0,3.588-4.7Zm-38.283,13.008a13.584,13.584,0,0,1-13.442-11.784,1.162,1.162,0,0,0-1.173-1.015c-1.515.022-3.3-2.475-3.477-4.856a2.741,2.741,0,0,1,.7-2.273,3.594,3.594,0,0,1,2.276-.863,2.209,2.209,0,0,1,.317,0,1.166,1.166,0,0,0,1.247-1.164v-4.985a3.686,3.686,0,0,1,3.682-3.682h12.417a1.166,1.166,0,0,0,0-2.333H136.411a6.024,6.024,0,0,0-5.935,5.042v-1.617A10.84,10.84,0,0,1,141.3,124.051h9.864A10.84,10.84,0,0,1,162,134.879V136a6.025,6.025,0,0,0-5.833-4.546h-1.631a1.166,1.166,0,0,0,0,2.333h1.631a3.686,3.686,0,0,1,3.682,3.682v4.977a1.166,1.166,0,0,0,1.166,1.166h.007c.073,0,.132,0,.186.005a3.593,3.593,0,0,1,2.276.863,2.742,2.742,0,0,1,.7,2.273c-.17,2.305-1.868,4.754-3.364,4.852a1.166,1.166,0,0,0-1.08,1.013A13.583,13.583,0,0,1,146.287,164.408Z" transform="translate(-106.185 -67.582)" fill="#fff"/>
      <path id="Trazado_192816" data-name="Trazado 192816" d="M233.643,393.813a4.314,4.314,0,0,1-5.424,0,1.166,1.166,0,1,0-1.527,1.763,6.642,6.642,0,0,0,8.479,0,1.166,1.166,0,1,0-1.527-1.763Z" transform="translate(-190.931 -308.526)" fill="#fff"/>
      <path id="Trazado_192817" data-name="Trazado 192817" d="M282.785,341.2a1.166,1.166,0,0,0-1.461.767,1.327,1.327,0,0,1-2.533,0,1.167,1.167,0,0,0-2.227.694,3.66,3.66,0,0,0,6.987,0A1.166,1.166,0,0,0,282.785,341.2Z" transform="translate(-233.306 -264.333)" fill="#fff"/>
      <path id="Trazado_192818" data-name="Trazado 192818" d="M198.441,342.665a1.167,1.167,0,0,0-2.227-.694,1.327,1.327,0,0,1-2.532,0,1.167,1.167,0,0,0-2.227.694,3.66,3.66,0,0,0,6.987,0Z" transform="translate(-161.495 -264.333)" fill="#fff"/>
      <path id="Trazado_192819" data-name="Trazado 192819" d="M379.343,174.247c0,.958.549,1.272,1.491,1.272h6.986c.738,0,1.334-.377,1.334-1.083s-.6-1.083-1.334-1.083H382.8l5.918-7.033a1.435,1.435,0,0,0,.361-.926,1.055,1.055,0,0,0-1.193-1.177H381.1c-.738,0-1.334.377-1.334,1.083s.6,1.083,1.334,1.083h4.49l-5.824,6.876a1.5,1.5,0,0,0-.424.989Z" transform="translate(-320.071 -115.044)" fill="#fff"/>
      <path id="Trazado_192820" data-name="Trazado 192820" d="M410.837,65.954h5.468a.838.838,0,1,0,0-1.676h-3.528l3.969-4.351a1.127,1.127,0,0,0,.338-.72.843.843,0,0,0-.882-.941h-5.1a.838.838,0,1,0,0,1.676h3.1l-4.042,4.395a1.1,1.1,0,0,0-.279.779A.862.862,0,0,0,410.837,65.954Z" transform="translate(-345.838 -25.648)" fill="#fff"/>
      <path id="Trazado_192821" data-name="Trazado 192821" d="M357.049,33.62h4.092a.627.627,0,1,0,0-1.254H358.5l2.97-3.256a.843.843,0,0,0,.253-.539.63.63,0,0,0-.66-.7h-3.817a.627.627,0,1,0,0,1.254h2.321l-3.025,3.289a.826.826,0,0,0-.209.583.645.645,0,0,0,.715.627Z" transform="translate(-300.657)" fill="#fff"/>
    </g>
  </g>
</svg>
