<svg xmlns="http://www.w3.org/2000/svg" width="120" height="120" viewBox="0 0 120 120">
  <g id="Grupo_136147" data-name="Grupo 136147" transform="translate(-1210 -2528)">
    <g id="Grupo_136146" data-name="Grupo 136146">
      <circle id="Elipse_5354" data-name="Elipse 5354" cx="60" cy="60" r="60" transform="translate(1210 2528)" fill="#b13e8d"/>
      <g id="descanso" transform="translate(1230 2540.081)">
        <g id="Grupo_135125" data-name="Grupo 135125" transform="translate(0)">
          <path id="Trazado_192846" data-name="Trazado 192846" d="M78.75,72.5h-5V71.25h2.5A1.25,1.25,0,0,0,77.5,70V61.25A1.25,1.25,0,0,0,76.25,60h-2.5a1.25,1.25,0,0,0-1.25-1.25H61.25A1.25,1.25,0,0,0,60,60V72.5H57.5V44.106l7.938-12.823a1.237,1.237,0,0,0-.094-1.421l4.446-6.669A1.257,1.257,0,0,0,70,22.5V15a3.755,3.755,0,0,0-3.75-3.75h-15V10A1.25,1.25,0,0,0,50,8.75V8.536a9.722,9.722,0,0,0-2.866-6.92A1.25,1.25,0,0,0,45,2.5V4.375a.625.625,0,0,1-1.25,0V1.25a1.25,1.25,0,0,0-2.5,0A3.755,3.755,0,0,1,37.5,5a8.761,8.761,0,0,0-8.381,6.25H13.75A3.755,3.755,0,0,0,10,15v7.5a1.257,1.257,0,0,0,.21.694l4.446,6.67a1.237,1.237,0,0,0-.063,1.468l5.559,8.125a1.25,1.25,0,0,0,2.063-1.412l-4.974-7.269,5.1-5.1,5.391,7.549a1.252,1.252,0,0,0,.623.46L35,35.9v.349a5,5,0,1,0,10,0V35.9l6.645-2.215a1.25,1.25,0,0,0,.623-.46l5.391-7.549,5.131,5.131-7.6,12.284A1.265,1.265,0,0,0,55,43.75V72.5H26.15l-.312-3.75H37.5a2.5,2.5,0,0,0,2.5-2.5V43.75a2.5,2.5,0,0,0-2.5-2.5H2.5A2.5,2.5,0,0,0,0,43.75v22.5a2.5,2.5,0,0,0,2.5,2.5h8.75a1.25,1.25,0,1,0,0-2.5H2.5V43.75h35v22.5H25.629l-.539-6.458A2.513,2.513,0,0,0,22.6,57.5H17.4a2.515,2.515,0,0,0-2.491,2.292L13.85,72.5H1.25A1.25,1.25,0,0,0,0,73.75v5A1.25,1.25,0,0,0,1.25,80h77.5A1.25,1.25,0,0,0,80,78.75v-5a1.25,1.25,0,0,0-1.25-1.25Zm-5-10H75v6.25H73.75ZM50,22.5a1.252,1.252,0,0,1-1.25,1.25v-2.5A1.252,1.252,0,0,1,50,22.5ZM31.25,13.75A6.257,6.257,0,0,1,37.5,7.5a6.227,6.227,0,0,0,4.156-1.586,3.123,3.123,0,0,0,5.39.081A7.3,7.3,0,0,1,47.5,8.536V10a1.25,1.25,0,0,0,1.25,1.25V17.5a1.25,1.25,0,0,0-1.25-1.25H45.625A.625.625,0,0,1,45,15.625,3.129,3.129,0,0,0,41.875,12.5h-.954A9.933,9.933,0,0,0,41.25,10a1.25,1.25,0,0,0-2.5,0,7.508,7.508,0,0,1-7.5,7.5Zm6.25,5H36.081A10.058,10.058,0,0,0,39.9,15h1.978a.626.626,0,0,1,.625.625,3.129,3.129,0,0,0,3.125,3.125H42.5A1.25,1.25,0,0,0,41.25,20v1.25h-2.5V20A1.25,1.25,0,0,0,37.5,18.75Zm-1.25,2.5v2.5h-2.5v-2.5Zm7.5,0h2.5v2.5h-2.5Zm-12.5,0v2.5a1.25,1.25,0,0,1,0-2.5ZM16.444,28.037,12.5,22.121V15a1.252,1.252,0,0,1,1.25-1.25h15V17.5H19.835l-1.3-1.944a1.25,1.25,0,0,0-2.08,1.387l4.431,6.647ZM35,33.266l-5.469-1.823-6-8.406L21.5,20h6.972a3.734,3.734,0,0,0,2.775,6.25h.1A8.752,8.752,0,0,0,35,32.17ZM42.5,35v1.25a2.5,2.5,0,0,1-5,0V33.381a8.659,8.659,0,0,0,5,0ZM40,31.25a6.261,6.261,0,0,1-6.124-5H37.5A1.25,1.25,0,0,0,38.75,25V23.75h2.5V25a1.25,1.25,0,0,0,1.25,1.25h3.624a6.261,6.261,0,0,1-6.124,5Zm16.474-8.214-6,8.406L45,33.266V32.171a8.748,8.748,0,0,0,3.65-5.92h.1A3.734,3.734,0,0,0,51.525,20H58.5Zm2.635.555,4.431-6.647a1.25,1.25,0,0,0-2.08-1.387L60.165,17.5H51.25V13.75h15A1.252,1.252,0,0,1,67.5,15v7.121l-3.944,5.916ZM62.5,61.25h8.75V72.5H62.5ZM17.4,60h5.2l1.041,12.5H16.359ZM77.5,77.5H2.5V75h75Z" transform="translate(0)" fill="#fff"/>
          <path id="Trazado_192847" data-name="Trazado 192847" d="M51,41.25V45a1.25,1.25,0,0,0,2.5,0V41.25a1.25,1.25,0,0,0-2.5,0Z" transform="translate(12.75 10)" fill="#fff"/>
          <path id="Trazado_192848" data-name="Trazado 192848" d="M53.946,37.037a1.251,1.251,0,0,0-.91,1.516,34.741,34.741,0,0,1,1.213,7.2,1.251,1.251,0,0,0,2.5,0,35.978,35.978,0,0,0-1.287-7.8A1.25,1.25,0,0,0,53.946,37.037Z" transform="translate(13.25 9.25)" fill="#fff"/>
          <path id="Trazado_192849" data-name="Trazado 192849" d="M20.75,44.5a1.25,1.25,0,0,0,0-2.5h-7.5a1.25,1.25,0,0,0,0,2.5Z" transform="translate(3 10.5)" fill="#fff"/>
        </g>
      </g>
    </g>
  </g>
</svg>
