<svg xmlns="http://www.w3.org/2000/svg" width="100" height="100" viewBox="0 0 100 100">
  <g id="Grupo_136150" data-name="Grupo 136150" transform="translate(-180 -5077)">
    <circle id="Elipse_5355" data-name="Elipse 5355" cx="50" cy="50" r="50" transform="translate(180 5077)" fill="#b13e8d"/>
    <g id="lesiones" transform="translate(193.528 5092.525)">
      <g id="Grupo_135222" data-name="Grupo 135222" transform="translate(48.083 2.039)">
        <path id="Trazado_192935" data-name="Trazado 192935" d="M187.272,9.452l-15.12-7.307h0a1.068,1.068,0,0,0-1.421.5l-2.134,4.423a.664.664,0,0,0,.308.886.68.68,0,0,0,.886-.31l2.023-4.186,4.369,2.111-1.894,3.919a1.066,1.066,0,0,0,1.218,1.5l1.938-.484.825,1.819a1.066,1.066,0,0,0,1.93.024l1.894-3.92,4.373,2.113-5.912,12.233L165.9,15.686l1.58-3.272a.662.662,0,0,0-.308-.886.678.678,0,0,0-.886.31l-1.692,3.5a1.068,1.068,0,0,0,.493,1.424l15.123,7.307a1.068,1.068,0,0,0,1.424-.5l6.135-12.7a1.066,1.066,0,0,0-.5-1.424Zm-8.028,1.81-.685-1.511a1.065,1.065,0,0,0-1.229-.594l-1.609.4,1.652-3.419,3.524,1.7Z" transform="translate(-164.485 -2.039)" fill="#fff" stroke="#fff" stroke-width="0.5"/>
      </g>
      <g id="Grupo_135223" data-name="Grupo 135223" transform="translate(50.969 9.079)">
        <path id="Trazado_192936" data-name="Trazado 192936" d="M175.748,29.848a.662.662,0,1,0,.575-1.193.677.677,0,0,0-.886.308A.666.666,0,0,0,175.748,29.848Z" transform="translate(-175.372 -28.592)" fill="#fff" stroke="#fff" stroke-width="0.5"/>
      </g>
      <g id="Grupo_135224" data-name="Grupo 135224" transform="translate(48.462 29.199)">
        <path id="Trazado_192937" data-name="Trazado 192937" d="M188.486,118.515l-4.64-13.32a1.067,1.067,0,0,0-1.36-.655l-15.857,5.525a1.065,1.065,0,0,0-.655,1.357l1.615,4.637a.675.675,0,0,0,.846.405.665.665,0,0,0,.408-.843l-1.532-4.391,4.584-1.6,1.432,4.11a1.066,1.066,0,0,0,1.92.2l1.028-1.712,1.869.7a1.066,1.066,0,0,0,1.381-1.348l-1.432-4.111,4.587-1.6,4.47,12.83-15.37,5.356-1.2-3.431a.672.672,0,0,0-.843-.408.662.662,0,0,0-.408.843l1.281,3.677a1.073,1.073,0,0,0,1.357.655l15.86-5.525a1.066,1.066,0,0,0,.655-1.357Zm-11.949-7.6a1.066,1.066,0,0,0-1.288.449l-.854,1.422-1.25-3.586,3.7-1.287,1.25,3.586Z" transform="translate(-165.914 -104.479)" fill="#fff" stroke="#fff" stroke-width="0.5"/>
      </g>
      <g id="Grupo_135225" data-name="Grupo 135225" transform="translate(50.972 42.403)">
        <path id="Trazado_192938" data-name="Trazado 192938" d="M176.265,155.569a.664.664,0,0,0,.406-.846.676.676,0,0,0-.843-.408.664.664,0,1,0,.437,1.254Z" transform="translate(-175.382 -154.281)" fill="#fff" stroke="#fff" stroke-width="0.5"/>
      </g>
      <g id="Grupo_135226" data-name="Grupo 135226" transform="translate(26.634 31.748)">
        <path id="Trazado_192939" data-name="Trazado 192939" d="M84.043,115.385a.664.664,0,0,0,.414-1.262.674.674,0,0,0-.838.424A.666.666,0,0,0,84.043,115.385Z" transform="translate(-83.585 -114.092)" fill="#fff" stroke="#fff" stroke-width="0.5"/>
      </g>
      <g id="Grupo_135227" data-name="Grupo 135227" transform="translate(6.14 22.231)">
        <path id="Trazado_192940" data-name="Trazado 192940" d="M8.569,100.383l9.688,4.155a3.8,3.8,0,0,0,3.136-.082l8.41-4.136.4,5.348L20.152,118.751a3.758,3.758,0,0,0,5.96,4.579l10.929-14.222a3.8,3.8,0,0,0,.769-2.572l-.483-6.406,5.223-15.964H55.542A2.99,2.99,0,0,0,58.5,80.8a3.043,3.043,0,0,0-3.041-2.6H35.048a6.844,6.844,0,0,0-6.514,4.722l-.893,2.731a.661.661,0,0,0,.424.835.673.673,0,0,0,.835-.424l.893-2.728a5.513,5.513,0,0,1,5.255-3.81H55.465a1.716,1.716,0,0,1,1.723,1.437,1.667,1.667,0,0,1-1.646,1.88H38.612a.663.663,0,0,0,0,1.326h2.543L36.026,99.844A.634.634,0,0,0,36,100.1l.49,6.535a2.447,2.447,0,0,1-.5,1.665L25.063,122.521a2.433,2.433,0,1,1-3.858-2.964l10.2-13.283a.653.653,0,0,0,.135-.453l-.493-6.578A.665.665,0,0,0,30.1,98.7l-9.288,4.568a2.457,2.457,0,0,1-2.031.053L9.089,99.162a2.434,2.434,0,0,1,1.92-4.473l8.378,3.6a.673.673,0,0,0,.554-.013l5.668-2.789a.667.667,0,0,0,.339-.39l1.3-3.99a.665.665,0,0,0-.424-.835.671.671,0,0,0-.835.422,0,0,0,0,0,0,0l-1.217,3.725L19.63,96.946l-8.1-3.473a3.759,3.759,0,0,0-2.962,6.909Z" transform="translate(-6.288 -78.199)" fill="#fff" stroke="#fff" stroke-width="0.5"/>
      </g>
      <g id="Grupo_135228" data-name="Grupo 135228" transform="translate(34.964 10.612)">
        <path id="Trazado_192941" data-name="Trazado 192941" d="M120.232,34.372a5.23,5.23,0,1,0,5.229,5.229A5.235,5.235,0,0,0,120.232,34.372Zm0,9.133a3.9,3.9,0,1,1,3.9-3.9A3.908,3.908,0,0,1,120.232,43.505Z" transform="translate(-115.003 -34.372)" fill="#fff" stroke="#fff" stroke-width="0.5"/>
      </g>
      <g id="Grupo_135229" data-name="Grupo 135229" transform="translate(30.251 57.485)">
        <path id="Trazado_192942" data-name="Trazado 192942" d="M111.507,213.206a.663.663,0,0,0-.883-.314l-1.608.764.142-1.775a.663.663,0,0,0-1.321-.106l-.142,1.775-1.466-1.011a.663.663,0,1,0-.752,1.092l1.466,1.011-9.334,4.437a.663.663,0,1,0,.569,1.2l9.334-4.437-.142,1.775a.663.663,0,1,0,1.321.106l.142-1.775,1.466,1.011a.663.663,0,0,0,.752-1.092l-1.466-1.011,1.608-.764A.662.662,0,0,0,111.507,213.206Z" transform="translate(-97.229 -211.165)" fill="#fff" stroke="#fff" stroke-width="0.5"/>
      </g>
      <g id="Grupo_135230" data-name="Grupo 135230" transform="translate(6.087 2.215)">
        <path id="Trazado_192943" data-name="Trazado 192943" d="M6.292,12.584,8.729,14.9l-.083,3.363a.663.663,0,0,0,.679.679l3.363-.083,2.32,2.437a.683.683,0,0,0,.96,0l2.174-2.284,7.241,3.88a.663.663,0,0,0,.9-.9L22.4,14.758l2.284-2.174a.663.663,0,0,0,0-.96L22.246,9.3l.083-3.363a.663.663,0,0,0-.679-.679l-3.363.083L15.968,2.909a.663.663,0,0,0-.96,0L12.688,5.346,9.325,5.263a.663.663,0,0,0-.679.679L8.729,9.3,6.292,11.624a.663.663,0,0,0,0,.96Zm3.564-2.522a.662.662,0,0,0,.205-.5L9.989,6.605l2.961.073a.636.636,0,0,0,.5-.205l2.042-2.145L17.53,6.472a.64.64,0,0,0,.5.205l2.961-.073-.073,2.961a.662.662,0,0,0,.205.5L23.265,12.1,21.12,14.146a.663.663,0,0,0-.127.793l3.083,5.752-5.752-3.082a.663.663,0,0,0-.793.127l-2.042,2.145-2.042-2.145a.66.66,0,0,0-.5-.205L9.989,17.6l.073-2.961a.662.662,0,0,0-.205-.5L7.711,12.1Z" transform="translate(-6.087 -2.703)" fill="#fff" stroke="#fff" stroke-width="0.5"/>
      </g>
      <g id="Grupo_135231" data-name="Grupo 135231" transform="translate(12.532 13.64)">
        <path id="Trazado_192944" data-name="Trazado 192944" d="M31.061,47.78a.663.663,0,0,0,.663-.663v-.661a.663.663,0,0,0-1.326,0v.661A.663.663,0,0,0,31.061,47.78Z" transform="translate(-30.398 -45.793)" fill="#fff" stroke="#fff" stroke-width="0.5"/>
      </g>
      <g id="Grupo_135232" data-name="Grupo 135232" transform="translate(12.532 7.606)">
        <path id="Trazado_192945" data-name="Trazado 192945" d="M31.061,28.081a.663.663,0,0,0,.663-.663V23.7a.663.663,0,1,0-1.326,0v3.718A.663.663,0,0,0,31.061,28.081Z" transform="translate(-30.398 -23.037)" fill="#fff" stroke="#fff" stroke-width="0.5"/>
      </g>
      <g id="Grupo_135233" data-name="Grupo 135233" transform="translate(14.825 13.64)">
        <path id="Trazado_192946" data-name="Trazado 192946" d="M39.708,47.78a.663.663,0,0,0,.663-.663v-.661a.663.663,0,1,0-1.326,0v.661A.663.663,0,0,0,39.708,47.78Z" transform="translate(-39.045 -45.793)" fill="#fff" stroke="#fff" stroke-width="0.5"/>
      </g>
      <g id="Grupo_135234" data-name="Grupo 135234" transform="translate(14.825 7.606)">
        <path id="Trazado_192947" data-name="Trazado 192947" d="M39.708,28.081a.663.663,0,0,0,.663-.663V23.7a.663.663,0,1,0-1.326,0v3.718A.663.663,0,0,0,39.708,28.081Z" transform="translate(-39.045 -23.037)" fill="#fff" stroke="#fff" stroke-width="0.5"/>
      </g>
      <g id="Grupo_135235" data-name="Grupo 135235" transform="translate(17.117 13.64)">
        <path id="Trazado_192948" data-name="Trazado 192948" d="M48.355,47.78a.663.663,0,0,0,.663-.663v-.661a.663.663,0,1,0-1.326,0v.661A.663.663,0,0,0,48.355,47.78Z" transform="translate(-47.692 -45.793)" fill="#fff" stroke="#fff" stroke-width="0.5"/>
      </g>
      <g id="Grupo_135236" data-name="Grupo 135236" transform="translate(17.117 7.606)">
        <path id="Trazado_192949" data-name="Trazado 192949" d="M48.355,28.081a.663.663,0,0,0,.663-.663V23.7a.663.663,0,1,0-1.326,0v3.718A.663.663,0,0,0,48.355,28.081Z" transform="translate(-47.692 -23.037)" fill="#fff" stroke="#fff" stroke-width="0.5"/>
      </g>
    </g>
  </g>
</svg>
