<svg xmlns="http://www.w3.org/2000/svg" width="100" height="100" viewBox="0 0 100 100">
  <g id="Grupo_136151" data-name="Grupo 136151" transform="translate(-180 -5236)">
    <circle id="Elipse_5359" data-name="Elipse 5359" cx="50" cy="50" r="50" transform="translate(180 5236)" fill="#b13e8d"/>
    <g id="Patient_Accident" data-name="Patient Accident" transform="translate(190.687 5248.019)">
      <path id="Trazado_192950" data-name="Trazado 192950" d="M61.064,85.438c-2.406-13.209-2.3-13.217-3.127-15.1l-.5-1.159A14.777,14.777,0,0,0,43.874,60.28H33.529A14.8,14.8,0,0,0,19.97,69.174c-1.72,3.958-1.319,2.916-3.04,16.286Z" transform="translate(-0.275 -16.341)" fill="#ae4688"/>
      <path id="Trazado_192953" data-name="Trazado 192953" d="M16.655,85.936a.729.729,0,0,1-.729-.86c1.742-13.516,1.356-12.488,3.1-16.49a15.535,15.535,0,0,1,14.23-9.346H43.6a15.535,15.535,0,0,1,14.259,9.346c1.691,3.893,1.327,2.916,3.1,15.659a.762.762,0,1,1-1.509.211c-1.771-12.714-1.392-11.6-2.982-15.265A14.026,14.026,0,0,0,43.6,60.764H33.254a14.019,14.019,0,0,0-12.86,8.427c-1.633,3.725-1.225,2.42-2.96,16.118a.729.729,0,0,1-.78.627Z" transform="translate(0 -16.059)" fill="#fff"/>
      <path id="Trazado_192954" data-name="Trazado 192954" d="M28.851,79.56,27.94,90.685" transform="translate(-3.259 -21.566)" fill="#fff"/>
      <path id="Trazado_192955" data-name="Trazado 192955" d="M27.727,91.148A.729.729,0,0,1,27,90.324l.9-11.117a.729.729,0,0,1,.816-.729.773.773,0,0,1,.729.824l-.991,11.146a.765.765,0,0,1-.729.7Z" transform="translate(-3.002 -21.271)" fill="#fff"/>
      <path id="Trazado_192956" data-name="Trazado 192956" d="M62.8,89.9,61.73,76.75" transform="translate(-12.416 -20.804)" fill="#fff"/>
      <path id="Trazado_192957" data-name="Trazado 192957" d="M62.529,90.375a.729.729,0,0,1-.729-.729L60.728,76.524a.778.778,0,1,1,1.553-.087l1.072,13.122a.729.729,0,0,1-.824.816Z" transform="translate(-12.143 -20.52)" fill="#fff"/>
      <path id="Trazado_192958" data-name="Trazado 192958" d="M25.82,25.96H56.4v8.289H25.82Z" transform="translate(-2.685 -7.04)" fill="#ae4688"/>
      <path id="Trazado_192959" data-name="Trazado 192959" d="M56.131,34.747H25.549a.729.729,0,0,1-.729-.729V25.729A.729.729,0,0,1,25.549,25H56.131a.729.729,0,0,1,.729.729v8.26a.729.729,0,0,1-.729.758ZM26.314,33.23H55.372V26.458H26.314Z" transform="translate(-2.414 -6.78)" fill="#fff"/>
      <path id="Trazado_192960" data-name="Trazado 192960" d="M54.227,38.357h-26.7a2.573,2.573,0,0,1,0-5.147h26.7a2.573,2.573,0,1,1,0,5.147Z" transform="translate(-2.449 -9.005)" fill="#ae4688"/>
      <path id="Trazado_192961" data-name="Trazado 192961" d="M53.945,38.833h-26.7a3.332,3.332,0,0,1,0-6.663h26.7a3.332,3.332,0,1,1,0,6.663Zm-26.7-5.139a1.822,1.822,0,0,0,0,3.645h26.7a1.822,1.822,0,1,0,0-3.645Z" transform="translate(-2.167 -8.723)" fill="#fff"/>
      <path id="Trazado_192962" data-name="Trazado 192962" d="M49.631,57.841l-1.458,1.1a5.1,5.1,0,0,1-6.145,0l-1.458-1.1V51.28h9.061Z" transform="translate(-6.682 -13.902)" fill="#ae4688"/>
      <path id="Trazado_192963" data-name="Trazado 192963" d="M44.83,60.45c-2.274,0-3.426-1.093-4.994-2.267a.729.729,0,0,1-.306-.612V51.009a.729.729,0,0,1,.729-.729H49.35a.729.729,0,0,1,.729.729V57.57a.78.78,0,0,1-.306.612c-1.567,1.21-2.668,2.267-4.943,2.267Zm-3.784-3.259,1.166.875a4.374,4.374,0,0,0,5.234,0l1.174-.875V51.782H41.046Z" transform="translate(-6.4 -13.631)" fill="#fff"/>
      <path id="Trazado_192964" data-name="Trazado 192964" d="M42.358,45.351A11.948,11.948,0,0,1,30.41,33.4V25.281a9.849,9.849,0,0,1,9.842-9.841h4.214A9.842,9.842,0,0,1,54.3,25.282V33.4A11.941,11.941,0,0,1,42.358,45.351Z" transform="translate(-3.929 -4.189)" fill="#ae4688"/>
      <path id="Trazado_192966" data-name="Trazado 192966" d="M42.076,45.827A12.721,12.721,0,0,1,29.37,33.121V25a10.607,10.607,0,0,1,10.6-10.6h4.214A10.614,10.614,0,0,1,54.783,25v8.121A12.721,12.721,0,0,1,42.076,45.827ZM39.97,15.938A9.083,9.083,0,0,0,30.894,25v8.121a11.183,11.183,0,0,0,22.366,0V25a9.083,9.083,0,0,0-9.076-9.076Z" transform="translate(-3.647 -3.907)" fill="#fff"/>
      <path id="Trazado_192967" data-name="Trazado 192967" d="M54.591,35.376H52.178a.758.758,0,0,1,0-1.516h2.413a.758.758,0,1,1,0,1.516Z" transform="translate(-9.622 -9.181)" fill="#fff"/>
      <path id="Trazado_192968" data-name="Trazado 192968" d="M39.961,35.376H37.548a.758.758,0,0,1,0-1.516h2.413a.758.758,0,0,1,0,1.516Z" transform="translate(-5.657 -9.181)" fill="#fff"/>
      <path id="Trazado_192969" data-name="Trazado 192969" d="M43.8,23.17,39.84,27.121a4.308,4.308,0,0,0,3.9,1.188v2.675a4.491,4.491,0,0,0,4.491-4.491V23.17Z" transform="translate(-6.484 -6.284)" fill="#ae4688"/>
      <path id="Trazado_192970" data-name="Trazado 192970" d="M43.477,31.469a.729.729,0,0,1-.729-.729V28.874A4.994,4.994,0,0,1,39.1,27.416a.729.729,0,0,1,0-1.072l3.958-3.958a.729.729,0,0,1,.539-.226h4.432a.729.729,0,0,1,.729.765V26.25a5.256,5.256,0,0,1-5.285,5.22Zm0-4.2a.729.729,0,0,1,.729.729v1.837a3.74,3.74,0,0,0,2.974-3.645V23.654H43.849l-3.142,3.135a3.732,3.732,0,0,0,2.77.481Z" transform="translate(-6.221 -6.01)" fill="#fff"/>
      <path id="Trazado_192971" data-name="Trazado 192971" d="M44.884,30.39a.754.754,0,1,1-.139-1.5,3.565,3.565,0,0,0,1.458-.678.761.761,0,0,1,.933,1.2A4.862,4.862,0,0,1,44.884,30.39Z" transform="translate(-7.628 -7.607)" fill="#fff"/>
      <path id="Trazado_192972" data-name="Trazado 192972" d="M56.4,20.613H25.83a15.309,15.309,0,0,1,30.574,0Z" transform="translate(-2.687 -1.664)" fill="#b13e8d"/>
      <path id="Trazado_192976" data-name="Trazado 192976" d="M56.133,20.767H25.559a.729.729,0,0,1-.729-.729,16.038,16.038,0,0,1,32.076,0,.729.729,0,0,1-.773.729ZM26.339,19.251H55.353a14.529,14.529,0,0,0-29.014,0Z" transform="translate(-2.416 -1.089)" fill="#fff"/>
      <path id="Trazado_192977" data-name="Trazado 192977" d="M47.392,47.9H44.607a.762.762,0,0,1,0-1.524h2.785a.762.762,0,0,1,0,1.524Z" transform="translate(-7.569 -12.574)" fill="#fff"/>
      <path id="Trazado_192978" data-name="Trazado 192978" d="M59.692,14.509l-13.4,4.819L44.66,14.765,56.572,10.5a15.55,15.55,0,0,1,3.12,4.01Z" transform="translate(-7.79 -2.851)" fill="#b13e8d"/>
      <path id="Trazado_192980" data-name="Trazado 192980" d="M46,19.8a.773.773,0,0,1-.729-.5l-1.633-4.549a.729.729,0,0,1,.459-.984L56,9.5a.729.729,0,0,1,.765.153,15.819,15.819,0,0,1,3.3,4.235.729.729,0,0,1-.416,1.064C45.344,20.058,46.2,19.8,46,19.8Zm-.656-4.848,1.123,3.127c26.324-9.419-1.611.59,11.824-4.228A14.288,14.288,0,0,0,56.1,11.106Z" transform="translate(-7.497 -2.567)" fill="#fff"/>
      <path id="Trazado_192981" data-name="Trazado 192981" d="M37.856,4.594,35.976,1a4.374,4.374,0,0,0-1.99,5.416A15.491,15.491,0,0,0,30.53,9.566l.262.94,18.4-4.994a15.222,15.222,0,0,0-11.336-.919Z" transform="translate(-3.961 -0.276)" fill="#b13e8d"/>
      <path id="Trazado_192982" data-name="Trazado 192982" d="M30.464,11.017a.729.729,0,0,1-.729-.561c-.357-1.319-.445-1.225.153-1.939A16.6,16.6,0,0,1,32.8,5.863,5.139,5.139,0,0,1,35.29.082.729.729,0,0,1,36.318.4l1.626,3.018A15.994,15.994,0,0,1,49.236,4.551.729.729,0,0,1,49.1,5.965C29.371,11.345,30.617,11.017,30.464,11.017Zm4.913-9.164A3.645,3.645,0,0,0,34.372,5.9a.729.729,0,0,1-.292.9,14.923,14.923,0,0,0-2.829,2.449L46.546,5.1A14.638,14.638,0,0,0,37.8,5.062a.729.729,0,0,1-.889-.372Z" transform="translate(-3.669 0)" fill="#fff"/>
      <path id="Trazado_192983" data-name="Trazado 192983" d="M50.843,76.723,37.407,59.811a1.312,1.312,0,0,0-1.341-.474l-3.1.729a1.327,1.327,0,0,0-.729,2.092L45.28,79.406Z" transform="translate(-4.35 -16.076)" fill="#ab4a84"/>
      <path id="Trazado_192985" data-name="Trazado 192985" d="M44.987,79.874a.729.729,0,0,1-.605-.306L31.3,62.283a2.092,2.092,0,0,1,1.2-3.3l3.1-.729a2.092,2.092,0,0,1,2.114.729L51.147,75.952a.765.765,0,0,1-.27,1.159C44.819,80.042,45.235,79.874,44.987,79.874ZM36.071,59.732c-.1,0,.095,0-3.229.729a.576.576,0,0,0-.321.9L45.213,78.132l4.148-2L36.523,59.943A.59.59,0,0,0,36.071,59.732Z" transform="translate(-4.057 -15.778)" fill="#fff"/>
      <path id="Trazado_192986" data-name="Trazado 192986" d="M56.805,22.306H45.652L27.31,16.635a14.7,14.7,0,0,1,2.573-4.265l26.827,8.223a15.93,15.93,0,0,1,.095,1.713Z" transform="translate(-3.088 -3.357)" fill="#b13e8d"/>
      <path id="Trazado_192988" data-name="Trazado 192988" d="M56.518,22.748H45.139L26.8,17.076a.729.729,0,0,1-.481-1.006,15.44,15.44,0,0,1,2.7-4.491.729.729,0,0,1,.795-.233l26.871,8.238a.773.773,0,0,1,.532.642,16.185,16.185,0,0,1,.058,1.793.729.729,0,0,1-.758.729ZM45.474,21.232H55.738v-.343L29.859,12.95a13.931,13.931,0,0,0-1.808,2.916Z" transform="translate(-2.801 -3.07)" fill="#fff"/>
      <path id="Trazado_192989" data-name="Trazado 192989" d="M40.82,7.373a.729.729,0,0,1-.671-.4L38.356,3.641A.763.763,0,1,1,39.7,2.912L41.49,6.243a.729.729,0,0,1-.671,1.13Z" transform="translate(-6.057 -0.686)" fill="#fff"/>
      <path id="Trazado_192990" data-name="Trazado 192990" d="M46.108,81H68.2a1.64,1.64,0,0,1,1.64,1.64v4.374a4.155,4.155,0,0,1-4.155,4.155H45v-9A1.137,1.137,0,0,1,46.108,81Z" transform="translate(-7.882 -21.956)" fill="#ab4a84"/>
      <path id="Trazado_192996" data-name="Trazado 192996" d="M65.411,91.664H44.729A.729.729,0,0,1,44,90.935V81.9A1.9,1.9,0,0,1,45.837,80H67.926a2.406,2.406,0,0,1,2.4,2.4v4.374a4.928,4.928,0,0,1-4.913,4.892ZM45.458,90.14H65.411a3.4,3.4,0,0,0,3.375-3.4V82.369a.882.882,0,0,0-.882-.875H45.837a.379.379,0,0,0-.386.379Z" transform="translate(-7.611 -21.685)" fill="#fff"/>
      <path id="Trazado_192997" data-name="Trazado 192997" d="M40.433,85.41h2.559v5.752H39.267a1.677,1.677,0,0,1-1.677-1.677V88.26a2.85,2.85,0,0,1,2.843-2.85Z" transform="translate(-5.874 -23.151)" fill="#ae4688"/>
      <g id="Grupo_135237" data-name="Grupo 135237" transform="translate(30.95 58.308)">
        <path id="Trazado_192998" data-name="Trazado 192998" d="M42.707,91.625H38.982A2.442,2.442,0,0,1,36.54,89.19V87.965a3.645,3.645,0,0,1,3.645-3.645h2.522a.729.729,0,0,1,.729.729v5.817a.729.729,0,0,1-.729.758Zm-2.522-5.752a2.1,2.1,0,0,0-2.092,2.092V89.19a.926.926,0,0,0,.926.919h2.916V85.873Z" transform="translate(-36.54 -81.163)" fill="#fff"/>
        <path id="Trazado_192999" data-name="Trazado 192999" d="M51.532,91.538a.729.729,0,0,1-.729-.984L53.945,80.53a.729.729,0,0,1,.948-.5.765.765,0,0,1,.5.955L52.261,91.006A.729.729,0,0,1,51.532,91.538Z" transform="translate(-40.393 -79.991)" fill="#fff"/>
        <path id="Trazado_193000" data-name="Trazado 193000" d="M58.821,91.539a.729.729,0,0,1-.729-.991l3.222-10.016a.764.764,0,0,1,1.458.459L59.542,91.014a.729.729,0,0,1-.722.525Z" transform="translate(-42.367 -79.992)" fill="#fff"/>
        <path id="Trazado_193001" data-name="Trazado 193001" d="M64.767,92.736a.729.729,0,0,1-.678-.408l-3.04-5.919a.761.761,0,0,1,1.356-.693l3.04,5.927a.729.729,0,0,1-.678,1.093Z" transform="translate(-43.159 -81.429)" fill="#fff"/>
        <path id="Trazado_193002" data-name="Trazado 193002" d="M70.277,91.661a.773.773,0,0,1-.729-.518L66.165,81a.769.769,0,1,1,1.458-.488l3.39,10.148a.729.729,0,0,1-.736,1Z" transform="translate(-44.558 -79.99)" fill="#fff"/>
        <path id="Trazado_193003" data-name="Trazado 193003" d="M51.075,88.82a.773.773,0,0,1-.656-.365l-4.41-7.29a.765.765,0,0,1,.255-1.05.729.729,0,0,1,1.042.262l4.418,7.29a.729.729,0,0,1-.649,1.152Z" transform="translate(-39.076 -79.991)" fill="#fff"/>
      </g>
    </g>
  </g>
</svg>
