<svg id="botiqui-n-de-primeros-auxi-lios" xmlns="http://www.w3.org/2000/svg" width="69.353" height="70" viewBox="0 0 69.353 70">
  <path id="Trazado_193064" data-name="Trazado 193064" d="M67.986,28.582a1.367,1.367,0,0,0,1.367-1.367V23.2a10.441,10.441,0,0,0-10.43-10.43H55.7a1.367,1.367,0,0,0-1.367,1.367v1.234H49.768v-5.1A10.29,10.29,0,0,0,39.491,0H30.033A10.29,10.29,0,0,0,19.755,10.279v5.1H15.019V14.141a1.367,1.367,0,0,0-1.367-1.367H10.43A10.441,10.441,0,0,0,0,23.2v4.011a1.367,1.367,0,0,0,1.367,1.367H2.6V54.192H1.367A1.368,1.368,0,0,0,0,55.56v4.011A10.441,10.441,0,0,0,10.43,70h3.223a1.367,1.367,0,0,0,1.367-1.367V67.262H54.333v1.371A1.367,1.367,0,0,0,55.7,70h3.223a10.441,10.441,0,0,0,10.43-10.43V55.56a1.367,1.367,0,0,0-1.367-1.367H66.924V28.582ZM58.923,15.508a7.706,7.706,0,0,1,7.7,7.695v2.644h-9.55V16.742s0,0,0-.007V15.508ZM22.489,10.279a7.553,7.553,0,0,1,7.544-7.545h9.458a7.553,7.553,0,0,1,7.543,7.545v5.1H44.713v-5.1a5.229,5.229,0,0,0-5.222-5.224H30.033a5.229,5.229,0,0,0-5.223,5.224v5.1H22.489Zm5.055,0A2.492,2.492,0,0,1,30.033,7.79h9.458a2.491,2.491,0,0,1,2.488,2.489v5.1H27.545Zm15.8,7.83H54.333v9.106A1.368,1.368,0,0,0,55.7,28.582h3.056V54.192H55.7a1.367,1.367,0,0,0-1.367,1.367v3.725H15.019V55.56a1.367,1.367,0,0,0-1.367-1.367H10.908V28.582h2.743a1.368,1.368,0,0,0,1.368-1.368V23.342h28.8a1.367,1.367,0,0,0,0-2.734h-28.8v-2.5ZM2.734,23.2a7.7,7.7,0,0,1,7.7-7.7h1.855v1.227s0,0,0,.006v9.106H2.734Zm2.6,5.379h2.84v25.61H5.334Zm5.1,38.683a7.707,7.707,0,0,1-7.7-7.695V56.927h9.55v8.967s0,0,0,.006v1.365Zm4.59-2.738V62.019H54.333v2.508Zm51.6-4.957a7.7,7.7,0,0,1-7.7,7.7H57.068V65.9s0,0,0-.007V56.927h9.55Zm-5.127-5.378V28.582h2.7v25.61Zm0,0" fill="#b13e8d"/>
  <path id="Trazado_193065" data-name="Trazado 193065" d="M179.566,207.77A1.367,1.367,0,0,0,178.2,206.4h-7.824a1.367,1.367,0,0,0-1.367,1.367v6.452h-6.452a1.367,1.367,0,0,0-1.367,1.367v7.824a1.367,1.367,0,0,0,1.367,1.367h6.452v6.452a1.367,1.367,0,0,0,1.367,1.367H178.2a1.367,1.367,0,0,0,1.367-1.367v-6.452h6.452a1.367,1.367,0,0,0,1.367-1.367v-7.824a1.367,1.367,0,0,0-1.367-1.367h-6.452Zm5.085,9.187v5.09H178.2a1.367,1.367,0,0,0-1.367,1.367v6.452h-5.09v-6.452a1.367,1.367,0,0,0-1.367-1.367h-6.452v-5.09h6.452a1.367,1.367,0,0,0,1.367-1.367v-6.452h5.09v6.452a1.368,1.368,0,0,0,1.367,1.367Zm0,0" transform="translate(-139.15 -178.183)" fill="#b13e8d"/>
  <path id="Trazado_193066" data-name="Trazado 193066" d="M352.719,152.639a1.367,1.367,0,1,0,.542-1.684A1.381,1.381,0,0,0,352.719,152.639Zm0,0" transform="translate(-304.408 -130.142)" fill="#b13e8d"/>
</svg>
