<svg xmlns="http://www.w3.org/2000/svg" width="70.012" height="70" viewBox="0 0 70.012 70">
  <g id="contrato" transform="translate(0 -0.039)">
    <path id="Trazado_193127" data-name="Trazado 193127" d="M120.5,114.372H97.167a1.167,1.167,0,0,1,0-2.333H120.5a1.167,1.167,0,0,1,0,2.333Zm0,0" transform="translate(-82 -95.667)" fill="#b13e8d"/>
    <path id="Trazado_193128" data-name="Trazado 193128" d="M154.833,170.372H129.167a1.167,1.167,0,1,1,0-2.333h25.667a1.167,1.167,0,0,1,0,2.333Zm0,0" transform="translate(-109.333 -143.5)" fill="#b13e8d"/>
    <path id="Trazado_193129" data-name="Trazado 193129" d="M80.5,218.372H57.167a1.167,1.167,0,0,1,0-2.333H80.5a1.167,1.167,0,0,1,0,2.333Zm0,0" transform="translate(-47.833 -184.5)" fill="#b13e8d"/>
    <path id="Trazado_193130" data-name="Trazado 193130" d="M257.333,218.372h-8.167a1.167,1.167,0,0,1,0-2.333h8.167a1.167,1.167,0,1,1,0,2.333Zm0,0" transform="translate(-211.833 -184.5)" fill="#b13e8d"/>
    <path id="Trazado_193131" data-name="Trazado 193131" d="M68.833,258.372H57.167a1.167,1.167,0,1,1,0-2.333H68.833a1.167,1.167,0,1,1,0,2.333Zm0,0" transform="translate(-47.833 -218.667)" fill="#b13e8d"/>
    <path id="Trazado_193132" data-name="Trazado 193132" d="M177.333,258.372h-8.167a1.167,1.167,0,1,1,0-2.333h8.167a1.167,1.167,0,1,1,0,2.333Zm0,0" transform="translate(-143.5 -218.667)" fill="#b13e8d"/>
    <path id="Trazado_193136" data-name="Trazado 193136" d="M193.164,347.326a1,1,0,0,1-.373-.058,1.167,1.167,0,0,1-.735-1.47l2.87-8.61a2.333,2.333,0,0,1,4.538.549l.4,4.667.42-.712a2.313,2.313,0,0,1,4.165.292l.747,1.843,3.4-4.316a1.167,1.167,0,0,1,1.831,1.446l-3.407,4.328a2.333,2.333,0,0,1-3.99-.595l-.723-1.831-.432.712a2.333,2.333,0,0,1-4.328-.91l-.4-4.736-2.812,8.563A1.166,1.166,0,0,1,193.164,347.326Zm0,0" transform="translate(-163.997 -286.621)" fill="#b13e8d"/>
    <path id="Trazado_193137" data-name="Trazado 193137" d="M71.776,363.329a2.332,2.332,0,0,1-1.645-.677l-2.473-2.473a1.167,1.167,0,0,1,1.645-1.657L71.776,361l4.129-4.119a1.167,1.167,0,0,1,1.645,1.645l-4.118,4.13A2.334,2.334,0,0,1,71.776,363.329Zm0,0" transform="translate(-57.496 -304.559)" fill="#b13e8d"/>
    <path id="Trazado_193145" data-name="Trazado 193145" d="M388.811,166.885a1.161,1.161,0,0,1-1-1.75l4.667-8.085a1.17,1.17,0,0,0-.432-1.6l-10.1-5.833a1.166,1.166,0,1,1,1.167-2.018l10.1,5.833a3.5,3.5,0,0,1,1.283,4.783l-4.667,8.085A1.168,1.168,0,0,1,388.811,166.885Zm0,0" transform="translate(-325.741 -125.907)" fill="#b13e8d"/>
    <g id="Grupo_135275" data-name="Grupo 135275" transform="translate(0 0.039)">
      <path id="Trazado_193147" data-name="Trazado 193147" d="M233.949,98.612a3.5,3.5,0,0,0-6.417-.84l-.583,1.015a1.167,1.167,0,0,0-1.587.42l-2.963,5.051-1.015-.583a1.166,1.166,0,1,0-1.167,2.018l1.015.583-9.917,17.185-2.45,6.545-1.167,2.181a3.5,3.5,0,0,0,.187,3.78l-2.625,3.22-.735-1.843a2.334,2.334,0,0,0-4.165-.327l-.42.712-.4-4.667a2.333,2.333,0,0,0-4.538-.548l-2.87,8.61a1.167,1.167,0,0,0,.735,1.47,1.01,1.01,0,0,0,.362.093,1.167,1.167,0,0,0,1.109-.793l2.858-8.61.408,4.736a2.333,2.333,0,0,0,4.328,1l.432-.712.723,1.832a2.333,2.333,0,0,0,3.99.595L209.8,137.3a3.593,3.593,0,0,0,.922.117,3.5,3.5,0,0,0,3.045-1.727l1.167-1.948,4.445-5.4,10.021-17.4,1.015.583a1.17,1.17,0,0,1,.432,1.6l-4.667,8.085a1.158,1.158,0,1,0,1.972,1.213l4.667-8.085a3.5,3.5,0,0,0-1.283-4.783l-1.015-.583,2.917-5.052a1.167,1.167,0,0,0-.42-1.587l.583-1.015A3.5,3.5,0,0,0,233.949,98.612Zm-4.4.326a1.166,1.166,0,0,1,.712-.548,1.225,1.225,0,0,1,.886.117,1.168,1.168,0,0,1,.549.712,1.225,1.225,0,0,1-.117.886L231,101.12l-2.03-1.167Zm-15.9,32.574-.583-.338-1.727-1L213,125.737l3.675,2.123Zm-3.5,3.371a1.166,1.166,0,0,1-.35-1.528l.583-1.015,2.03,1.167-.583,1a1.166,1.166,0,0,1-1.68.373ZM218,125.947l-4.037-2.333,9.333-16.17,4.037,2.333Zm10.5-18.189-4.037-2.333,2.333-4.037,4.037,2.333Zm0,0" transform="translate(-164.066 -82.022)" fill="#b13e8d"/>
      <path id="Trazado_193148" data-name="Trazado 193148" d="M75.906,356.877,71.776,361,69.3,358.522a1.167,1.167,0,1,0-1.645,1.657l2.473,2.473a2.352,2.352,0,0,0,3.3,0l4.118-4.13a1.167,1.167,0,0,0-1.645-1.645Zm0,0" transform="translate(-57.496 -304.598)" fill="#b13e8d"/>
      <path id="Trazado_193149" data-name="Trazado 193149" d="M32,321.958a9.917,9.917,0,0,0,19.833,0,1.167,1.167,0,0,0-2.333,0,7.584,7.584,0,1,1-3.033-6.066,1.167,1.167,0,0,0,1.4-1.867A9.917,9.917,0,0,0,32,321.958Zm0,0" transform="translate(-27.333 -266.541)" fill="#b13e8d"/>
      <path id="Trazado_193150" data-name="Trazado 193150" d="M103.5,50.372a1.167,1.167,0,0,0,0-2.333H73.167A1.167,1.167,0,0,0,72,49.206v4.667a1.166,1.166,0,0,0,1.167,1.167H103.5a1.167,1.167,0,0,0,0-2.333H74.333V50.372Zm0,0" transform="translate(-61.5 -41.039)" fill="#b13e8d"/>
      <path id="Trazado_193151" data-name="Trazado 193151" d="M97.167,112.039a1.167,1.167,0,0,0,0,2.333H120.5a1.167,1.167,0,0,0,0-2.333Zm0,0" transform="translate(-82 -95.706)" fill="#b13e8d"/>
      <path id="Trazado_193152" data-name="Trazado 193152" d="M154.833,168.039H129.167a1.167,1.167,0,1,0,0,2.333h25.667a1.167,1.167,0,0,0,0-2.333Zm0,0" transform="translate(-109.333 -143.539)" fill="#b13e8d"/>
      <path id="Trazado_193153" data-name="Trazado 193153" d="M81.667,217.206a1.167,1.167,0,0,0-1.167-1.167H57.167a1.167,1.167,0,0,0,0,2.333H80.5A1.166,1.166,0,0,0,81.667,217.206Zm0,0" transform="translate(-47.833 -184.539)" fill="#b13e8d"/>
      <path id="Trazado_193154" data-name="Trazado 193154" d="M257.333,216.039h-8.167a1.167,1.167,0,0,0,0,2.333h8.167a1.167,1.167,0,1,0,0-2.333Zm0,0" transform="translate(-211.833 -184.539)" fill="#b13e8d"/>
      <path id="Trazado_193155" data-name="Trazado 193155" d="M68.833,258.372a1.167,1.167,0,1,0,0-2.333H57.167a1.167,1.167,0,1,0,0,2.333Zm0,0" transform="translate(-47.833 -218.706)" fill="#b13e8d"/>
      <path id="Trazado_193156" data-name="Trazado 193156" d="M169.167,258.372h8.167a1.167,1.167,0,1,0,0-2.333h-8.167a1.167,1.167,0,1,0,0,2.333Zm0,0" transform="translate(-143.5 -218.706)" fill="#b13e8d"/>
      <path id="Trazado_193157" data-name="Trazado 193157" d="M52.5,53.706a1.167,1.167,0,0,0-1.167,1.167V66.539a1.166,1.166,0,0,1-1.167,1.167H3.5a1.166,1.166,0,0,1-1.167-1.167v-63A1.167,1.167,0,0,1,3.5,2.372H50.167a1.167,1.167,0,0,1,1.167,1.167v21.91a1.167,1.167,0,1,0,2.333,0V3.539a3.5,3.5,0,0,0-3.5-3.5H3.5A3.5,3.5,0,0,0,0,3.539v63a3.5,3.5,0,0,0,3.5,3.5H50.167a3.5,3.5,0,0,0,3.5-3.5V54.872A1.167,1.167,0,0,0,52.5,53.706Zm0,0" transform="translate(0 -0.039)" fill="#b13e8d"/>
    </g>
  </g>
</svg>
