<svg xmlns="http://www.w3.org/2000/svg" xmlns:xlink="http://www.w3.org/1999/xlink" width="108" height="108" viewBox="0 0 108 108">
  <defs>
    <filter id="Rect치ngulo_43489" x="0" y="0" width="108" height="108" filterUnits="userSpaceOnUse">
      <feOffset dy="3" input="SourceAlpha"/>
      <feGaussianBlur stdDeviation="3" result="blur"/>
      <feFlood flood-opacity="0.161"/>
      <feComposite operator="in" in2="blur"/>
      <feComposite in="SourceGraphic"/>
    </filter>
  </defs>
  <g id="Grupo_136143" data-name="Grupo 136143" transform="translate(-536 -4140)">
    <g id="Grupo_136142" data-name="Grupo 136142">
      <g transform="matrix(1, 0, 0, 1, 536, 4140)" filter="url(#Rect치ngulo_43489)">
        <path id="Rect치ngulo_43489-2" data-name="Rect치ngulo 43489" d="M10,0H80A10,10,0,0,1,90,10V90a0,0,0,0,1,0,0H10A10,10,0,0,1,0,80V10A10,10,0,0,1,10,0Z" transform="translate(9 6)" fill="#f6f6f6"/>
      </g>
      <g id="Layer_32" data-name="Layer 32" transform="translate(558 4160)">
        <path id="Trazado_193422" data-name="Trazado 193422" d="M62,6H38a1,1,0,0,0-1,1V27.1a8.569,8.569,0,0,0-1.481.341L31.27,28.855,28.6,26.187a4.738,4.738,0,0,0-.921-1.386A4.922,4.922,0,0,0,29,25a5.018,5.018,0,1,0-3.574-1.514c-.071-.018-.137-.048-.21-.062L18.5,22.079a4.066,4.066,0,0,0-4.244,1.829l-3.545,5.675A4.629,4.629,0,0,0,10,32.046a2.954,2.954,0,0,0,5.412,1.639l3-4.5,1.071.357L15.823,35.4a5.391,5.391,0,0,0-.8,2.467l-2.543,3.179-8.2.745A3.613,3.613,0,0,0,4.613,49a26.148,26.148,0,0,0,2.869-.158l7.628-.848a1,1,0,0,0,.6-.287l4.064-4.065L27.3,44.9l2.159,5.037A3.41,3.41,0,0,0,36,48.59a8.686,8.686,0,0,0-.707-3.444L33.53,41.032a5.236,5.236,0,0,0-4.066-3.118l-4.884-.7,2.412-4.342,1.354,1.083a4.757,4.757,0,0,0,4.643.74L37,33.194V51a1,1,0,0,0,1,1h9v5a1,1,0,0,0,1,1,.986.986,0,0,0,.394-.081l14-6A1,1,0,0,0,63,51V7a1,1,0,0,0-1-1ZM29,17a3,3,0,1,1-3,3A3,3,0,0,1,29,17ZM14.541,46.045l-7.274.808A24.156,24.156,0,0,1,4.613,47a1.613,1.613,0,0,1-.146-3.22L13.09,43a1,1,0,0,0,.691-.371l1.712-2.141a5.373,5.373,0,0,0,2.169,2.44Zm7.563-7.6a1,1,0,0,0,.754.546l6.322.9a3.179,3.179,0,0,1,.986.307,3.242,3.242,0,0,1,1.526,1.617l1.763,4.114A6.72,6.72,0,0,1,34,48.59a1.411,1.411,0,0,1-2.707.556l-2.374-5.54a1,1,0,0,0-.754-.592l-8.316-1.386a3.408,3.408,0,0,1-2.33-5.17l4.329-6.928a1,1,0,0,0-.532-1.478l-3-1a1,1,0,0,0-1.148.393l-3.42,5.13A.954.954,0,0,1,12,32.046a2.639,2.639,0,0,1,.4-1.4l3.546-5.675A2.053,2.053,0,0,1,18.1,24.04l6.722,1.345a2.708,2.708,0,0,1,1.837,3.969l-4.534,8.161a1,1,0,0,0-.025.929Zm10.183-5.62A2.794,2.794,0,0,1,29.6,32.4l-1.619-1.3.431-.775a4.7,4.7,0,0,0,.43-1.072L30.3,30.707a1,1,0,0,0,1.023.241l4.837-1.611A6.528,6.528,0,0,1,38.228,29a.772.772,0,0,1,.271,1.5ZM47.606,12.081A1,1,0,0,0,47,13V50H39V32.444l.2-.076a2.763,2.763,0,0,0-.2-5.245V8H57.128ZM61,50.341,49,55.483V13.659L61,8.517Z" fill="#6836bf"/>
        <path id="Trazado_193423" data-name="Trazado 193423" d="M10,15H23v2H10Z" fill="#6836bf"/>
        <path id="Trazado_193424" data-name="Trazado 193424" d="M1,20H11v2H1Z" fill="#6836bf"/>
        <path id="Trazado_193425" data-name="Trazado 193425" d="M1,36h9v2H1Z" fill="#6836bf"/>
        <path id="Trazado_193426" data-name="Trazado 193426" d="M3,29H8v2H3Z" fill="#6836bf"/>
      </g>
    </g>
  </g>
</svg>
