<svg xmlns="http://www.w3.org/2000/svg" width="71.555" height="70" viewBox="0 0 71.555 70">
  <g id="cuidado-de-la-salud" transform="translate(0 -0.379)">
    <path id="Trazado_192765" data-name="Trazado 192765" d="M9.545,256.2H4.773A4.786,4.786,0,0,1,0,251.424V229.152a4.786,4.786,0,0,1,4.773-4.773H9.545a4.786,4.786,0,0,1,4.773,4.773v22.273A4.786,4.786,0,0,1,9.545,256.2ZM4.773,227.561a1.6,1.6,0,0,0-1.591,1.591v22.273a1.6,1.6,0,0,0,1.591,1.591H9.545a1.6,1.6,0,0,0,1.591-1.591V229.152a1.6,1.6,0,0,0-1.591-1.591Zm0,0" transform="translate(0 -190.591)" fill="#f7ca18"/>
    <path id="Trazado_192766" data-name="Trazado 192766" d="M112.346,333.571a12.553,12.553,0,0,1-4.256-.756s-17.977-6.562-26.488-9.685l1.094-2.983c8.511,3.1,26.489,9.685,26.489,9.685a9.252,9.252,0,0,0,7.636-.6l18.832-10.46c.08-.04.159-.1.239-.139,1.651-1.074,2.406-3.162,1.631-4.574a2.618,2.618,0,0,0-3.4-.915L123.085,317.5l-1.173-2.963,11.037-4.355a5.775,5.775,0,0,1,7.358,2.347c1.551,2.864.358,6.781-2.685,8.75a5.051,5.051,0,0,1-.438.258L118.351,332A12.1,12.1,0,0,1,112.346,333.571Zm0,0" transform="translate(-69.431 -263.192)" fill="#f7ca18"/>
    <path id="Trazado_192767" data-name="Trazado 192767" d="M114.555,273.762h-9.446v-3.182h9.446a22.049,22.049,0,0,0,8.074-1.532,2.5,2.5,0,0,0-.915-4.832h-14.2l-.577-.438a27.289,27.289,0,0,0-15.352-4.335,30.842,30.842,0,0,0-8.313,1.113L82.4,257.5a33.382,33.382,0,0,1,9.188-1.253,30.643,30.643,0,0,1,16.963,4.773h13.145a5.687,5.687,0,0,1,2.088,10.978A24.8,24.8,0,0,1,114.555,273.762Zm0,0" transform="translate(-70.109 -217.702)" fill="#f7ca18"/>
    <path id="Trazado_192768" data-name="Trazado 192768" d="M212.682,39.217l-1.134-1.134s-11.872-11.852-15.81-15.83A12.679,12.679,0,0,1,192,13.225,12.866,12.866,0,0,1,204.847.379a11.739,11.739,0,0,1,7.836,3.3,11.737,11.737,0,0,1,7.835-3.3,12.866,12.866,0,0,1,12.847,12.847,12.724,12.724,0,0,1-3.739,9.048c-3.957,3.958-15.81,15.83-15.81,15.83ZM204.847,3.561a9.675,9.675,0,0,0-9.665,9.665,9.566,9.566,0,0,0,2.8,6.8c3.2,3.222,11.634,11.634,14.7,14.7,3.062-3.043,11.475-11.475,14.7-14.7a9.566,9.566,0,0,0,2.8-6.8,9.675,9.675,0,0,0-9.665-9.665A8.937,8.937,0,0,0,213.935,7l-1.253,1.631L211.429,7A8.937,8.937,0,0,0,204.847,3.561Zm0,0" transform="translate(-163.364)" fill="#f7ca18"/>
  </g>
</svg>
