<svg xmlns="http://www.w3.org/2000/svg" width="101" height="101" viewBox="0 0 101 101">
  <g id="Grupo_136144" data-name="Grupo 136144" transform="translate(-750 -9187)">
    <circle id="Elipse_1146" data-name="Elipse 1146" cx="50.5" cy="50.5" r="50.5" transform="translate(750 9187)" fill="#6836bf"/>
    <g id="Layer_32" data-name="Layer 32" transform="translate(766.725 9209.93)">
      <path id="Trazado_193422" data-name="Trazado 193422" d="M64.509,6H39.522A1.041,1.041,0,0,0,38.48,7.041V27.968a8.921,8.921,0,0,0-1.542.355L32.515,29.8l-2.78-2.778a4.933,4.933,0,0,0-.959-1.443,5.125,5.125,0,0,0,1.375.207,5.224,5.224,0,1,0-3.721-1.576c-.074-.019-.143-.05-.219-.065l-6.992-1.4a4.233,4.233,0,0,0-4.419,1.9L11.11,30.553a4.819,4.819,0,0,0-.74,2.564A3.076,3.076,0,0,0,16,34.824l3.123-4.685,1.115.372-3.811,6.1a5.613,5.613,0,0,0-.828,2.569l-2.648,3.31-8.537.776a3.762,3.762,0,0,0,.341,7.506A27.223,27.223,0,0,0,7.748,50.6l7.941-.883a1.041,1.041,0,0,0,.625-.3l4.231-4.232,7.836,1.31,2.248,5.244a3.55,3.55,0,0,0,6.81-1.4,9.043,9.043,0,0,0-.736-3.586l-1.836-4.283a5.451,5.451,0,0,0-4.233-3.246L25.549,38.5l2.511-4.521,1.41,1.128a4.953,4.953,0,0,0,4.834.77l4.176-1.563V52.852a1.041,1.041,0,0,0,1.041,1.041h9.37V59.1a1.041,1.041,0,0,0,1.041,1.041,1.027,1.027,0,0,0,.41-.084l14.576-6.247a1.041,1.041,0,0,0,.631-.957V7.041A1.041,1.041,0,0,0,64.509,6ZM30.151,17.453a3.123,3.123,0,1,1-3.123,3.123A3.123,3.123,0,0,1,30.151,17.453ZM15.1,47.693l-7.573.841a25.15,25.15,0,0,1-2.763.153,1.679,1.679,0,0,1-.152-3.352l8.978-.812a1.041,1.041,0,0,0,.719-.386l1.782-2.229a5.594,5.594,0,0,0,2.258,2.54Zm7.874-7.913a1.041,1.041,0,0,0,.785.568l6.582.942a3.31,3.31,0,0,1,1.027.32,3.375,3.375,0,0,1,1.589,1.684l1.836,4.283a7,7,0,0,1,.567,2.765,1.469,1.469,0,0,1-2.818.579l-2.472-5.768a1.041,1.041,0,0,0-.785-.616l-8.658-1.443A3.548,3.548,0,0,1,18.2,37.711L22.7,30.5a1.041,1.041,0,0,0-.554-1.539l-3.123-1.041a1.041,1.041,0,0,0-1.2.409l-3.561,5.341a.993.993,0,0,1-1.82-.551,2.748,2.748,0,0,1,.416-1.458l3.692-5.909a2.137,2.137,0,0,1,2.243-.969l7,1.4a2.819,2.819,0,0,1,1.913,4.132l-4.721,8.5a1.041,1.041,0,0,0-.026.967Zm10.6-5.851a2.909,2.909,0,0,1-2.8-.442L29.09,32.133l.449-.807a4.893,4.893,0,0,0,.448-1.116L31.5,31.724a1.041,1.041,0,0,0,1.065.251L37.6,30.3a6.8,6.8,0,0,1,2.157-.351.8.8,0,0,1,.282,1.562Zm15.949-21.6a1.041,1.041,0,0,0-.631.957V51.81H40.563V33.532l.208-.079a2.877,2.877,0,0,0-.208-5.461V8.082H59.437ZM63.468,52.166,50.974,57.519V13.974L63.468,8.621Z" transform="translate(0.001)" fill="#fff"/>
      <path id="Trazado_193423" data-name="Trazado 193423" d="M10,15H23.535v2.082H10Z" transform="translate(0.37 0.37)" fill="#fff"/>
      <path id="Trazado_193424" data-name="Trazado 193424" d="M1,20H11.411v2.082H1Z" transform="translate(0 0.576)" fill="#fff"/>
      <path id="Trazado_193425" data-name="Trazado 193425" d="M1,36h9.37v2.082H1Z" transform="translate(0 1.234)" fill="#fff"/>
      <path id="Trazado_193426" data-name="Trazado 193426" d="M3,29H8.206v2.082H3Z" transform="translate(0.082 0.946)" fill="#fff"/>
    </g>
  </g>
</svg>
