<svg xmlns="http://www.w3.org/2000/svg" width="68.208" height="72.928" viewBox="0 0 68.208 72.928">
  <g id="flujo-de-trabajo" transform="translate(-16.567)">
    <g id="Grupo_135350" data-name="Grupo 135350" transform="translate(16.567 0)">
      <path id="Trazado_193485" data-name="Trazado 193485" d="M83.9,118.1h4.719a1.068,1.068,0,1,0,0-2.137H83.9a1.068,1.068,0,1,0,0,2.137Z" transform="translate(-73.394 -99.45)" fill="#f7ca18"/>
      <path id="Trazado_193486" data-name="Trazado 193486" d="M118.527,215.511l-4.087,2.36a1.068,1.068,0,1,0,1.068,1.85l4.087-2.36a1.068,1.068,0,0,0-1.068-1.85Z" transform="translate(-100.041 -184.691)" fill="#f7ca18"/>
      <path id="Trazado_193487" data-name="Trazado 193487" d="M354.933,217.36l4.087,2.36a1.068,1.068,0,0,0,1.068-1.85L356,215.51a1.068,1.068,0,1,0-1.068,1.85Z" transform="translate(-306.279 -184.691)" fill="#f7ca18"/>
      <path id="Trazado_193488" data-name="Trazado 193488" d="M381.034,117.036A1.068,1.068,0,0,0,382.1,118.1h4.719a1.068,1.068,0,1,0,0-2.137H382.1A1.068,1.068,0,0,0,381.034,117.036Z" transform="translate(-329.121 -99.45)" fill="#f7ca18"/>
      <path id="Trazado_193489" data-name="Trazado 193489" d="M355.468,4.5A1.063,1.063,0,0,0,356,4.354l4.087-2.36A1.068,1.068,0,0,0,359.02.144L354.933,2.5a1.068,1.068,0,0,0,.535,1.994Z" transform="translate(-306.279 -0.001)" fill="#f7ca18"/>
      <path id="Trazado_193490" data-name="Trazado 193490" d="M114.44,1.994l4.087,2.36A1.068,1.068,0,1,0,119.6,2.5L115.508.143a1.068,1.068,0,1,0-1.068,1.85Z" transform="translate(-100.041 0)" fill="#f7ca18"/>
      <path id="Trazado_193491" data-name="Trazado 193491" d="M81.428,58.994H75.336V55.343a1.068,1.068,0,0,0-1.068-1.068H51.739V51.592a5.786,5.786,0,0,0,0-11.374V37.534h1.372a3.351,3.351,0,0,0,3.347-3.347V32.643a3.427,3.427,0,0,0,0-6.513v-1A1.323,1.323,0,0,1,57.129,24a12.916,12.916,0,0,0,6.409-11.128,12.783,12.783,0,0,0-2.359-7.427,1.068,1.068,0,1,0-1.744,1.235A10.658,10.658,0,0,1,61.4,12.869a10.772,10.772,0,0,1-5.346,9.281,3.467,3.467,0,0,0-1.733,2.979v.83H51.739v-7.3h1.291a1.068,1.068,0,1,0,0-2.137H48.311a1.068,1.068,0,1,0,0,2.137H49.6v7.3H47.02v-.847A3.436,3.436,0,0,0,45.3,22.156a10.771,10.771,0,0,1-5.357-9.287A10.732,10.732,0,0,1,56.6,3.926a1.068,1.068,0,1,0,1.183-1.779A12.867,12.867,0,1,0,44.227,24a1.293,1.293,0,0,1,.657,1.107V26.13a3.427,3.427,0,0,0,0,6.513v1.543a3.351,3.351,0,0,0,3.347,3.347H49.6v2.683a5.786,5.786,0,0,0,0,11.374v2.683H27.074a1.068,1.068,0,0,0-1.068,1.068v3.651H19.914a3.351,3.351,0,0,0-3.347,3.347v7.24a3.351,3.351,0,0,0,3.347,3.347h4.8a1.068,1.068,0,1,0,0-2.137h-4.8A1.212,1.212,0,0,1,18.7,69.582v-7.24a1.212,1.212,0,0,1,1.211-1.211h14.32a1.212,1.212,0,0,1,1.211,1.211v7.24a1.212,1.212,0,0,1-1.211,1.211H28.987a1.068,1.068,0,1,0,0,2.137h5.246a3.351,3.351,0,0,0,3.347-3.347v-7.24a3.351,3.351,0,0,0-3.347-3.347H28.142V56.411H49.6v2.583H43.511a3.351,3.351,0,0,0-3.347,3.347v7.24a3.351,3.351,0,0,0,3.347,3.347h14.32a3.351,3.351,0,0,0,3.347-3.347v-7.24a3.351,3.351,0,0,0-3.347-3.347H51.739V56.411H73.2v2.583H67.108a3.351,3.351,0,0,0-3.347,3.347v7.24a3.351,3.351,0,0,0,3.347,3.347h14.32a3.351,3.351,0,0,0,3.347-3.347v-7.24a3.351,3.351,0,0,0-3.347-3.347Zm-35.476-30.9h9.439a1.291,1.291,0,1,1,0,2.583H45.952a1.291,1.291,0,1,1,0-2.583Zm1.068,6.092V32.814h7.3v1.372A1.212,1.212,0,0,1,53.112,35.4H48.231a1.212,1.212,0,0,1-1.211-1.211Zm0,11.718a3.651,3.651,0,1,1,3.651,3.651A3.655,3.655,0,0,1,47.02,45.9ZM59.042,62.342v7.24a1.212,1.212,0,0,1-1.211,1.211H43.511A1.212,1.212,0,0,1,42.3,69.582v-7.24a1.212,1.212,0,0,1,1.211-1.211h14.32A1.212,1.212,0,0,1,59.042,62.342Zm23.6,7.24a1.212,1.212,0,0,1-1.211,1.211H67.108A1.212,1.212,0,0,1,65.9,69.582v-7.24a1.212,1.212,0,0,1,1.211-1.211h14.32a1.212,1.212,0,0,1,1.211,1.211Z" transform="translate(-16.567 -0.002)" fill="#f7ca18"/>
    </g>
  </g>
</svg>
