<svg xmlns="http://www.w3.org/2000/svg" width="120" height="120" viewBox="0 0 120 120">
  <g id="Grupo_136144" data-name="Grupo 136144" transform="translate(-1156 -1421.06)">
    <circle id="Elipse_5391" data-name="Elipse 5391" cx="60" cy="60" r="60" transform="translate(1156 1421.06)" fill="#b13e8d"/>
    <g id="XMLID_1509_" transform="translate(1135.46 1446.791)">
      <g id="XMLID_788_" transform="translate(54 0)">
        <path id="XMLID_791_" d="M105.765,0h-45.2A6.577,6.577,0,0,0,54,6.569V60.7a6.577,6.577,0,0,0,6.569,6.569h45.2a1.314,1.314,0,0,0,1.314-1.314V36.919a1.314,1.314,0,1,0-2.628,0V54.13H60.569a6.535,6.535,0,0,0-3.942,1.317V50.422L74.69,32.36l2.383,2.383a4.025,4.025,0,0,0,.1,2.98h-1.89a1.314,1.314,0,0,0-1.314,1.314v7.358a1.314,1.314,0,0,0,1.314,1.314H97.926a1.314,1.314,0,0,0,1.314-1.314V39.037a1.314,1.314,0,0,0-1.314-1.314H84.889l7.482-7.482h0a4,4,0,0,0-4.195-6.6L76.994,12.463a4,4,0,0,0-6.6-4.195l-8.7,8.7a4.007,4.007,0,0,0,4.2,6.6l2.383,2.383L56.628,37.6V6.569a3.946,3.946,0,0,1,3.942-3.942h43.882V25.094a1.314,1.314,0,1,0,2.628,0V1.314A1.314,1.314,0,0,0,105.765,0ZM96.612,45.08H76.6v-4.73H96.612ZM60.569,56.758h43.882v7.883H60.569a3.942,3.942,0,1,1,0-7.883ZM90.513,26.435a1.379,1.379,0,0,1,0,1.948l-8.7,8.7a1.377,1.377,0,1,1-1.948-1.948l8.7-8.7a1.379,1.379,0,0,1,1.948,0ZM63.557,20.772a1.377,1.377,0,0,1,0-1.948l8.7-8.7A1.377,1.377,0,0,1,74.2,12.072l-8.7,8.7a1.377,1.377,0,0,1-1.948,0ZM75.4,14.589,86.05,25.235l-7.384,7.384L68.019,21.973ZM72.832,30.5l-2.241,2.241-2.7-2.7,2.241-2.241Zm-6.794,1.4,2.7,2.7L56.628,46.706v-5.39Z" transform="translate(-54 0)" fill="#fff"/>
        <path id="XMLID_911_" d="M314.948,58H303.4a1.314,1.314,0,1,0,0,2.628h11.551a1.314,1.314,0,1,0,0-2.628Z" transform="translate(-269.489 -50.38)" fill="#fff"/>
        <path id="XMLID_912_" d="M353.131,102h-5.775a1.314,1.314,0,1,0,0,2.628h5.775a1.314,1.314,0,1,0,0-2.628Z" transform="translate(-307.672 -88.599)" fill="#fff"/>
        <path id="XMLID_913_" d="M439.314,226a1.315,1.315,0,1,0,.929.385A1.323,1.323,0,0,0,439.314,226Z" transform="translate(-387.549 -196.307)" fill="#fff"/>
      </g>
    </g>
  </g>
</svg>
