<svg xmlns="http://www.w3.org/2000/svg" xmlns:xlink="http://www.w3.org/1999/xlink" width="108" height="108" viewBox="0 0 108 108">
  <defs>
    <filter id="Rect치ngulo_43493" x="0" y="0" width="108" height="108" filterUnits="userSpaceOnUse">
      <feOffset dy="3" input="SourceAlpha"/>
      <feGaussianBlur stdDeviation="3" result="blur"/>
      <feFlood flood-opacity="0.161"/>
      <feComposite operator="in" in2="blur"/>
      <feComposite in="SourceGraphic"/>
    </filter>
  </defs>
  <g id="Grupo_136143" data-name="Grupo 136143" transform="translate(-537 -2893)">
    <g transform="matrix(1, 0, 0, 1, 537, 2893)" filter="url(#Rect치ngulo_43493)">
      <path id="Rect치ngulo_43493-2" data-name="Rect치ngulo 43493" d="M10,0H80A10,10,0,0,1,90,10V90a0,0,0,0,1,0,0H10A10,10,0,0,1,0,80V10A10,10,0,0,1,10,0Z" transform="translate(9 6)" fill="#f6f6f6"/>
    </g>
    <g id="correo-electronico" transform="translate(561.535 2912.535)">
      <path id="Trazado_193539" data-name="Trazado 193539" d="M188.337,56.337a1.15,1.15,0,1,0,.814-.337A1.16,1.16,0,0,0,188.337,56.337Z" transform="translate(-166.362 -49.555)" fill="#6836bf"/>
      <path id="Trazado_193540" data-name="Trazado 193540" d="M112.026,58.3h4.624a1.151,1.151,0,0,0,0-2.3h-4.624a1.151,1.151,0,1,0,0,2.3Z" transform="translate(-98.114 -49.555)" fill="#6836bf"/>
      <path id="Trazado_193541" data-name="Trazado 193541" d="M112.026,114.3h5.547a1.151,1.151,0,0,0,0-2.3h-5.547a1.151,1.151,0,0,0,0,2.3Z" transform="translate(-98.114 -99.109)" fill="#6836bf"/>
      <path id="Trazado_193542" data-name="Trazado 193542" d="M58.485,23.954h0l-7.6-5.916-.017-.012V16.8a1.151,1.151,0,0,0-2.3,0V32.419c0,.007,0,.014,0,.021l-9.524,9.524-1.1-1a12.584,12.584,0,0,0-6.074-3.046l2.988-2.988a1.151,1.151,0,0,0,0-1.628l-3.866-3.866,16.848-7.183a1.151,1.151,0,0,0,.362-1.873l-5.5-5.5A4.894,4.894,0,0,0,35.977,8.15l-5.5-5.5a1.151,1.151,0,0,0-1.873.363L20.846,21.229,16.671,25.4a6.211,6.211,0,1,0,8.784,8.784l.439-.439,3.943,3.943c-.124,0-.247-.006-.372-.006a12.587,12.587,0,0,0-8.481,3.277l-1.1,1L10.357,32.44c0-.007,0-.014,0-.021V2.3H23.248a1.151,1.151,0,0,0,0-2.3H9.208A1.151,1.151,0,0,0,8.057,1.151V17.842l-.03.022-7.6,6.1h0a1.148,1.148,0,0,0-.431.9v28.2a5.877,5.877,0,0,0,5.87,5.87H53.06a5.877,5.877,0,0,0,5.87-5.87v-28.2A1.148,1.148,0,0,0,58.485,23.954ZM28.04,10.21,40.646,22.816,29.239,27.679l-6.058-6.058Zm10.486-.472a2.587,2.587,0,0,1,2.454,3.416L37.7,9.874A2.591,2.591,0,0,1,38.526,9.737ZM30.053,5.482l5.012,5.012v0h0l5.289,5.289h0L45.372,20.8l-2.444,1.042L29.012,7.926ZM21.063,33.7A3.909,3.909,0,0,1,18.3,27.031l3.519-3.519,5.528,5.529L23.827,32.56A3.883,3.883,0,0,1,21.063,33.7Zm7.91-3.035,3.445,3.445-1.452,1.451-3.445-3.445Zm21.9-9.727,5.171,4.027-5.171,5.171ZM22.532,42.666a10.271,10.271,0,0,1,13.866,0L51.767,56.628H7.162l3.8-3.453h8.448a1.151,1.151,0,0,0,0-2.3H13.5ZM8.057,20.791v9.348L2.872,24.955ZM2.3,53.06V27.64L18.176,43.513,4.3,56.121a1.177,1.177,0,0,0-.091.093A3.571,3.571,0,0,1,2.3,53.06Zm52.422,3.155a1.157,1.157,0,0,0-.091-.093L40.754,43.513,56.628,27.64V53.06A3.571,3.571,0,0,1,54.724,56.214Z" fill="#6836bf"/>
      <path id="Trazado_193543" data-name="Trazado 193543" d="M383.151,7.347a1.148,1.148,0,0,0,.814-.337l4.649-4.649A1.151,1.151,0,0,0,386.987.733l-4.649,4.649a1.151,1.151,0,0,0,.814,1.965Z" transform="translate(-338.033 -0.35)" fill="#6836bf"/>
      <path id="Trazado_193544" data-name="Trazado 193544" d="M345.563,4.614a1.151,1.151,0,0,0,1.151-1.151V1.151a1.151,1.151,0,0,0-2.3,0V3.463A1.151,1.151,0,0,0,345.563,4.614Z" transform="translate(-304.771)" fill="#6836bf"/>
      <path id="Trazado_193545" data-name="Trazado 193545" d="M405.469,77.521H403.08a1.151,1.151,0,1,0,0,2.3h2.389a1.151,1.151,0,0,0,0-2.3Z" transform="translate(-355.668 -68.599)" fill="#6836bf"/>
      <path id="Trazado_193546" data-name="Trazado 193546" d="M200.811,444.3a1.15,1.15,0,1,0-.815-.337A1.161,1.161,0,0,0,200.811,444.3Z" transform="translate(-176.68 -391.127)" fill="#6836bf"/>
    </g>
  </g>
</svg>
