<svg xmlns="http://www.w3.org/2000/svg" xmlns:xlink="http://www.w3.org/1999/xlink" width="108" height="108" viewBox="0 0 108 108">
  <defs>
    <filter id="Rect치ngulo_43498" x="0" y="0" width="108" height="108" filterUnits="userSpaceOnUse">
      <feOffset dy="3" input="SourceAlpha"/>
      <feGaussianBlur stdDeviation="3" result="blur"/>
      <feFlood flood-opacity="0.161"/>
      <feComposite operator="in" in2="blur"/>
      <feComposite in="SourceGraphic"/>
    </filter>
  </defs>
  <g id="Grupo_136148" data-name="Grupo 136148" transform="translate(-970 -3604)">
    <g transform="matrix(1, 0, 0, 1, 970, 3604)" filter="url(#Rect치ngulo_43498)">
      <path id="Rect치ngulo_43498-2" data-name="Rect치ngulo 43498" d="M10,0H80A10,10,0,0,1,90,10V90a0,0,0,0,1,0,0H10A10,10,0,0,1,0,80V10A10,10,0,0,1,10,0Z" transform="translate(9 6)" fill="#f6f6f6"/>
    </g>
    <g id="multitud" transform="translate(992.112 3622)">
      <path id="Trazado_193616" data-name="Trazado 193616" d="M32,12A20,20,0,1,0,52,32,20,20,0,0,0,32,12Zm0,38A18,18,0,1,1,50,32,18,18,0,0,1,32,50Z" fill="#6836bf"/>
      <path id="Trazado_193617" data-name="Trazado 193617" d="M11.766,42.943a22.81,22.81,0,0,1-1.527-3.477l-1.892.648a24.976,24.976,0,0,0,1.66,3.782Z" fill="#6836bf"/>
      <path id="Trazado_193618" data-name="Trazado 193618" d="M10.271,24.441l-1.889-.656a25,25,0,0,0-1.028,4l1.973.334A22.865,22.865,0,0,1,10.271,24.441Z" fill="#6836bf"/>
      <path id="Trazado_193619" data-name="Trazado 193619" d="M7,32a25.133,25.133,0,0,0,.337,4.111l1.973-.326A23.169,23.169,0,0,1,9,32v-.1H7Z" fill="#6836bf"/>
      <path id="Trazado_193620" data-name="Trazado 193620" d="M22.832,10.9a22.747,22.747,0,0,1,3.6-1.22l-.483-1.942a24.913,24.913,0,0,0-3.911,1.328Z" fill="#6836bf"/>
      <path id="Trazado_193621" data-name="Trazado 193621" d="M47.621,15.119l1.358-1.469a25.173,25.173,0,0,0-3.248-2.545l-1.1,1.67a23.207,23.207,0,0,1,2.99,2.344Z" fill="#6836bf"/>
      <path id="Trazado_193622" data-name="Trazado 193622" d="M30.173,9.071a23.973,23.973,0,0,1,3.8.012l.17-1.992a25.569,25.569,0,0,0-4.124-.014Z" fill="#6836bf"/>
      <path id="Trazado_193623" data-name="Trazado 193623" d="M50.128,46.155a23.211,23.211,0,0,1-2.576,2.79L48.9,50.418a25.318,25.318,0,0,0,2.8-3.03Z" fill="#6836bf"/>
      <path id="Trazado_193624" data-name="Trazado 193624" d="M41.3,10.958l.81-1.828a24.759,24.759,0,0,0-3.9-1.352l-.494,1.938A22.789,22.789,0,0,1,41.3,10.958Z" fill="#6836bf"/>
      <path id="Trazado_193625" data-name="Trazado 193625" d="M13.9,17.807l-1.572-1.235a24.971,24.971,0,0,0-2.272,3.445l1.754.959a23.161,23.161,0,0,1,2.09-3.169Z" fill="#6836bf"/>
      <path id="Trazado_193626" data-name="Trazado 193626" d="M16.482,15.023a23.218,23.218,0,0,1,3-2.324L18.4,11.021a25.33,25.33,0,0,0-3.264,2.526Z" fill="#6836bf"/>
      <path id="Trazado_193627" data-name="Trazado 193627" d="M33.875,54.925l.16,1.994a24.933,24.933,0,0,0,4.073-.671l-.488-1.939a22.983,22.983,0,0,1-3.745.616Z" fill="#6836bf"/>
      <path id="Trazado_193628" data-name="Trazado 193628" d="M57,32.054H55a23.148,23.148,0,0,1-.318,3.783l1.972.332A25.157,25.157,0,0,0,57,32.054Z" fill="#6836bf"/>
      <path id="Trazado_193629" data-name="Trazado 193629" d="M25.841,56.235a25.153,25.153,0,0,0,4.069.678l.166-1.992a23.218,23.218,0,0,1-3.745-.625Z" fill="#6836bf"/>
      <path id="Trazado_193630" data-name="Trazado 193630" d="M56.672,27.94a25.147,25.147,0,0,0-1-4l-1.9.644a22.741,22.741,0,0,1,.92,3.682Z" fill="#6836bf"/>
      <path id="Trazado_193631" data-name="Trazado 193631" d="M55.636,40.164l-1.891-.652a23.053,23.053,0,0,1-1.531,3.469l1.756.957a25.028,25.028,0,0,0,1.666-3.774Z" fill="#6836bf"/>
      <path id="Trazado_193632" data-name="Trazado 193632" d="M18.312,52.922a24.9,24.9,0,0,0,3.626,1.97l.8-1.83A23.186,23.186,0,0,1,19.4,51.25Z" fill="#6836bf"/>
      <path id="Trazado_193633" data-name="Trazado 193633" d="M12.266,47.349a25.177,25.177,0,0,0,2.793,3.036l1.355-1.471a23.14,23.14,0,0,1-2.57-2.794Z" fill="#6836bf"/>
      <path id="Trazado_193634" data-name="Trazado 193634" d="M54.019,20.151a25.082,25.082,0,0,0-2.252-3.46l-1.58,1.227A23.125,23.125,0,0,1,52.259,21.1Z" fill="#6836bf"/>
      <path id="Trazado_193635" data-name="Trazado 193635" d="M41.213,53.081l.8,1.832a25.147,25.147,0,0,0,3.63-1.963l-1.091-1.676a23.054,23.054,0,0,1-3.339,1.807Z" fill="#6836bf"/>
      <path id="Trazado_193636" data-name="Trazado 193636" d="M32,25a4,4,0,1,0-4-4A4,4,0,0,0,32,25Zm0-6a2,2,0,1,1-2,2A2,2,0,0,1,32,19Z" fill="#6836bf"/>
      <path id="Trazado_193637" data-name="Trazado 193637" d="M39.551,32.056a4,4,0,1,0-5.1,0A3.967,3.967,0,0,0,32,33.382a3.967,3.967,0,0,0-2.449-1.326,4,4,0,1,0-5.1,0A3.992,3.992,0,0,0,21,36v6a1,1,0,0,0,1,1H42a1,1,0,0,0,1-1V36a3.992,3.992,0,0,0-3.449-3.944ZM27,27a2,2,0,1,1-2,2A2,2,0,0,1,27,27Zm4,14H23V36a2,2,0,0,1,2-2h4a2,2,0,0,1,2,2Zm6-14a2,2,0,1,1-2,2A2,2,0,0,1,37,27Zm4,14H33V36a2,2,0,0,1,2-2h4a2,2,0,0,1,2,2Z" fill="#6836bf"/>
      <path id="Trazado_193638" data-name="Trazado 193638" d="M5.657,9.449,5.31,11.418l6.01,1.061a1.031,1.031,0,0,0,.174.015,1,1,0,0,0,.985-1.174L11.418,5.31l-1.969.347.509,2.887L2.3.888.888,2.3,8.544,9.958Z" fill="#6836bf"/>
      <path id="Trazado_193639" data-name="Trazado 193639" d="M58.343,54.551l.347-1.969-6.01-1.061a1,1,0,0,0-1.159,1.159l1.061,6.01,1.969-.347-.509-2.887L61.7,63.112,63.112,61.7l-7.656-7.656Z" fill="#6836bf"/>
      <path id="Trazado_193640" data-name="Trazado 193640" d="M61.7.888,54.042,8.544l.509-2.887L52.582,5.31l-1.061,6.01a1,1,0,0,0,.985,1.174,1.031,1.031,0,0,0,.174-.015l6.01-1.061-.347-1.969-2.887.509L63.112,2.3Z" fill="#6836bf"/>
      <path id="Trazado_193641" data-name="Trazado 193641" d="M11.32,51.521,5.31,52.582l.347,1.969,2.887-.509L.888,61.7,2.3,63.112l7.656-7.656-.509,2.887,1.969.347,1.061-6.01a1,1,0,0,0-.277-.88.99.99,0,0,0-.88-.279Z" fill="#6836bf"/>
    </g>
  </g>
</svg>
