<svg xmlns="http://www.w3.org/2000/svg" width="66.307" height="76.508" viewBox="0 0 66.307 76.508">
  <g id="gdpr" transform="translate(-0.5)">
    <g id="Grupo_135315" data-name="Grupo 135315" transform="translate(15.802 40.804)">
      <path id="Trazado_193172" data-name="Trazado 193172" d="M280.5,256h10.2v2.55H280.5Zm0,0" transform="translate(-251.172 -256)" fill="#f7ca18"/>
      <path id="Trazado_193173" data-name="Trazado 193173" d="M96.5,256h26.778v2.55H96.5Zm0,0" transform="translate(-96.5 -256)" fill="#f7ca18"/>
      <path id="Trazado_193174" data-name="Trazado 193174" d="M184.5,288H210v2.55H184.5Zm0,0" transform="translate(-170.474 -282.899)" fill="#f7ca18"/>
      <path id="Trazado_193175" data-name="Trazado 193175" d="M96.5,288h11.476v2.55H96.5Zm0,0" transform="translate(-96.5 -282.899)" fill="#f7ca18"/>
      <path id="Trazado_193176" data-name="Trazado 193176" d="M240.5,352h16.577v2.55H240.5Zm0,0" transform="translate(-217.548 -336.698)" fill="#f7ca18"/>
      <path id="Trazado_193177" data-name="Trazado 193177" d="M96.5,352h20.4v2.55H96.5Zm0,0" transform="translate(-96.5 -336.698)" fill="#f7ca18"/>
    </g>
    <path id="Trazado_193179" data-name="Trazado 193179" d="M205.9,86.049l-1.4-2.167a7.257,7.257,0,0,0,3.188-5.483l2.55.255A9.98,9.98,0,0,1,205.9,86.049Zm0,0" transform="translate(-171.484 -65.902)" fill="#f7ca18"/>
    <path id="Trazado_193180" data-name="Trazado 193180" d="M144.5,320h31.878v2.55H144.5Zm0,0" transform="translate(-121.048 -268.995)" fill="#f7ca18"/>
    <path id="Trazado_193181" data-name="Trazado 193181" d="M96.5,320h5.1v2.55H96.5Zm0,0" transform="translate(-80.698 -268.995)" fill="#f7ca18"/>
    <path id="Trazado_193182" data-name="Trazado 193182" d="M184.5,224H210v2.55H184.5Zm0,0" transform="translate(-154.672 -188.296)" fill="#f7ca18"/>
    <path id="Trazado_193183" data-name="Trazado 193183" d="M96.5,224h11.476v2.55H96.5Zm0,0" transform="translate(-80.698 -188.296)" fill="#f7ca18"/>
    <path id="Trazado_193184" data-name="Trazado 193184" d="M160.5,184h17.852v2.55H160.5Zm0,0" transform="translate(-134.497 -154.672)" fill="#f7ca18"/>
    <path id="Trazado_193186" data-name="Trazado 193186" d="M60.431,6.376A6.314,6.314,0,0,0,54.055,0H6.876A6.314,6.314,0,0,0,.5,6.376v10.2H10.7V70.132a6.314,6.314,0,0,0,6.376,6.376H60.431a6.314,6.314,0,0,0,6.376-6.376V63.757H60.431ZM10.7,14.026H3.05V6.376A3.757,3.757,0,0,1,6.876,2.55,3.757,3.757,0,0,1,10.7,6.376Zm2.55,56.106V6.376A6.87,6.87,0,0,0,11.976,2.55H54.055a3.757,3.757,0,0,1,3.825,3.825V63.757H20.9v6.376a3.825,3.825,0,1,1-7.651,0Zm51.005-3.825v3.825a3.757,3.757,0,0,1-3.825,3.825H22.177a6.016,6.016,0,0,0,1.275-3.825V66.307Zm0,0" transform="translate(0)" fill="#f7ca18"/>
    <path id="Trazado_193187" data-name="Trazado 193187" d="M280.5,256h10.2v2.55H280.5Zm0,0" transform="translate(-235.37 -215.196)" fill="#f7ca18"/>
    <path id="Trazado_193188" data-name="Trazado 193188" d="M96.5,256h26.778v2.55H96.5Zm0,0" transform="translate(-80.698 -215.196)" fill="#f7ca18"/>
    <path id="Trazado_193189" data-name="Trazado 193189" d="M184.5,288H210v2.55H184.5Zm0,0" transform="translate(-154.672 -242.095)" fill="#f7ca18"/>
    <path id="Trazado_193190" data-name="Trazado 193190" d="M96.5,288h11.476v2.55H96.5Zm0,0" transform="translate(-80.698 -242.095)" fill="#f7ca18"/>
    <path id="Trazado_193191" data-name="Trazado 193191" d="M240.5,352h16.577v2.55H240.5Zm0,0" transform="translate(-201.746 -295.894)" fill="#f7ca18"/>
    <path id="Trazado_193192" data-name="Trazado 193192" d="M96.5,352h20.4v2.55H96.5Zm0,0" transform="translate(-80.698 -295.894)" fill="#f7ca18"/>
    <path id="Trazado_193193" data-name="Trazado 193193" d="M167.9,52.912l1.53,1.02,1.53-1.02a16.666,16.666,0,0,0,7.4-13.771V34.933L169.426,32,160.5,34.933v4.208A16.666,16.666,0,0,0,167.9,52.912ZM163.05,36.718l6.376-2.168,6.376,2.168v2.423a14.072,14.072,0,0,1-6.248,11.731h-.128l-.128-.127a13.908,13.908,0,0,1-6.248-11.731Zm0,0" transform="translate(-134.497 -26.899)" fill="#f7ca18"/>
    <path id="Trazado_193194" data-name="Trazado 193194" d="M210.238,79.454l-2.55-.255a7.9,7.9,0,0,1-3.188,5.483l1.4,2.167A10.457,10.457,0,0,0,210.238,79.454Zm0,0" transform="translate(-171.484 -66.576)" fill="#f7ca18"/>
    <path id="Trazado_193195" data-name="Trazado 193195" d="M144.5,320h31.878v2.55H144.5Zm0,0" transform="translate(-121.048 -268.995)" fill="#f7ca18"/>
    <path id="Trazado_193196" data-name="Trazado 193196" d="M96.5,320h5.1v2.55H96.5Zm0,0" transform="translate(-80.698 -268.995)" fill="#f7ca18"/>
    <path id="Trazado_193197" data-name="Trazado 193197" d="M184.5,224H210v2.55H184.5Zm0,0" transform="translate(-154.672 -188.296)" fill="#f7ca18"/>
    <path id="Trazado_193198" data-name="Trazado 193198" d="M96.5,224h11.476v2.55H96.5Zm0,0" transform="translate(-80.698 -188.296)" fill="#f7ca18"/>
    <path id="Trazado_193199" data-name="Trazado 193199" d="M160.5,184h17.852v2.55H160.5Zm0,0" transform="translate(-134.497 -154.672)" fill="#f7ca18"/>
  </g>
</svg>
