<svg xmlns="http://www.w3.org/2000/svg" xmlns:xlink="http://www.w3.org/1999/xlink" width="94" height="94" viewBox="0 0 94 94">
  <defs>
    <clipPath id="clip-path">
      <path id="path606" d="M0-682.665H62v62H0Z" transform="translate(0 682.665)" fill="#fff"/>
    </clipPath>
  </defs>
  <g id="c3" transform="translate(-911 -2543)">
    <circle id="Ellipse_5355" data-name="Ellipse 5355" cx="47" cy="47" r="47" transform="translate(911 2543)" fill="#b13e8d"/>
    <g id="g600" transform="translate(927 2559)">
      <g id="g602" transform="translate(0 0)">
        <g id="g604" clip-path="url(#clip-path)">
          <g id="g610" transform="translate(-0.143 11.916)">
            <path id="path612" d="M-150.324,11.966a2.873,2.873,0,0,1-2.041-.854,2.876,2.876,0,0,1-.752-2.806l1.155-4.311a19.37,19.37,0,0,0,.369-8.564,22.275,22.275,0,0,1-.375-4.135,22.275,22.275,0,0,1,.375-4.135,19.372,19.372,0,0,0-.369-8.564l-1.155-4.311a2.876,2.876,0,0,1,.752-2.807,2.876,2.876,0,0,1,2.807-.752l3.885,1.041a19.54,19.54,0,0,0,6.313.619.908.908,0,0,1,.964.849.908.908,0,0,1-.849.964,21.353,21.353,0,0,1-6.9-.677l-3.885-1.041a1.07,1.07,0,0,0-1.052.282,1.07,1.07,0,0,0-.282,1.052l1.155,4.311a21.2,21.2,0,0,1,.4,9.373,20.455,20.455,0,0,0-.343,3.8,20.457,20.457,0,0,0,.343,3.8,21.2,21.2,0,0,1-.4,9.373l-1.155,4.311a1.07,1.07,0,0,0,.282,1.052,1.07,1.07,0,0,0,1.052.282l3.885-1.041a21.744,21.744,0,0,1,9.9-.278.908.908,0,0,1,.709,1.071.908.908,0,0,1-1.071.709,19.919,19.919,0,0,0-9.069.252l-3.885,1.041A2.956,2.956,0,0,1-150.324,11.966Z" transform="translate(153.219 29.376)" fill="#fff"/>
          </g>
          <g id="g614" transform="translate(17.037 11.469)">
            <path id="path616" d="M-212.413-405.677a2.954,2.954,0,0,1-.765-.1l-3.885-1.041a19.95,19.95,0,0,0-10.309.039c-1.256.336-2.595.622-3.98.849a.908.908,0,0,1-1.043-.749.908.908,0,0,1,.749-1.043c1.326-.218,2.606-.491,3.8-.811a21.769,21.769,0,0,1,11.249-.039l3.885,1.041a1.07,1.07,0,0,0,1.052-.282,1.07,1.07,0,0,0,.282-1.052l-1.155-4.311a21.2,21.2,0,0,1-.4-9.373,20.457,20.457,0,0,0,.343-3.8,20.457,20.457,0,0,0-.343-3.8,21.2,21.2,0,0,1,.4-9.373l1.155-4.311a1.07,1.07,0,0,0-.282-1.052,1.07,1.07,0,0,0-1.052-.282l-3.885,1.041a21.77,21.77,0,0,1-11.249-.039,49.992,49.992,0,0,0-12.819-1.489,49.992,49.992,0,0,0-12.819,1.489.908.908,0,0,1-1.112-.642.908.908,0,0,1,.642-1.112,51.788,51.788,0,0,1,13.289-1.551,51.788,51.788,0,0,1,13.289,1.551,19.952,19.952,0,0,0,10.309.039l3.885-1.041a2.876,2.876,0,0,1,2.807.752,2.876,2.876,0,0,1,.752,2.806l-1.155,4.311a19.37,19.37,0,0,0-.369,8.564,22.275,22.275,0,0,1,.374,4.135,22.274,22.274,0,0,1-.374,4.135,19.37,19.37,0,0,0,.369,8.564l1.155,4.311a2.876,2.876,0,0,1-.752,2.807A2.874,2.874,0,0,1-212.413-405.677Z" transform="translate(254.625 447.467)" fill="#fff"/>
          </g>
          <g id="g618" transform="translate(16.953 22.177)">
            <path id="path620" d="M-272.945-163.2a.908.908,0,0,1-.908-.908v-6.146a8.44,8.44,0,0,0-8.43-8.43h-7.68a8.44,8.44,0,0,0-8.43,8.43v6.146a.908.908,0,0,1-.908.908.908.908,0,0,1-.908-.908v-6.146A10.258,10.258,0,0,1-289.963-180.5h7.68a10.258,10.258,0,0,1,10.247,10.247v6.146A.908.908,0,0,1-272.945-163.2Z" transform="translate(300.21 180.5)" fill="#fff"/>
          </g>
          <g id="g622" transform="translate(15.167 29.757)">
            <path id="path624" d="M-181.09,17.474A12.4,12.4,0,0,1-193.247,7.409c-2-.53-3.571-3.057-3.741-5.363a3.871,3.871,0,0,1,1.086-3.2,4.372,4.372,0,0,1,2.44-1.13V-5.317A4.689,4.689,0,0,1-188.779-10h9.668a.908.908,0,0,1,.908.908.908.908,0,0,1-.908.908h-9.668a2.87,2.87,0,0,0-2.867,2.867v3.881a.908.908,0,0,1-.289.664.908.908,0,0,1-.682.242,1.732,1.732,0,0,0-.247,0,2.8,2.8,0,0,0-1.771.672,2.134,2.134,0,0,0-.541,1.769c.136,1.854,1.528,3.8,2.707,3.781a.908.908,0,0,1,.913.79,10.576,10.576,0,0,0,10.466,9.174,10.575,10.575,0,0,0,10.467-9.178.908.908,0,0,1,.841-.789c1.165-.077,2.487-1.983,2.619-3.778A2.134,2.134,0,0,0-167.7.143a2.8,2.8,0,0,0-1.772-.672c-.048,0-.1,0-.144,0a.908.908,0,0,1-.646-.264.908.908,0,0,1-.268-.644V-5.317A2.87,2.87,0,0,0-173.4-8.184h-1.27a.908.908,0,0,1-.908-.908.908.908,0,0,1,.908-.908h1.27a4.689,4.689,0,0,1,4.683,4.683v3.054a4.307,4.307,0,0,1,2.28,1.1,3.871,3.871,0,0,1,1.086,3.2c-.161,2.19-1.619,4.688-3.572,5.315A12.4,12.4,0,0,1-181.09,17.474Z" transform="translate(197.003 10)" fill="#fff"/>
          </g>
          <g id="g626" transform="translate(27.386 46.208)">
            <path id="path628" d="M-6.386-7.215a5.026,5.026,0,0,1-3.3-1.191.908.908,0,0,1-.092-1.281A.908.908,0,0,1-8.5-9.778a3.211,3.211,0,0,0,2.112.747,3.211,3.211,0,0,0,2.112-.747.908.908,0,0,1,1.281.092.908.908,0,0,1-.092,1.281A5.025,5.025,0,0,1-6.386-7.215Z" transform="translate(10 10)" fill="#fff"/>
          </g>
          <g id="g630" transform="translate(33.495 39.837)">
            <path id="path632" d="M-7.241-6.824a2.836,2.836,0,0,1-2.72-2,.908.908,0,0,1,.6-1.137.908.908,0,0,1,1.137.6,1.028,1.028,0,0,0,.986.724,1.028,1.028,0,0,0,.986-.724.908.908,0,0,1,1.137-.6.908.908,0,0,1,.6,1.137A2.836,2.836,0,0,1-7.241-6.824Z" transform="translate(10.003 10.003)" fill="#fff"/>
          </g>
          <g id="g634" transform="translate(23.141 39.837)">
            <path id="path636" d="M-7.241-6.824a2.836,2.836,0,0,1-2.72-2,.908.908,0,0,1,.6-1.137.908.908,0,0,1,1.137.6,1.028,1.028,0,0,0,.986.724,1.028,1.028,0,0,0,.986-.724.908.908,0,0,1,1.137-.6.908.908,0,0,1,.6,1.137A2.836,2.836,0,0,1-7.241-6.824Z" transform="translate(10.003 10.003)" fill="#fff"/>
          </g>
          <g id="g638" transform="translate(46.005 18.312)">
            <path id="path640" d="M-48.7-16.885h-3.5c-.574,0-1.039-.293-1.039-.843s.464-.843,1.039-.843h5.28a.821.821,0,0,1,.929.917,1.117,1.117,0,0,1-.281.721l-4.608,5.475h3.911c.574,0,1.039.293,1.039.843s-.465.843-1.039.843H-52.4c-.733,0-1.161-.244-1.161-.99a1.168,1.168,0,0,1,.33-.77Z" transform="translate(53.561 18.572)" fill="#fff"/>
          </g>
          <g id="g642" transform="translate(50.172 6.668)">
            <path id="path644" d="M-26.673-10.343h-1.912a.5.5,0,0,1-.535-.517.5.5,0,0,1,.535-.517h3.145a.52.52,0,0,1,.544.58.7.7,0,0,1-.209.444l-2.447,2.682h2.175a.5.5,0,0,1,.535.517.5.5,0,0,1-.535.516h-3.371a.531.531,0,0,1-.589-.516.681.681,0,0,1,.172-.48Z" transform="translate(29.337 11.376)" fill="#fff"/>
          </g>
          <g id="g646" transform="translate(45.013 3.74)">
            <path id="path648" d="M-19.958-7.739h-1.431a.371.371,0,0,1-.4-.387.371.371,0,0,1,.4-.387h2.353a.389.389,0,0,1,.407.434.52.52,0,0,1-.156.332l-1.831,2.007h1.627a.371.371,0,0,1,.4.387.371.371,0,0,1-.4.387h-2.523a.4.4,0,0,1-.441-.387.509.509,0,0,1,.129-.359Z" transform="translate(21.952 8.512)" fill="#fff"/>
          </g>
        </g>
      </g>
    </g>
  </g>
</svg>
