<svg xmlns="http://www.w3.org/2000/svg" width="94" height="94" viewBox="0 0 94 94">
  <g id="c4" transform="translate(-1226 -2543)">
    <circle id="Ellipse_5355" data-name="Ellipse 5355" cx="47" cy="47" r="47" transform="translate(1226 2543)" fill="#b13e8d"/>
    <g id="empleado" transform="translate(1249 2558)">
      <g id="Group_136188" data-name="Group 136188" transform="translate(0)">
        <g id="Group_136187" data-name="Group 136187">
          <path id="Path_194089" data-name="Path 194089" d="M111.159,62.125h-4.575l.5-18.059a6.927,6.927,0,0,0-4.123-6.542l-5.335-2.372a.944.944,0,0,0-.1-.037l-.753-.643a47.47,47.47,0,0,0,6.787-2.635.94.94,0,0,0,.421-1.255c-.019-.039-1.907-3.982-1.907-12.61V13.964a13.964,13.964,0,0,0-27.927,0v4.008c0,8.628-1.887,12.571-1.905,12.607a.938.938,0,0,0,.419,1.258,47.448,47.448,0,0,0,6.787,2.635l-.855.73-5.221,2.322a6.927,6.927,0,0,0-4.123,6.542l.5,18.059H65.066a.937.937,0,1,0,0,1.875h46.093a.937.937,0,1,0,0-1.875ZM76.024,13.964a12.089,12.089,0,0,1,24.178,0v4.008c0,6.849,1.134,10.89,1.738,12.555a47.766,47.766,0,0,1-6.872,2.485l-.333-.284a.937.937,0,0,0-.673-.221V30.175A10.95,10.95,0,0,0,98.129,25.4a10,10,0,0,0,.838-3.75c.108-4.228-3.519-5.3-7.36-6.433-3.217-.95-6.864-2.026-9.854-4.935a.937.937,0,0,0-1.307,1.344c3.323,3.232,7.375,4.428,10.631,5.39,4.112,1.214,6.085,1.916,6.016,4.587a8.109,8.109,0,0,1-.679,3.041A9.071,9.071,0,0,1,79.191,22.63a1.951,1.951,0,0,0-2.028-1.591,1.054,1.054,0,0,1-.32-.027,1.181,1.181,0,0,1-.819-1.168v-.769a1.136,1.136,0,0,1,.866-1.15,1.063,1.063,0,0,1,1.045.4,1.36,1.36,0,0,0,1.87.295,7.689,7.689,0,0,0,2.066-2.182.938.938,0,1,0-1.584-1,5.881,5.881,0,0,1-1.2,1.378,2.949,2.949,0,0,0-2.518-.735,2.808,2.808,0,0,0-.542.154ZM84.04,34.532V31.149a10.922,10.922,0,0,0,8.145,0v3.385l-2.83,3.935-.009.014-.01.013-1.17,1.755a.065.065,0,0,1-.108,0l-1.17-1.755-.01-.013-.009-.014Zm.771,4.284-1.352,1.014a1.066,1.066,0,0,1-1.594-.376l-1.6-3.208,1.673-1.43Zm9.48-4,1.674,1.43-1.6,3.208a1.067,1.067,0,0,1-1.594.376l-1.352-1.014Zm-20-4.288a31.361,31.361,0,0,0,1.548-7.9,2.728,2.728,0,0,0,.577.211,2.931,2.931,0,0,0,.878.073.127.127,0,0,1,.058.059,10.929,10.929,0,0,0,4.818,7.209v2.328a.937.937,0,0,0-.673.221l-.333.284A47.781,47.781,0,0,1,74.287,30.527Zm-.151,8.71,4.52-2.01,1.532,3.065a2.941,2.941,0,0,0,4.4,1.038l1.294-.971.621.931a1.939,1.939,0,0,0,3.228,0l.62-.931,1.294.971a2.942,2.942,0,0,0,4.4-1.038l1.552-3.1,4.61,2.05a5.109,5.109,0,0,1,1,.592L99.8,44.089H76.54l-3.408-4.26A5.117,5.117,0,0,1,74.136,39.237Zm-.869,7.956.779,14.028a2.934,2.934,0,0,0,.2.9H71.627l-.5-18.111a5.067,5.067,0,0,1,.733-2.776l2.69,3.362a2.921,2.921,0,0,0-.481.408A2.953,2.953,0,0,0,73.266,47.193Zm27.821-.1-.779,14.028a1.067,1.067,0,0,1-1.065,1.007H76.983a1.067,1.067,0,0,1-1.065-1.007l-.779-14.028A1.066,1.066,0,0,1,76.2,45.964h23.82a1.066,1.066,0,0,1,1.065,1.126Zm3.621,15.036h-2.724a2.934,2.934,0,0,0,.2-.9l.779-14.028a2.927,2.927,0,0,0-1.212-2.544l2.729-3.411a5.069,5.069,0,0,1,.733,2.776Z" transform="translate(-64.129 0)" fill="#fff"/>
        </g>
      </g>
      <g id="Group_136190" data-name="Group 136190" transform="translate(20.541 51.103)">
        <g id="Group_136189" data-name="Group 136189">
          <path id="Path_194090" data-name="Path 194090" d="M231.9,408.822a3.443,3.443,0,1,0,3.443,3.443A3.446,3.446,0,0,0,231.9,408.822Zm0,5.01a1.568,1.568,0,1,1,1.568-1.568A1.569,1.569,0,0,1,231.9,413.832Z" transform="translate(-228.459 -408.822)" fill="#fff"/>
        </g>
      </g>
    </g>
  </g>
</svg>
