<svg xmlns="http://www.w3.org/2000/svg" xmlns:xlink="http://www.w3.org/1999/xlink" width="88" height="88" viewBox="0 0 88 88">
  <defs>
    <filter id="Rect치ngulo_40821" x="0" y="0" width="88" height="88" filterUnits="userSpaceOnUse">
      <feOffset dy="3" input="SourceAlpha"/>
      <feGaussianBlur stdDeviation="3" result="blur"/>
      <feFlood flood-opacity="0.161"/>
      <feComposite operator="in" in2="blur"/>
      <feComposite in="SourceGraphic"/>
    </filter>
  </defs>
  <g id="Grupo_128460" data-name="Grupo 128460" transform="translate(-906.333 -236)">
    <g id="Grupo_135807" data-name="Grupo 135807">
      <g transform="matrix(1, 0, 0, 1, 906.33, 236)" filter="url(#Rect치ngulo_40821)">
        <path id="Rect치ngulo_40821-2" data-name="Rect치ngulo 40821" d="M10,0H60A10,10,0,0,1,70,10V70a0,0,0,0,1,0,0H10A10,10,0,0,1,0,60V10A10,10,0,0,1,10,0Z" transform="translate(9 6)" fill="#7fc733"/>
      </g>
      <g id="botiqui-n-de-primeros-auxi-lios" transform="translate(925.895 252.333)">
        <path id="Trazado_193064" data-name="Trazado 193064" d="M47.914,20.144a.963.963,0,0,0,.964-.964V16.353A7.358,7.358,0,0,0,41.527,9H39.256a.963.963,0,0,0-.964.964v.869H35.075V7.244A7.252,7.252,0,0,0,27.832,0H21.166a7.252,7.252,0,0,0-7.244,7.244v3.591H10.585V9.966A.963.963,0,0,0,9.622,9H7.35A7.359,7.359,0,0,0,0,16.353V19.18a.963.963,0,0,0,.964.964h.869v18.05H.964A.964.964,0,0,0,0,39.157v2.827a7.358,7.358,0,0,0,7.35,7.35H9.622a.963.963,0,0,0,.964-.964V47.4H38.293v.966a.964.964,0,0,0,.964.964h2.271a7.359,7.359,0,0,0,7.35-7.35V39.157a.963.963,0,0,0-.964-.964h-.748V20.144ZM41.527,10.93a5.431,5.431,0,0,1,5.423,5.423v1.863H40.22V11.8s0,0,0,0V10.93ZM15.85,7.244a5.323,5.323,0,0,1,5.316-5.317h6.666a5.323,5.323,0,0,1,5.316,5.317v3.591H31.512V7.244a3.685,3.685,0,0,0-3.68-3.681H21.166a3.685,3.685,0,0,0-3.681,3.681v3.591H15.85Zm3.563,0A1.756,1.756,0,0,1,21.166,5.49h6.666a1.756,1.756,0,0,1,1.753,1.754v3.591H19.413Zm11.136,5.518h7.744V19.18a.964.964,0,0,0,.964.964H41.41v18.05H39.256a.964.964,0,0,0-.964.964v2.625H10.585V39.157a.963.963,0,0,0-.964-.964H7.688V20.144H9.621a.964.964,0,0,0,.964-.964V16.45h20.3a.964.964,0,0,0,0-1.927h-20.3V12.762ZM1.927,16.353A5.43,5.43,0,0,1,7.35,10.93H8.658v.865s0,0,0,0v6.418H1.927Zm1.832,3.791h2V38.193h-2ZM7.35,47.407a5.431,5.431,0,0,1-5.423-5.423V40.12H8.658v6.32s0,0,0,0v.962Zm3.235-1.93V43.709H38.293v1.768Zm36.366-3.494a5.43,5.43,0,0,1-5.423,5.423H40.22v-.961s0,0,0,0v-6.32h6.731Zm-3.614-3.79V20.144h1.9V38.193Zm0,0" fill="#12263f"/>
        <path id="Trazado_193065" data-name="Trazado 193065" d="M174.14,207.366a.963.963,0,0,0-.964-.964h-5.514a.963.963,0,0,0-.964.964v4.548h-4.548a.963.963,0,0,0-.964.964v5.514a.963.963,0,0,0,.964.964H166.7V223.9a.963.963,0,0,0,.964.964h5.514a.963.963,0,0,0,.964-.964v-4.548h4.548a.964.964,0,0,0,.964-.964v-5.514a.964.964,0,0,0-.964-.964H174.14Zm3.584,6.475v3.587h-4.548a.964.964,0,0,0-.964.964v4.548h-3.587v-4.548a.963.963,0,0,0-.964-.964h-4.548v-3.587h4.548a.964.964,0,0,0,.964-.964v-4.548h3.587v4.548a.964.964,0,0,0,.964.964Zm0,0" transform="translate(-145.656 -186.514)" fill="#12263f"/>
        <path id="Trazado_193066" data-name="Trazado 193066" d="M352.689,152.082a.963.963,0,1,0,.382-1.187A.973.973,0,0,0,352.689,152.082Zm0,0" transform="translate(-318.64 -136.226)" fill="#12263f"/>
      </g>
    </g>
  </g>
</svg>
