<svg xmlns="http://www.w3.org/2000/svg" width="80" height="63.218" viewBox="0 0 80 63.218">
  <g id="plan" transform="translate(0 -53.704)">
    <path id="Trazado_193441" data-name="Trazado 193441" d="M71.4,62.27V57.939a1.905,1.905,0,0,0-1.891-1.891H65.623a1.9,1.9,0,0,0-1.891,1.891V62.27H71.4ZM22.416,83.331a1.171,1.171,0,1,1,1.657-1.657l1.068,1.068L28.1,79.774a1.173,1.173,0,0,1,1.657,1.661l-3.791,3.791a1.174,1.174,0,0,1-1.657,0ZM66.394,69.809a1.171,1.171,0,1,1,2.343,0V94.4a1.171,1.171,0,1,1-2.343,0Zm-18.474,39.65H55.13v-5.027H47.919ZM56.3,111.8H18.08a1.176,1.176,0,0,1-1.174-1.174v-7.37a1.172,1.172,0,0,1,1.174-1.169h8.385V95.409a1.168,1.168,0,0,1,1.169-1.169h9.558a1.168,1.168,0,0,1,1.169,1.169v2.082h8.384a1.176,1.176,0,0,1,1.174,1.174v3.424H56.3a1.172,1.172,0,0,1,1.174,1.169v7.37A1.176,1.176,0,0,1,56.3,111.8Zm-17.938-2.343h7.211v-9.62H38.361Zm-9.554,0h7.211V96.583H28.808Zm-9.558,0h7.215v-5.027H19.249ZM14.306,68.635H61.384v-10.7A4.249,4.249,0,0,1,65.623,53.7h3.889a4.249,4.249,0,0,1,4.234,4.234v10.7h5.085A1.172,1.172,0,0,1,80,69.809v45.943a1.168,1.168,0,0,1-1.169,1.169H46.387a1.172,1.172,0,0,1,0-2.343h31.27v-43.6H73.746v8.473a1.172,1.172,0,1,1-2.343,0V64.613H63.731V99.6H71.4V84.761a1.172,1.172,0,1,1,2.343,0v16.007a1.243,1.243,0,0,1-.2.664l-4.934,9.718a1.191,1.191,0,0,1-.523.523,1.167,1.167,0,0,1-1.568-.518l-4.952-9.744a1.247,1.247,0,0,1-.186-.642V70.978H14.306v8.867a1.172,1.172,0,1,1-2.343,0V57a6.215,6.215,0,0,0-3.326-.948,6.291,6.291,0,0,0-6.294,6.294v40.031c.062-.067.124-.133.186-.195a8.613,8.613,0,0,1,6.108-2.529,8.746,8.746,0,0,1,2.746.447c.2.066.39.142.58.221V85.156a1.172,1.172,0,1,1,2.343,0v17.172a1.172,1.172,0,0,1-1.878.93,6.136,6.136,0,0,0-1.789-.943,6.3,6.3,0,1,0-2,12.264H41.081a1.172,1.172,0,0,1,0,2.343H8.637A8.634,8.634,0,0,1,0,108.285V62.341A8.637,8.637,0,0,1,13.783,55.4a1.18,1.18,0,0,1,.523.979V68.635Zm56.362,33.307H64.463l3.1,6.108ZM55.006,75.735a1.171,1.171,0,0,1,0,2.343H39.145a1.171,1.171,0,0,1,0-2.343Zm-6.6,11.188a1.171,1.171,0,1,1,0,2.343H39.145a1.171,1.171,0,0,1,0-2.343Zm6.6-5.594a1.172,1.172,0,0,1,0,2.343H39.145a1.172,1.172,0,0,1,0-2.343ZM19.378,74.614H32.8a1.172,1.172,0,0,1,1.169,1.174V89.213A1.172,1.172,0,0,1,32.8,90.386H19.378A1.173,1.173,0,0,1,18.2,89.213V75.788a1.173,1.173,0,0,1,1.174-1.174Zm12.251,2.348H20.547V88.043H31.629Z" transform="translate(0 0)" fill="#b13e8d"/>
  </g>
</svg>
