<svg xmlns="http://www.w3.org/2000/svg" width="77.331" height="80" viewBox="0 0 77.331 80">
  <path id="gestion-de-archivos" d="M26.09,43.664a1.29,1.29,0,0,1,1.29-1.29H55.847a1.29,1.29,0,0,1,0,2.581H27.38a1.29,1.29,0,0,1-1.29-1.29Zm1.29,9.679H55.847a1.29,1.29,0,0,0,0-2.581H27.38a1.29,1.29,0,1,0,0,2.581Zm0,8.389H55.847a1.29,1.29,0,0,0,0-2.581H27.38a1.29,1.29,0,1,0,0,2.581Zm28.466,14.2H27.38a1.29,1.29,0,1,0,0,2.581H55.847a1.29,1.29,0,1,0,0-2.581ZM27.38,36.565H47.815a1.29,1.29,0,1,0,0-2.581H27.38a1.29,1.29,0,1,0,0,2.581ZM93.606,66.332v3.7a1.29,1.29,0,0,1-.827,1.2l-2.455.945a16.815,16.815,0,0,1-2.015,4.86l1.069,2.406a1.29,1.29,0,0,1-.267,1.436L86.493,83.5a1.29,1.29,0,0,1-1.436.267L82.651,82.7a16.8,16.8,0,0,1-4.861,2.015l-.945,2.455a1.29,1.29,0,0,1-1.2.827h-3.7a1.29,1.29,0,0,1-1.2-.827l-.945-2.455a16.812,16.812,0,0,1-2.836-.959V86.71A1.29,1.29,0,0,1,65.662,88h-48.1a1.29,1.29,0,0,1-1.29-1.29V24.372a1.29,1.29,0,0,1,1.29-1.29h6.251V16.831a1.29,1.29,0,0,1,1.29-1.29h6.251V9.29A1.29,1.29,0,0,1,32.647,8h48.1a1.29,1.29,0,0,1,1.29,1.29V53.305q.311.173.615.358l2.407-1.069a1.291,1.291,0,0,1,1.436.267L89.11,55.48a1.29,1.29,0,0,1,.267,1.436l-1.068,2.405a16.812,16.812,0,0,1,2.015,4.862l2.455.945a1.291,1.291,0,0,1,.827,1.2ZM33.938,15.541H65.41a1.291,1.291,0,0,1,.912.378l7.792,7.792a1.29,1.29,0,0,1,.378.912V48.366H75.64a1.29,1.29,0,0,1,1.2.827l.945,2.455a16.87,16.87,0,0,1,1.664.5V10.581H33.938ZM66.7,23.334h3.387L66.7,19.946Zm-40.3-.251H57.869a1.291,1.291,0,0,1,.912.378l7.792,7.792a1.29,1.29,0,0,1,.378.912V52.608a16.783,16.783,0,0,1,2.836-.959l.945-2.455a1.289,1.289,0,0,1,1.179-.825V25.914h-6.5a1.29,1.29,0,0,1-1.29-1.29v-6.5H26.4ZM59.16,30.875h3.387L59.16,27.488Zm5.212,54.545V82.95l-1.85.822a1.289,1.289,0,0,1-1.436-.267l-2.618-2.618a1.29,1.29,0,0,1-.267-1.436l1.068-2.406a16.814,16.814,0,0,1-2.015-4.861L54.8,71.239a1.288,1.288,0,0,1-.82-1.118H27.38a1.29,1.29,0,0,1,0-2.581H53.972V66.332a1.29,1.29,0,0,1,.827-1.2l2.455-.945a16.8,16.8,0,0,1,2.015-4.861L58.2,56.916a1.29,1.29,0,0,1,.267-1.436l2.618-2.618a1.29,1.29,0,0,1,1.436-.267l1.85.822V33.455h-6.5a1.29,1.29,0,0,1-1.29-1.29v-6.5H18.856V85.419Zm26.654-18.2-2.276-.876a1.291,1.291,0,0,1-.8-.955,14.276,14.276,0,0,0-2.17-5.234,1.29,1.29,0,0,1-.108-1.243l.991-2.231-1.365-1.365-2.232.991a1.291,1.291,0,0,1-1.243-.108,14.278,14.278,0,0,0-5.233-2.17,1.29,1.29,0,0,1-.955-.8l-.877-2.277H72.823l-.877,2.277a1.291,1.291,0,0,1-.955.8,14.279,14.279,0,0,0-5.233,2.17,1.292,1.292,0,0,1-1.243.108l-2.232-.991-1.365,1.365.991,2.232a1.29,1.29,0,0,1-.108,1.243,14.268,14.268,0,0,0-2.169,5.233,1.291,1.291,0,0,1-.8.956l-2.277.876v1.931l2.276.876a1.29,1.29,0,0,1,.8.955,14.275,14.275,0,0,0,2.17,5.234,1.29,1.29,0,0,1,.108,1.243l-.991,2.231,1.365,1.365,2.232-.991a1.291,1.291,0,0,1,1.243.108,14.277,14.277,0,0,0,5.233,2.169,1.29,1.29,0,0,1,.955.8l.877,2.277h1.931l.876-2.276a1.291,1.291,0,0,1,.955-.8,14.275,14.275,0,0,0,5.234-2.17,1.291,1.291,0,0,1,1.243-.108l2.231.991,1.365-1.365-.991-2.232a1.29,1.29,0,0,1,.108-1.243,14.277,14.277,0,0,0,2.169-5.233,1.29,1.29,0,0,1,.8-.955l2.277-.877Zm-5.893.965A11.343,11.343,0,1,1,73.789,56.84,11.356,11.356,0,0,1,85.132,68.183Zm-2.581,0a8.762,8.762,0,1,0-8.762,8.762A8.772,8.772,0,0,0,82.551,68.183Z" transform="translate(-16.275 -8)" fill="#b13e8d"/>
</svg>
