<svg xmlns="http://www.w3.org/2000/svg" width="80" height="79.986" viewBox="0 0 80 79.986">
  <g id="contrato" transform="translate(0 -0.039)">
    <path id="Trazado_193127" data-name="Trazado 193127" d="M124,114.705H97.333a1.333,1.333,0,0,1,0-2.666H124a1.333,1.333,0,0,1,0,2.666Zm0,0" transform="translate(-80.003 -93.337)" fill="#b13e8d"/>
    <path id="Trazado_193128" data-name="Trazado 193128" d="M158.661,170.705H129.333a1.333,1.333,0,1,1,0-2.666h29.328a1.333,1.333,0,0,1,0,2.666Zm0,0" transform="translate(-106.67 -140.005)" fill="#b13e8d"/>
    <path id="Trazado_193129" data-name="Trazado 193129" d="M84,218.705H57.333a1.333,1.333,0,1,1,0-2.666H84a1.333,1.333,0,0,1,0,2.666Zm0,0" transform="translate(-46.668 -180.006)" fill="#b13e8d"/>
    <path id="Trazado_193130" data-name="Trazado 193130" d="M258.665,218.705h-9.332a1.333,1.333,0,0,1,0-2.666h9.332a1.333,1.333,0,1,1,0,2.666Zm0,0" transform="translate(-206.674 -180.006)" fill="#b13e8d"/>
    <path id="Trazado_193131" data-name="Trazado 193131" d="M70.664,258.705H57.333a1.333,1.333,0,1,1,0-2.666H70.664a1.333,1.333,0,1,1,0,2.666Zm0,0" transform="translate(-46.668 -213.341)" fill="#b13e8d"/>
    <path id="Trazado_193132" data-name="Trazado 193132" d="M178.665,258.705h-9.332a1.333,1.333,0,1,1,0-2.666h9.332a1.333,1.333,0,1,1,0,2.666Zm0,0" transform="translate(-140.005 -213.341)" fill="#b13e8d"/>
    <path id="Trazado_193136" data-name="Trazado 193136" d="M193.33,349a1.145,1.145,0,0,1-.426-.066,1.333,1.333,0,0,1-.84-1.679l3.279-9.839a2.666,2.666,0,0,1,5.186.627l.454,5.332.48-.813a2.643,2.643,0,0,1,4.759.333l.853,2.106,3.88-4.932a1.333,1.333,0,0,1,2.093,1.653l-3.893,4.946a2.666,2.666,0,0,1-4.559-.68l-.827-2.093-.493.813a2.666,2.666,0,0,1-4.946-1.04l-.453-5.412-3.213,9.785A1.332,1.332,0,0,1,193.33,349Zm0,0" transform="translate(-160.003 -279.639)" fill="#b13e8d"/>
    <path id="Trazado_193137" data-name="Trazado 193137" d="M72.413,364.289a2.665,2.665,0,0,1-1.88-.773l-2.826-2.826a1.334,1.334,0,0,1,1.88-1.893l2.826,2.826,4.719-4.706a1.333,1.333,0,0,1,1.88,1.88l-4.706,4.719A2.667,2.667,0,0,1,72.413,364.289Zm0,0" transform="translate(-56.096 -297.141)" fill="#b13e8d"/>
    <path id="Trazado_193145" data-name="Trazado 193145" d="M389.875,169.659a1.311,1.311,0,0,1-1.286-.987,1.329,1.329,0,0,1,.139-1.013l5.332-9.239a1.337,1.337,0,0,0-.493-1.827l-11.545-6.666a1.332,1.332,0,1,1,1.333-2.306l11.545,6.666a4,4,0,0,1,1.467,5.466l-5.332,9.239A1.335,1.335,0,0,1,389.875,169.659Zm0,0" transform="translate(-317.807 -122.841)" fill="#b13e8d"/>
    <g id="Grupo_135275" data-name="Grupo 135275" transform="translate(0 0.039)">
      <path id="Trazado_193147" data-name="Trazado 193147" d="M239.922,98.982a4,4,0,0,0-7.332-.96l-.667,1.16a1.333,1.333,0,0,0-1.813.48l-3.386,5.772-1.16-.667a1.332,1.332,0,1,0-1.333,2.306l1.16.667L214.06,127.377l-2.8,7.479-1.333,2.492a4,4,0,0,0,.213,4.32l-3,3.679-.84-2.106a2.667,2.667,0,0,0-4.76-.374l-.48.813-.453-5.332a2.666,2.666,0,0,0-5.186-.626l-3.279,9.838a1.333,1.333,0,0,0,.84,1.68,1.154,1.154,0,0,0,.413.106,1.333,1.333,0,0,0,1.267-.906l3.266-9.838.467,5.412a2.666,2.666,0,0,0,4.946,1.147l.493-.814.827,2.093a2.666,2.666,0,0,0,4.559.68l3.106-3.932a4.106,4.106,0,0,0,1.053.133,4,4,0,0,0,3.479-1.974l1.333-2.226,5.079-6.172,11.451-19.877,1.16.667a1.337,1.337,0,0,1,.493,1.827l-5.332,9.239a1.324,1.324,0,1,0,2.253,1.386l5.332-9.239a4,4,0,0,0-1.467-5.466L236,110.82l3.333-5.772a1.334,1.334,0,0,0-.48-1.813l.667-1.16A4,4,0,0,0,239.922,98.982Zm-5.026.373a1.333,1.333,0,0,1,.814-.626,1.4,1.4,0,0,1,1.013.133,1.334,1.334,0,0,1,.627.813,1.4,1.4,0,0,1-.133,1.013l-.667,1.16-2.32-1.333Zm-18.17,37.221-.667-.387-1.973-1.147,1.893-5.066,4.2,2.426Zm-4,3.852a1.332,1.332,0,0,1-.4-1.746l.667-1.159,2.319,1.333L214.647,140a1.332,1.332,0,0,1-1.92.426Zm8.972-10.211-4.613-2.666,10.665-18.477,4.613,2.666Zm12-20.784-4.612-2.666,2.666-4.612,4.612,2.666Zm0,0" transform="translate(-160.069 -80.025)" fill="#b13e8d"/>
      <path id="Trazado_193148" data-name="Trazado 193148" d="M77.132,356.917l-4.719,4.706L69.587,358.8a1.334,1.334,0,1,0-1.88,1.893l2.826,2.826a2.688,2.688,0,0,0,3.773,0l4.706-4.719a1.333,1.333,0,0,0-1.88-1.88Zm0,0" transform="translate(-56.096 -297.18)" fill="#b13e8d"/>
      <path id="Trazado_193149" data-name="Trazado 193149" d="M32,323.372a11.331,11.331,0,0,0,22.663,0,1.333,1.333,0,0,0-2.666,0,8.666,8.666,0,1,1-3.466-6.932,1.333,1.333,0,0,0,1.6-2.133A11.331,11.331,0,0,0,32,323.372Zm0,0" transform="translate(-26.668 -260.05)" fill="#b13e8d"/>
      <path id="Trazado_193150" data-name="Trazado 193150" d="M107.994,50.705a1.333,1.333,0,0,0,0-2.666H73.333A1.333,1.333,0,0,0,72,49.372V54.7a1.333,1.333,0,0,0,1.333,1.333h34.661a1.333,1.333,0,1,0,0-2.666H74.666V50.705Zm0,0" transform="translate(-60.002 -40.04)" fill="#b13e8d"/>
      <path id="Trazado_193151" data-name="Trazado 193151" d="M97.333,112.039a1.333,1.333,0,0,0,0,2.666H124a1.333,1.333,0,0,0,0-2.666Zm0,0" transform="translate(-80.003 -93.376)" fill="#b13e8d"/>
      <path id="Trazado_193152" data-name="Trazado 193152" d="M158.661,168.039H129.333a1.333,1.333,0,1,0,0,2.666h29.328a1.333,1.333,0,0,0,0-2.666Zm0,0" transform="translate(-106.67 -140.044)" fill="#b13e8d"/>
      <path id="Trazado_193153" data-name="Trazado 193153" d="M85.328,217.372A1.333,1.333,0,0,0,84,216.039H57.333a1.333,1.333,0,1,0,0,2.666H84A1.333,1.333,0,0,0,85.328,217.372Zm0,0" transform="translate(-46.668 -180.045)" fill="#b13e8d"/>
      <path id="Trazado_193154" data-name="Trazado 193154" d="M258.665,216.039h-9.332a1.333,1.333,0,0,0,0,2.666h9.332a1.333,1.333,0,1,0,0-2.666Zm0,0" transform="translate(-206.674 -180.045)" fill="#b13e8d"/>
      <path id="Trazado_193155" data-name="Trazado 193155" d="M70.664,258.705a1.333,1.333,0,1,0,0-2.666H57.333a1.333,1.333,0,1,0,0,2.666Zm0,0" transform="translate(-46.668 -213.38)" fill="#b13e8d"/>
      <path id="Trazado_193156" data-name="Trazado 193156" d="M169.333,258.705h9.332a1.333,1.333,0,1,0,0-2.666h-9.332a1.333,1.333,0,1,0,0,2.666Zm0,0" transform="translate(-140.005 -213.38)" fill="#b13e8d"/>
      <path id="Trazado_193157" data-name="Trazado 193157" d="M59.99,61.362A1.333,1.333,0,0,0,58.657,62.7V76.026a1.333,1.333,0,0,1-1.333,1.333H4a1.333,1.333,0,0,1-1.333-1.333V4.038A1.333,1.333,0,0,1,4,2.705H57.324a1.333,1.333,0,0,1,1.333,1.333V29.074a1.333,1.333,0,1,0,2.666,0V4.038a4,4,0,0,0-4-4H4a4,4,0,0,0-4,4V76.026a4,4,0,0,0,4,4H57.324a4,4,0,0,0,4-4V62.7A1.333,1.333,0,0,0,59.99,61.362Zm0,0" transform="translate(0 -0.039)" fill="#b13e8d"/>
    </g>
  </g>
</svg>
