<svg id="organizar" xmlns="http://www.w3.org/2000/svg" width="80" height="80" viewBox="0 0 80 80">
  <g id="Grupo_135797" data-name="Grupo 135797">
    <path id="Trazado_193962" data-name="Trazado 193962" d="M292,207.563A1.563,1.563,0,1,0,293.563,206,1.563,1.563,0,0,0,292,207.563Z" transform="translate(-246.375 -173.813)" fill="#b13e8d"/>
    <path id="Trazado_193963" data-name="Trazado 193963" d="M4.688,80H56.563a4.693,4.693,0,0,0,4.688-4.687V14.063a4.693,4.693,0,0,0-4.687-4.687H48.75V7.813A1.563,1.563,0,0,0,47.188,6.25H39.466a9.378,9.378,0,0,0-17.682,0H14.063A1.563,1.563,0,0,0,12.5,7.813V9.375H4.688A4.693,4.693,0,0,0,0,14.063v61.25A4.693,4.693,0,0,0,4.688,80ZM15.625,9.375h7.344A1.563,1.563,0,0,0,24.5,8.123a6.252,6.252,0,0,1,12.25,0,1.563,1.563,0,0,0,1.531,1.252h7.344V12.5h-30Zm-12.5,4.688A1.564,1.564,0,0,1,4.688,12.5H12.5v1.563a1.563,1.563,0,0,0,1.563,1.563H47.188a1.563,1.563,0,0,0,1.563-1.562V12.5h7.813a1.564,1.564,0,0,1,1.563,1.563v61.25a1.564,1.564,0,0,1-1.562,1.563H4.688a1.564,1.564,0,0,1-1.562-1.562Z" fill="#b13e8d"/>
    <path id="Trazado_193964" data-name="Trazado 193964" d="M63.582,174.917a1.562,1.562,0,0,0,2.21,0l6.25-6.25a1.563,1.563,0,1,0-2.21-2.21L64.687,171.6l-2.02-2.02a1.563,1.563,0,0,0-2.21,2.21Z" transform="translate(-50.624 -140.062)" fill="#b13e8d"/>
    <path id="Trazado_193965" data-name="Trazado 193965" d="M63.582,274.917a1.562,1.562,0,0,0,2.21,0l6.25-6.25a1.563,1.563,0,0,0-2.21-2.21L64.687,271.6l-2.02-2.02a1.563,1.563,0,0,0-2.21,2.21Z" transform="translate(-50.624 -224.438)" fill="#b13e8d"/>
    <path id="Trazado_193966" data-name="Trazado 193966" d="M64.688,366a4.688,4.688,0,1,0,4.688,4.688A4.693,4.693,0,0,0,64.688,366Zm0,6.25a1.563,1.563,0,1,1,1.563-1.562A1.564,1.564,0,0,1,64.688,372.25Z" transform="translate(-50.625 -308.813)" fill="#b13e8d"/>
    <path id="Trazado_193967" data-name="Trazado 193967" d="M187.563,169.125H207.25a1.563,1.563,0,0,0,0-3.125H187.563a1.563,1.563,0,0,0,0,3.125Z" transform="translate(-156.938 -140.063)" fill="#b13e8d"/>
    <path id="Trazado_193968" data-name="Trazado 193968" d="M187.563,209.125h10.313a1.563,1.563,0,0,0,0-3.125H187.563a1.563,1.563,0,0,0,0,3.125Z" transform="translate(-156.938 -173.813)" fill="#b13e8d"/>
    <path id="Trazado_193969" data-name="Trazado 193969" d="M187.563,269.125H207.25a1.563,1.563,0,0,0,0-3.125H187.563a1.563,1.563,0,0,0,0,3.125Z" transform="translate(-156.938 -224.438)" fill="#b13e8d"/>
    <path id="Trazado_193970" data-name="Trazado 193970" d="M187.563,309.125H201A1.563,1.563,0,0,0,201,306H187.563a1.563,1.563,0,0,0,0,3.125Z" transform="translate(-156.938 -258.188)" fill="#b13e8d"/>
    <path id="Trazado_193971" data-name="Trazado 193971" d="M187.563,369.125H207.25a1.563,1.563,0,0,0,0-3.125H187.563a1.563,1.563,0,0,0,0,3.125Z" transform="translate(-156.938 -308.813)" fill="#b13e8d"/>
    <path id="Trazado_193972" data-name="Trazado 193972" d="M187.563,409.125H201A1.563,1.563,0,0,0,201,406H187.563a1.563,1.563,0,0,0,0,3.125Z" transform="translate(-156.938 -342.563)" fill="#b13e8d"/>
    <path id="Trazado_193973" data-name="Trazado 193973" d="M442.793,69.226l-3.081-8.212A1.562,1.562,0,0,0,438.25,60h0a1.562,1.562,0,0,0-1.463,1.014L433.7,69.234a26.843,26.843,0,0,0-1.7,9.4v47.3a4.693,4.693,0,0,0,4.688,4.688h3.125a4.693,4.693,0,0,0,4.688-4.687v-47.3A26.861,26.861,0,0,0,442.793,69.226Zm-7.668,9.408a23.728,23.728,0,0,1,.193-3.009h5.862a23.66,23.66,0,0,1,.194,3.009v38.553h-6.25V78.634Zm3.125-12.622,1.62,4.316c.266.711.5,1.438.694,2.172h-4.626c.2-.734.428-1.46.693-2.17Zm1.563,61.488h-3.125a1.564,1.564,0,0,1-1.562-1.562v-5.625h6.25v5.625A1.564,1.564,0,0,1,439.813,127.5Z" transform="translate(-364.5 -50.625)" fill="#b13e8d"/>
  </g>
</svg>
