<svg xmlns="http://www.w3.org/2000/svg" width="76.712" height="80" viewBox="0 0 76.712 80">
  <g id="file-files-document-paper-transfer" transform="translate(-2 -1.757)">
    <g id="Grupo_135798" data-name="Grupo 135798" transform="translate(2 1.757)">
      <path id="Trazado_193980" data-name="Trazado 193980" d="M10,11.323a1.323,1.323,0,0,0,1.323,1.323H21.9A1.323,1.323,0,1,0,21.9,10H11.323A1.323,1.323,0,0,0,10,11.323Z" transform="translate(0.581 0.902)" fill="#b13e8d"/>
      <path id="Trazado_193981" data-name="Trazado 193981" d="M33.13,16H9.323a1.323,1.323,0,1,0,0,2.645H33.13a1.323,1.323,0,1,0,0-2.645Z" transform="translate(-0.064 2.838)" fill="#b13e8d"/>
      <path id="Trazado_193982" data-name="Trazado 193982" d="M30.485,22H9.323a1.323,1.323,0,0,0,0,2.645H30.485a1.323,1.323,0,1,0,0-2.645Z" transform="translate(-0.064 4.774)" fill="#b13e8d"/>
      <path id="Trazado_193983" data-name="Trazado 193983" d="M30.485,28H9.323a1.323,1.323,0,0,0,0,2.645H30.485a1.323,1.323,0,1,0,0-2.645Z" transform="translate(-0.064 6.71)" fill="#b13e8d"/>
      <path id="Trazado_193984" data-name="Trazado 193984" d="M30.485,34H9.323a1.323,1.323,0,1,0,0,2.645H30.485a1.323,1.323,0,1,0,0-2.645Z" transform="translate(-0.064 8.645)" fill="#b13e8d"/>
      <path id="Trazado_193985" data-name="Trazado 193985" d="M78.328,36.772,67.747,26.191a1.366,1.366,0,0,0-.939-.384H44.324V13.9a1.366,1.366,0,0,0-.384-.939L33.359,2.384A1.366,1.366,0,0,0,32.42,2H3.323A1.323,1.323,0,0,0,2,3.323v52.9A1.323,1.323,0,0,0,3.323,57.55H36.388V80.035a1.323,1.323,0,0,0,1.323,1.323H77.389a1.323,1.323,0,0,0,1.323-1.323V37.711a1.366,1.366,0,0,0-.384-.939Zm-10.2-6.454L74.2,36.388H68.131ZM33.743,6.51l6.071,6.071H33.743Zm2.645,20.62V54.9H4.645V4.645H31.1V13.9a1.323,1.323,0,0,0,1.323,1.323h9.258V25.807H37.711A1.323,1.323,0,0,0,36.388,27.13ZM76.067,78.712H39.033V28.452H65.486v9.258a1.323,1.323,0,0,0,1.323,1.323h9.258Z" transform="translate(-2 -1.679)" fill="#b13e8d"/>
      <path id="Trazado_193986" data-name="Trazado 193986" d="M35.323,30.645H48.549a1.323,1.323,0,1,0,0-2.645H35.323a1.323,1.323,0,1,0,0,2.645Z" transform="translate(8.324 6.71)" fill="#b13e8d"/>
      <path id="Trazado_193987" data-name="Trazado 193987" d="M34,35.323a1.323,1.323,0,0,0,1.323,1.323H59.13a1.323,1.323,0,0,0,0-2.645H35.323A1.323,1.323,0,0,0,34,35.323Z" transform="translate(8.324 8.645)" fill="#b13e8d"/>
      <path id="Trazado_193988" data-name="Trazado 193988" d="M35.323,42.645H59.13a1.323,1.323,0,0,0,0-2.645H35.323a1.323,1.323,0,1,0,0,2.645Z" transform="translate(8.324 10.581)" fill="#b13e8d"/>
      <path id="Trazado_193989" data-name="Trazado 193989" d="M35.323,48.645H59.13a1.323,1.323,0,0,0,0-2.645H35.323a1.323,1.323,0,1,0,0,2.645Z" transform="translate(8.324 12.517)" fill="#b13e8d"/>
      <path id="Trazado_193990" data-name="Trazado 193990" d="M57.807,53.323A1.323,1.323,0,0,0,56.485,52H35.323a1.323,1.323,0,1,0,0,2.645H56.485A1.323,1.323,0,0,0,57.807,53.323Z" transform="translate(8.324 14.452)" fill="#b13e8d"/>
      <path id="Trazado_193991" data-name="Trazado 193991" d="M42,15.238a1.323,1.323,0,1,0,1.87-1.87l-3.354-3.354H61.13a1.323,1.323,0,0,1,1.323,1.323V24.563a1.323,1.323,0,1,0,2.645,0V11.337A3.968,3.968,0,0,0,61.13,7.369H40.515L43.87,4.015A1.323,1.323,0,1,0,42,2.144L36.387,7.756a1.323,1.323,0,0,0,0,1.87Z" transform="translate(8.969 -1.757)" fill="#b13e8d"/>
      <path id="Trazado_193992" data-name="Trazado 193992" d="M23.808,53.357a1.323,1.323,0,1,0-1.87,1.87l3.354,3.354H9.968a1.323,1.323,0,0,1-1.323-1.323V49.323a1.323,1.323,0,1,0-2.645,0v7.936a3.968,3.968,0,0,0,3.968,3.968H25.292L21.938,64.58a1.323,1.323,0,1,0,1.87,1.87l5.612-5.612a1.323,1.323,0,0,0,0-1.87Z" transform="translate(-0.71 13.162)" fill="#b13e8d"/>
      <path id="Trazado_193993" data-name="Trazado 193993" d="M55.29,57.29H51.323a1.323,1.323,0,1,0,0,2.645h5.29a1.323,1.323,0,0,0,1.323-1.323v-5.29a1.323,1.323,0,1,0-2.645,0Z" transform="translate(13.486 14.452)" fill="#b13e8d"/>
      <path id="Trazado_193994" data-name="Trazado 193994" d="M8.645,8.645h3.968a1.323,1.323,0,0,0,0-2.645H7.323A1.323,1.323,0,0,0,6,7.323v5.29a1.323,1.323,0,1,0,2.645,0Z" transform="translate(-0.71 -0.388)" fill="#b13e8d"/>
    </g>
  </g>
</svg>
