<svg xmlns="http://www.w3.org/2000/svg" width="76.474" height="80" viewBox="0 0 76.474 80">
  <g id="expediente" transform="translate(-11.282)">
    <g id="Grupo_135806" data-name="Grupo 135806" transform="translate(11.282 0)">
      <path id="Trazado_194003" data-name="Trazado 194003" d="M288.736,309.39l1.115,23.123a1.172,1.172,0,0,0,1.17,1.115h.057a1.172,1.172,0,0,0,1.114-1.227l-1.115-23.123a1.172,1.172,0,0,0-2.341.113Z" transform="translate(-245.382 -260.011)" fill="#b13e8d"/>
      <path id="Trazado_194004" data-name="Trazado 194004" d="M328.825,332.475A1.172,1.172,0,0,0,330,333.628h.019a1.172,1.172,0,0,0,1.153-1.191l-.372-23.123a1.172,1.172,0,1,0-2.343.038Z" transform="translate(-278.895 -260.011)" fill="#b13e8d"/>
      <path id="Trazado_194005" data-name="Trazado 194005" d="M366.947,333.628h.019a1.172,1.172,0,0,0,1.171-1.153l.372-23.123a1.172,1.172,0,0,0-2.343-.038l-.372,23.123A1.172,1.172,0,0,0,366.947,333.628Z" transform="translate(-310.402 -260.011)" fill="#b13e8d"/>
      <path id="Trazado_194006" data-name="Trazado 194006" d="M401.872,333.628h.057a1.172,1.172,0,0,0,1.17-1.115l1.115-23.123a1.172,1.172,0,0,0-2.341-.113L400.758,332.4A1.172,1.172,0,0,0,401.872,333.628Z" transform="translate(-339.901 -260.012)" fill="#b13e8d"/>
      <path id="Trazado_194007" data-name="Trazado 194007" d="M84.566,67.375H60.953a1.172,1.172,0,0,0,0,2.344H84.566a1.172,1.172,0,1,0,0-2.344Z" transform="translate(-52.203 -56.848)" fill="#b13e8d"/>
      <path id="Trazado_194008" data-name="Trazado 194008" d="M84.566,116.75H60.953a1.172,1.172,0,0,0,0,2.344H84.566a1.172,1.172,0,1,0,0-2.344Z" transform="translate(-52.203 -98.508)" fill="#b13e8d"/>
      <path id="Trazado_194009" data-name="Trazado 194009" d="M46.863,77.656H16.59a2.968,2.968,0,0,1-2.965-2.965V5.308A2.968,2.968,0,0,1,16.59,2.344H54.129V16.289a4.3,4.3,0,0,0,4.3,4.3H72.372v7.773a1.172,1.172,0,1,0,2.344,0V19.414a1.172,1.172,0,0,0-.343-.829L56.13.343A1.172,1.172,0,0,0,55.3,0H16.59a5.314,5.314,0,0,0-5.308,5.308V74.692A5.314,5.314,0,0,0,16.59,80H46.863a1.172,1.172,0,1,0,0-2.344Zm9.61-61.368V4L70.714,18.242H58.427A1.956,1.956,0,0,1,56.473,16.289Z" transform="translate(-11.282 0)" fill="#b13e8d"/>
      <path id="Trazado_194010" data-name="Trazado 194010" d="M252.011,212.923h-6.337a6.111,6.111,0,0,0-6.007-4.829H227.431a6.111,6.111,0,0,0-6.007,4.829h-6.337a4.179,4.179,0,1,0,0,8.359h.585l1.731,28.683a5.948,5.948,0,0,0,5.929,5.582h20.433a5.948,5.948,0,0,0,5.929-5.582l1.731-28.683h.585a4.179,4.179,0,0,0,0-8.359Zm-24.58-2.485h12.237a3.781,3.781,0,0,1,3.572,2.485H223.859A3.781,3.781,0,0,1,227.431,210.438Zm24.58,8.5H225.355a1.172,1.172,0,0,0,0,2.344h23.723l-1.722,28.542a3.6,3.6,0,0,1-3.59,3.38H223.333a3.6,3.6,0,0,1-3.59-3.38l-1.722-28.542H219.9a1.172,1.172,0,0,0,0-2.344h-4.815a1.836,1.836,0,1,1,0-3.671h36.924a1.836,1.836,0,0,1,0,3.671Z" transform="translate(-179.716 -175.579)" fill="#b13e8d"/>
    </g>
  </g>
</svg>
