<svg xmlns="http://www.w3.org/2000/svg" xmlns:xlink="http://www.w3.org/1999/xlink" width="190" height="112" viewBox="0 0 190 112">
  <defs>
    <linearGradient id="linear-gradient" x1="0.5" x2="0.5" y2="1" gradientUnits="objectBoundingBox">
      <stop offset="0" stop-color="#f7ca2e" stop-opacity="0"/>
      <stop offset="0.091" stop-color="#f7ca2e" stop-opacity="0.129"/>
      <stop offset="0.283" stop-color="#f7ca2e" stop-opacity="0.388"/>
      <stop offset="0.465" stop-color="#f7ca2e" stop-opacity="0.612"/>
      <stop offset="0.633" stop-color="#f7ca2e" stop-opacity="0.78"/>
      <stop offset="0.784" stop-color="#f7ca2e" stop-opacity="0.902"/>
      <stop offset="0.911" stop-color="#f7ca2e" stop-opacity="0.969"/>
      <stop offset="1" stop-color="#f7ca2e"/>
    </linearGradient>
    <linearGradient id="linear-gradient-2" x1="0.5" x2="0.5" y2="1" gradientUnits="objectBoundingBox">
      <stop offset="0" stop-color="#b13e8d" stop-opacity="0"/>
      <stop offset="0.091" stop-color="#b13e8d" stop-opacity="0.129"/>
      <stop offset="0.283" stop-color="#b13e8d" stop-opacity="0.388"/>
      <stop offset="0.465" stop-color="#b13e8d" stop-opacity="0.612"/>
      <stop offset="0.633" stop-color="#b13e8d" stop-opacity="0.78"/>
      <stop offset="0.784" stop-color="#b13e8d"/>
      <stop offset="0.911" stop-color="#b13e8d" stop-opacity="0.969"/>
      <stop offset="1" stop-color="#b13e8d"/>
    </linearGradient>
    <filter id="Rectángulo_40720" x="41" y="4" width="108" height="108" filterUnits="userSpaceOnUse">
      <feOffset dy="3" input="SourceAlpha"/>
      <feGaussianBlur stdDeviation="3" result="blur"/>
      <feFlood flood-opacity="0.161"/>
      <feComposite operator="in" in2="blur"/>
      <feComposite in="SourceGraphic"/>
    </filter>
  </defs>
  <g id="Grupo_136142" data-name="Grupo 136142" transform="translate(-180 -1930.893)">
    <g id="Grupo_135097" data-name="Grupo 135097" transform="translate(0 1531.893)">
      <rect id="Rectángulo_40586" data-name="Rectángulo 40586" width="190" height="20" transform="translate(180 444)" fill="none"/>
      <g id="Grupo_108405" data-name="Grupo 108405" transform="translate(209.5 463)">
        <path id="Rectángulo_5242" data-name="Rectángulo 5242" d="M0,0H12a0,0,0,0,1,0,0V43.333a3,3,0,0,1-3,3H3a3,3,0,0,1-3-3V0A0,0,0,0,1,0,0Z" transform="translate(0 0)" fill="url(#linear-gradient)"/>
      </g>
      <g id="Grupo_108406" data-name="Grupo 108406" transform="translate(340 451) rotate(180)">
        <path id="Rectángulo_5242-2" data-name="Rectángulo 5242" d="M0,0H12a0,0,0,0,1,0,0V49a3,3,0,0,1-3,3H3a3,3,0,0,1-3-3V0A0,0,0,0,1,0,0Z" transform="translate(0 0)" fill="url(#linear-gradient-2)"/>
      </g>
      <g transform="matrix(1, 0, 0, 1, 180, 399)" filter="url(#Rectángulo_40720)">
        <path id="Rectángulo_40720-2" data-name="Rectángulo 40720" d="M10,0H80A10,10,0,0,1,90,10V90a0,0,0,0,1,0,0H10A10,10,0,0,1,0,80V10A10,10,0,0,1,10,0Z" transform="translate(50 10)" fill="#f6f6f6"/>
      </g>
    </g>
    <g id="Analysis-report-document-develop-infromation" transform="translate(238.491 1950.559)">
      <path id="Trazado_193949" data-name="Trazado 193949" d="M61.71,13.29l-11-11A1.033,1.033,0,0,0,50,2H25a3.009,3.009,0,0,0-3,3v6.05a20.973,20.973,0,0,0,0,41.9V59a3.009,3.009,0,0,0,3,3H59a3.009,3.009,0,0,0,3-3V14a1.033,1.033,0,0,0-.29-.71ZM51,5.41,58.59,13H52a1,1,0,0,1-1-1ZM4,32A19.023,19.023,0,0,1,22,13.03V31.59L8.9,44.69A18.879,18.879,0,0,1,4,32Zm6.31,14.1L23.41,33H41.97A18.963,18.963,0,0,1,10.31,46.1ZM60,59a1,1,0,0,1-1,1H25a1,1,0,0,1-1-1V52.95A21.014,21.014,0,0,0,44,32a1,1,0,0,0-1-1H24V5a1,1,0,0,1,1-1H49v8a3.009,3.009,0,0,0,3,3h8Z" fill="#6836bf"/>
      <path id="Trazado_193950" data-name="Trazado 193950" d="M27,7a1,1,0,0,0-1,1V28a1,1,0,0,0,1,1H47a1,1,0,0,0,1-1A21.023,21.023,0,0,0,27,7Zm1,20V9.03A19.017,19.017,0,0,1,45.97,27Z" fill="#6836bf"/>
      <path id="Trazado_193951" data-name="Trazado 193951" d="M49,40a9,9,0,1,0,9,9,9,9,0,0,0-9-9Zm0,16a7,7,0,1,1,7-7A7,7,0,0,1,49,56Z" fill="#6836bf"/>
      <path id="Trazado_193952" data-name="Trazado 193952" d="M47,50.586l-2.293-2.293-1.414,1.414,3,3a1,1,0,0,0,1.414,0l6-6-1.414-1.414Z" fill="#6836bf"/>
      <path id="Trazado_193953" data-name="Trazado 193953" d="M50,19h8v2H50Z" fill="#6836bf"/>
      <path id="Trazado_193954" data-name="Trazado 193954" d="M50,25h8v2H50Z" fill="#6836bf"/>
      <path id="Trazado_193955" data-name="Trazado 193955" d="M50,31h8v2H50Z" fill="#6836bf"/>
    </g>
  </g>
</svg>
