<svg xmlns="http://www.w3.org/2000/svg" xmlns:xlink="http://www.w3.org/1999/xlink" width="1328" height="547" viewBox="0 0 1328 547">
  <defs>
    <clipPath id="clip-path">
      <path id="Rect치ngulo_41192" data-name="Rect치ngulo 41192" d="M0,0H1328a0,0,0,0,1,0,0V527a20,20,0,0,1-20,20H20A20,20,0,0,1,0,527V0A0,0,0,0,1,0,0Z" transform="translate(136 2195)" fill="#7fc733"/>
    </clipPath>
  </defs>
  <g id="Enmascarar_grupo_135" data-name="Enmascarar grupo 135" transform="translate(-136 -2195)" opacity="0.147" clip-path="url(#clip-path)">
    <path id="Sustracci칩n_35" data-name="Sustracci칩n 35" d="M5605.443,11979.759c38.238,11.112,152.018,45.986,504.254,7.969s305.84-274.966,305.84-274.966v527.174s-615.73-235.824-1114.537-207.1-360.69,951.675-360.69,951.675V11784.637s113.393-101.677,239.645,45.525,103.883,117.387,103.883,117.387h188.439S5567.2,11968.646,5605.443,11979.759Z" transform="translate(-4931 -9480.305)" fill="#6836bf"/>
  </g>
</svg>
