<svg xmlns="http://www.w3.org/2000/svg" xmlns:xlink="http://www.w3.org/1999/xlink" width="190" height="112" viewBox="0 0 190 112">
  <defs>
    <linearGradient id="linear-gradient" x1="0.5" x2="0.5" y2="1" gradientUnits="objectBoundingBox">
      <stop offset="0" stop-color="#f7ca2e" stop-opacity="0"/>
      <stop offset="0.091" stop-color="#f7ca2e" stop-opacity="0.129"/>
      <stop offset="0.283" stop-color="#f7ca2e" stop-opacity="0.388"/>
      <stop offset="0.465" stop-color="#f7ca2e" stop-opacity="0.612"/>
      <stop offset="0.633" stop-color="#f7ca2e" stop-opacity="0.78"/>
      <stop offset="0.784" stop-color="#f7ca2e" stop-opacity="0.902"/>
      <stop offset="0.911" stop-color="#f7ca2e" stop-opacity="0.969"/>
      <stop offset="1" stop-color="#f7ca2e"/>
    </linearGradient>
    <linearGradient id="linear-gradient-2" x1="0.5" x2="0.5" y2="1" gradientUnits="objectBoundingBox">
      <stop offset="0" stop-color="#b13e8d" stop-opacity="0"/>
      <stop offset="0.091" stop-color="#b13e8d" stop-opacity="0.129"/>
      <stop offset="0.283" stop-color="#b13e8d" stop-opacity="0.388"/>
      <stop offset="0.465" stop-color="#b13e8d" stop-opacity="0.612"/>
      <stop offset="0.633" stop-color="#b13e8d" stop-opacity="0.78"/>
      <stop offset="0.784" stop-color="#b13e8d"/>
      <stop offset="0.911" stop-color="#b13e8d" stop-opacity="0.969"/>
      <stop offset="1" stop-color="#b13e8d"/>
    </linearGradient>
    <filter id="Rectángulo_40720" x="41" y="4" width="108" height="108" filterUnits="userSpaceOnUse">
      <feOffset dy="3" input="SourceAlpha"/>
      <feGaussianBlur stdDeviation="3" result="blur"/>
      <feFlood flood-opacity="0.161"/>
      <feComposite operator="in" in2="blur"/>
      <feComposite in="SourceGraphic"/>
    </filter>
  </defs>
  <g id="Grupo_136148" data-name="Grupo 136148" transform="translate(-180 -3293.08)">
    <g id="Grupo_134933" data-name="Grupo 134933" transform="translate(0 2894.08)">
      <rect id="Rectángulo_40586" data-name="Rectángulo 40586" width="190" height="20" transform="translate(180 444)" fill="none"/>
      <g id="Grupo_108405" data-name="Grupo 108405" transform="translate(209.5 463)">
        <path id="Rectángulo_5242" data-name="Rectángulo 5242" d="M0,0H12a0,0,0,0,1,0,0V43.333a3,3,0,0,1-3,3H3a3,3,0,0,1-3-3V0A0,0,0,0,1,0,0Z" transform="translate(0 0)" fill="url(#linear-gradient)"/>
      </g>
      <g id="Grupo_108406" data-name="Grupo 108406" transform="translate(340 451) rotate(180)">
        <path id="Rectángulo_5242-2" data-name="Rectángulo 5242" d="M0,0H12a0,0,0,0,1,0,0V49a3,3,0,0,1-3,3H3a3,3,0,0,1-3-3V0A0,0,0,0,1,0,0Z" transform="translate(0 0)" fill="url(#linear-gradient-2)"/>
      </g>
      <g transform="matrix(1, 0, 0, 1, 180, 399)" filter="url(#Rectángulo_40720)">
        <path id="Rectángulo_40720-2" data-name="Rectángulo 40720" d="M10,0H80A10,10,0,0,1,90,10V90a0,0,0,0,1,0,0H10A10,10,0,0,1,0,80V10A10,10,0,0,1,10,0Z" transform="translate(50 10)" fill="#f6f6f6"/>
      </g>
    </g>
    <g id="Layer_46" transform="translate(226.438 3311)">
      <g id="Grupo_135208" data-name="Grupo 135208" transform="translate(17.063 0)">
        <g id="Grupo_135146" data-name="Grupo 135146" transform="translate(18.977 14.188)">
          <g id="Grupo_135145" data-name="Grupo 135145">
            <g id="Grupo_135144" data-name="Grupo 135144">
              <path id="Trazado_192859" data-name="Trazado 192859" d="M108.847,56a1.244,1.244,0,0,0-1.206-1.222c-4.2-.123-6.357-1.81-7.091-2.529a1.249,1.249,0,0,0-1.855.116c-3.538,4.448-8.682,3.931-10.729,3.5a1.244,1.244,0,0,0-1.5,1.218v8.453a11.192,11.192,0,0,0,22.385,0V56.176c0-.059,0-.118,0-.178Zm-1.365,9.539a9.825,9.825,0,0,1-19.65,0v-8.3c1.946.381,7.837,1.025,11.854-3.921,1.091,1.033,3.487,2.672,7.8,2.827v9.4Z" transform="translate(-86.464 -51.889)" fill="#6836bf"/>
            </g>
          </g>
        </g>
        <g id="Grupo_135148" data-name="Grupo 135148" transform="translate(15.565 4.399)">
          <g id="Grupo_135147" data-name="Grupo 135147">
            <path id="Trazado_192860" data-name="Trazado 192860" d="M96.813,18.17a6.624,6.624,0,0,0-2.843.645A6.724,6.724,0,0,0,88.6,16.088H85.517A11.544,11.544,0,0,0,73.986,27.619v4.766a.684.684,0,0,0,1.367,0V27.619A10.175,10.175,0,0,1,85.517,17.455H88.6a5.355,5.355,0,0,1,4.561,2.606.684.684,0,0,0,.938.235,5.3,5.3,0,0,1,8.034,4.561V32.55a.684.684,0,0,0,1.367,0V24.857a6.694,6.694,0,0,0-6.686-6.686Z" transform="translate(-73.986 -16.088)" fill="#6836bf"/>
          </g>
        </g>
        <g id="Grupo_135150" data-name="Grupo 135150" transform="translate(40.21 19.144)">
          <g id="Grupo_135149" data-name="Grupo 135149">
            <path id="Trazado_192861" data-name="Trazado 192861" d="M165.258,70.014a5.01,5.01,0,0,0-.532.029.683.683,0,0,0,.147,1.359,3.615,3.615,0,0,1,.385-.021,3.7,3.7,0,0,1,0,7.408,3.279,3.279,0,0,1-.359-.021.684.684,0,1,0-.149,1.359,4.632,4.632,0,0,0,.508.029,5.071,5.071,0,1,0,0-10.142Z" transform="translate(-164.116 -70.014)" fill="#6836bf"/>
          </g>
        </g>
        <g id="Grupo_135152" data-name="Grupo 135152" transform="translate(13.915 19.145)">
          <g id="Grupo_135151" data-name="Grupo 135151">
            <path id="Trazado_192862" data-name="Trazado 192862" d="M74.211,79.356a.684.684,0,0,0-.763-.594,3.37,3.37,0,0,1-.424.028,3.7,3.7,0,0,1,0-7.408,3.581,3.581,0,0,1,.39.022.684.684,0,1,0,.149-1.359,5,5,0,0,0-.539-.03,5.071,5.071,0,0,0,0,10.142,4.718,4.718,0,0,0,.593-.039A.684.684,0,0,0,74.211,79.356Z" transform="translate(-67.953 -70.016)" fill="#6836bf"/>
          </g>
        </g>
        <g id="Grupo_135155" data-name="Grupo 135155" transform="translate(24.341 49.006)">
          <g id="Grupo_135154" data-name="Grupo 135154">
            <g id="Grupo_135153" data-name="Grupo 135153">
              <path id="Trazado_192863" data-name="Trazado 192863" d="M116.905,180.175a3.71,3.71,0,0,0-4.829-.114,3.712,3.712,0,0,0-4.829.114,3.648,3.648,0,0,0-.095,5.251l3.829,3.829a1.55,1.55,0,0,0,2.192,0L117,185.425a3.647,3.647,0,0,0-.1-5.251Zm-.871,4.284-3.829,3.829a.183.183,0,0,1-.258,0l-3.829-3.829a2.281,2.281,0,0,1,.06-3.283,2.231,2.231,0,0,1,1.528-.589,2.388,2.388,0,0,1,1.687.7.966.966,0,0,0,1.365,0,2.337,2.337,0,0,1,3.215-.108,2.28,2.28,0,0,1,.06,3.283Z" transform="translate(-106.083 -179.223)" fill="#6836bf"/>
            </g>
          </g>
        </g>
        <g id="Grupo_135157" data-name="Grupo 135157" transform="translate(0 36.321)">
          <g id="Grupo_135156" data-name="Grupo 135156">
            <path id="Trazado_192864" data-name="Trazado 192864" d="M76.859,156.1,72.5,147.969c-.393-.734-.843-1.59-1.206-2.469a7.983,7.983,0,0,0-5.429-4.692l-7.517-1.892-3.056-1.507a3.224,3.224,0,0,1-1.81-2.91v-.983a.684.684,0,0,0-1.367,0v.983a4.583,4.583,0,0,0,2.573,4.137l3.121,1.539a.681.681,0,0,0,.135.05l7.587,1.91a6.616,6.616,0,0,1,4.5,3.889c.387.937.855,1.829,1.264,2.592l4.357,8.135a5.631,5.631,0,0,1-4.931,8.394H24.072a5.632,5.632,0,0,1-4.931-8.394l4.357-8.135a28.5,28.5,0,0,0,1.264-2.592,6.615,6.615,0,0,1,4.5-3.889l7.587-1.91a.681.681,0,0,0,.135-.05l3.121-1.539a4.583,4.583,0,0,0,2.572-4.137v-.852a.684.684,0,0,0-1.367,0v.852a3.225,3.225,0,0,1-1.81,2.91l-3.056,1.507-7.517,1.892A7.983,7.983,0,0,0,23.5,145.5a27.2,27.2,0,0,1-1.206,2.469L17.936,156.1a7,7,0,0,0,6.136,10.407h46.65A7,7,0,0,0,76.859,156.1Z" transform="translate(-17.063 -132.832)" fill="#6836bf"/>
          </g>
        </g>
        <g id="Grupo_135159" data-name="Grupo 135159" transform="translate(21.66 41.236)">
          <g id="Grupo_135158" data-name="Grupo 135158">
            <path id="Trazado_192865" data-name="Trazado 192865" d="M113.256,150.948a.683.683,0,0,0-.934.248,8.5,8.5,0,0,1-14.769-.046.684.684,0,0,0-1.186.679,9.863,9.863,0,0,0,17.137.054A.684.684,0,0,0,113.256,150.948Z" transform="translate(-96.276 -150.805)" fill="#6836bf"/>
          </g>
        </g>
        <g id="Grupo_135161" data-name="Grupo 135161" transform="translate(42.606 58.863)">
          <g id="Grupo_135160" data-name="Grupo 135160">
            <path id="Trazado_192866" data-name="Trazado 192866" d="M185.381,215.271H174.73a1.853,1.853,0,0,0-1.85,1.85v8.329a.684.684,0,0,0,1.367,0v-8.329a.483.483,0,0,1,.483-.483h10.651a.684.684,0,0,0,0-1.367Z" transform="translate(-172.88 -215.271)" fill="#6836bf"/>
          </g>
        </g>
        <g id="Grupo_135163" data-name="Grupo 135163" transform="translate(31.355 58.373)">
          <g id="Grupo_135162" data-name="Grupo 135162">
            <path id="Trazado_192867" data-name="Trazado 192867" d="M143.57,215.133h-1.047a2.127,2.127,0,0,1-1.514-.627,3.485,3.485,0,0,0-2.481-1.028h-1.312a1.513,1.513,0,0,0-1.511,1.511.144.144,0,0,1-.144.144h-1.3a2.535,2.535,0,0,0-2.532,2.532v3.367a4.074,4.074,0,0,0,4.048,4.073h0a.684.684,0,0,0,0-1.367,2.706,2.706,0,0,1-2.689-2.706v-3.367a1.166,1.166,0,0,1,1.165-1.165h1.3a1.513,1.513,0,0,0,1.511-1.511.144.144,0,0,1,.144-.144h1.312a2.127,2.127,0,0,1,1.514.627,3.486,3.486,0,0,0,2.481,1.028h1.047a.684.684,0,1,0,0-1.367Z" transform="translate(-131.734 -213.478)" fill="#6836bf"/>
          </g>
        </g>
        <g id="Grupo_135165" data-name="Grupo 135165" transform="translate(4.878 58.863)">
          <g id="Grupo_135164" data-name="Grupo 135164">
            <path id="Trazado_192868" data-name="Trazado 192868" d="M46.236,215.271H35.585a.684.684,0,0,0,0,1.367H46.236a.483.483,0,0,1,.483.483v8.329a.684.684,0,0,0,1.367,0v-8.329A1.853,1.853,0,0,0,46.236,215.271Z" transform="translate(-34.901 -215.271)" fill="#6836bf"/>
          </g>
        </g>
        <g id="Grupo_135167" data-name="Grupo 135167" transform="translate(16.828 58.373)">
          <g id="Grupo_135166" data-name="Grupo 135166">
            <path id="Trazado_192869" data-name="Trazado 192869" d="M88.558,215.133h-1.3a.144.144,0,0,1-.144-.144,1.513,1.513,0,0,0-1.511-1.511H84.3a3.486,3.486,0,0,0-2.481,1.028,2.128,2.128,0,0,1-1.514.627H79.288a.684.684,0,0,0,0,1.367H80.3a3.485,3.485,0,0,0,2.481-1.028,2.127,2.127,0,0,1,1.514-.627h1.312a.144.144,0,0,1,.144.144,1.513,1.513,0,0,0,1.511,1.511h1.3a1.166,1.166,0,0,1,1.165,1.165v3.367a2.706,2.706,0,0,1-2.644,2.706.684.684,0,0,0,.016,1.367h.016a4.074,4.074,0,0,0,3.979-4.073v-3.367A2.535,2.535,0,0,0,88.558,215.133Z" transform="translate(-78.604 -213.478)" fill="#6836bf"/>
          </g>
        </g>
        <g id="Grupo_135169" data-name="Grupo 135169" transform="translate(36.215 39.746)">
          <g id="Grupo_135168" data-name="Grupo 135168">
            <path id="Trazado_192870" data-name="Trazado 192870" d="M158.511,145.542a.683.683,0,0,0-.966.031l-7.855,8.379a.684.684,0,1,0,1,.935l7.855-8.379A.684.684,0,0,0,158.511,145.542Z" transform="translate(-149.505 -145.357)" fill="#6836bf"/>
          </g>
        </g>
        <g id="Grupo_135171" data-name="Grupo 135171" transform="translate(45.791 36.051)">
          <g id="Grupo_135170" data-name="Grupo 135170">
            <path id="Trazado_192871" data-name="Trazado 192871" d="M187.447,132.028a.683.683,0,0,0-.966.031l-1.767,1.885a.684.684,0,1,0,1,.935l1.767-1.885A.684.684,0,0,0,187.447,132.028Z" transform="translate(-184.529 -131.843)" fill="#6836bf"/>
          </g>
        </g>
        <g id="Grupo_135173" data-name="Grupo 135173" transform="translate(37.93 49.778)">
          <g id="Grupo_135172" data-name="Grupo 135172">
            <path id="Trazado_192872" data-name="Trazado 192872" d="M161.035,182.519a.683.683,0,0,0-.862-.438l-3.923,1.278a.683.683,0,1,0,.423,1.3l3.923-1.278a.683.683,0,0,0,.438-.861Z" transform="translate(-155.779 -182.047)" fill="#6836bf"/>
          </g>
        </g>
        <g id="Grupo_135175" data-name="Grupo 135175" transform="translate(44.258 46.271)">
          <g id="Grupo_135174" data-name="Grupo 135174">
            <path id="Trazado_192873" data-name="Trazado 192873" d="M190.537,169.724a.684.684,0,0,0-.841-.477l-10.274,2.83a.684.684,0,1,0,.363,1.318l10.274-2.83a.683.683,0,0,0,.477-.841Z" transform="translate(-178.92 -169.221)" fill="#6836bf"/>
          </g>
        </g>
        <g id="Grupo_135177" data-name="Grupo 135177" transform="translate(37.855 54.961)">
          <g id="Grupo_135176" data-name="Grupo 135176">
            <path id="Trazado_192874" data-name="Trazado 192874" d="M166.853,201H156.189a.684.684,0,0,0,0,1.367h10.664a.684.684,0,0,0,0-1.367Z" transform="translate(-155.505 -201)" fill="#6836bf"/>
          </g>
        </g>
        <g id="Grupo_135179" data-name="Grupo 135179" transform="translate(15.232 39.746)">
          <g id="Grupo_135178" data-name="Grupo 135178">
            <path id="Trazado_192875" data-name="Trazado 192875" d="M81.805,153.952l-7.855-8.379a.684.684,0,0,0-1,.935l7.855,8.379a.684.684,0,0,0,1-.935Z" transform="translate(-72.768 -145.357)" fill="#6836bf"/>
          </g>
        </g>
        <g id="Grupo_135181" data-name="Grupo 135181" transform="translate(11.743 36.051)">
          <g id="Grupo_135180" data-name="Grupo 135180">
            <path id="Trazado_192876" data-name="Trazado 192876" d="M62.959,133.944l-1.767-1.885a.684.684,0,1,0-1,.935l1.767,1.885a.684.684,0,0,0,1-.935Z" transform="translate(-60.01 -131.844)" fill="#6836bf"/>
          </g>
        </g>
        <g id="Grupo_135183" data-name="Grupo 135183" transform="translate(17.449 49.779)">
          <g id="Grupo_135182" data-name="Grupo 135182">
            <path id="Trazado_192877" data-name="Trazado 192877" d="M85.693,183.36l-3.923-1.278a.684.684,0,1,0-.423,1.3l3.923,1.278a.684.684,0,1,0,.423-1.3Z" transform="translate(-80.875 -182.048)" fill="#6836bf"/>
          </g>
        </g>
        <g id="Grupo_135185" data-name="Grupo 135185" transform="translate(4.769 46.271)">
          <g id="Grupo_135184" data-name="Grupo 135184">
            <path id="Trazado_192878" data-name="Trazado 192878" d="M45.644,172.075l-10.274-2.83a.684.684,0,0,0-.363,1.318l10.274,2.83a.677.677,0,0,0,.182.025.684.684,0,0,0,.181-1.343Z" transform="translate(-34.504 -169.22)" fill="#6836bf"/>
          </g>
        </g>
        <g id="Grupo_135187" data-name="Grupo 135187" transform="translate(10.782 54.961)">
          <g id="Grupo_135186" data-name="Grupo 135186">
            <path id="Trazado_192879" data-name="Trazado 192879" d="M67.843,201H57.179a.684.684,0,0,0,0,1.367H67.843a.684.684,0,0,0,0-1.367Z" transform="translate(-56.495 -201)" fill="#6836bf"/>
          </g>
        </g>
        <g id="Grupo_135197" data-name="Grupo 135197" transform="translate(33.214 23.532)">
          <g id="Grupo_135196" data-name="Grupo 135196">
            <path id="Trazado_192884" data-name="Trazado 192884" d="M139.889,86.06a1.359,1.359,0,1,0,1.359,1.359A1.359,1.359,0,0,0,139.889,86.06Z" transform="translate(-138.53 -86.06)" fill="#6836bf"/>
          </g>
        </g>
        <g id="Grupo_135199" data-name="Grupo 135199" transform="translate(24.737 23.532)">
          <g id="Grupo_135198" data-name="Grupo 135198">
            <path id="Trazado_192885" data-name="Trazado 192885" d="M108.889,86.06a1.359,1.359,0,1,0,1.359,1.359A1.359,1.359,0,0,0,108.889,86.06Z" transform="translate(-107.53 -86.06)" fill="#6836bf"/>
          </g>
        </g>
        <g id="Grupo_135203" data-name="Grupo 135203" transform="translate(26.337 30.174)">
          <g id="Grupo_135202" data-name="Grupo 135202">
            <path id="Trazado_192886" data-name="Trazado 192886" d="M121.3,110.729a.684.684,0,0,0-.917-.3,7.131,7.131,0,0,1-6.014,0,.684.684,0,0,0-.613,1.222,8.493,8.493,0,0,0,7.239,0A.684.684,0,0,0,121.3,110.729Z" transform="translate(-113.382 -110.351)" fill="#6836bf"/>
          </g>
        </g>
        <g id="Grupo_135205" data-name="Grupo 135205" transform="translate(13.655 51.543)">
          <g id="Grupo_135204" data-name="Grupo 135204">
            <path id="Trazado_192887" data-name="Trazado 192887" d="M67.684,188.5a.683.683,0,0,0-.684.684v7.047a.684.684,0,0,0,1.367,0v-7.047A.683.683,0,0,0,67.684,188.5Z" transform="translate(-67 -188.5)" fill="#6836bf"/>
          </g>
        </g>
        <g id="Grupo_135207" data-name="Grupo 135207" transform="translate(45.647 51.543)">
          <g id="Grupo_135206" data-name="Grupo 135206">
            <path id="Trazado_192888" data-name="Trazado 192888" d="M184.684,188.5a.683.683,0,0,0-.684.684v7.047a.684.684,0,0,0,1.367,0v-7.047A.683.683,0,0,0,184.684,188.5Z" transform="translate(-184 -188.5)" fill="#6836bf"/>
          </g>
        </g>
      </g>
    </g>
  </g>
</svg>
