<svg xmlns="http://www.w3.org/2000/svg" xmlns:xlink="http://www.w3.org/1999/xlink" width="190" height="112" viewBox="0 0 190 112">
  <defs>
    <linearGradient id="linear-gradient" x1="0.5" x2="0.5" y2="1" gradientUnits="objectBoundingBox">
      <stop offset="0" stop-color="#f7ca2e" stop-opacity="0"/>
      <stop offset="0.091" stop-color="#f7ca2e" stop-opacity="0.129"/>
      <stop offset="0.283" stop-color="#f7ca2e" stop-opacity="0.388"/>
      <stop offset="0.465" stop-color="#f7ca2e" stop-opacity="0.612"/>
      <stop offset="0.633" stop-color="#f7ca2e" stop-opacity="0.78"/>
      <stop offset="0.784" stop-color="#f7ca2e" stop-opacity="0.902"/>
      <stop offset="0.911" stop-color="#f7ca2e" stop-opacity="0.969"/>
      <stop offset="1" stop-color="#f7ca2e"/>
    </linearGradient>
    <linearGradient id="linear-gradient-2" x1="0.5" x2="0.5" y2="1" gradientUnits="objectBoundingBox">
      <stop offset="0" stop-color="#b13e8d" stop-opacity="0"/>
      <stop offset="0.091" stop-color="#b13e8d" stop-opacity="0.129"/>
      <stop offset="0.283" stop-color="#b13e8d" stop-opacity="0.388"/>
      <stop offset="0.465" stop-color="#b13e8d" stop-opacity="0.612"/>
      <stop offset="0.633" stop-color="#b13e8d" stop-opacity="0.78"/>
      <stop offset="0.784" stop-color="#b13e8d"/>
      <stop offset="0.911" stop-color="#b13e8d" stop-opacity="0.969"/>
      <stop offset="1" stop-color="#b13e8d"/>
    </linearGradient>
    <filter id="Rectángulo_40720" x="41" y="4" width="108" height="108" filterUnits="userSpaceOnUse">
      <feOffset dy="3" input="SourceAlpha"/>
      <feGaussianBlur stdDeviation="3" result="blur"/>
      <feFlood flood-opacity="0.161"/>
      <feComposite operator="in" in2="blur"/>
      <feComposite in="SourceGraphic"/>
    </filter>
  </defs>
  <g id="Grupo_136149" data-name="Grupo 136149" transform="translate(-180 -4892)">
    <g id="Grupo_134944" data-name="Grupo 134944" transform="translate(0 4493)">
      <rect id="Rectángulo_40586" data-name="Rectángulo 40586" width="190" height="20" transform="translate(180 444)" fill="none"/>
      <g id="Grupo_108405" data-name="Grupo 108405" transform="translate(209.5 463)">
        <path id="Rectángulo_5242" data-name="Rectángulo 5242" d="M0,0H12a0,0,0,0,1,0,0V43.333a3,3,0,0,1-3,3H3a3,3,0,0,1-3-3V0A0,0,0,0,1,0,0Z" transform="translate(0 0)" fill="url(#linear-gradient)"/>
      </g>
      <g id="Grupo_108406" data-name="Grupo 108406" transform="translate(340 451) rotate(180)">
        <path id="Rectángulo_5242-2" data-name="Rectángulo 5242" d="M0,0H12a0,0,0,0,1,0,0V49a3,3,0,0,1-3,3H3a3,3,0,0,1-3-3V0A0,0,0,0,1,0,0Z" transform="translate(0 0)" fill="url(#linear-gradient-2)"/>
      </g>
      <g transform="matrix(1, 0, 0, 1, 180, 399)" filter="url(#Rectángulo_40720)">
        <path id="Rectángulo_40720-2" data-name="Rectángulo 40720" d="M10,0H80A10,10,0,0,1,90,10V90a0,0,0,0,1,0,0H10A10,10,0,0,1,0,80V10A10,10,0,0,1,10,0Z" transform="translate(50 10)" fill="#f6f6f6"/>
      </g>
    </g>
    <g id="deslizar" transform="translate(243 4915)">
      <path id="Trazado_192924" data-name="Trazado 192924" d="M2,37.5a3.5,3.5,0,0,0,7,0,9.674,9.674,0,0,1,.374-2.668,17.684,17.684,0,0,1,5.707-8.764l.007-.006A23.507,23.507,0,0,0,28.075,45.155l9.131,4.566,4.019,10.452a4.412,4.412,0,0,0,5.755,2.512l3.268-1.307A2.789,2.789,0,0,0,49.211,56H47.705L42.942,42.664a1,1,0,0,0-.387-.5l-4.051-2.7,6.21-1.38,8.9,8.012a3.591,3.591,0,0,0,4.825-.127l2.23-2.23A4.566,4.566,0,0,0,62,40.535a2.535,2.535,0,0,0-3.941-2.109L56.133,39.71l-7.98-8.1A6.161,6.161,0,0,0,44,30H32.65l-2.9-6.533L34.686,24.7a9.985,9.985,0,0,0,6.452-.554l8.033-3.557A3.51,3.51,0,0,0,47.49,14a7.969,7.969,0,0,0-3.258.691l-7.284,3.238L25.124,13.987A2.981,2.981,0,0,0,27,8.78V6a3.008,3.008,0,0,0-2.129-2.872A3.006,3.006,0,0,0,22,1H17a6.006,6.006,0,0,0-6,6V8.78A2.989,2.989,0,0,0,13,14h.812a5.973,5.973,0,0,0,.678.944l-3.03,2.778A29.933,29.933,0,0,0,2.285,34.346,17.636,17.636,0,0,0,2,37.5ZM49.211,58a.789.789,0,0,1,.293,1.521l-3.266,1.306a2.473,2.473,0,0,1-2.879-.888L47.236,58Zm9.957-17.91a.553.553,0,0,1,.832.445,2.555,2.555,0,0,1-.743,1.794L57.026,44.56a1.545,1.545,0,0,1-2.072.053l-.247-.222L56.7,41.738ZM44,32a4.139,4.139,0,0,1,2.768,1.047l7.916,8.041-1.469,1.96-7.546-6.791a1.009,1.009,0,0,0-.886-.234l-9,2a1,1,0,0,0-.338,1.809l5.724,3.816L45.76,56.5l-3.19,1.6-3.636-9.456a1.006,1.006,0,0,0-.487-.536l-9.478-4.739a21.764,21.764,0,0,1-5.515-3.943L32.362,32ZM37.406,19.914l7.638-3.4A5.992,5.992,0,0,1,47.49,16a1.515,1.515,0,0,1,.8,2.8l-7.959,3.52a7.992,7.992,0,0,1-5.158.443l-2.946-.737.382-3.435,4.077,1.359A1.006,1.006,0,0,0,37.406,19.914ZM19,15a4,4,0,0,1-4-4V9h2.764a4.588,4.588,0,0,0,3.511-1.615L23,8.535V11A4,4,0,0,1,19,15Zm0,2a5.97,5.97,0,0,0,1.927-.323,3,3,0,0,1-.245.722,1.086,1.086,0,0,1-2.037-.273l-.029-.145C18.743,16.989,18.87,17,19,17Zm6-5h-.09A6,6,0,0,0,25,11V10a1,1,0,0,1,0,2ZM13,7a4,4,0,0,1,4-4h5a1,1,0,0,1,1,1,1,1,0,0,0,1,1,1,1,0,0,1,1,1V8a1,1,0,0,0-.445-.832l-3-2a1,1,0,0,0-1.45.385A2.6,2.6,0,0,1,17.764,7H14a1,1,0,0,0-1,1Zm0,5a1,1,0,0,1,0-2v1a6,6,0,0,0,.09,1Zm-.188,7.2,3.244-2.974c.133.076.271.144.411.209l.217,1.088a3.086,3.086,0,0,0,5.787.775A5.037,5.037,0,0,0,23,16.053V15.46l.058-.053,7.609,2.536-.4,3.593-2.025-.506a1,1,0,0,0-1.157,1.376l3.693,8.31L22.086,37.96A21.547,21.547,0,0,1,17,24a1,1,0,0,0-1.64-.768l-1.56,1.3c-.238.2-.46.41-.688.618l-2.629-3.5a27.342,27.342,0,0,1,2.329-2.45ZM4.252,34.7A27.913,27.913,0,0,1,9.2,23.267l2.483,3.312a19.669,19.669,0,0,0-4.233,7.7A11.669,11.669,0,0,0,7,37.5a1.5,1.5,0,1,1-3,0,15.7,15.7,0,0,1,.252-2.8Z" fill="#6836bf"/>
      <rect id="Rectángulo_43464" data-name="Rectángulo 43464" width="22" height="2" transform="translate(14 59)" fill="#6836bf"/>
      <rect id="Rectángulo_43465" data-name="Rectángulo 43465" width="11" height="2" transform="translate(23 55)" fill="#6836bf"/>
      <rect id="Rectángulo_43466" data-name="Rectángulo 43466" width="12" height="2" transform="translate(17 51)" fill="#6836bf"/>
      <rect id="Rectángulo_43467" data-name="Rectángulo 43467" width="2" height="2" transform="translate(13 51)" fill="#6836bf"/>
      <path id="Trazado_192925" data-name="Trazado 192925" d="M54.64,57.769l6-5a1,1,0,0,0-.8-1.755l-5.577.929L50.6,49.2a1,1,0,0,0-1.57,1.042l1,4,1.94-.484-.317-1.268L53.4,53.8a1,1,0,0,0,.765.186l2.362-.393L53.36,56.231Z" fill="#6836bf"/>
    </g>
  </g>
</svg>
