<svg xmlns="http://www.w3.org/2000/svg" width="100" height="100" viewBox="0 0 100 100">
  <g id="Grupo_136152" data-name="Grupo 136152" transform="translate(-180 -5392)">
    <circle id="Elipse_5360" data-name="Elipse 5360" cx="50" cy="50" r="50" transform="translate(180 5392)" fill="#b13e8d"/>
    <g id="persona-discapacitada" transform="translate(150.013 5409.103)">
      <g id="Grupo_135265" data-name="Grupo 135265" transform="translate(50.345 -6.457)">
        <path id="Trazado_193025" data-name="Trazado 193025" d="M128.687,67.182a2.618,2.618,0,0,0,.667-1.746V64.279a2.626,2.626,0,0,0-1.82-2.5l-4.064-1.318V45.439a1.682,1.682,0,0,0,.272-1.065l-.074-.913a7.515,7.515,0,0,0-2.42-4.951l-.339-.311a1.638,1.638,0,0,0-.482-1.633,13.93,13.93,0,0,0-9.416-3.646h-10.03a.58.58,0,0,1-.58-.58V24.345a4.314,4.314,0,0,0-8.628,0v7.995a9.161,9.161,0,0,0,2.05,5.783H90.759V23a4.7,4.7,0,0,1,4.7-4.7h4.487a4.7,4.7,0,0,1,4.7,4.7v5.644a1.078,1.078,0,0,0,2.157,0V23a6.866,6.866,0,0,0-4.5-6.436V14.71c2.816-2.086,3.589-6.332,1.717-9.982C101.96.714,97.45-1.1,93.966.688a6.624,6.624,0,0,0-3.4,4.509,8.825,8.825,0,0,0,.813,6.012A9.245,9.245,0,0,0,93.1,13.565v3A6.866,6.866,0,0,0,88.6,23v2.408a3.219,3.219,0,0,0-1.121-.2H82.038a3.235,3.235,0,1,0,0,6.471h2.208v7.9a17.137,17.137,0,0,0-10.632,6.512A1.078,1.078,0,1,0,75.327,47.4a15.087,15.087,0,1,1,16.9,23.421,1.079,1.079,0,0,0,.7,2.039A17.258,17.258,0,0,0,104.427,54.38h.905a1.871,1.871,0,0,1,1.869,1.869v12.9a3.239,3.239,0,0,0,3.235,3.235H126.12a3.233,3.233,0,0,0,2.568-5.2ZM92.669,5.688a4.5,4.5,0,0,1,2.282-3.08,5,5,0,0,1,5.584,1.062h-2.71A3.387,3.387,0,0,0,94.44,7.053,2.262,2.262,0,0,1,92.871,9.2,6.46,6.46,0,0,1,92.669,5.688Zm2.224,6.6a6.929,6.929,0,0,1-1.036-1.155A4.422,4.422,0,0,0,96.6,7.053a1.228,1.228,0,0,1,1.227-1.227h4.33c1.392,2.83.754,6.053-1.482,7.381a1.078,1.078,0,0,0-.528.927v2.018c-.067,0-.134-.005-.2-.005H95.456c-.068,0-.134,0-.2.005V13.1A1.078,1.078,0,0,0,94.893,12.292Zm31.977,51.534a.474.474,0,0,1,.329.452v1.157c.01.569-.7.478-1.078.476H114.876a1.18,1.18,0,0,1-1.179-1.179V60.867h7.655a2.136,2.136,0,0,0,1.444,1.638ZM111.54,50.689a8.4,8.4,0,0,0-.634-.636h.634Zm9.976-7.085-3.443-2.241,1.481-1.481.238.218A5.364,5.364,0,0,1,121.516,43.6ZM93.931,24.345a2.157,2.157,0,1,1,4.314,0V32.34a2.74,2.74,0,0,0,2.737,2.737h10.03a11.781,11.781,0,0,1,7.563,2.734L115.5,40.881a7.505,7.505,0,0,0-4.492-1.491h-10.03a7.058,7.058,0,0,1-7.05-7.05V24.345ZM86.4,39.33V30.6a1.078,1.078,0,0,0-1.078-1.078H82.038a1.078,1.078,0,1,1,0-2.157h5.444a1.08,1.08,0,0,1,1.078,1.078V39.351c-.411-.029-.825-.045-1.243-.045C87.011,39.305,86.706,39.314,86.4,39.33Zm6.628.95h3.2c.031,0,.061,0,.091,0a9.149,9.149,0,0,0,4.661,1.272h10.03a5.27,5.27,0,0,1,3.465,1.273,1.63,1.63,0,0,0,1.061.388,1.662,1.662,0,0,0,.953-.3l4.642,3.021a1.711,1.711,0,0,0,.18.1V58.71H113.7V49.74a1.846,1.846,0,0,0-1.844-1.844h-9.625a17.338,17.338,0,0,0-9.2-7.616ZM126.12,70.225H110.436a1.08,1.08,0,0,1-1.078-1.078v-12.9a4.03,4.03,0,0,0-4.026-4.026h-1.319a17.113,17.113,0,0,0-.716-2.157h2.036a6.19,6.19,0,0,1,6.183,6.183V66.99a1.078,1.078,0,0,0,1.078,1.078H126.12a1.078,1.078,0,1,1,0,2.157Z" transform="translate(-70.07 0)" fill="#fff"/>
        <path id="Trazado_193026" data-name="Trazado 193026" d="M93.206,328.491a12.932,12.932,0,1,0-12.932-12.932,12.947,12.947,0,0,0,12.932,12.932Zm3.4-23.155a10.756,10.756,0,0,1,3.029,1.581H96.607Zm-2.157-.479v3.138a1.078,1.078,0,0,0,1.078,1.078h6.277a10.787,10.787,0,0,1,1.266,2.157h-9.7a1.08,1.08,0,0,1-1.078-1.078v-5.328c.3-.026.606-.042.914-.042a10.835,10.835,0,0,1,1.243.074Zm-4.314.374v4.921a3.239,3.239,0,0,0,3.235,3.235h10.391a10.776,10.776,0,1,1-13.626-8.156Z" transform="translate(-75.96 -259.007)" fill="#fff"/>
        <path id="Trazado_193027" data-name="Trazado 193027" d="M67.591,368.5a15.092,15.092,0,0,1-14.2-20.2,1.078,1.078,0,1,0-2.029-.733,17.248,17.248,0,0,0,16.226,23.092,1.078,1.078,0,1,0,0-2.157Z" transform="translate(-50.345 -296.855)" fill="#fff"/>
      </g>
    </g>
  </g>
</svg>
