<svg xmlns="http://www.w3.org/2000/svg" width="100" height="100" viewBox="0 0 100 100">
  <g id="Grupo_136153" data-name="Grupo 136153" transform="translate(-180 -5552)">
    <circle id="Elipse_5361" data-name="Elipse 5361" cx="50" cy="50" r="50" transform="translate(180 5552)" fill="#b13e8d"/>
    <g id="mortal" transform="translate(195 5557.163)">
      <g id="Grupo_135274" data-name="Grupo 135274" transform="translate(0 10)">
        <path id="Trazado_193036" data-name="Trazado 193036" d="M59.751,60.746l-5.877-5.878a5.088,5.088,0,0,0,1.307-6.021,2.322,2.322,0,0,1-.223-.989V41.175a20.29,20.29,0,0,0-1.7-8.157l6.5-6.5a6.429,6.429,0,0,0,8.374-.6h0A6.416,6.416,0,0,0,64.9,15.1a6.415,6.415,0,1,0-11.42,5.149l-5.557,5.556a20.27,20.27,0,0,0-6.888-3.89,1.367,1.367,0,0,0-.856,2.6A17.7,17.7,0,0,1,52.223,41.175v6.683a5.074,5.074,0,0,0,.487,2.162,2.329,2.329,0,0,1-2.086,3.3H48.941A4.736,4.736,0,0,0,44.258,58V62.36a1.95,1.95,0,0,1-1.948,1.948H39.615V60.036a1.367,1.367,0,1,0-2.735,0v4.272H32.4V60.036a1.367,1.367,0,1,0-2.735,0v4.272H27.014a1.95,1.95,0,0,1-1.948-1.948V58a4.714,4.714,0,0,0-4.682-4.683H18.7a2.333,2.333,0,0,1-2.048-3.379,5.076,5.076,0,0,0,.487-2.162v-6.6A17.7,17.7,0,0,1,29.184,24.512a1.367,1.367,0,1,0-.856-2.6,20.275,20.275,0,0,0-6.543,3.6L16.52,20.25A6.415,6.415,0,1,0,5.1,15.1a6.415,6.415,0,1,0,5.149,11.42l6.059,6.06a20.285,20.285,0,0,0-1.9,8.595v6.6a2.44,2.44,0,0,1-.261,1.071,5.089,5.089,0,0,0,1.69,6.313l-5.584,5.585A6.415,6.415,0,1,0,5.1,72.166a6.415,6.415,0,1,0,11.42-5.149L22.332,61.2V62.36a4.688,4.688,0,0,0,4.683,4.683h15.3a4.688,4.688,0,0,0,4.683-4.683V60.53l6.487,6.486A6.415,6.415,0,1,0,64.9,72.166a6.385,6.385,0,0,0,3.224-1.743h0a6.415,6.415,0,0,0-8.374-9.676Zm-48.5-37.094a1.381,1.381,0,0,0-2.012.085c-.079.093-.154.176-.222.245A3.681,3.681,0,1,1,6.354,17.7,1.367,1.367,0,0,0,7.7,16.355a3.68,3.68,0,1,1,6.288,2.653c-.077.076-.159.15-.251.228a1.382,1.382,0,0,0-.086,2.013l6.144,6.144a20.236,20.236,0,0,0-2.106,2.7Zm2.4,42.365a1.382,1.382,0,0,0,.085,2.012c.094.079.176.154.245.222A3.681,3.681,0,1,1,7.7,70.911a1.367,1.367,0,0,0-1.346-1.347,3.679,3.679,0,1,1,2.653-6.288c.075.076.15.158.229.252a1.381,1.381,0,0,0,2.012.085l7.56-7.561h1.576a1.97,1.97,0,0,1,1.861,1.371Zm42.7-44.769a1.382,1.382,0,0,0-.086-2.013c-.093-.078-.175-.153-.245-.221a3.681,3.681,0,1,1,6.281-2.66A1.367,1.367,0,0,0,63.645,17.7a3.68,3.68,0,1,1-2.653,6.288c-.075-.077-.15-.159-.228-.252a1.382,1.382,0,0,0-2.012-.085l-6.83,6.831a20.239,20.239,0,0,0-2.052-2.758Zm9.843,47.239a3.664,3.664,0,0,1-2.546,1.077A1.367,1.367,0,0,0,62.3,70.911a3.68,3.68,0,1,1-6.287-2.653c.075-.075.158-.149.251-.228a1.382,1.382,0,0,0,.085-2.012l-9.054-9.053a1.968,1.968,0,0,1,1.647-.912h1.683a5.208,5.208,0,0,0,.538-.028l7.589,7.59a1.382,1.382,0,0,0,2.012-.086c.079-.094.154-.176.222-.245a3.681,3.681,0,1,1,5.206,5.2Z" transform="translate(0 -10)" fill="#fff"/>
        <path id="Trazado_193037" data-name="Trazado 193037" d="M223.087,275.444a3.133,3.133,0,0,0-2.741,1.583l-1.661,2.877a3.193,3.193,0,0,0,2.741,4.748h3.322a3.193,3.193,0,0,0,2.741-4.748l-1.661-2.877A3.133,3.133,0,0,0,223.087,275.444Zm2.034,6.258a.417.417,0,0,1-.373.215h-3.322a.434.434,0,0,1-.373-.646l1.661-2.877a.434.434,0,0,1,.746,0l1.661,2.877A.417.417,0,0,1,225.121,281.7Z" transform="translate(-188.424 -239.149)" fill="#fff"/>
        <path id="Trazado_193038" data-name="Trazado 193038" d="M271.634,193.2h1.17a6.074,6.074,0,0,0,0-12.147h-1.17a4.909,4.909,0,0,0-4.9,4.9v2.341A4.909,4.909,0,0,0,271.634,193.2Zm-2.169-7.244a2.171,2.171,0,0,1,2.169-2.169h1.17a3.339,3.339,0,0,1,0,6.678h-1.17a2.171,2.171,0,0,1-2.169-2.169Z" transform="translate(-230.26 -157.663)" fill="#fff"/>
        <path id="Trazado_193039" data-name="Trazado 193039" d="M157.166,181.051a6.074,6.074,0,0,0,0,12.147h1.17a4.909,4.909,0,0,0,4.9-4.9v-2.341a4.909,4.909,0,0,0-4.9-4.9h-1.17Zm3.339,4.9v2.341a2.171,2.171,0,0,1-2.169,2.169h-1.17a3.339,3.339,0,0,1,0-6.678h1.17A2.171,2.171,0,0,1,160.5,185.954Z" transform="translate(-130.433 -157.663)" fill="#fff"/>
        <path id="Trazado_193040" data-name="Trazado 193040" d="M243.775,91.617a1.367,1.367,0,1,0,.74-1.786A1.38,1.38,0,0,0,243.775,91.617Z" transform="translate(-210.355 -78.829)" fill="#fff"/>
      </g>
    </g>
  </g>
</svg>
