<svg xmlns="http://www.w3.org/2000/svg" xmlns:xlink="http://www.w3.org/1999/xlink" width="190" height="112" viewBox="0 0 190 112">
  <defs>
    <linearGradient id="linear-gradient" x1="0.5" x2="0.5" y2="1" gradientUnits="objectBoundingBox">
      <stop offset="0" stop-color="#f7ca2e" stop-opacity="0"/>
      <stop offset="0.091" stop-color="#f7ca2e" stop-opacity="0.129"/>
      <stop offset="0.283" stop-color="#f7ca2e" stop-opacity="0.388"/>
      <stop offset="0.465" stop-color="#f7ca2e" stop-opacity="0.612"/>
      <stop offset="0.633" stop-color="#f7ca2e" stop-opacity="0.78"/>
      <stop offset="0.784" stop-color="#f7ca2e" stop-opacity="0.902"/>
      <stop offset="0.911" stop-color="#f7ca2e" stop-opacity="0.969"/>
      <stop offset="1" stop-color="#f7ca2e"/>
    </linearGradient>
    <linearGradient id="linear-gradient-2" x1="0.5" x2="0.5" y2="1" gradientUnits="objectBoundingBox">
      <stop offset="0" stop-color="#b13e8d" stop-opacity="0"/>
      <stop offset="0.091" stop-color="#b13e8d" stop-opacity="0.129"/>
      <stop offset="0.283" stop-color="#b13e8d" stop-opacity="0.388"/>
      <stop offset="0.465" stop-color="#b13e8d" stop-opacity="0.612"/>
      <stop offset="0.633" stop-color="#b13e8d" stop-opacity="0.78"/>
      <stop offset="0.784" stop-color="#b13e8d"/>
      <stop offset="0.911" stop-color="#b13e8d" stop-opacity="0.969"/>
      <stop offset="1" stop-color="#b13e8d"/>
    </linearGradient>
    <filter id="Rectángulo_40720" x="41" y="4" width="108" height="108" filterUnits="userSpaceOnUse">
      <feOffset dy="3" input="SourceAlpha"/>
      <feGaussianBlur stdDeviation="3" result="blur"/>
      <feFlood flood-opacity="0.161"/>
      <feComposite operator="in" in2="blur"/>
      <feComposite in="SourceGraphic"/>
    </filter>
  </defs>
  <g id="Grupo_136154" data-name="Grupo 136154" transform="translate(-180 -6894)">
    <g id="Grupo_134947" data-name="Grupo 134947" transform="translate(0 6495)">
      <rect id="Rectángulo_40586" data-name="Rectángulo 40586" width="190" height="20" transform="translate(180 444)" fill="none"/>
      <g id="Grupo_108405" data-name="Grupo 108405" transform="translate(209.5 463)">
        <path id="Rectángulo_5242" data-name="Rectángulo 5242" d="M0,0H12a0,0,0,0,1,0,0V43.333a3,3,0,0,1-3,3H3a3,3,0,0,1-3-3V0A0,0,0,0,1,0,0Z" transform="translate(0 0)" fill="url(#linear-gradient)"/>
      </g>
      <g id="Grupo_108406" data-name="Grupo 108406" transform="translate(340 451) rotate(180)">
        <path id="Rectángulo_5242-2" data-name="Rectángulo 5242" d="M0,0H12a0,0,0,0,1,0,0V49a3,3,0,0,1-3,3H3a3,3,0,0,1-3-3V0A0,0,0,0,1,0,0Z" transform="translate(0 0)" fill="url(#linear-gradient-2)"/>
      </g>
      <g transform="matrix(1, 0, 0, 1, 180, 399)" filter="url(#Rectángulo_40720)">
        <path id="Rectángulo_40720-2" data-name="Rectángulo 40720" d="M10,0H80A10,10,0,0,1,90,10V90a0,0,0,0,1,0,0H10A10,10,0,0,1,0,80V10A10,10,0,0,1,10,0Z" transform="translate(50 10)" fill="#f6f6f6"/>
      </g>
    </g>
    <g id="portapapeles" transform="translate(248 6914.216)">
      <path id="Trazado_193045" data-name="Trazado 193045" d="M48.139,6.95h-11.2a4.06,4.06,0,0,0-3.666-2.325H31.366a5.406,5.406,0,0,0-10.7,0H18.728A4.061,4.061,0,0,0,15.061,6.95H3.861A3.866,3.866,0,0,0,0,10.812V62.04A3.866,3.866,0,0,0,3.861,65.9H48.139A3.866,3.866,0,0,0,52,62.04V10.812A3.866,3.866,0,0,0,48.139,6.95ZM17.248,8.68a1.482,1.482,0,0,1,1.48-1.48H21.9a1.287,1.287,0,0,0,1.287-1.287V5.406a2.832,2.832,0,1,1,5.663,0v.507A1.287,1.287,0,0,0,30.135,7.2h3.137a1.482,1.482,0,0,1,1.48,1.48V12.1h-17.5ZM49.426,62.04a1.288,1.288,0,0,1-1.287,1.287H3.861A1.289,1.289,0,0,1,2.574,62.04V10.812A1.289,1.289,0,0,1,3.861,9.525H14.673V12.1H6.436a1.287,1.287,0,0,0-1.287,1.287V30.634a1.287,1.287,0,0,0,2.574,0V14.673H44.277v43.5H7.723V42.218a1.287,1.287,0,0,0-2.574,0V59.465a1.287,1.287,0,0,0,1.287,1.287H45.564a1.287,1.287,0,0,0,1.287-1.287V13.386A1.287,1.287,0,0,0,45.564,12.1H37.327V9.525H48.139a1.288,1.288,0,0,1,1.287,1.287Zm0,0" fill="#6836bf"/>
      <path id="Trazado_193046" data-name="Trazado 193046" d="M137.287,146.356h3.347V149.7a1.287,1.287,0,0,0,1.287,1.287h5.148a1.287,1.287,0,0,0,1.287-1.287v-3.347H151.7a1.287,1.287,0,0,0,1.287-1.287v-5.148a1.287,1.287,0,0,0-1.287-1.287h-3.347v-3.347A1.287,1.287,0,0,0,147.069,134h-5.148a1.287,1.287,0,0,0-1.287,1.287v3.347h-3.347A1.287,1.287,0,0,0,136,139.921v5.148A1.287,1.287,0,0,0,137.287,146.356Zm1.287-5.149h3.347a1.287,1.287,0,0,0,1.287-1.287v-3.347h2.574v3.347a1.287,1.287,0,0,0,1.287,1.287h3.347v2.574h-3.347a1.287,1.287,0,0,0-1.287,1.287v3.347h-2.574v-3.347a1.287,1.287,0,0,0-1.287-1.287h-3.347Zm0,0" transform="translate(-118.495 -116.752)" fill="#6836bf"/>
      <path id="Trazado_193047" data-name="Trazado 193047" d="M210.648,404H198.119a1.287,1.287,0,1,0,0,2.574h12.528a1.287,1.287,0,1,0,0-2.574Zm0,0" transform="translate(-171.497 -352)" fill="#6836bf"/>
      <path id="Trazado_193048" data-name="Trazado 193048" d="M92.573,371.346a1.287,1.287,0,0,0,1.821,0l5.149-5.148a1.287,1.287,0,0,0-1.821-1.82l-4.238,4.238-1.454-1.454a1.287,1.287,0,0,0-1.821,1.82Zm0,0" transform="translate(-78.269 -317.148)" fill="#6836bf"/>
      <path id="Trazado_193049" data-name="Trazado 193049" d="M196.832,325.287a1.287,1.287,0,0,0,1.287,1.287h12.528a1.287,1.287,0,0,0,0-2.574H198.119A1.287,1.287,0,0,0,196.832,325.287Zm0,0" transform="translate(-171.497 -282.297)" fill="#6836bf"/>
      <path id="Trazado_193050" data-name="Trazado 193050" d="M92.573,291.346a1.287,1.287,0,0,0,1.821,0l5.149-5.148a1.287,1.287,0,0,0-1.821-1.82l-4.238,4.238-1.454-1.454a1.287,1.287,0,0,0-1.821,1.82Zm0,0" transform="translate(-78.269 -247.446)" fill="#6836bf"/>
      <path id="Trazado_193051" data-name="Trazado 193051" d="M41.287,275.574a1.287,1.287,0,1,0-.91-.377A1.3,1.3,0,0,0,41.287,275.574Zm0,0" transform="translate(-34.851 -237.861)" fill="#6836bf"/>
      <path id="Trazado_193052" data-name="Trazado 193052" d="M193.287,34.574a1.287,1.287,0,1,1,.91-.377A1.3,1.3,0,0,1,193.287,34.574Zm0,0" transform="translate(-167.287 -27.881)" fill="#6836bf"/>
    </g>
  </g>
</svg>
