<svg xmlns="http://www.w3.org/2000/svg" xmlns:xlink="http://www.w3.org/1999/xlink" width="190" height="112" viewBox="0 0 190 112">
  <defs>
    <linearGradient id="linear-gradient" x1="0.5" x2="0.5" y2="1" gradientUnits="objectBoundingBox">
      <stop offset="0" stop-color="#f7ca2e" stop-opacity="0"/>
      <stop offset="0.091" stop-color="#f7ca2e" stop-opacity="0.129"/>
      <stop offset="0.283" stop-color="#f7ca2e" stop-opacity="0.388"/>
      <stop offset="0.465" stop-color="#f7ca2e" stop-opacity="0.612"/>
      <stop offset="0.633" stop-color="#f7ca2e" stop-opacity="0.78"/>
      <stop offset="0.784" stop-color="#f7ca2e" stop-opacity="0.902"/>
      <stop offset="0.911" stop-color="#f7ca2e" stop-opacity="0.969"/>
      <stop offset="1" stop-color="#f7ca2e"/>
    </linearGradient>
    <linearGradient id="linear-gradient-2" x1="0.5" x2="0.5" y2="1" gradientUnits="objectBoundingBox">
      <stop offset="0" stop-color="#b13e8d" stop-opacity="0"/>
      <stop offset="0.091" stop-color="#b13e8d" stop-opacity="0.129"/>
      <stop offset="0.283" stop-color="#b13e8d" stop-opacity="0.388"/>
      <stop offset="0.465" stop-color="#b13e8d" stop-opacity="0.612"/>
      <stop offset="0.633" stop-color="#b13e8d" stop-opacity="0.78"/>
      <stop offset="0.784" stop-color="#b13e8d"/>
      <stop offset="0.911" stop-color="#b13e8d" stop-opacity="0.969"/>
      <stop offset="1" stop-color="#b13e8d"/>
    </linearGradient>
    <filter id="Rectángulo_40720" x="41" y="4" width="108" height="108" filterUnits="userSpaceOnUse">
      <feOffset dy="3" input="SourceAlpha"/>
      <feGaussianBlur stdDeviation="3" result="blur"/>
      <feFlood flood-opacity="0.161"/>
      <feComposite operator="in" in2="blur"/>
      <feComposite in="SourceGraphic"/>
    </filter>
  </defs>
  <g id="Grupo_136155" data-name="Grupo 136155" transform="translate(-180 -8152)">
    <g id="Grupo_134957" data-name="Grupo 134957" transform="translate(0 7753)">
      <rect id="Rectángulo_40586" data-name="Rectángulo 40586" width="190" height="20" transform="translate(180 444)" fill="none"/>
      <g id="Grupo_108405" data-name="Grupo 108405" transform="translate(209.5 463)">
        <path id="Rectángulo_5242" data-name="Rectángulo 5242" d="M0,0H12a0,0,0,0,1,0,0V43.333a3,3,0,0,1-3,3H3a3,3,0,0,1-3-3V0A0,0,0,0,1,0,0Z" transform="translate(0 0)" fill="url(#linear-gradient)"/>
      </g>
      <g id="Grupo_108406" data-name="Grupo 108406" transform="translate(340 451) rotate(180)">
        <path id="Rectángulo_5242-2" data-name="Rectángulo 5242" d="M0,0H12a0,0,0,0,1,0,0V49a3,3,0,0,1-3,3H3a3,3,0,0,1-3-3V0A0,0,0,0,1,0,0Z" transform="translate(0 0)" fill="url(#linear-gradient-2)"/>
      </g>
      <g transform="matrix(1, 0, 0, 1, 180, 399)" filter="url(#Rectángulo_40720)">
        <path id="Rectángulo_40720-2" data-name="Rectángulo 40720" d="M10,0H80A10,10,0,0,1,90,10V90a0,0,0,0,1,0,0H10A10,10,0,0,1,0,80V10A10,10,0,0,1,10,0Z" transform="translate(50 10)" fill="#f6f6f6"/>
      </g>
    </g>
    <g id="documento" transform="translate(211.42 8177.159)">
      <path id="Trazado_193081" data-name="Trazado 193081" d="M137.023,346.046h2.046a1.023,1.023,0,1,0,0-2.046h-2.046a1.023,1.023,0,1,0,0,2.046Z" transform="translate(-83.721 -300.001)" fill="#6836bf"/>
      <path id="Trazado_193082" data-name="Trazado 193082" d="M209.581,344H185.023a1.023,1.023,0,1,0,0,2.046h24.557a1.023,1.023,0,1,0,0-2.046Z" transform="translate(-125.582 -300.001)" fill="#6836bf"/>
      <path id="Trazado_193083" data-name="Trazado 193083" d="M137.023,298.046h2.046a1.023,1.023,0,1,0,0-2.046h-2.046a1.023,1.023,0,1,0,0,2.046Z" transform="translate(-83.721 -258.141)" fill="#6836bf"/>
      <path id="Trazado_193084" data-name="Trazado 193084" d="M209.581,296H185.023a1.023,1.023,0,1,0,0,2.046h24.557a1.023,1.023,0,1,0,0-2.046Z" transform="translate(-125.582 -258.141)" fill="#6836bf"/>
      <path id="Trazado_193085" data-name="Trazado 193085" d="M137.023,250.046h2.046a1.023,1.023,0,0,0,0-2.046h-2.046a1.023,1.023,0,0,0,0,2.046Z" transform="translate(-83.721 -216.28)" fill="#6836bf"/>
      <path id="Trazado_193086" data-name="Trazado 193086" d="M209.581,248H185.023a1.023,1.023,0,0,0,0,2.046h24.557a1.023,1.023,0,1,0,0-2.046Z" transform="translate(-125.582 -216.28)" fill="#6836bf"/>
      <path id="Trazado_193087" data-name="Trazado 193087" d="M137.023,202.046h2.046a1.023,1.023,0,0,0,0-2.046h-2.046a1.023,1.023,0,0,0,0,2.046Z" transform="translate(-83.721 -174.419)" fill="#6836bf"/>
      <path id="Trazado_193088" data-name="Trazado 193088" d="M209.581,200H185.023a1.023,1.023,0,0,0,0,2.046h24.557a1.023,1.023,0,1,0,0-2.046Z" transform="translate(-125.582 -174.419)" fill="#6836bf"/>
      <path id="Trazado_193089" data-name="Trazado 193089" d="M137.023,154.046h2.046a1.023,1.023,0,0,0,0-2.046h-2.046a1.023,1.023,0,0,0,0,2.046Z" transform="translate(-83.721 -132.559)" fill="#6836bf"/>
      <path id="Trazado_193090" data-name="Trazado 193090" d="M184,153.023a1.023,1.023,0,0,0,1.023,1.023h24.557a1.023,1.023,0,1,0,0-2.046H185.023A1.023,1.023,0,0,0,184,153.023Z" transform="translate(-125.582 -132.559)" fill="#6836bf"/>
      <path id="Trazado_193091" data-name="Trazado 193091" d="M41.023,61.393H84a1.023,1.023,0,0,0,1.023-1.023V55.254h5.116a1.023,1.023,0,0,0,1.023-1.023V15.348c0-.023-.011-.042-.013-.064a.966.966,0,0,0-.052-.263c-.011-.033-.019-.064-.034-.1a1.023,1.023,0,0,0-.2-.3L76.532.3a1.023,1.023,0,0,0-.3-.2c-.032-.014-.063-.023-.1-.034a1.019,1.019,0,0,0-.265-.053c-.017,0-.037-.008-.059-.008H47.163a1.023,1.023,0,0,0-1.023,1.023v3.07H41.023A1.023,1.023,0,0,0,40,5.116V60.37a1.023,1.023,0,0,0,1.023,1.023ZM87.668,14.325H76.836V3.493ZM48.186,2.046h26.6v13.3a1.023,1.023,0,0,0,1.023,1.023h13.3V53.208H48.186ZM42.046,6.139h4.093V54.231a1.023,1.023,0,0,0,1.023,1.023H82.975v4.093H42.046Z" fill="#6836bf"/>
      <path id="Trazado_193092" data-name="Trazado 193092" d="M137.023,80.186h6.139a1.023,1.023,0,0,0,1.023-1.023V73.023A1.023,1.023,0,0,0,143.163,72h-6.139A1.023,1.023,0,0,0,136,73.023v6.139A1.023,1.023,0,0,0,137.023,80.186Zm1.023-6.139h4.093v4.093h-4.093Z" transform="translate(-83.721 -62.791)" fill="#6836bf"/>
    </g>
  </g>
</svg>
