<svg xmlns="http://www.w3.org/2000/svg" width="62.083" height="70" viewBox="0 0 62.083 70">
  <g id="doctor" transform="translate(-28.952)">
    <path id="Trazado_193108" data-name="Trazado 193108" d="M90.991,66.416l-3.1-18.129a5.16,5.16,0,0,0-3.617-4.095l-8.352-2.52a9.316,9.316,0,0,0-6.464-8.09c.264-.293.51-.586.734-.872a16.212,16.212,0,0,0,3.32-7.208h.644A3.043,3.043,0,0,0,77.2,22.462V20.9a3.06,3.06,0,0,0-1.575-2.658V14.5a1.025,1.025,0,1,0-2.05,0v4.206a6.318,6.318,0,0,0-1.363.394,1.029,1.029,0,0,0-.144.065c-.11.05-.22.1-.33.163V11.066A4.144,4.144,0,0,0,67.6,6.927H64.769a4.253,4.253,0,0,0-2.685.958l-.278.227a2.863,2.863,0,0,1-3.625,0L57.9,7.885a4.253,4.253,0,0,0-2.685-.958h-2.83a4.144,4.144,0,0,0-4.139,4.139v8.261c-.11-.06-.22-.113-.33-.163a1.028,1.028,0,0,0-.144-.065,6.321,6.321,0,0,0-1.363-.394V8.07a6.027,6.027,0,0,1,6.02-6.02H67.554a6.026,6.026,0,0,1,6.02,6.02V9.681a1.025,1.025,0,1,0,2.05,0V8.07A8.079,8.079,0,0,0,67.554,0H52.433a8.079,8.079,0,0,0-8.07,8.07V18.246A3.06,3.06,0,0,0,42.788,20.9v1.558A3.043,3.043,0,0,0,45.827,25.5h.644a16.211,16.211,0,0,0,3.32,7.208c.225.286.47.578.734.871a9.35,9.35,0,0,0-6.464,8.091l-8.353,2.52a5.16,5.16,0,0,0-3.617,4.095l-1.258,7.362a1.025,1.025,0,0,0,2.021.345l1.258-7.362A3.121,3.121,0,0,1,36.3,46.154l7.725-2.331v2.028a5.129,5.129,0,0,0-3.9,3.228,5.2,5.2,0,0,0-.3,1.392l-.747,9.583a2.605,2.605,0,0,0,2.6,2.808h1.278a1.025,1.025,0,1,0,0-2.05H41.675a.555.555,0,0,1-.554-.6l.747-9.583a3.147,3.147,0,0,1,.184-.843,3.1,3.1,0,0,1,2.9-1.975h.192a3.071,3.071,0,0,1,2.862,1.836,3.144,3.144,0,0,1,.24.984L49,60.214a.555.555,0,0,1-.554.6H47.164a1.025,1.025,0,1,0,0,2.05h1.278a2.606,2.606,0,0,0,2.6-2.808l-.747-9.583a5.192,5.192,0,0,0-.4-1.625,5.075,5.075,0,0,0-3.82-3V43.2L49.6,42.142c.321.675.956,2.134,2.214,5.28,1.268,3.174,2.845,7.242,4.357,11.2a1.04,1.04,0,0,0,.037.1c1.009,2.64,1.988,5.226,2.825,7.457a1.025,1.025,0,0,0,1.92,0c.837-2.231,1.816-4.817,2.825-7.457a1.021,1.021,0,0,0,.037-.1C65.326,54.666,66.9,50.6,68.17,47.427c1.26-3.15,1.9-4.61,2.217-5.286L73.91,43.2v6.055a5.3,5.3,0,1,0,2.05,0v-5.44l7.725,2.331a3.122,3.122,0,0,1,2.188,2.477l3.1,18.129a1.018,1.018,0,0,1-1,1.189H32.02a1.018,1.018,0,0,1-1-1.189l1.022-5.983a1.025,1.025,0,0,0-2.021-.345L29,66.416A3.068,3.068,0,0,0,32.02,70H87.967a3.068,3.068,0,0,0,3.024-3.584Zm-17.4-45.622a4.4,4.4,0,0,1,.99-.134,1.048,1.048,0,0,0,.5-.119.971.971,0,0,1,.073.363v1.558a.99.99,0,0,1-.989.989h-.574V20.793ZM46.4,23.451h-.574a.99.99,0,0,1-.989-.989V20.9a.973.973,0,0,1,.073-.363,1.045,1.045,0,0,0,.5.119,4.57,4.57,0,0,1,.99.134v2.657Zm2.05,1.149V21.907a1.438,1.438,0,0,0,1.85-1.379V11.066a2.091,2.091,0,0,1,2.089-2.089h2.829a2.2,2.2,0,0,1,1.387.495l.278.227a4.914,4.914,0,0,0,6.22,0l.278-.227a2.2,2.2,0,0,1,1.387-.495H67.6a2.091,2.091,0,0,1,2.089,2.089v9.463a1.438,1.438,0,0,0,1.85,1.38V24.6a13.258,13.258,0,0,1-2.952,6.842,13.515,13.515,0,0,1-2.457,2.434,1.028,1.028,0,0,0-.091.069,9.992,9.992,0,0,1-12.084,0,1.04,1.04,0,0,0-.091-.069A13.525,13.525,0,0,1,51.4,31.442,13.259,13.259,0,0,1,48.451,24.6ZM66.709,41.162l-6.716,5.019-6.716-5.019a4.861,4.861,0,0,0,1.039-2.9V36.607a12.038,12.038,0,0,0,11.353,0v1.652A4.861,4.861,0,0,0,66.709,41.162ZM51.567,40.018a2.8,2.8,0,0,0-1.728-.087l-.074.02-3.541,1.069a7.282,7.282,0,0,1,6.043-5.743v2.984A2.711,2.711,0,0,1,51.567,40.018Zm2.782,8.229-.006-.014-.154-.389-.027-.069-.148-.372L54,47.376q-.228-.573-.439-1.1l-.031-.077-.12-.3-.043-.107-.114-.281-.033-.082-.2-.49-.053-.129-.075-.183-.08-.195-.03-.073-.023-.056q-.178-.431-.338-.814l0-.006-.166-.395-.082-.193,5.776,4.317L55.539,48.24l-.013.005-1.008.428ZM56.8,54.523q-.3-.788-.611-1.582-.479-1.238-.917-2.359l.383-.163,1.563,1.817Zm3.218,8.331a1.022,1.022,0,0,0-.1-.172c-.463-1.224-1.051-2.773-1.7-4.478l.957-5.24h1.659l.957,5.24C61.1,59.99,60.486,61.6,60.014,62.854Zm1.194-11.94H58.78L57.63,49.579l2.363-1,2.363,1Zm2.6,2.027q-.307.792-.611,1.582l-.418-2.286,1.563-1.817.383.163Q64.282,51.7,63.8,52.941Zm3.926-9.85-.157.374-.021.05-.163.392-.011.027-.148.36-.028.067-.035.084-.068.166-.085.208-.028.068-.22.54-.035.087-.113.279-.045.111-.119.295-.034.084q-.209.519-.433,1.083l-.015.037-.147.37-.028.07-.155.391,0,.007-.171.432-1.009-.428-.011,0-2.415-1.026L67.811,42.9Zm2.493-3.14h0a2.8,2.8,0,0,0-1.8.068,2.71,2.71,0,0,1-.7-1.758V35.274a7.225,7.225,0,0,1,6.047,5.746Zm7.955,14.515a3.254,3.254,0,1,1-3.254-3.254A3.258,3.258,0,0,1,78.177,54.465Z" fill="#b13e8d"/>
  </g>
</svg>
