<svg xmlns="http://www.w3.org/2000/svg" width="69.998" height="70" viewBox="0 0 69.998 70">
  <g id="archivo" transform="translate(-0.5)">
    <path id="Trazado_193114" data-name="Trazado 193114" d="M234.535,222a12.031,12.031,0,1,0,12.031,12.031A12.045,12.045,0,0,0,234.535,222Zm0,21.328a9.3,9.3,0,1,1,9.3-9.3A9.307,9.307,0,0,1,234.535,243.328Zm0,0" transform="translate(-191.652 -191.648)" fill="#b13e8d"/>
    <path id="Trazado_193115" data-name="Trazado 193115" d="M69.142,62.086,58.291,51.235a17.744,17.744,0,0,0-2.561-21.121V14.764h0a1.364,1.364,0,0,0-.4-.967L41.934.4a1.363,1.363,0,0,0-.967-.4.009.009,0,0,1,0,0H4.6A4.106,4.106,0,0,0,.5,4.1V65.9A4.106,4.106,0,0,0,4.6,70H51.63a4.106,4.106,0,0,0,4.1-4.1V61.787l6.855,6.855a4.636,4.636,0,1,0,6.556-6.557ZM42.883,57.422A15.039,15.039,0,1,1,57.922,42.383,15.056,15.056,0,0,1,42.883,57.422ZM42.334,4.668,51.063,13.4H43.7a1.369,1.369,0,0,1-1.367-1.367ZM53,65.9a1.369,1.369,0,0,1-1.367,1.367H4.6A1.368,1.368,0,0,1,3.234,65.9V4.1A1.368,1.368,0,0,1,4.6,2.734h35v9.3a4.106,4.106,0,0,0,4.1,4.1H53V27.776A17.769,17.769,0,0,0,25.978,47.869H9.271a1.367,1.367,0,1,0,0,2.734H26.729a1.356,1.356,0,0,0,.372-.053,17.761,17.761,0,0,0,24.634,7.24L53,59.053Zm14.212.81a1.9,1.9,0,0,1-2.689,0L54.028,56.217a17.928,17.928,0,0,0,2.689-2.689L67.209,64.019A1.9,1.9,0,0,1,67.209,66.709Zm0,0" transform="translate(0)" fill="#b13e8d"/>
    <path id="Trazado_193116" data-name="Trazado 193116" d="M301.871,265a1.367,1.367,0,0,0,0,2.734,3.422,3.422,0,0,1,3.417,3.417,1.367,1.367,0,0,0,2.734,0A6.159,6.159,0,0,0,301.871,265Zm0,0" transform="translate(-258.988 -228.773)" fill="#b13e8d"/>
    <path id="Trazado_193117" data-name="Trazado 193117" d="M68.324,280.793H56.02a1.367,1.367,0,0,0,0,2.734h12.3a1.367,1.367,0,0,0,0-2.734Zm0,0" transform="translate(-46.749 -242.403)" fill="#b13e8d"/>
    <path id="Trazado_193118" data-name="Trazado 193118" d="M69.134,211.461H56.02a1.367,1.367,0,1,0,0,2.734H69.134a1.367,1.367,0,1,0,0-2.734Zm0,0" transform="translate(-46.749 -182.55)" fill="#b13e8d"/>
    <path id="Trazado_193119" data-name="Trazado 193119" d="M181.867,419.461a1.366,1.366,0,1,0,.968.4A1.375,1.375,0,0,0,181.867,419.461Zm0,0" transform="translate(-155.391 -362.113)" fill="#b13e8d"/>
    <path id="Trazado_193120" data-name="Trazado 193120" d="M67.61,419.461H56.02a1.367,1.367,0,1,0,0,2.734H67.61a1.367,1.367,0,1,0,0-2.734Zm0,0" transform="translate(-46.749 -362.113)" fill="#b13e8d"/>
    <path id="Trazado_193121" data-name="Trazado 193121" d="M56.016,144.863a1.368,1.368,0,1,0-.967-.4A1.375,1.375,0,0,0,56.016,144.863Zm0,0" transform="translate(-46.745 -122.697)" fill="#b13e8d"/>
    <path id="Trazado_193122" data-name="Trazado 193122" d="M118.84,142.129H98.406a1.367,1.367,0,0,0,0,2.734H118.84a1.367,1.367,0,0,0,0-2.734Zm0,0" transform="translate(-83.34 -122.697)" fill="#b13e8d"/>
    <path id="Trazado_193123" data-name="Trazado 193123" d="M56.02,75.527H82.249a1.367,1.367,0,0,0,0-2.734H56.02a1.367,1.367,0,0,0,0,2.734Zm0,0" transform="translate(-46.749 -62.841)" fill="#b13e8d"/>
  </g>
</svg>
