<svg id="portapapeles" xmlns="http://www.w3.org/2000/svg" width="55.234" height="70" viewBox="0 0 55.234 70">
  <path id="Trazado_193045" data-name="Trazado 193045" d="M51.133,7.383h-11.9a4.313,4.313,0,0,0-3.894-2.469H33.317a5.743,5.743,0,0,0-11.365,0h-2.06A4.313,4.313,0,0,0,16,7.383H4.1a4.106,4.106,0,0,0-4.1,4.1V65.9A4.106,4.106,0,0,0,4.1,70H51.133a4.106,4.106,0,0,0,4.1-4.1V11.484A4.106,4.106,0,0,0,51.133,7.383ZM18.32,9.22a1.574,1.574,0,0,1,1.572-1.572H23.26a1.367,1.367,0,0,0,1.367-1.367V5.742a3.008,3.008,0,0,1,6.016,0v.538A1.367,1.367,0,0,0,32.01,7.648h3.332A1.574,1.574,0,0,1,36.914,9.22v3.632H18.32ZM52.5,65.9a1.368,1.368,0,0,1-1.367,1.367H4.1A1.369,1.369,0,0,1,2.734,65.9V11.484A1.369,1.369,0,0,1,4.1,10.117H15.586v2.734H6.836a1.367,1.367,0,0,0-1.367,1.367v18.32a1.367,1.367,0,0,0,2.734,0V15.586H47.031V61.8H8.2V44.844a1.367,1.367,0,1,0-2.734,0v18.32a1.367,1.367,0,0,0,1.367,1.367H48.4a1.367,1.367,0,0,0,1.367-1.367V14.219A1.367,1.367,0,0,0,48.4,12.852h-8.75V10.117H51.133A1.368,1.368,0,0,1,52.5,11.484Zm0,0" fill="#b13e8d"/>
  <path id="Trazado_193046" data-name="Trazado 193046" d="M137.367,147.125h3.555v3.555a1.367,1.367,0,0,0,1.367,1.367h5.469a1.367,1.367,0,0,0,1.367-1.367v-3.555h3.555a1.367,1.367,0,0,0,1.367-1.367v-5.469a1.367,1.367,0,0,0-1.367-1.367h-3.555v-3.555A1.367,1.367,0,0,0,147.758,134h-5.469a1.367,1.367,0,0,0-1.367,1.367v3.555h-3.555A1.367,1.367,0,0,0,136,140.289v5.469A1.367,1.367,0,0,0,137.367,147.125Zm1.367-5.469h3.555a1.367,1.367,0,0,0,1.367-1.367v-3.555h2.734v3.555a1.367,1.367,0,0,0,1.367,1.367h3.555v2.734h-3.555a1.367,1.367,0,0,0-1.367,1.367v3.555h-2.734v-3.555a1.367,1.367,0,0,0-1.367-1.367h-3.555Zm0,0" transform="translate(-117.406 -115.68)" fill="#b13e8d"/>
  <path id="Trazado_193047" data-name="Trazado 193047" d="M211.507,404H198.2a1.367,1.367,0,1,0,0,2.734h13.308a1.367,1.367,0,1,0,0-2.734Zm0,0" transform="translate(-169.921 -348.766)" fill="#b13e8d"/>
  <path id="Trazado_193048" data-name="Trazado 193048" d="M92.744,371.8a1.367,1.367,0,0,0,1.934,0l5.469-5.469a1.367,1.367,0,0,0-1.934-1.933l-4.5,4.5-1.544-1.545a1.367,1.367,0,1,0-1.934,1.933Zm0,0" transform="translate(-77.55 -314.234)" fill="#b13e8d"/>
  <path id="Trazado_193049" data-name="Trazado 193049" d="M196.832,325.367a1.367,1.367,0,0,0,1.367,1.367h13.308a1.367,1.367,0,0,0,0-2.734H198.2A1.367,1.367,0,0,0,196.832,325.367Zm0,0" transform="translate(-169.921 -279.703)" fill="#b13e8d"/>
  <path id="Trazado_193050" data-name="Trazado 193050" d="M92.744,291.8a1.367,1.367,0,0,0,1.934,0l5.469-5.469a1.367,1.367,0,0,0-1.934-1.933l-4.5,4.5-1.544-1.544a1.367,1.367,0,0,0-1.934,1.933Zm0,0" transform="translate(-77.55 -245.172)" fill="#b13e8d"/>
  <path id="Trazado_193051" data-name="Trazado 193051" d="M41.367,275.734a1.368,1.368,0,1,0-.967-.4A1.378,1.378,0,0,0,41.367,275.734Zm0,0" transform="translate(-34.531 -235.676)" fill="#b13e8d"/>
  <path id="Trazado_193052" data-name="Trazado 193052" d="M193.367,34.734a1.368,1.368,0,1,1,.967-.4A1.378,1.378,0,0,1,193.367,34.734Zm0,0" transform="translate(-165.75 -27.625)" fill="#b13e8d"/>
</svg>
