<svg xmlns="http://www.w3.org/2000/svg" width="70" height="70" viewBox="0 0 70 70">
  <g id="Layer_32" data-name="Layer 32" transform="translate(-1 -1)">
    <path id="Trazado_193158" data-name="Trazado 193158" d="M69.871,1H8.9A1.129,1.129,0,0,0,7.774,2.129V14.435A12.871,12.871,0,0,0,6.162,15.7a4.524,4.524,0,0,0-4.033,4.491,18.629,18.629,0,0,0,1.339,6.951h0a4.516,4.516,0,0,0,3.177,7.726h.773a7.945,7.945,0,0,0,2.614,3.089v1.774L7.019,40.863A9.317,9.317,0,0,0,1,49.548V71H3.258V67.613H5.516V71H7.774V66.484H21.323V71h2.258V55.33l2.47,3.457a4.9,4.9,0,0,0,7.264.79l2.365-2.126h34.19A1.129,1.129,0,0,0,71,56.323V2.129A1.129,1.129,0,0,0,69.871,1ZM4.387,20.194a2.258,2.258,0,0,1,2.258-2.258,1.129,1.129,0,0,0,.8-.331,10.367,10.367,0,0,1,7.38-3.056h3.113a5.645,5.645,0,0,1,5.645,5.645,26.219,26.219,0,0,1-.355,4.293l-.235,1.406a4.457,4.457,0,0,0-.54-.054,1.136,1.136,0,0,0-.19-.627L20,21.825a1.129,1.129,0,0,0-1.879,0,6.463,6.463,0,0,1-5.383,2.885H7.774a1.129,1.129,0,0,0-1.129,1.129,4.454,4.454,0,0,0-1.182.177,16.379,16.379,0,0,1-1.076-5.822ZM44.016,44.408l.84,1.679a1.629,1.629,0,0,1,.17.721,1.611,1.611,0,0,1-1.607,1.611h-.081l-2.523-3.365,3.511-4.39a.411.411,0,0,1,.706.247v.265a2.746,2.746,0,0,1-.8,1.927A1.129,1.129,0,0,0,44.016,44.408Zm2.145,5.14a3.839,3.839,0,0,0,1.129-2.737,3.892,3.892,0,0,0-.409-1.73l-.508-1.016a4.951,4.951,0,0,0,.917-2.888v-.265a2.654,2.654,0,0,0-4.727-1.659L38.6,44.215l-7.835,5.871-2.032-4.065a11.433,11.433,0,0,0-7.981-6.1l-1.683-.334V37.96a7.945,7.945,0,0,0,2.614-3.089h.773a4.5,4.5,0,0,0,2.687-8.129l.314-1.882a28.517,28.517,0,0,0,.386-4.666,7.9,7.9,0,0,0-7.9-7.9H14.823c-.093,0-.183.011-.274.012V7.774H64.226v42.9H43.42a3.839,3.839,0,0,0,2.741-1.129ZM15.624,58.166l-1.076,1.076-1.076-1.076.963-8.618h.237ZM15.073,47.29h-1.05l-.957-1.437,1.482-1.482,1.482,1.482Zm-4.057-5.514,1.759,1.173-1.615,1.616L9.094,42.5Zm6.919,2.789-1.615-1.616,1.852-1.234,2.129.426.045.012Zm4.516-13.081V28.1a2.258,2.258,0,1,1,0,4.516h-.09A7.932,7.932,0,0,0,22.452,31.484ZM6.645,32.613a2.258,2.258,0,1,1,0-4.516v3.387a7.933,7.933,0,0,0,.09,1.129ZM8.9,31.484V26.968h3.839a8.717,8.717,0,0,0,6.237-2.618l1.215,1.828v5.306a5.645,5.645,0,1,1-11.29,0Zm5.645,7.9a7.853,7.853,0,0,0,2.258-.339v.858l-2.258,1.513L12.29,39.914v-.858a7.853,7.853,0,0,0,2.258.331ZM31.8,57.9a2.727,2.727,0,0,1-3.917-.427l-4.516-6.323a1.129,1.129,0,0,0-2.049.653V64.226H7.774V50.677H5.516V65.355H3.258V49.548a7.054,7.054,0,0,1,3.579-6.115l3.526,3.526a1.129,1.129,0,0,0,.8.331,1.032,1.032,0,0,0,.131-.026l.96,1.438-1.084,9.754a1.129,1.129,0,0,0,.324.922l2.258,2.258a1.129,1.129,0,0,0,1.6,0L17.6,59.379a1.129,1.129,0,0,0,.324-.922L16.845,48.7l.96-1.438a1.033,1.033,0,0,0,.131.026,1.129,1.129,0,0,0,.8-.331l3.97-3.97a9.094,9.094,0,0,1,4,4.042l2.639,5.279a1.129,1.129,0,0,0,1.694.4l8.129-6.1,2.09,2.786Zm36.937-2.71H38.189L40.7,52.935H65.355a1.129,1.129,0,0,0,1.129-1.129V6.645a1.129,1.129,0,0,0-1.129-1.129H13.419A1.129,1.129,0,0,0,12.29,6.645v5.9a12.548,12.548,0,0,0-2.258.677V3.258h58.71Z" fill="#b13e8d"/>
    <path id="Trazado_193159" data-name="Trazado 193159" d="M44.548,9A13.548,13.548,0,1,0,58.1,22.548,13.548,13.548,0,0,0,44.548,9Zm0,24.839a11.29,11.29,0,1,1,11.29-11.29,11.29,11.29,0,0,1-11.29,11.29Z" transform="translate(3.871 1.032)" fill="#b13e8d"/>
    <path id="Trazado_193160" data-name="Trazado 193160" d="M49.008,14.331l-7.1,7.105-2.589-2.589a1.129,1.129,0,0,0-1.6,0l-3.387,3.387a1.129,1.129,0,0,0,0,1.6L41.1,30.6a1.129,1.129,0,0,0,1.6,0l11.29-11.29a1.129,1.129,0,0,0,0-1.6L50.6,14.331A1.129,1.129,0,0,0,49.008,14.331ZM41.9,28.21l-5.178-5.178,1.791-1.791L41.1,23.83a1.129,1.129,0,0,0,1.6,0l7.1-7.1L51.6,18.516Z" transform="translate(4.258 1.677)" fill="#b13e8d"/>
  </g>
</svg>
