<svg xmlns="http://www.w3.org/2000/svg" width="70.455" height="70" viewBox="0 0 70.455 70">
  <g id="presentacion_1_" data-name="presentacion (1)" transform="translate(0 -1.5)">
    <g id="Grupo_135282" data-name="Grupo 135282" transform="translate(0 1.5)">
      <g id="Grupo_135281" data-name="Grupo 135281" transform="translate(0 0)">
        <path id="Trazado_193168" data-name="Trazado 193168" d="M66.811,1.5H3.644a3.644,3.644,0,1,0,0,7.289v49.8a1.215,1.215,0,0,0,1.215,1.215H19.338L11.2,69.982,13.1,71.5,22.45,59.808H34.013v2.653a3.644,3.644,0,1,0,2.43,0V59.808H48.006L57.359,71.5l1.9-1.518L51.118,59.808H65.6a1.215,1.215,0,0,0,1.215-1.215V8.789a3.644,3.644,0,0,0,0-7.289ZM35.228,67.1a1.215,1.215,0,1,1,1.215-1.215A1.215,1.215,0,0,1,35.228,67.1Zm29.154-9.718H6.074V8.789H64.382Zm2.43-51.02H3.644a1.215,1.215,0,1,1,0-2.43H66.811a1.215,1.215,0,1,1,0,2.43Z" transform="translate(0 -1.5)" fill="#b13e8d"/>
      </g>
    </g>
    <g id="Grupo_135284" data-name="Grupo 135284" transform="translate(10.933 40.372)">
      <g id="Grupo_135283" data-name="Grupo 135283">
        <rect id="Rectángulo_43468" data-name="Rectángulo 43468" width="19.436" height="2.43" fill="#b13e8d"/>
      </g>
    </g>
    <g id="Grupo_135286" data-name="Grupo 135286" transform="translate(10.933 45.231)">
      <g id="Grupo_135285" data-name="Grupo 135285">
        <rect id="Rectángulo_43469" data-name="Rectángulo 43469" width="19.436" height="2.43" fill="#b13e8d"/>
      </g>
    </g>
    <g id="Grupo_135288" data-name="Grupo 135288" transform="translate(10.933 50.09)">
      <g id="Grupo_135287" data-name="Grupo 135287">
        <rect id="Rectángulo_43470" data-name="Rectángulo 43470" width="14.577" height="2.43" fill="#b13e8d"/>
      </g>
    </g>
    <g id="Grupo_135290" data-name="Grupo 135290" transform="translate(20.651 35.513)">
      <g id="Grupo_135289" data-name="Grupo 135289">
        <rect id="Rectángulo_43471" data-name="Rectángulo 43471" width="9.718" height="2.43" fill="#b13e8d"/>
      </g>
    </g>
    <g id="Grupo_135292" data-name="Grupo 135292" transform="translate(40.087 18.507)">
      <g id="Grupo_135291" data-name="Grupo 135291">
        <rect id="Rectángulo_43472" data-name="Rectángulo 43472" width="19.436" height="2.43" fill="#b13e8d"/>
      </g>
    </g>
    <g id="Grupo_135294" data-name="Grupo 135294" transform="translate(40.087 23.366)">
      <g id="Grupo_135293" data-name="Grupo 135293">
        <rect id="Rectángulo_43473" data-name="Rectángulo 43473" width="19.436" height="2.43" fill="#b13e8d"/>
      </g>
    </g>
    <g id="Grupo_135296" data-name="Grupo 135296" transform="translate(40.087 28.225)">
      <g id="Grupo_135295" data-name="Grupo 135295">
        <rect id="Rectángulo_43474" data-name="Rectángulo 43474" width="14.577" height="2.43" fill="#b13e8d"/>
      </g>
    </g>
    <g id="Grupo_135298" data-name="Grupo 135298" transform="translate(49.805 13.648)">
      <g id="Grupo_135297" data-name="Grupo 135297">
        <rect id="Rectángulo_43475" data-name="Rectángulo 43475" width="9.718" height="2.43" fill="#b13e8d"/>
      </g>
    </g>
    <g id="Grupo_135300" data-name="Grupo 135300" transform="translate(10.933 12.433)">
      <g id="Grupo_135299" data-name="Grupo 135299">
        <path id="Trazado_193169" data-name="Trazado 193169" d="M81.718,73.5a9.718,9.718,0,1,0,9.718,9.718A9.718,9.718,0,0,0,81.718,73.5Zm1.251,2.546a7.28,7.28,0,0,1,4.623,2.877l-4.66,2.327Zm-5.452,1.228a7.269,7.269,0,0,1,3.029-1.235L80.5,82.732l-4.738,4.673A7.27,7.27,0,0,1,77.518,77.274Zm6.325,12.915a7.251,7.251,0,0,1-6.377-1.063l4.99-4.92,6.23-3.116A7.289,7.289,0,0,1,83.843,90.189Z" transform="translate(-72 -73.5)" fill="#b13e8d"/>
      </g>
    </g>
    <g id="Grupo_135302" data-name="Grupo 135302" transform="translate(37.657 46.446)">
      <g id="Grupo_135301" data-name="Grupo 135301">
        <rect id="Rectángulo_43476" data-name="Rectángulo 43476" width="2.43" height="6.074" fill="#b13e8d"/>
      </g>
    </g>
    <g id="Grupo_135304" data-name="Grupo 135304" transform="translate(57.093 44.016)">
      <g id="Grupo_135303" data-name="Grupo 135303">
        <rect id="Rectángulo_43477" data-name="Rectángulo 43477" width="2.43" height="8.503" fill="#b13e8d"/>
      </g>
    </g>
    <g id="Grupo_135306" data-name="Grupo 135306" transform="translate(42.516 42.802)">
      <g id="Grupo_135305" data-name="Grupo 135305">
        <rect id="Rectángulo_43478" data-name="Rectángulo 43478" width="2.43" height="9.718" fill="#b13e8d"/>
      </g>
    </g>
    <g id="Grupo_135308" data-name="Grupo 135308" transform="translate(47.375 37.943)">
      <g id="Grupo_135307" data-name="Grupo 135307">
        <rect id="Rectángulo_43479" data-name="Rectángulo 43479" width="2.43" height="14.577" fill="#b13e8d"/>
      </g>
    </g>
    <g id="Grupo_135310" data-name="Grupo 135310" transform="translate(52.234 41.587)">
      <g id="Grupo_135309" data-name="Grupo 135309">
        <rect id="Rectángulo_43480" data-name="Rectángulo 43480" width="2.43" height="10.933" fill="#b13e8d"/>
      </g>
    </g>
    <g id="Grupo_135312" data-name="Grupo 135312" transform="translate(15.792 35.513)">
      <g id="Grupo_135311" data-name="Grupo 135311">
        <rect id="Rectángulo_43481" data-name="Rectángulo 43481" width="2.43" height="2.43" fill="#b13e8d"/>
      </g>
    </g>
    <g id="Grupo_135314" data-name="Grupo 135314" transform="translate(44.946 13.648)">
      <g id="Grupo_135313" data-name="Grupo 135313">
        <rect id="Rectángulo_43482" data-name="Rectángulo 43482" width="2.43" height="2.43" fill="#b13e8d"/>
      </g>
    </g>
  </g>
</svg>
