<svg xmlns="http://www.w3.org/2000/svg" width="60.667" height="70" viewBox="0 0 60.667 70">
  <g id="gdpr" transform="translate(-0.5)">
    <g id="Grupo_135315" data-name="Grupo 135315" transform="translate(14.5 37.333)">
      <path id="Trazado_193172" data-name="Trazado 193172" d="M280.5,256h9.333v2.333H280.5Zm0,0" transform="translate(-253.667 -256)" fill="#b13e8d"/>
      <path id="Trazado_193173" data-name="Trazado 193173" d="M96.5,256H121v2.333H96.5Zm0,0" transform="translate(-96.5 -256)" fill="#b13e8d"/>
      <path id="Trazado_193174" data-name="Trazado 193174" d="M184.5,288h23.333v2.333H184.5Zm0,0" transform="translate(-171.667 -283.333)" fill="#b13e8d"/>
      <path id="Trazado_193175" data-name="Trazado 193175" d="M96.5,288H107v2.333H96.5Zm0,0" transform="translate(-96.5 -283.333)" fill="#b13e8d"/>
      <path id="Trazado_193176" data-name="Trazado 193176" d="M240.5,352h15.167v2.333H240.5Zm0,0" transform="translate(-219.5 -338)" fill="#b13e8d"/>
      <path id="Trazado_193177" data-name="Trazado 193177" d="M96.5,352h18.667v2.333H96.5Zm0,0" transform="translate(-96.5 -338)" fill="#b13e8d"/>
    </g>
    <path id="Trazado_193179" data-name="Trazado 193179" d="M205.783,85.4,204.5,83.415a6.639,6.639,0,0,0,2.917-5.017l2.333.234A9.131,9.131,0,0,1,205.783,85.4Zm0,0" transform="translate(-174.25 -66.965)" fill="#b13e8d"/>
    <path id="Trazado_193180" data-name="Trazado 193180" d="M144.5,320h29.167v2.333H144.5Zm0,0" transform="translate(-123 -273.333)" fill="#b13e8d"/>
    <path id="Trazado_193181" data-name="Trazado 193181" d="M96.5,320h4.667v2.333H96.5Zm0,0" transform="translate(-82 -273.333)" fill="#b13e8d"/>
    <path id="Trazado_193182" data-name="Trazado 193182" d="M184.5,224h23.333v2.333H184.5Zm0,0" transform="translate(-157.167 -191.333)" fill="#b13e8d"/>
    <path id="Trazado_193183" data-name="Trazado 193183" d="M96.5,224H107v2.333H96.5Zm0,0" transform="translate(-82 -191.333)" fill="#b13e8d"/>
    <path id="Trazado_193184" data-name="Trazado 193184" d="M160.5,184h16.333v2.333H160.5Zm0,0" transform="translate(-136.667 -157.167)" fill="#b13e8d"/>
    <path id="Trazado_193186" data-name="Trazado 193186" d="M55.333,5.833A5.777,5.777,0,0,0,49.5,0H6.333A5.777,5.777,0,0,0,.5,5.833v9.333H9.833v49A5.777,5.777,0,0,0,15.667,70H55.333a5.777,5.777,0,0,0,5.833-5.833V58.333H55.333Zm-45.5,7h-7v-7a3.437,3.437,0,0,1,3.5-3.5,3.437,3.437,0,0,1,3.5,3.5Zm2.333,51.333V5.833A6.286,6.286,0,0,0,11,2.333H49.5a3.437,3.437,0,0,1,3.5,3.5v52.5H19.167v5.833a3.5,3.5,0,1,1-7,0Zm46.667-3.5v3.5a3.437,3.437,0,0,1-3.5,3.5h-35a5.5,5.5,0,0,0,1.167-3.5v-3.5Zm0,0" fill="#b13e8d"/>
    <path id="Trazado_193187" data-name="Trazado 193187" d="M280.5,256h9.333v2.333H280.5Zm0,0" transform="translate(-239.167 -218.667)" fill="#b13e8d"/>
    <path id="Trazado_193188" data-name="Trazado 193188" d="M96.5,256H121v2.333H96.5Zm0,0" transform="translate(-82 -218.667)" fill="#b13e8d"/>
    <path id="Trazado_193189" data-name="Trazado 193189" d="M184.5,288h23.333v2.333H184.5Zm0,0" transform="translate(-157.167 -246)" fill="#b13e8d"/>
    <path id="Trazado_193190" data-name="Trazado 193190" d="M96.5,288H107v2.333H96.5Zm0,0" transform="translate(-82 -246)" fill="#b13e8d"/>
    <path id="Trazado_193191" data-name="Trazado 193191" d="M240.5,352h15.167v2.333H240.5Zm0,0" transform="translate(-205 -300.667)" fill="#b13e8d"/>
    <path id="Trazado_193192" data-name="Trazado 193192" d="M96.5,352h18.667v2.333H96.5Zm0,0" transform="translate(-82 -300.667)" fill="#b13e8d"/>
    <path id="Trazado_193193" data-name="Trazado 193193" d="M167.266,51.133l1.4.934,1.4-.934a15.248,15.248,0,0,0,6.766-12.6v-3.85L168.667,32,160.5,34.683v3.85A15.248,15.248,0,0,0,167.266,51.133Zm-4.433-14.816,5.833-1.984,5.833,1.984v2.217a12.875,12.875,0,0,1-5.717,10.733h-.117l-.117-.116a12.725,12.725,0,0,1-5.717-10.734Zm0,0" transform="translate(-136.667 -27.333)" fill="#b13e8d"/>
    <path id="Trazado_193194" data-name="Trazado 193194" d="M209.75,79.433l-2.333-.234a7.231,7.231,0,0,1-2.917,5.017l1.283,1.983A9.567,9.567,0,0,0,209.75,79.433Zm0,0" transform="translate(-174.25 -67.649)" fill="#b13e8d"/>
    <path id="Trazado_193195" data-name="Trazado 193195" d="M144.5,320h29.167v2.333H144.5Zm0,0" transform="translate(-123 -273.333)" fill="#b13e8d"/>
    <path id="Trazado_193196" data-name="Trazado 193196" d="M96.5,320h4.667v2.333H96.5Zm0,0" transform="translate(-82 -273.333)" fill="#b13e8d"/>
    <path id="Trazado_193197" data-name="Trazado 193197" d="M184.5,224h23.333v2.333H184.5Zm0,0" transform="translate(-157.167 -191.333)" fill="#b13e8d"/>
    <path id="Trazado_193198" data-name="Trazado 193198" d="M96.5,224H107v2.333H96.5Zm0,0" transform="translate(-82 -191.333)" fill="#b13e8d"/>
    <path id="Trazado_193199" data-name="Trazado 193199" d="M160.5,184h16.333v2.333H160.5Zm0,0" transform="translate(-136.667 -157.167)" fill="#b13e8d"/>
  </g>
</svg>
