<svg xmlns="http://www.w3.org/2000/svg" width="164" height="150" viewBox="0 0 164 150">
  <g id="Grupo_136149" data-name="Grupo 136149" transform="translate(-617 -1298)">
    <path id="Trazado_194088" data-name="Trazado 194088" d="M72,0A72,72,0,1,1,0,72,72,72,0,0,1,72,0Z" transform="translate(627 1298)" fill="#b13e8d" opacity="0.195"/>
    <g id="limite" transform="translate(645.999 1307.219)">
      <g id="Grupo_135324" data-name="Grupo 135324" transform="translate(4.757 9.892)">
        <path id="Trazado_193200" data-name="Trazado 193200" d="M66.594,92.505a3.952,3.952,0,0,0-.535-1.829L55.227,71.913h54.694a1.988,1.988,0,0,1,1.988,1.988v12.27a46.974,46.974,0,1,0-4.375,6.333Z" transform="translate(-24.353 -15.926)" fill="#b13e8d"/>
        <g id="Grupo_135316" data-name="Grupo 135316" transform="translate(0 0)">
          <path id="Trazado_193201" data-name="Trazado 193201" d="M110.495,429.188H98.181a46.73,46.73,0,0,0,32.47,13.064,47.273,47.273,0,0,0,6.606-.465,46.717,46.717,0,0,1-24.507-11.349Q111.6,429.849,110.495,429.188Z" transform="translate(-83.761 -348.473)" fill="#b13e8d"/>
          <path id="Trazado_193202" data-name="Trazado 193202" d="M32.789,71.3a39.431,39.431,0,0,1,20.553-43.56A46.715,46.715,0,0,1,77.849,16.392a46.9,46.9,0,0,0-53.5,46.424A46.759,46.759,0,0,0,27.67,80.168Z" transform="translate(-24.353 -15.927)" fill="#b13e8d"/>
        </g>
        <path id="Trazado_193203" data-name="Trazado 193203" d="M97.571,123.482a3.952,3.952,0,0,0-.535-1.829L86.2,102.891h54.327a39.39,39.39,0,1,0-12.456,20.592Z" transform="translate(-55.329 -46.903)" fill="#fff"/>
        <g id="Grupo_135317" data-name="Grupo 135317" transform="translate(7.519 7.519)">
          <path id="Trazado_193204" data-name="Trazado 193204" d="M71.364,89.118a3.921,3.921,0,0,1,2.609-1.9,39.4,39.4,0,0,1,33.534-32.441,39.392,39.392,0,0,0-43.74,47.5Z" transform="translate(-62.849 -54.422)" fill="#eaf9fa"/>
          <path id="Trazado_193205" data-name="Trazado 193205" d="M161.241,429.188a39.184,39.184,0,0,0,20.153,5.545,39.688,39.688,0,0,0,5.288-.355,39.115,39.115,0,0,1-14.864-5.19Z" transform="translate(-142.024 -355.991)" fill="#eaf9fa"/>
        </g>
        <g id="Grupo_135318" data-name="Grupo 135318" transform="translate(15.213 15.047)">
          <path id="Trazado_193206" data-name="Trazado 193206" d="M103.063,154.907a3.977,3.977,0,0,1,6.888,0l.857,1.485a23.261,23.261,0,0,1,6.5-13.191l-4.984-7.021a31.763,31.763,0,0,0-10.086,20.151Z" transform="translate(-102.241 -127.74)" fill="#7fc733"/>
          <path id="Trazado_193207" data-name="Trazado 193207" d="M164.919,106.377a23.226,23.226,0,0,1,14.3-4.9l.163,0,.06-8.514-.223,0a31.715,31.715,0,0,0-20.681,7.632Z" transform="translate(-147.542 -92.965)" fill="#7fc733"/>
        </g>
        <g id="Grupo_135319" data-name="Grupo 135319" transform="translate(47.053 15.047)">
          <path id="Trazado_193208" data-name="Trazado 193208" d="M287.694,102.374a31.854,31.854,0,0,0-22.372-9.4l-.06,8.516a23.328,23.328,0,0,1,23.146,22.382.978.978,0,0,0,.975.944h6.565a.977.977,0,0,0,.978-1.006,31.855,31.855,0,0,0-9.232-21.432Z" transform="translate(-265.262 -92.969)" fill="#f7ca18"/>
        </g>
        <g id="Grupo_135320" data-name="Grupo 135320" transform="translate(65.506 27.7)">
          <path id="Trazado_193209" data-name="Trazado 193209" d="M371.318,166.819a31.84,31.84,0,0,0-4.781-9.07l-6.795,5.131A23.214,23.214,0,0,1,364.435,176a.977.977,0,0,0,.974.942h6.565a.978.978,0,0,0,.978-1.006,31.844,31.844,0,0,0-1.635-9.113Z" transform="translate(-359.742 -157.749)" fill="#b13e8d"/>
        </g>
        <path id="Trazado_193210" data-name="Trazado 193210" d="M215.409,195.086a11.841,11.841,0,0,0-5.564,1.381l8.615,7.8a4.082,4.082,0,1,1-6.1,5.424l-6.731-9.481a11.89,11.89,0,0,0,2.119,15.867h15.326a11.9,11.9,0,0,0-7.663-21Z" transform="translate(-168.52 -160.094)" fill="#6836bf"/>
        <g id="Grupo_135321" data-name="Grupo 135321" transform="translate(34.992 34.992)">
          <path id="Trazado_193211" data-name="Trazado 193211" d="M239.03,199.265a11.908,11.908,0,0,1,5.762-3.715,11.892,11.892,0,0,0-8.851.917Z" transform="translate(-229.607 -195.086)" fill="#6836bf"/>
          <path id="Trazado_193212" data-name="Trazado 193212" d="M210.087,228.112c0-.159,0-.317.01-.474l-4.469-6.295a11.89,11.89,0,0,0,2.119,15.867h6.578A11.862,11.862,0,0,1,210.087,228.112Z" transform="translate(-203.513 -216.215)" fill="#6836bf"/>
        </g>
        <g id="Grupo_135322" data-name="Grupo 135322" transform="translate(23.547 20.635)">
          <path id="Trazado_193213" data-name="Trazado 193213" d="M171.306,145.119l-25.9-23.463a.293.293,0,0,0-.436.387l20.234,28.5a4.082,4.082,0,1,0,6.1-5.424Z" transform="translate(-144.912 -121.576)" fill="#ae6c6c"/>
        </g>
        <g id="Grupo_135323" data-name="Grupo 135323" transform="translate(23.547 20.635)">
          <path id="Trazado_193214" data-name="Trazado 193214" d="M169.836,148.612a4.072,4.072,0,0,1-3.053-1.37l-12.374-17.43-9-8.157a.293.293,0,0,0-.436.387l20.234,28.5a4.08,4.08,0,0,0,7.13-2.789,4.065,4.065,0,0,1-2.5.859Z" transform="translate(-144.912 -121.576)" fill="#9b5e5e"/>
        </g>
      </g>
      <g id="Grupo_135325" data-name="Grupo 135325" transform="translate(35.631 65.879)">
        <path id="Trazado_193215" data-name="Trazado 193215" d="M237.122,302.581H182.428l10.833,18.763a3.954,3.954,0,0,1,.535,1.829h43.327a1.988,1.988,0,0,0,1.988-1.988V304.569A1.989,1.989,0,0,0,237.122,302.581Z" transform="translate(-182.428 -302.581)" fill="#7fc733"/>
        <path id="Trazado_193216" data-name="Trazado 193216" d="M196.993,321.184V304.569a1.988,1.988,0,0,1,1.988-1.988H182.428l10.833,18.763a3.954,3.954,0,0,1,.535,1.829h5.186A1.988,1.988,0,0,1,196.993,321.184Z" transform="translate(-182.428 -302.581)" fill="#7fc733"/>
      </g>
      <g id="Grupo_135328" data-name="Grupo 135328" transform="translate(1.468 50.118)">
        <g id="Grupo_135326" data-name="Grupo 135326">
          <path id="Trazado_193217" data-name="Trazado 193217" d="M26.837,223.872,8.052,256.407a3.977,3.977,0,0,0,3.444,5.965H49.065a3.977,3.977,0,0,0,3.444-5.965L33.725,223.872A3.977,3.977,0,0,0,26.837,223.872Z" transform="translate(-7.514 -221.883)" fill="#f7ca18"/>
        </g>
        <g id="Grupo_135327" data-name="Grupo 135327" transform="translate(0)">
          <path id="Trazado_193218" data-name="Trazado 193218" d="M16.327,256.407l18.091-31.335-.693-1.2a3.977,3.977,0,0,0-6.888,0L8.052,256.407a3.977,3.977,0,0,0,3.444,5.965h8.274A3.977,3.977,0,0,1,16.327,256.407Z" transform="translate(-7.514 -221.883)" fill="#f7ca18"/>
        </g>
      </g>
      <g id="Grupo_135329" data-name="Grupo 135329" transform="translate(0.001 8.427)">
        <path id="Trazado_193219" data-name="Trazado 193219" d="M269.434,330.8h-37.2a1.465,1.465,0,0,0,0,2.93h37.2a1.465,1.465,0,0,0,0-2.93Z" transform="translate(-185.701 -267.836)"/>
        <path id="Trazado_193220" data-name="Trazado 193220" d="M284.689,364.792H251.2a1.465,1.465,0,0,0,0,2.93h33.493a1.465,1.465,0,1,0,0-2.93Z" transform="translate(-200.956 -295.189)"/>
        <path id="Trazado_193221" data-name="Trazado 193221" d="M100,56.781A48.354,48.354,0,0,0,17.455,22.59,48.442,48.442,0,0,0,6.449,74.019L.739,83.909a5.442,5.442,0,0,0,4.713,8.163H18.594a48.35,48.35,0,0,0,67.244-1.1q1.467-1.467,2.788-3.037h1.7a3.457,3.457,0,0,0,3.453-3.453V80.543A48.071,48.071,0,0,0,100,56.781Zm-93.779,0a45.425,45.425,0,0,1,77.545-32.12A45.511,45.511,0,0,1,93.779,73.813V67.867A3.457,3.457,0,0,0,91.708,64.7a40.837,40.837,0,1,0-80.058.305L8.379,70.675A45.521,45.521,0,0,1,6.222,56.781ZM63.407,59.1a1.465,1.465,0,0,0-1.848.935,10.418,10.418,0,0,1-2.8,4.379H44.547a10.4,10.4,0,0,1-2.526-11.65L47.4,60.341a1.461,1.461,0,0,0,.1.125,5.547,5.547,0,1,0,8.292-7.37,1.477,1.477,0,0,0-.111-.112L48.8,46.747A10.429,10.429,0,0,1,61.713,54.04a1.465,1.465,0,0,0,2.827-.768,13.35,13.35,0,0,0-18.2-8.75l-6.656-6.03A21.855,21.855,0,0,1,73.492,55.9a2.437,2.437,0,0,0,2.439,2.351H82.5a2.443,2.443,0,0,0,2.442-2.517,33.2,33.2,0,0,0-9.454-22.21,1.465,1.465,0,0,0-2.1,2.046q.832.853,1.589,1.762L70.515,40.7q-.788-.921-1.671-1.774a24.654,24.654,0,0,0-15.56-6.88l.039-5.589a30.214,30.214,0,0,1,15.011,4.94,1.465,1.465,0,0,0,1.612-2.447,33.282,33.282,0,0,0-38.924,1.7l-1.242-1.125a1.758,1.758,0,0,0-2.613,2.321l.972,1.37a33.227,33.227,0,0,0-9.59,19.85l-4.575,7.924a37.905,37.905,0,1,1,74.8,3.43H62.614a13.381,13.381,0,0,0,1.729-3.465,1.465,1.465,0,0,0-.935-1.848ZM30.064,53.307A21.784,21.784,0,0,1,34.9,42.738l5.2,7.322a13.325,13.325,0,0,0,.587,14.354H36.477Zm-2.259-3.328a5.389,5.389,0,0,0-3.57-1.326,5.481,5.481,0,0,0-1.955.359,30.375,30.375,0,0,1,7.58-13.376l3.3,4.647A24.781,24.781,0,0,0,27.805,49.979ZM53.649,55.1a2.617,2.617,0,0,1-3.911,3.477L35.773,38.9ZM33.228,32.643A30.214,30.214,0,0,1,50.394,26.43l-.039,5.593a24.642,24.642,0,0,0-12.9,4.447ZM72.284,43.032l4.459-3.368,0,0a30.244,30.244,0,0,1,5.244,15.65H76.4A24.627,24.627,0,0,0,72.284,43.032ZM5.451,89.142a2.512,2.512,0,0,1-2.175-3.768L22.06,52.839a2.512,2.512,0,0,1,4.351,0L45.2,85.374a2.512,2.512,0,0,1-2.176,3.768ZM83.767,88.9a45.428,45.428,0,0,1-60.723,3.171h8.077a40.85,40.85,0,0,0,33,3.6,1.465,1.465,0,0,0-.894-2.79,37.953,37.953,0,0,1-25.4-.812h5.2a5.386,5.386,0,0,0,4.713-2.721,5.524,5.524,0,0,0,.573-1.415H73.244a38.3,38.3,0,0,1-3.951,2.4,1.465,1.465,0,0,0,1.366,2.592,41.1,41.1,0,0,0,7.39-4.991H84.7q-.46.488-.935.966Zm7.082-4.419a.524.524,0,0,1-.524.524H48.215a5.545,5.545,0,0,0-.482-1.1L38.168,67.344H90.325a.524.524,0,0,1,.524.524Z" transform="translate(-0.001 -8.427)"/>
        <path id="Trazado_193222" data-name="Trazado 193222" d="M118.046,278.791a1.465,1.465,0,0,0-1.465,1.465v13.155a1.465,1.465,0,0,0,2.93,0V280.256A1.465,1.465,0,0,0,118.046,278.791Z" transform="translate(-93.811 -225.985)"/>
        <path id="Trazado_193223" data-name="Trazado 193223" d="M118.046,376.274a1.465,1.465,0,0,0-1.465,1.465v1.342a1.465,1.465,0,0,0,2.93,0v-1.342A1.465,1.465,0,0,0,118.046,376.274Z" transform="translate(-93.811 -304.429)"/>
      </g>
    </g>
    <path id="Trazado_194089" data-name="Trazado 194089" d="M12.5,0h139a12.5,12.5,0,0,1,0,25H12.5a12.5,12.5,0,0,1,0-25Z" transform="translate(617 1423)" fill="#6836bf"/>
    <path id="Trazado_194090" data-name="Trazado 194090" d="M4.18,17V5.625H7.844a5.39,5.39,0,0,1,2.711.684,4.805,4.805,0,0,1,1.879,1.93,5.826,5.826,0,0,1,.684,2.793v.523a5.86,5.86,0,0,1-.66,2.8A4.826,4.826,0,0,1,10.6,16.293,5.271,5.271,0,0,1,7.922,17ZM6.922,7.742v7.148h.953a2.133,2.133,0,0,0,1.813-.84,4.116,4.116,0,0,0,.633-2.5v-.492a4.082,4.082,0,0,0-.633-2.484,2.17,2.17,0,0,0-1.844-.836ZM17.18,17H14.539V8.547H17.18Zm-2.8-10.633a1.175,1.175,0,0,1,.406-.922,1.727,1.727,0,0,1,2.109,0,1.175,1.175,0,0,1,.406.922,1.175,1.175,0,0,1-.406.922,1.727,1.727,0,0,1-2.109,0A1.175,1.175,0,0,1,14.383,6.367Zm8.844,8.258a.608.608,0,0,0-.352-.539,5.348,5.348,0,0,0-1.336-.422,6.092,6.092,0,0,1-1.625-.574,2.722,2.722,0,0,1-.977-.863,2.061,2.061,0,0,1-.336-1.164,2.336,2.336,0,0,1,.961-1.918,3.958,3.958,0,0,1,2.516-.754,4.386,4.386,0,0,1,2.688.758,2.37,2.37,0,0,1,1.016,1.992H23.141q0-1.016-1.07-1.016a1.061,1.061,0,0,0-.7.23.714.714,0,0,0-.281.574.655.655,0,0,0,.344.57,3.248,3.248,0,0,0,1.1.359,9.486,9.486,0,0,1,1.324.336,2.406,2.406,0,0,1,1.906,2.352,2.214,2.214,0,0,1-1.027,1.883,4.505,4.505,0,0,1-2.66.727,4.6,4.6,0,0,1-1.937-.391A3.24,3.24,0,0,1,18.813,15.7a2.406,2.406,0,0,1-.477-1.414H20.8a1.017,1.017,0,0,0,.391.855,1.607,1.607,0,0,0,.961.27,1.264,1.264,0,0,0,.809-.219A.7.7,0,0,0,23.227,14.625Zm6.258-6.078.086.992a2.906,2.906,0,0,1,2.414-1.148,2.14,2.14,0,0,1,2.164,1.273,2.813,2.813,0,0,1,2.484-1.273q2.57,0,2.641,3.109V17H36.633V11.664a1.611,1.611,0,0,0-.219-.945.931.931,0,0,0-.8-.3,1.247,1.247,0,0,0-1.164.7l.008.109V17H31.82V11.68a1.694,1.694,0,0,0-.211-.961.929.929,0,0,0-.8-.3,1.263,1.263,0,0,0-1.156.7V17H27.016V8.547ZM43.555,17H40.914V8.547h2.641Zm-2.8-10.633a1.175,1.175,0,0,1,.406-.922,1.727,1.727,0,0,1,2.109,0,1.175,1.175,0,0,1,.406.922,1.175,1.175,0,0,1-.406.922,1.727,1.727,0,0,1-2.109,0A1.175,1.175,0,0,1,40.758,6.367Zm6.836,2.18.086.992a2.867,2.867,0,0,1,2.414-1.148,2.412,2.412,0,0,1,1.973.789,3.757,3.757,0,0,1,.676,2.375V17H50.1V11.664a1.426,1.426,0,0,0-.258-.941,1.193,1.193,0,0,0-.937-.3,1.256,1.256,0,0,0-1.148.609V17H45.125V8.547Zm11.641,7.539a2.714,2.714,0,0,1-2.258,1.07,2.662,2.662,0,0,1-2.105-.809,3.4,3.4,0,0,1-.715-2.324V8.547h2.633v5.492a.946.946,0,0,0,1.055,1.086,1.376,1.376,0,0,0,1.289-.648V8.547h2.648V17H59.313ZM66,17H63.359V8.547H66ZM63.2,6.367a1.175,1.175,0,0,1,.406-.922,1.727,1.727,0,0,1,2.109,0,1.175,1.175,0,0,1,.406.922,1.175,1.175,0,0,1-.406.922,1.727,1.727,0,0,1-2.109,0A1.175,1.175,0,0,1,63.2,6.367Zm9.531,4.563-.867-.062a1.558,1.558,0,0,0-1.594.781V17H67.641V8.547h2.469L70.2,9.633a2.039,2.039,0,0,1,1.852-1.242,2.567,2.567,0,0,1,.734.094Zm10.047,0-.867-.062a1.558,1.558,0,0,0-1.594.781V17H77.688V8.547h2.469l.086,1.086a2.039,2.039,0,0,1,1.852-1.242,2.567,2.567,0,0,1,.734.094ZM86.508,17H83.867V8.547h2.641Zm-2.8-10.633a1.175,1.175,0,0,1,.406-.922,1.727,1.727,0,0,1,2.109,0,1.175,1.175,0,0,1,.406.922,1.175,1.175,0,0,1-.406.922,1.727,1.727,0,0,1-2.109,0A1.175,1.175,0,0,1,83.711,6.367Zm8.508,10.789A4.345,4.345,0,0,1,89.07,16a4.006,4.006,0,0,1-1.2-3.02v-.219a5.191,5.191,0,0,1,.48-2.289,3.516,3.516,0,0,1,1.4-1.535,4.233,4.233,0,0,1,2.188-.543A3.659,3.659,0,0,1,94.75,9.5a4.344,4.344,0,0,1,1.031,3.082V13.6H90.547a1.9,1.9,0,0,0,.617,1.117,1.836,1.836,0,0,0,1.234.406,2.366,2.366,0,0,0,1.953-.875l1.2,1.422a3.363,3.363,0,0,1-1.395,1.082A4.713,4.713,0,0,1,92.219,17.156Zm-.3-6.734q-1.156,0-1.375,1.531H93.2v-.2a1.3,1.3,0,0,0-.32-.98A1.275,1.275,0,0,0,91.922,10.422Zm9.344,4.2a.608.608,0,0,0-.352-.539,5.348,5.348,0,0,0-1.336-.422,6.092,6.092,0,0,1-1.625-.574,2.722,2.722,0,0,1-.977-.863,2.061,2.061,0,0,1-.336-1.164A2.336,2.336,0,0,1,97.6,9.145a3.958,3.958,0,0,1,2.516-.754,4.386,4.386,0,0,1,2.688.758,2.37,2.37,0,0,1,1.016,1.992H101.18q0-1.016-1.07-1.016a1.061,1.061,0,0,0-.7.23.714.714,0,0,0-.281.574.655.655,0,0,0,.344.57,3.248,3.248,0,0,0,1.1.359,9.486,9.486,0,0,1,1.324.336,2.406,2.406,0,0,1,1.906,2.352,2.214,2.214,0,0,1-1.027,1.883,4.505,4.505,0,0,1-2.66.727,4.6,4.6,0,0,1-1.937-.391A3.24,3.24,0,0,1,96.852,15.7a2.406,2.406,0,0,1-.477-1.414h2.461a1.017,1.017,0,0,0,.391.855,1.607,1.607,0,0,0,.961.27A1.264,1.264,0,0,0,101,15.2.7.7,0,0,0,101.266,14.625Zm3.461-1.914a5.708,5.708,0,0,1,.422-2.266,3.4,3.4,0,0,1,1.211-1.52,3.192,3.192,0,0,1,1.836-.535,2.538,2.538,0,0,1,2.063.891l.094-.734h2.391V16.68a3.564,3.564,0,0,1-.52,1.941,3.334,3.334,0,0,1-1.5,1.266,5.528,5.528,0,0,1-2.281.441,4.769,4.769,0,0,1-1.8-.352,3.251,3.251,0,0,1-1.332-.914l1.1-1.547a2.414,2.414,0,0,0,1.938.867,1.568,1.568,0,0,0,1.75-1.8V16.32a2.472,2.472,0,0,1-1.914.836,3.055,3.055,0,0,1-2.5-1.184,4.9,4.9,0,0,1-.953-3.168Zm2.641.164a3.007,3.007,0,0,0,.391,1.645,1.232,1.232,0,0,0,1.094.605,1.4,1.4,0,0,0,1.242-.57V11a1.363,1.363,0,0,0-1.227-.578,1.241,1.241,0,0,0-1.1.629A3.429,3.429,0,0,0,107.367,12.875Zm6.539-.18a4.989,4.989,0,0,1,.492-2.254,3.52,3.52,0,0,1,1.414-1.52,4.259,4.259,0,0,1,2.164-.531,3.887,3.887,0,0,1,2.992,1.176,4.512,4.512,0,0,1,1.094,3.2v.094a4.378,4.378,0,0,1-1.1,3.137,3.9,3.9,0,0,1-2.973,1.16,3.942,3.942,0,0,1-2.9-1.082,4.232,4.232,0,0,1-1.18-2.934Zm2.633.164a3.145,3.145,0,0,0,.367,1.719,1.223,1.223,0,0,0,1.086.547q1.406,0,1.438-2.164V12.7q0-2.273-1.453-2.273-1.32,0-1.43,1.961Zm11.109,1.766a.608.608,0,0,0-.352-.539,5.348,5.348,0,0,0-1.336-.422,6.092,6.092,0,0,1-1.625-.574,2.722,2.722,0,0,1-.977-.863,2.061,2.061,0,0,1-.336-1.164,2.336,2.336,0,0,1,.961-1.918,3.958,3.958,0,0,1,2.516-.754,4.386,4.386,0,0,1,2.688.758,2.37,2.37,0,0,1,1.016,1.992h-2.641q0-1.016-1.07-1.016a1.061,1.061,0,0,0-.7.23.714.714,0,0,0-.281.574.655.655,0,0,0,.344.57,3.248,3.248,0,0,0,1.1.359,9.486,9.486,0,0,1,1.324.336,2.406,2.406,0,0,1,1.906,2.352,2.214,2.214,0,0,1-1.027,1.883,4.505,4.505,0,0,1-2.66.727,4.6,4.6,0,0,1-1.937-.391,3.24,3.24,0,0,1-1.328-1.062,2.406,2.406,0,0,1-.477-1.414h2.461a1.017,1.017,0,0,0,.391.855,1.607,1.607,0,0,0,.961.27,1.264,1.264,0,0,0,.809-.219A.7.7,0,0,0,127.648,14.625Z" transform="translate(632 1426)" fill="#fff"/>
  </g>
</svg>
