<svg xmlns="http://www.w3.org/2000/svg" width="164" height="150" viewBox="0 0 164 150">
  <g id="Grupo_136150" data-name="Grupo 136150" transform="translate(-830 -1298)">
    <path id="Trazado_194091" data-name="Trazado 194091" d="M72,0A72,72,0,1,1,0,72,72,72,0,0,1,72,0Z" transform="translate(840 1298)" fill="#b13e8d" opacity="0.195"/>
    <path id="Trazado_194092" data-name="Trazado 194092" d="M12.5,0h139a12.5,12.5,0,0,1,0,25H12.5a12.5,12.5,0,0,1,0-25Z" transform="translate(830 1423)" fill="#6836bf"/>
    <path id="Trazado_194093" data-name="Trazado 194093" d="M21.656,13.148a4.154,4.154,0,0,1-.641,2.1,3.866,3.866,0,0,1-1.645,1.41,5.6,5.6,0,0,1-2.418.5A4.467,4.467,0,0,1,13.422,15.7a6.032,6.032,0,0,1-1.289-4.125v-.562a6.885,6.885,0,0,1,.582-2.926,4.41,4.41,0,0,1,1.676-1.937,4.676,4.676,0,0,1,2.531-.684,4.9,4.9,0,0,1,3.328,1.09,4.306,4.306,0,0,1,1.43,3H18.945a2.037,2.037,0,0,0-.523-1.492,2.153,2.153,0,0,0-1.5-.453,1.638,1.638,0,0,0-1.5.766,4.921,4.921,0,0,0-.5,2.445v.8a5.445,5.445,0,0,0,.457,2.6,1.672,1.672,0,0,0,1.574.781,2.106,2.106,0,0,0,1.445-.445,1.89,1.89,0,0,0,.531-1.414ZM27.594,17a2.973,2.973,0,0,1-.25-.758,2.448,2.448,0,0,1-2.031.914,3,3,0,0,1-2.031-.723,2.3,2.3,0,0,1-.836-1.816,2.364,2.364,0,0,1,1.016-2.078,5.174,5.174,0,0,1,2.953-.7h.813v-.448q0-1.17-1.008-1.17a.824.824,0,0,0-.937.926H22.648a2.36,2.36,0,0,1,1.043-1.99,4.383,4.383,0,0,1,2.66-.765,3.843,3.843,0,0,1,2.555.789,2.743,2.743,0,0,1,.961,2.164v3.742a3.832,3.832,0,0,0,.359,1.781V17Zm-1.648-1.719a1.469,1.469,0,0,0,.816-.211,1.322,1.322,0,0,0,.465-.477V13.242h-.766q-1.375,0-1.375,1.234a.754.754,0,0,0,.242.582A.876.876,0,0,0,25.945,15.281Zm13.227-2.445a5.1,5.1,0,0,1-.887,3.145,2.843,2.843,0,0,1-2.395,1.176,2.437,2.437,0,0,1-1.914-.852V20.25H31.344V8.547H33.8l.078.781a2.437,2.437,0,0,1,1.992-.937A2.866,2.866,0,0,1,38.3,9.543a5.16,5.16,0,0,1,.867,3.168Zm-2.633-.164q0-2.25-1.312-2.25a1.239,1.239,0,0,0-1.25.672v3.328a1.279,1.279,0,0,0,1.266.7q1.258,0,1.3-2.172ZM45.094,17a2.973,2.973,0,0,1-.25-.758,2.448,2.448,0,0,1-2.031.914,3,3,0,0,1-2.031-.723,2.3,2.3,0,0,1-.836-1.816,2.364,2.364,0,0,1,1.016-2.078,5.174,5.174,0,0,1,2.953-.7h.813v-.448q0-1.17-1.008-1.17a.824.824,0,0,0-.937.926H40.148a2.36,2.36,0,0,1,1.043-1.99,4.383,4.383,0,0,1,2.66-.765,3.843,3.843,0,0,1,2.555.789,2.743,2.743,0,0,1,.961,2.164v3.742a3.832,3.832,0,0,0,.359,1.781V17Zm-1.648-1.719a1.469,1.469,0,0,0,.816-.211,1.322,1.322,0,0,0,.465-.477V13.242h-.766q-1.375,0-1.375,1.234a.754.754,0,0,0,.242.582A.876.876,0,0,0,43.445,15.281Zm8.953-.156a1.171,1.171,0,0,0,.859-.3,1.1,1.1,0,0,0,.3-.84h2.469a2.922,2.922,0,0,1-1,2.281,3.705,3.705,0,0,1-2.566.891A3.751,3.751,0,0,1,49.555,16a4.556,4.556,0,0,1-1.062-3.2v-.109a5.149,5.149,0,0,1,.473-2.262,3.441,3.441,0,0,1,1.363-1.508,4.065,4.065,0,0,1,2.109-.527,3.658,3.658,0,0,1,2.617.914,3.242,3.242,0,0,1,.969,2.477H53.555a1.445,1.445,0,0,0-.32-1.008,1.106,1.106,0,0,0-.859-.352q-1.023,0-1.2,1.3a9.206,9.206,0,0,0-.055,1.141,3.616,3.616,0,0,0,.3,1.766A1.055,1.055,0,0,0,52.4,15.125ZM59.914,17H57.273V8.547h2.641Zm-2.8-10.633a1.175,1.175,0,0,1,.406-.922,1.727,1.727,0,0,1,2.109,0,1.175,1.175,0,0,1,.406.922,1.175,1.175,0,0,1-.406.922,1.727,1.727,0,0,1-2.109,0A1.175,1.175,0,0,1,57.117,6.367Zm7.484.078v2.1h1.391v1.828H64.6v3.867a.987.987,0,0,0,.172.664.922.922,0,0,0,.68.188,3.862,3.862,0,0,0,.656-.047V16.93a4.859,4.859,0,0,1-1.484.227,2.758,2.758,0,0,1-2.008-.641,2.626,2.626,0,0,1-.648-1.945v-4.2H60.891V8.547h1.078v-2.1ZM71.789,17a2.973,2.973,0,0,1-.25-.758,2.448,2.448,0,0,1-2.031.914,3,3,0,0,1-2.031-.723,2.3,2.3,0,0,1-.836-1.816,2.364,2.364,0,0,1,1.016-2.078,5.174,5.174,0,0,1,2.953-.7h.813v-.448q0-1.17-1.008-1.17a.824.824,0,0,0-.937.926H66.844a2.36,2.36,0,0,1,1.043-1.99,4.383,4.383,0,0,1,2.66-.765A3.843,3.843,0,0,1,73.1,9.18a2.743,2.743,0,0,1,.961,2.164v3.742a3.832,3.832,0,0,0,.359,1.781V17Zm-1.648-1.719a1.469,1.469,0,0,0,.816-.211,1.322,1.322,0,0,0,.465-.477V13.242h-.766q-1.375,0-1.375,1.234a.754.754,0,0,0,.242.582A.876.876,0,0,0,70.141,15.281Zm8.953-.156a1.171,1.171,0,0,0,.859-.3,1.1,1.1,0,0,0,.3-.84h2.469a2.922,2.922,0,0,1-1,2.281,3.705,3.705,0,0,1-2.566.891A3.751,3.751,0,0,1,76.25,16a4.556,4.556,0,0,1-1.062-3.2v-.109a5.149,5.149,0,0,1,.473-2.262,3.441,3.441,0,0,1,1.363-1.508,4.065,4.065,0,0,1,2.109-.527A3.658,3.658,0,0,1,81.75,9.3a3.242,3.242,0,0,1,.969,2.477H80.25a1.445,1.445,0,0,0-.32-1.008,1.106,1.106,0,0,0-.859-.352q-1.023,0-1.2,1.3a9.206,9.206,0,0,0-.055,1.141,3.616,3.616,0,0,0,.3,1.766A1.055,1.055,0,0,0,79.094,15.125ZM86.609,17H83.969V8.547h2.641Zm-2.8-10.633a1.175,1.175,0,0,1,.406-.922,1.727,1.727,0,0,1,2.109,0,1.175,1.175,0,0,1,.406.922,1.175,1.175,0,0,1-.406.922,1.727,1.727,0,0,1-2.109,0A1.175,1.175,0,0,1,83.813,6.367ZM87.9,12.7a4.989,4.989,0,0,1,.492-2.254A3.52,3.52,0,0,1,89.8,8.922a4.259,4.259,0,0,1,2.164-.531,3.887,3.887,0,0,1,2.992,1.176,4.512,4.512,0,0,1,1.094,3.2v.094A4.378,4.378,0,0,1,94.957,16a3.9,3.9,0,0,1-2.973,1.16,3.942,3.942,0,0,1-2.9-1.082,4.232,4.232,0,0,1-1.18-2.934Zm2.633.164a3.145,3.145,0,0,0,.367,1.719,1.223,1.223,0,0,0,1.086.547q1.406,0,1.438-2.164V12.7q0-2.273-1.453-2.273-1.32,0-1.43,1.961Zm9.1-4.312.086.992a2.867,2.867,0,0,1,2.414-1.148,2.412,2.412,0,0,1,1.973.789,3.757,3.757,0,0,1,.676,2.375V17h-2.641V11.664a1.426,1.426,0,0,0-.258-.941,1.193,1.193,0,0,0-.937-.3,1.256,1.256,0,0,0-1.148.609V17H97.164V8.547Zm10.7,8.609A4.345,4.345,0,0,1,107.18,16a4.006,4.006,0,0,1-1.2-3.02v-.219a5.191,5.191,0,0,1,.48-2.289,3.516,3.516,0,0,1,1.4-1.535,4.233,4.233,0,0,1,2.188-.543A3.659,3.659,0,0,1,112.859,9.5a4.344,4.344,0,0,1,1.031,3.082V13.6h-5.234a1.9,1.9,0,0,0,.617,1.117,1.836,1.836,0,0,0,1.234.406,2.366,2.366,0,0,0,1.953-.875l1.2,1.422a3.363,3.363,0,0,1-1.395,1.082A4.713,4.713,0,0,1,110.328,17.156Zm-.3-6.734q-1.156,0-1.375,1.531h2.656v-.2a1.3,1.3,0,0,0-.32-.98A1.275,1.275,0,0,0,110.031,10.422Zm9.344,4.2a.608.608,0,0,0-.352-.539,5.348,5.348,0,0,0-1.336-.422,6.092,6.092,0,0,1-1.625-.574,2.722,2.722,0,0,1-.977-.863,2.061,2.061,0,0,1-.336-1.164,2.336,2.336,0,0,1,.961-1.918,3.958,3.958,0,0,1,2.516-.754,4.386,4.386,0,0,1,2.688.758,2.37,2.37,0,0,1,1.016,1.992h-2.641q0-1.016-1.07-1.016a1.061,1.061,0,0,0-.7.23.714.714,0,0,0-.281.574.655.655,0,0,0,.344.57,3.248,3.248,0,0,0,1.1.359,9.486,9.486,0,0,1,1.324.336,2.406,2.406,0,0,1,1.906,2.352,2.214,2.214,0,0,1-1.027,1.883,4.505,4.505,0,0,1-2.66.727,4.6,4.6,0,0,1-1.937-.391,3.24,3.24,0,0,1-1.328-1.062,2.406,2.406,0,0,1-.477-1.414h2.461a1.017,1.017,0,0,0,.391.855,1.607,1.607,0,0,0,.961.27,1.264,1.264,0,0,0,.809-.219A.7.7,0,0,0,119.375,14.625Z" transform="translate(845 1426)" fill="#fff"/>
    <g id="capacitacion" transform="translate(864 1322)">
      <path id="Trazado_193224" data-name="Trazado 193224" d="M23,1V29.125h1.406a4.213,4.213,0,0,0,4.219-4.219,2.813,2.813,0,1,1,5.625,0,9.837,9.837,0,0,1-9.844,9.844H23v8.438H79.25V1Z" transform="translate(9.344 0.406)" fill="#dbd5bb"/>
      <path id="Trazado_193225" data-name="Trazado 193225" d="M20.625,10.568v1.927C18.206,9.344,16.744,8.768,15,9.133V9.119L17.8,3.41A10.435,10.435,0,0,1,20.625,10.568Z" transform="translate(6.094 1.385)" fill="#f6bb42"/>
      <path id="Trazado_193226" data-name="Trazado 193226" d="M22.267,4.389l-2.8,5.709v.014c-2.63.534-5.892,3.277-14.062,2.32-.45-.056-.928-.127-1.406-.2v-.689A10.529,10.529,0,0,1,22.267,4.389Z" transform="translate(1.625 0.406)" fill="#ffce54"/>
      <path id="Trazado_193227" data-name="Trazado 193227" d="M17.438,18.324v3.755l-1.406,1.406-2.812-1.406-2.812,1.406L9,22.093V18.31a9.771,9.771,0,0,0,8.438,0Z" transform="translate(3.656 7.438)" fill="#f5f7fa"/>
      <path id="Trazado_193228" data-name="Trazado 193228" d="M5,13.85V9.828c8.17.956,11.433-1.786,14.063-2.319,1.744-.367,3.206.21,5.625,3.361v2.994a9.806,9.806,0,0,1-5.625,8.873,9.771,9.771,0,0,1-8.437,0A9.806,9.806,0,0,1,5,13.864Z" transform="translate(2.031 3.011)" fill="#eac6bb"/>
      <path id="Trazado_193229" data-name="Trazado 193229" d="M19.435,7.855v5.829a9.806,9.806,0,0,1-5.625,8.873A9.579,9.579,0,0,1,11,23.4a9.535,9.535,0,0,0,5.626-.845,9.8,9.8,0,0,0,5.625-8.873v-3a11.827,11.827,0,0,0-2.815-2.834Z" transform="translate(4.468 3.191)" fill="#d3b1a9"/>
      <g id="Grupo_135330" data-name="Grupo 135330" transform="translate(1.406 7.031)">
        <path id="Trazado_193230" data-name="Trazado 193230" d="M6.625,37.094H1V28.656a5.623,5.623,0,0,1,5.625-5.625H12.25l1.406,1.392,2.812-1.406,2.813,1.406,1.406-1.406,11.25.014h1.406a4.213,4.213,0,0,0,4.219-4.219,2.813,2.813,0,0,1,5.625,0,9.837,9.837,0,0,1-9.844,9.844H26.312v8.438Z" transform="translate(-1 -0.531)" fill="#e6e9ed"/>
        <path id="Trazado_193231" data-name="Trazado 193231" d="M46.25,23a2.813,2.813,0,0,1,0,5.625H37.813a2.813,2.813,0,0,1,0-5.625H46.25Z" transform="translate(12.813 2.313)" fill="#e6e9ed"/>
        <path id="Trazado_193232" data-name="Trazado 193232" d="M46.25,5a2.813,2.813,0,0,1,0,5.625H37.813a2.813,2.813,0,0,1,0-5.625Z" transform="translate(12.813 -5)" fill="#e6e9ed"/>
      </g>
      <path id="Trazado_193233" data-name="Trazado 193233" d="M49.063,17.219l-7.031,4.219L35,17.219,42.031,13Z" transform="translate(14.219 5.281)" fill="#6836bf"/>
      <path id="Trazado_193234" data-name="Trazado 193234" d="M56.031,19.625H49V14H63.063v5.625Z" transform="translate(19.906 5.688)" fill="#e6e9ed"/>
      <path id="Trazado_193235" data-name="Trazado 193235" d="M56.844,52.625A11.17,11.17,0,0,0,66.688,47a9.806,9.806,0,0,1-5.625,8.873,9.771,9.771,0,0,1-8.437,0A9.8,9.8,0,0,1,47,47,11.17,11.17,0,0,0,56.844,52.625Z" transform="translate(19.094 19.094)" fill="#eac6bb"/>
      <path id="Trazado_193236" data-name="Trazado 193236" d="M62.469,36v4.219a4.21,4.21,0,0,1,4.219,4.2v7.045a11.426,11.426,0,0,1-19.688,0V44.423A8.423,8.423,0,0,1,55.438,36Z" transform="translate(19.094 14.625)" fill="#965353"/>
      <path id="Trazado_193237" data-name="Trazado 193237" d="M60.644,50.822a9.817,9.817,0,0,1-4.835,5.051A9.507,9.507,0,0,1,53,56.719a9.525,9.525,0,0,0,5.624-.845A9.8,9.8,0,0,0,64.25,47,11.029,11.029,0,0,1,60.644,50.822Z" transform="translate(21.532 19.094)" fill="#d3b1a9"/>
      <path id="Trazado_193238" data-name="Trazado 193238" d="M58.813,40.219V36H56v4.219h0a2.816,2.816,0,0,0,2.814,2.813,1.4,1.4,0,0,1,1.4,1.392v7.045a9.758,9.758,0,0,1-.792,3.822,11.025,11.025,0,0,0,3.607-3.822V44.423A4.21,4.21,0,0,0,58.813,40.219Z" transform="translate(22.749 14.625)" fill="#844747"/>
      <path id="Trazado_193239" data-name="Trazado 193239" d="M55.219,54.267a9.606,9.606,0,0,0,4.219-.958v5.176H51V53.31a9.67,9.67,0,0,0,4.219.956Z" transform="translate(20.719 21.657)" fill="#7fc733"/>
      <path id="Trazado_193240" data-name="Trazado 193240" d="M70.313,61.209v4.233H45V61.209a4.222,4.222,0,0,1,4.219-4.219V57h4.219V56.99h8.438V57h4.219V56.99A4.222,4.222,0,0,1,70.313,61.209Z" transform="translate(18.281 23.152)" fill="#7fc733"/>
      <path id="Trazado_193241" data-name="Trazado 193241" d="M55,56.99h2.815V57H55Z" transform="translate(22.343 23.152)" fill="#4a89dc"/>
      <path id="Trazado_193243" data-name="Trazado 193243" d="M48.039,57V56.99c-.046,0-.089.013-.136.014Z" transform="translate(19.461 23.152)" fill="#4a89dc"/>
      <path id="Trazado_193244" data-name="Trazado 193244" d="M29,58.2V54h8.438v4.2l-4.219,1.406Z" transform="translate(11.781 21.938)" fill="#eac6bb"/>
      <path id="Trazado_193245" data-name="Trazado 193245" d="M48.313,47.7V61.7H23V47.7a12.656,12.656,0,0,1,25.313,0Z" transform="translate(9.344 14.235)" fill="#ffce54"/>
      <path id="Trazado_193246" data-name="Trazado 193246" d="M32.407,35.04A12.569,12.569,0,0,0,31,35.123,12.658,12.658,0,0,1,42.248,47.7V61.7h2.815V47.7A12.657,12.657,0,0,0,32.407,35.04Z" transform="translate(12.593 14.235)" fill="#f6bb42"/>
      <path id="Trazado_193247" data-name="Trazado 193247" d="M27.219,57h4.219V56.99L35.656,58.4l4.219-1.406V57h4.219V56.99a4.222,4.222,0,0,1,4.219,4.219v4.233H23V61.209a4.222,4.222,0,0,1,4.219-4.219Z" transform="translate(9.344 23.152)" fill="#6836bf"/>
      <path id="Trazado_193249" data-name="Trazado 193249" d="M15.438,58.485H7V53.31a9.771,9.771,0,0,0,8.438,0v5.175Z" transform="translate(2.844 21.657)" fill="#f5f7fa"/>
      <path id="Trazado_193250" data-name="Trazado 193250" d="M26.312,61.209v4.233H1V61.209A4.222,4.222,0,0,1,5.219,56.99V57H9.438V56.99h8.437V57h4.219V56.99A4.222,4.222,0,0,1,26.312,61.209Z" transform="translate(0.406 23.152)" fill="#e6e9ed"/>
      <path id="Trazado_193251" data-name="Trazado 193251" d="M4.039,57V56.99c-.046,0-.089.013-.136.014Z" transform="translate(1.586 23.152)" fill="#ccd1d9"/>
      <path id="Trazado_193253" data-name="Trazado 193253" d="M12.844,56.83a9.651,9.651,0,0,1-4.219-.958A9.8,9.8,0,0,1,3,47a11.17,11.17,0,0,0,9.844,5.625A11.17,11.17,0,0,0,22.688,47a9.806,9.806,0,0,1-5.625,8.873A9.625,9.625,0,0,1,12.844,56.83Z" transform="translate(1.219 19.094)" fill="#eac6bb"/>
      <path id="Trazado_193254" data-name="Trazado 193254" d="M22.688,51.455v.014a11.17,11.17,0,0,1-9.844,5.625A11.17,11.17,0,0,1,3,51.469V45.83a9.844,9.844,0,0,1,19.688,0Z" transform="translate(1.219 14.625)" fill="#656d78"/>
      <path id="Trazado_193255" data-name="Trazado 193255" d="M16.644,50.823a9.817,9.817,0,0,1-4.835,5.051A9.507,9.507,0,0,1,9,56.719a9.846,9.846,0,0,0,1.4.111,9.606,9.606,0,0,0,4.219-.958A9.8,9.8,0,0,0,20.25,47,11.013,11.013,0,0,1,16.644,50.823Z" transform="translate(3.657 19.093)" fill="#d3b1a9"/>
      <path id="Trazado_193256" data-name="Trazado 193256" d="M10.406,36a9.786,9.786,0,0,0-1.4.111H9a9.824,9.824,0,0,1,8.435,9.719v5.639a9.758,9.758,0,0,1-.792,3.822,11.025,11.025,0,0,0,3.607-3.822V45.83A9.834,9.834,0,0,0,10.406,36Z" transform="translate(3.656 14.625)" fill="#545c66"/>
      <path id="Trazado_193257" data-name="Trazado 193257" d="M79.656,45H23.406A1.4,1.4,0,0,1,22,43.594V35.156a1.406,1.406,0,0,1,2.813,0v7.031H78.25V2.813H24.813V29.531a1.406,1.406,0,0,1-2.812,0V1.406A1.4,1.4,0,0,1,23.406,0h56.25a1.4,1.4,0,0,1,1.406,1.406V43.594A1.4,1.4,0,0,1,79.656,45Z" transform="translate(8.938)"/>
      <path id="Trazado_193258" data-name="Trazado 193258" d="M5.406,34.844A1.4,1.4,0,0,1,4,33.438V26.406a1.406,1.406,0,0,1,2.813,0v7.031A1.4,1.4,0,0,1,5.406,34.844Z" transform="translate(1.625 10.156)"/>
      <path id="Trazado_193259" data-name="Trazado 193259" d="M11.031,22.815H5.406a1.406,1.406,0,0,1,0-2.813h5.625a1.406,1.406,0,0,1,0,2.813Z" transform="translate(1.625 8.126)"/>
      <path id="Trazado_193260" data-name="Trazado 193260" d="M1.406,28.438A1.4,1.4,0,0,1,0,27.031,7.039,7.039,0,0,1,7.031,20a1.406,1.406,0,0,1,0,2.813,4.224,4.224,0,0,0-4.219,4.219A1.4,1.4,0,0,1,1.406,28.438Z" transform="translate(0 8.125)"/>
      <path id="Trazado_193261" data-name="Trazado 193261" d="M1.406,35.25A1.4,1.4,0,0,1,0,33.844V25.406a1.406,1.406,0,0,1,2.813,0v8.438A1.4,1.4,0,0,1,1.406,35.25Z" transform="translate(0 9.75)"/>
      <path id="Trazado_193262" data-name="Trazado 193262" d="M19.406,35.25A1.4,1.4,0,0,1,18,33.844V25.406a1.406,1.406,0,1,1,2.813,0v8.438A1.4,1.4,0,0,1,19.406,35.25Z" transform="translate(7.313 9.75)"/>
      <path id="Trazado_193263" data-name="Trazado 193263" d="M26.438,26.812H19.406a1.406,1.406,0,0,1,0-2.812h7.031a1.406,1.406,0,0,1,0,2.813Z" transform="translate(7.313 9.75)"/>
      <path id="Trazado_193264" data-name="Trazado 193264" d="M33.031,20.625a1.4,1.4,0,0,1-1.406-1.406,1.406,1.406,0,0,0-2.812,0,1.406,1.406,0,0,1-2.812,0,4.219,4.219,0,0,1,8.438,0A1.4,1.4,0,0,1,33.031,20.625Z" transform="translate(10.562 6.094)"/>
      <path id="Trazado_193265" data-name="Trazado 193265" d="M24.406,29.656a1.406,1.406,0,0,1,0-2.812,8.446,8.446,0,0,0,8.438-8.437,1.406,1.406,0,0,1,2.813,0A11.263,11.263,0,0,1,24.406,29.656Z" transform="translate(9.344 6.906)"/>
      <path id="Trazado_193266" data-name="Trazado 193266" d="M24.406,24.031a1.406,1.406,0,0,1,0-2.812,2.815,2.815,0,0,0,2.813-2.812,1.406,1.406,0,0,1,2.813,0A5.631,5.631,0,0,1,24.406,24.031Z" transform="translate(9.344 6.906)"/>
      <path id="Trazado_193267" data-name="Trazado 193267" d="M62.628,45.033a1.4,1.4,0,0,1-1.406-1.406,2.817,2.817,0,0,0-2.815-2.814,1.406,1.406,0,0,1,0-2.812,5.633,5.633,0,0,1,5.628,5.626A1.4,1.4,0,0,1,62.628,45.033Z" transform="translate(23.156 15.438)"/>
      <path id="Trazado_193268" data-name="Trazado 193268" d="M58.406,42.031A1.4,1.4,0,0,1,57,40.625V36.406a1.406,1.406,0,0,1,2.813,0v4.219A1.4,1.4,0,0,1,58.406,42.031Z" transform="translate(23.156 14.219)"/>
      <path id="Trazado_193269" data-name="Trazado 193269" d="M47.406,46.25A1.4,1.4,0,0,1,46,44.844,9.856,9.856,0,0,1,55.844,35a1.406,1.406,0,0,1,0,2.813,7.039,7.039,0,0,0-7.031,7.031A1.4,1.4,0,0,1,47.406,46.25Z" transform="translate(18.688 14.219)"/>
      <path id="Trazado_193270" data-name="Trazado 193270" d="M60.438,37.813H53.406a1.406,1.406,0,0,1,0-2.812h7.031a1.406,1.406,0,0,1,0,2.813Z" transform="translate(21.125 14.219)"/>
      <path id="Trazado_193271" data-name="Trazado 193271" d="M57.25,54.437a12.516,12.516,0,0,1-11.1-6.4,1.407,1.407,0,0,1,2.513-1.264,10.026,10.026,0,0,0,17.175.007,1.407,1.407,0,1,1,2.516,1.259,12.513,12.513,0,0,1-11.1,6.4Z" transform="translate(18.687 18.688)"/>
      <path id="Trazado_193272" data-name="Trazado 193272" d="M47.406,50.845A1.4,1.4,0,0,1,46,49.439V42.4a1.406,1.406,0,0,1,2.813,0v7.037A1.4,1.4,0,0,1,47.406,50.845Z" transform="translate(18.688 16.655)"/>
      <path id="Trazado_193273" data-name="Trazado 193273" d="M61.406,50.845A1.4,1.4,0,0,1,60,49.439V42.4a1.406,1.406,0,0,1,2.813,0v7.037A1.4,1.4,0,0,1,61.406,50.845Z" transform="translate(24.375 16.655)"/>
      <path id="Trazado_193274" data-name="Trazado 193274" d="M45.406,63.026A1.4,1.4,0,0,1,44,61.62,5.63,5.63,0,0,1,49.625,56a1.406,1.406,0,0,1,0,2.813,2.814,2.814,0,0,0-2.812,2.811A1.4,1.4,0,0,1,45.406,63.026Z" transform="translate(17.875 22.748)"/>
      <path id="Trazado_193275" data-name="Trazado 193275" d="M52.625,58.814H48.406a1.406,1.406,0,0,1,0-2.812h4.219a1.406,1.406,0,0,1,0,2.813Z" transform="translate(19.094 22.751)"/>
      <path id="Trazado_193276" data-name="Trazado 193276" d="M45.406,66.033A1.4,1.4,0,0,1,44,64.627V60.4a1.406,1.406,0,0,1,2.813,0v4.226A1.4,1.4,0,0,1,45.406,66.033Z" transform="translate(17.875 23.967)"/>
      <path id="Trazado_193277" data-name="Trazado 193277" d="M64.625,63.026a1.4,1.4,0,0,1-1.406-1.406,2.814,2.814,0,0,0-2.812-2.811,1.406,1.406,0,0,1,0-2.812,5.63,5.63,0,0,1,5.625,5.624A1.4,1.4,0,0,1,64.625,63.026Z" transform="translate(23.969 22.748)"/>
      <path id="Trazado_193278" data-name="Trazado 193278" d="M61.625,58.814H57.406a1.406,1.406,0,0,1,0-2.812h4.219a1.406,1.406,0,0,1,0,2.813Z" transform="translate(22.75 22.751)"/>
      <path id="Trazado_193279" data-name="Trazado 193279" d="M63.406,66.033A1.4,1.4,0,0,1,62,64.627V60.4a1.406,1.406,0,0,1,2.813,0v4.226A1.4,1.4,0,0,1,63.406,66.033Z" transform="translate(25.188 23.967)"/>
      <path id="Trazado_193280" data-name="Trazado 193280" d="M70.719,64.813H45.406a1.406,1.406,0,0,1,0-2.813H70.719a1.406,1.406,0,0,1,0,2.813Z" transform="translate(17.875 25.188)"/>
      <path id="Trazado_193281" data-name="Trazado 193281" d="M51.406,60.311A1.4,1.4,0,0,1,50,58.9V53.724a1.406,1.406,0,0,1,2.813,0V58.9A1.4,1.4,0,0,1,51.406,60.311Z" transform="translate(20.313 21.254)"/>
      <path id="Trazado_193282" data-name="Trazado 193282" d="M57.406,60.3A1.4,1.4,0,0,1,56,58.9V53.724a1.406,1.406,0,0,1,2.813,0V58.9A1.4,1.4,0,0,1,57.406,60.3Z" transform="translate(22.75 21.254)"/>
      <path id="Trazado_193283" data-name="Trazado 193283" d="M57.25,58.647A11.261,11.261,0,0,1,46,47.4a1.406,1.406,0,1,1,2.813,0,8.438,8.438,0,0,0,16.875,0,1.406,1.406,0,1,1,2.813,0A11.261,11.261,0,0,1,57.25,58.647Z" transform="translate(18.688 18.685)"/>
      <path id="Trazado_193284" data-name="Trazado 193284" d="M59.844,58.807H51.406a1.406,1.406,0,0,1,0-2.812h8.438a1.406,1.406,0,0,1,0,2.813Z" transform="translate(20.313 22.748)"/>
      <path id="Trazado_193285" data-name="Trazado 193285" d="M13.25,54.437a12.516,12.516,0,0,1-11.1-6.4,1.407,1.407,0,0,1,2.513-1.264,9.711,9.711,0,0,0,8.589,4.854,9.764,9.764,0,0,0,8.585-4.847,1.407,1.407,0,1,1,2.516,1.259,12.513,12.513,0,0,1-11.1,6.4Z" transform="translate(0.812 18.688)"/>
      <path id="Trazado_193286" data-name="Trazado 193286" d="M3.406,50.439A1.4,1.4,0,0,1,2,49.033V43.4a1.406,1.406,0,0,1,2.813,0v5.631A1.4,1.4,0,0,1,3.406,50.439Z" transform="translate(0.813 17.061)"/>
      <path id="Trazado_193287" data-name="Trazado 193287" d="M17.406,50.439A1.4,1.4,0,0,1,16,49.033V43.4a1.406,1.406,0,0,1,2.813,0v5.631A1.4,1.4,0,0,1,17.406,50.439Z" transform="translate(6.5 17.061)"/>
      <path id="Trazado_193288" data-name="Trazado 193288" d="M1.406,63.026A1.4,1.4,0,0,1,0,61.62,5.63,5.63,0,0,1,5.625,56a1.406,1.406,0,0,1,0,2.813A2.814,2.814,0,0,0,2.813,61.62,1.4,1.4,0,0,1,1.406,63.026Z" transform="translate(0 22.748)"/>
      <path id="Trazado_193289" data-name="Trazado 193289" d="M8.625,58.814H4.406a1.406,1.406,0,1,1,0-2.812H8.625a1.406,1.406,0,0,1,0,2.813Z" transform="translate(1.219 22.751)"/>
      <path id="Trazado_193290" data-name="Trazado 193290" d="M1.406,66.033A1.4,1.4,0,0,1,0,64.627V60.4a1.406,1.406,0,0,1,2.813,0v4.226A1.4,1.4,0,0,1,1.406,66.033Z" transform="translate(0 23.967)"/>
      <path id="Trazado_193291" data-name="Trazado 193291" d="M20.625,63.026a1.4,1.4,0,0,1-1.406-1.406,2.814,2.814,0,0,0-2.812-2.811,1.406,1.406,0,0,1,0-2.812,5.63,5.63,0,0,1,5.625,5.624A1.4,1.4,0,0,1,20.625,63.026Z" transform="translate(6.094 22.748)"/>
      <path id="Trazado_193292" data-name="Trazado 193292" d="M17.625,58.814H13.406a1.406,1.406,0,1,1,0-2.812h4.219a1.406,1.406,0,0,1,0,2.813Z" transform="translate(4.875 22.751)"/>
      <path id="Trazado_193293" data-name="Trazado 193293" d="M19.406,66.033A1.4,1.4,0,0,1,18,64.627V60.4a1.406,1.406,0,0,1,2.813,0v4.226A1.4,1.4,0,0,1,19.406,66.033Z" transform="translate(7.313 23.967)"/>
      <path id="Trazado_193294" data-name="Trazado 193294" d="M26.719,64.813H1.406a1.406,1.406,0,0,1,0-2.813H26.719a1.406,1.406,0,0,1,0,2.813Z" transform="translate(0 25.188)"/>
      <path id="Trazado_193295" data-name="Trazado 193295" d="M7.406,60.311A1.4,1.4,0,0,1,6,58.9V53.724a1.406,1.406,0,0,1,2.813,0V58.9A1.4,1.4,0,0,1,7.406,60.311Z" transform="translate(2.438 21.254)"/>
      <path id="Trazado_193296" data-name="Trazado 193296" d="M13.406,60.3A1.4,1.4,0,0,1,12,58.9V53.724a1.406,1.406,0,0,1,2.813,0V58.9A1.4,1.4,0,0,1,13.406,60.3Z" transform="translate(4.875 21.254)"/>
      <path id="Trazado_193297" data-name="Trazado 193297" d="M13.25,58.647A11.261,11.261,0,0,1,2,47.4a1.406,1.406,0,0,1,2.813,0,8.438,8.438,0,0,0,16.875,0,1.406,1.406,0,1,1,2.813,0A11.261,11.261,0,0,1,13.25,58.647Z" transform="translate(0.813 18.685)"/>
      <path id="Trazado_193298" data-name="Trazado 193298" d="M23.094,47.651a1.4,1.4,0,0,1-1.406-1.406,8.438,8.438,0,0,0-16.875,0,1.406,1.406,0,0,1-2.812,0,11.25,11.25,0,0,1,22.5,0A1.4,1.4,0,0,1,23.094,47.651Z" transform="translate(0.813 14.219)"/>
      <path id="Trazado_193299" data-name="Trazado 193299" d="M15.844,58.807H7.406a1.406,1.406,0,1,1,0-2.812h8.437a1.406,1.406,0,1,1,0,2.813Z" transform="translate(2.438 22.748)"/>
      <path id="Trazado_193300" data-name="Trazado 193300" d="M41.406,59.858A1.4,1.4,0,0,1,40,58.452v-14a1.406,1.406,0,0,1,2.813,0v14A1.4,1.4,0,0,1,41.406,59.858Z" transform="translate(16.25 17.486)"/>
      <path id="Trazado_193301" data-name="Trazado 193301" d="M48.719,55.813H23.406a1.406,1.406,0,0,1,0-2.812H48.719a1.406,1.406,0,0,1,0,2.813Z" transform="translate(8.938 21.531)"/>
      <path id="Trazado_193302" data-name="Trazado 193302" d="M23.406,59.858A1.4,1.4,0,0,1,22,58.452v-14a1.406,1.406,0,0,1,2.813,0v14A1.4,1.4,0,0,1,23.406,59.858Z" transform="translate(8.938 17.486)"/>
      <path id="Trazado_193303" data-name="Trazado 193303" d="M48.719,49.511A1.4,1.4,0,0,1,47.313,48.1a11.25,11.25,0,0,0-22.5,0A1.406,1.406,0,0,1,22,48.1a14.063,14.063,0,0,1,28.125,0A1.4,1.4,0,0,1,48.719,49.511Z" transform="translate(8.938 13.83)"/>
      <path id="Trazado_193304" data-name="Trazado 193304" d="M23.406,63.026A1.4,1.4,0,0,1,22,61.62,5.63,5.63,0,0,1,27.625,56a1.406,1.406,0,1,1,0,2.813,2.814,2.814,0,0,0-2.812,2.811A1.4,1.4,0,0,1,23.406,63.026Z" transform="translate(8.938 22.748)"/>
      <path id="Trazado_193305" data-name="Trazado 193305" d="M30.625,58.814H26.406a1.406,1.406,0,1,1,0-2.812h4.219a1.406,1.406,0,0,1,0,2.813Z" transform="translate(10.156 22.751)"/>
      <path id="Trazado_193306" data-name="Trazado 193306" d="M23.406,66.033A1.4,1.4,0,0,1,22,64.627V60.4a1.406,1.406,0,0,1,2.813,0v4.226A1.4,1.4,0,0,1,23.406,66.033Z" transform="translate(8.938 23.967)"/>
      <path id="Trazado_193307" data-name="Trazado 193307" d="M42.625,63.026a1.4,1.4,0,0,1-1.406-1.406,2.814,2.814,0,0,0-2.812-2.811,1.406,1.406,0,0,1,0-2.812,5.63,5.63,0,0,1,5.625,5.624A1.4,1.4,0,0,1,42.625,63.026Z" transform="translate(15.031 22.748)"/>
      <path id="Trazado_193308" data-name="Trazado 193308" d="M39.625,58.814H35.406a1.406,1.406,0,0,1,0-2.812h4.219a1.406,1.406,0,0,1,0,2.813Z" transform="translate(13.813 22.751)"/>
      <path id="Trazado_193309" data-name="Trazado 193309" d="M41.406,66.033A1.4,1.4,0,0,1,40,64.627V60.4a1.406,1.406,0,0,1,2.813,0v4.226A1.4,1.4,0,0,1,41.406,66.033Z" transform="translate(16.25 23.967)"/>
      <path id="Trazado_193310" data-name="Trazado 193310" d="M48.719,64.813H23.406a1.406,1.406,0,0,1,0-2.813H48.719a1.406,1.406,0,0,1,0,2.813Z" transform="translate(8.938 25.188)"/>
      <path id="Trazado_193311" data-name="Trazado 193311" d="M29.406,59.5A1.4,1.4,0,0,1,28,58.092V55.724a1.406,1.406,0,0,1,2.813,0v2.368A1.4,1.4,0,0,1,29.406,59.5Z" transform="translate(11.375 22.067)"/>
      <path id="Trazado_193312" data-name="Trazado 193312" d="M35.406,59.489A1.4,1.4,0,0,1,34,58.083V55.724a1.406,1.406,0,0,1,2.813,0v2.358a1.4,1.4,0,0,1-1.406,1.406Z" transform="translate(13.813 22.067)"/>
      <path id="Trazado_193313" data-name="Trazado 193313" d="M33.625,60.214a1.407,1.407,0,0,1-.444-.073l-4.219-1.406a1.406,1.406,0,1,1,.89-2.668l4.219,1.406a1.407,1.407,0,0,1-.446,2.741Z" transform="translate(11.375 22.747)"/>
      <path id="Trazado_193314" data-name="Trazado 193314" d="M32.406,60.214a1.407,1.407,0,0,1-.444-2.741l4.219-1.406a1.406,1.406,0,0,1,.89,2.668l-4.219,1.406a1.383,1.383,0,0,1-.446.073Z" transform="translate(12.594 22.747)"/>
      <path id="Trazado_193315" data-name="Trazado 193315" d="M5.406,14.978A1.4,1.4,0,0,1,4,13.571V9.538a1.406,1.406,0,0,1,2.813,0v4.033A1.4,1.4,0,0,1,5.406,14.978Z" transform="translate(1.625 3.304)"/>
      <path id="Trazado_193316" data-name="Trazado 193316" d="M19.406,15.235A1.4,1.4,0,0,1,18,13.829V8.905a1.406,1.406,0,0,1,2.813,0v4.923A1.4,1.4,0,0,1,19.406,15.235Z" transform="translate(7.313 3.046)"/>
      <path id="Trazado_193317" data-name="Trazado 193317" d="M25.5,13.358a1.4,1.4,0,0,1-1.406-1.406,9.141,9.141,0,0,0-18.281,0,1.406,1.406,0,0,1-2.813,0,11.953,11.953,0,0,1,23.906,0A1.4,1.4,0,0,1,25.5,13.358Z" transform="translate(1.219)"/>
      <path id="Trazado_193318" data-name="Trazado 193318" d="M25.5,12.679a1.4,1.4,0,0,1-1.118-.551c-2.714-3.547-3.452-3.254-6.207-2.163-2.64,1.048-6.63,2.63-13.989,1.465a1.405,1.405,0,1,1,.44-2.776c6.6,1.038,10.018-.314,12.514-1.3,3.39-1.344,5.663-1.911,9.475,3.067A1.406,1.406,0,0,1,25.5,12.679Z" transform="translate(1.219 2.606)"/>
      <path id="Trazado_193319" data-name="Trazado 193319" d="M15.4,10.943a1.407,1.407,0,0,1-1.26-2.026l2.813-5.725A1.406,1.406,0,1,1,19.481,4.43l-2.812,5.725a1.407,1.407,0,0,1-1.264.788Z" transform="translate(5.688 0.977)"/>
      <path id="Trazado_193320" data-name="Trazado 193320" d="M28.063,22.815,15.4,22.807a1.406,1.406,0,0,1,0-2.812h0L28.064,20a1.406,1.406,0,0,1,0,2.813Z" transform="translate(5.688 8.123)"/>
      <path id="Trazado_193321" data-name="Trazado 193321" d="M9.406,23.9A1.4,1.4,0,0,1,8,22.5V18.724a1.406,1.406,0,0,1,2.813,0V22.5A1.4,1.4,0,0,1,9.406,23.9Z" transform="translate(3.25 7.035)"/>
      <path id="Trazado_193322" data-name="Trazado 193322" d="M15.406,23.9A1.4,1.4,0,0,1,14,22.489V18.724a1.406,1.406,0,0,1,2.813,0v3.765A1.4,1.4,0,0,1,15.406,23.9Z" transform="translate(5.688 7.035)"/>
      <path id="Trazado_193323" data-name="Trazado 193323" d="M15.25,23.647A11.261,11.261,0,0,1,4,12.4a1.406,1.406,0,0,1,2.813,0,8.438,8.438,0,0,0,16.875,0,1.406,1.406,0,0,1,2.813,0A11.261,11.261,0,0,1,15.25,23.647Z" transform="translate(1.625 4.467)"/>
      <path id="Trazado_193324" data-name="Trazado 193324" d="M10.408,24.214a1.407,1.407,0,0,1-.631-2.665l2.812-1.406a1.407,1.407,0,1,1,1.259,2.516l-2.812,1.406a1.393,1.393,0,0,1-.627.149Z" transform="translate(3.656 8.123)"/>
      <path id="Trazado_193325" data-name="Trazado 193325" d="M14.406,24.214a1.406,1.406,0,0,1-.994-2.4l1.406-1.406A1.406,1.406,0,0,1,16.807,22.4L15.4,23.8a1.4,1.4,0,0,1-.994.412Z" transform="translate(5.281 8.123)"/>
      <path id="Trazado_193326" data-name="Trazado 193326" d="M10.813,24.214a1.4,1.4,0,0,1-.994-.412L8.412,22.4A1.406,1.406,0,0,1,10.4,20.407l1.406,1.406a1.406,1.406,0,0,1-.994,2.4Z" transform="translate(3.25 8.123)"/>
      <path id="Trazado_193327" data-name="Trazado 193327" d="M15.217,24.213a1.41,1.41,0,0,1-.627-.148l-2.812-1.406a1.407,1.407,0,0,1,1.259-2.516l2.812,1.406a1.406,1.406,0,0,1-.631,2.663Z" transform="translate(4.469 8.123)"/>
      <path id="Trazado_193328" data-name="Trazado 193328" d="M4.406,11.009A1.4,1.4,0,0,1,3,9.6v-.7a1.406,1.406,0,0,1,2.813,0v.7A1.4,1.4,0,0,1,4.406,11.009Z" transform="translate(1.219 3.046)"/>
      <path id="Trazado_193329" data-name="Trazado 193329" d="M38.217,12.438a4.219,4.219,0,0,1,0-8.437,1.406,1.406,0,0,1,0,2.813,1.406,1.406,0,0,0,0,2.813,1.406,1.406,0,0,1,0,2.813Z" transform="translate(13.812 1.625)"/>
      <path id="Trazado_193330" data-name="Trazado 193330" d="M43.4,12.438a1.406,1.406,0,0,1,0-2.812,1.406,1.406,0,0,0,0-2.812A1.406,1.406,0,0,1,43.4,4a4.219,4.219,0,0,1,0,8.438Z" transform="translate(17.061 1.625)"/>
      <path id="Trazado_193331" data-name="Trazado 193331" d="M45.839,6.813H37.4A1.406,1.406,0,0,1,37.4,4h8.435a1.406,1.406,0,0,1,0,2.813Z" transform="translate(14.624 1.625)"/>
      <path id="Trazado_193332" data-name="Trazado 193332" d="M45.839,10.813H37.4A1.406,1.406,0,0,1,37.4,8h8.435a1.406,1.406,0,0,1,0,2.813Z" transform="translate(14.624 3.25)"/>
      <path id="Trazado_193333" data-name="Trazado 193333" d="M38.217,30.437a4.219,4.219,0,0,1,0-8.437,1.406,1.406,0,0,1,0,2.813,1.406,1.406,0,0,0,0,2.813,1.406,1.406,0,0,1,0,2.813Z" transform="translate(13.812 8.937)"/>
      <path id="Trazado_193334" data-name="Trazado 193334" d="M43.4,30.437a1.406,1.406,0,0,1,0-2.812,1.406,1.406,0,0,0,0-2.812A1.406,1.406,0,0,1,43.4,22a4.219,4.219,0,0,1,0,8.438Z" transform="translate(17.061 8.937)"/>
      <path id="Trazado_193335" data-name="Trazado 193335" d="M45.839,24.812H37.4A1.406,1.406,0,0,1,37.4,22h8.435a1.406,1.406,0,0,1,0,2.813Z" transform="translate(14.624 8.937)"/>
      <path id="Trazado_193336" data-name="Trazado 193336" d="M45.839,28.812H37.4A1.406,1.406,0,0,1,37.4,26h8.435a1.406,1.406,0,0,1,0,2.813Z" transform="translate(14.624 10.562)"/>
      <path id="Trazado_193337" data-name="Trazado 193337" d="M40.4,16.432A1.4,1.4,0,0,1,39,15.026V9.406a1.406,1.406,0,0,1,2.813,0v5.619A1.4,1.4,0,0,1,40.4,16.432Z" transform="translate(15.843 3.25)"/>
      <path id="Trazado_193338" data-name="Trazado 193338" d="M42.434,23.25a1.411,1.411,0,0,1-.724-.2l-7.03-4.219a1.406,1.406,0,0,1,0-2.41L41.71,12.2a1.413,1.413,0,0,1,1.447,0l7.03,4.219a1.406,1.406,0,0,1,0,2.41l-7.03,4.219A1.4,1.4,0,0,1,42.434,23.25Zm-4.3-5.625,4.3,2.579,4.3-2.579-4.3-2.579Z" transform="translate(13.812 4.876)"/>
      <path id="Trazado_193339" data-name="Trazado 193339" d="M63.469,21.439H49.406A1.4,1.4,0,0,1,48,20.033V14.406A1.4,1.4,0,0,1,49.406,13H63.469a1.4,1.4,0,0,1,1.406,1.406v5.626A1.4,1.4,0,0,1,63.469,21.439ZM50.812,18.626h11.25V15.813H50.812Z" transform="translate(19.5 5.281)"/>
      <path id="Trazado_193340" data-name="Trazado 193340" d="M40.4,26.436A1.4,1.4,0,0,1,39,25.029V19.407a1.406,1.406,0,0,1,2.813,0v5.622A1.4,1.4,0,0,1,40.4,26.436Z" transform="translate(15.843 7.313)"/>
      <path id="Trazado_193341" data-name="Trazado 193341" d="M51.033,17.813H45.4A1.406,1.406,0,0,1,45.4,15h5.631a1.406,1.406,0,0,1,0,2.813Z" transform="translate(17.873 6.094)"/>
      <path id="Trazado_193342" data-name="Trazado 193342" d="M54.406,29.656A1.4,1.4,0,0,1,53,28.25V18.407a1.406,1.406,0,0,1,2.813,0V28.25A1.4,1.4,0,0,1,54.406,29.656Z" transform="translate(21.531 6.907)"/>
      <path id="Trazado_193343" data-name="Trazado 193343" d="M58.064,26.812H45.4A1.406,1.406,0,0,1,45.4,24H58.064a1.406,1.406,0,0,1,0,2.813Z" transform="translate(17.873 9.75)"/>
    </g>
  </g>
</svg>
