<svg xmlns="http://www.w3.org/2000/svg" width="164" height="150" viewBox="0 0 164 150">
  <g id="Grupo_136151" data-name="Grupo 136151" transform="translate(-617 -1483)">
    <path id="Trazado_194094" data-name="Trazado 194094" d="M72,0A72,72,0,1,1,0,72,72,72,0,0,1,72,0Z" transform="translate(627 1483)" fill="#b13e8d" opacity="0.195"/>
    <path id="Trazado_194095" data-name="Trazado 194095" d="M12.5,0h139a12.5,12.5,0,0,1,0,25H12.5a12.5,12.5,0,0,1,0-25Z" transform="translate(617 1608)" fill="#6836bf"/>
    <path id="Trazado_194096" data-name="Trazado 194096" d="M31.395,13.141V17H28.652V5.625h4.539a5.287,5.287,0,0,1,2.309.48,3.621,3.621,0,0,1,1.555,1.367,3.734,3.734,0,0,1,.551,2.012,3.291,3.291,0,0,1-1.191,2.66,4.943,4.943,0,0,1-3.27,1Zm0-2.117h1.8a1.7,1.7,0,0,0,1.215-.4A1.48,1.48,0,0,0,34.824,9.5a1.83,1.83,0,0,0-.43-1.273,1.522,1.522,0,0,0-1.172-.484H31.395Zm12.664-.094-.867-.062a1.558,1.558,0,0,0-1.594.781V17H38.965V8.547h2.469l.086,1.086a2.039,2.039,0,0,1,1.852-1.242,2.567,2.567,0,0,1,.734.094Zm.336,1.766a4.989,4.989,0,0,1,.492-2.254A3.52,3.52,0,0,1,46.3,8.922a4.259,4.259,0,0,1,2.164-.531,3.887,3.887,0,0,1,2.992,1.176,4.512,4.512,0,0,1,1.094,3.2v.094A4.378,4.378,0,0,1,51.453,16a3.9,3.9,0,0,1-2.973,1.16,3.942,3.942,0,0,1-2.9-1.082,4.232,4.232,0,0,1-1.18-2.934Zm2.633.164a3.145,3.145,0,0,0,.367,1.719,1.223,1.223,0,0,0,1.086.547q1.406,0,1.438-2.164V12.7q0-2.273-1.453-2.273-1.32,0-1.43,1.961Zm9.75-6.414v2.1h1.391v1.828H56.777v3.867a.987.987,0,0,0,.172.664.922.922,0,0,0,.68.188,3.862,3.862,0,0,0,.656-.047V16.93a4.859,4.859,0,0,1-1.484.227,2.758,2.758,0,0,1-2.008-.641,2.626,2.626,0,0,1-.648-1.945v-4.2H53.066V8.547h1.078v-2.1Zm6.516,10.711A4.345,4.345,0,0,1,60.145,16a4.006,4.006,0,0,1-1.2-3.02v-.219a5.191,5.191,0,0,1,.48-2.289,3.516,3.516,0,0,1,1.4-1.535,4.233,4.233,0,0,1,2.188-.543A3.659,3.659,0,0,1,65.824,9.5a4.344,4.344,0,0,1,1.031,3.082V13.6H61.621a1.9,1.9,0,0,0,.617,1.117,1.836,1.836,0,0,0,1.234.406,2.366,2.366,0,0,0,1.953-.875l1.2,1.422a3.363,3.363,0,0,1-1.395,1.082A4.713,4.713,0,0,1,63.293,17.156ZM63,10.422q-1.156,0-1.375,1.531h2.656v-.2a1.3,1.3,0,0,0-.32-.98A1.275,1.275,0,0,0,63,10.422Zm8.492,4.7a1.171,1.171,0,0,0,.859-.3,1.1,1.1,0,0,0,.3-.84h2.469a2.922,2.922,0,0,1-1,2.281,3.705,3.705,0,0,1-2.566.891A3.751,3.751,0,0,1,68.645,16a4.556,4.556,0,0,1-1.062-3.2v-.109a5.149,5.149,0,0,1,.473-2.262,3.441,3.441,0,0,1,1.363-1.508,4.065,4.065,0,0,1,2.109-.527,3.658,3.658,0,0,1,2.617.914,3.242,3.242,0,0,1,.969,2.477H72.645a1.445,1.445,0,0,0-.32-1.008,1.106,1.106,0,0,0-.859-.352q-1.023,0-1.2,1.3a9.206,9.206,0,0,0-.055,1.141,3.616,3.616,0,0,0,.3,1.766A1.055,1.055,0,0,0,71.488,15.125Zm8.313,0a1.171,1.171,0,0,0,.859-.3,1.1,1.1,0,0,0,.3-.84h2.469a2.922,2.922,0,0,1-1,2.281,3.705,3.705,0,0,1-2.566.891A3.751,3.751,0,0,1,76.957,16a4.556,4.556,0,0,1-1.062-3.2v-.109a5.149,5.149,0,0,1,.473-2.262A3.441,3.441,0,0,1,77.73,8.918a4.065,4.065,0,0,1,2.109-.527,3.658,3.658,0,0,1,2.617.914,3.242,3.242,0,0,1,.969,2.477H80.957a1.445,1.445,0,0,0-.32-1.008,1.106,1.106,0,0,0-.859-.352q-1.023,0-1.2,1.3a9.206,9.206,0,0,0-.055,1.141,3.616,3.616,0,0,0,.3,1.766A1.055,1.055,0,0,0,79.8,15.125ZM87.316,17H84.676V8.547h2.641ZM84.52,6.367a1.175,1.175,0,0,1,.406-.922,1.727,1.727,0,0,1,2.109,0,1.175,1.175,0,0,1,.406.922,1.175,1.175,0,0,1-.406.922,1.727,1.727,0,0,1-2.109,0A1.175,1.175,0,0,1,84.52,6.367ZM88.605,12.7a4.989,4.989,0,0,1,.492-2.254,3.52,3.52,0,0,1,1.414-1.52,4.259,4.259,0,0,1,2.164-.531,3.887,3.887,0,0,1,2.992,1.176,4.512,4.512,0,0,1,1.094,3.2v.094A4.378,4.378,0,0,1,95.664,16a3.9,3.9,0,0,1-2.973,1.16,3.942,3.942,0,0,1-2.9-1.082,4.232,4.232,0,0,1-1.18-2.934Zm2.633.164a3.145,3.145,0,0,0,.367,1.719,1.223,1.223,0,0,0,1.086.547q1.406,0,1.438-2.164V12.7q0-2.273-1.453-2.273-1.32,0-1.43,1.961ZM93.035,5h2.781L93.645,7.453l-2.148,0Zm7.3,3.547.086.992a2.867,2.867,0,0,1,2.414-1.148,2.412,2.412,0,0,1,1.973.789,3.757,3.757,0,0,1,.676,2.375V17h-2.641V11.664a1.426,1.426,0,0,0-.258-.941,1.193,1.193,0,0,0-.937-.3,1.256,1.256,0,0,0-1.148.609V17H97.871V8.547Z" transform="translate(632 1611)" fill="#fff"/>
    <g id="capataz" transform="translate(655.5 1494.561)">
      <path id="Trazado_193344" data-name="Trazado 193344" d="M187.355,258.643l-2.92-14.162V231H165.26v13.477l-2.92,14.162Zm0,0" transform="translate(-129.347 -184.625)" fill="#bb5d4c"/>
      <path id="Trazado_193345" data-name="Trazado 193345" d="M242.383,231v27.639h8.944l-2.92-14.162V231Zm0,0" transform="translate(-193.32 -184.625)" fill="#a44f3e"/>
      <path id="Trazado_193346" data-name="Trazado 193346" d="M21.2,302.157C13.374,304.459,8,308.545,8,316.7v17.556a5.307,5.307,0,0,0,5.306,5.307H89.684a5.307,5.307,0,0,0,5.306-5.307V316.7c0-8.154-5.37-12.24-13.192-14.542l-20.714-4.028c0,5.3-9.588,9.588-9.588,9.588s-9.588-4.292-9.588-9.588Zm0,0" transform="translate(-5.997 -238.273)" fill="#deecf1"/>
      <path id="Trazado_193347" data-name="Trazado 193347" d="M366.968,316.521l-2.159-.42c5.67,2.472,9.326,6.429,9.326,13.154v24.67h.718a5.307,5.307,0,0,0,5.307-5.307V331.064C380.16,322.91,374.79,318.824,366.968,316.521Zm0,0" transform="translate(-291.166 -252.638)" fill="#a8d3d8"/>
      <path id="Trazado_193348" data-name="Trazado 193348" d="M145.981,298.129l-7.763,1.509c.462,4.3,4.279,8.192,8.216,11.117a3.4,3.4,0,0,0,3.772.176l5.362-3.215S145.981,303.424,145.981,298.129Zm0,0" transform="translate(-110.069 -238.273)" fill="#8ebac5"/>
      <path id="Trazado_193349" data-name="Trazado 193349" d="M234.224,298.129c0,5.3-9.588,9.588-9.588,9.588L230,310.931a3.4,3.4,0,0,0,3.772-.176c3.936-2.925,7.754-6.815,8.215-11.117Zm0,0" transform="translate(-179.137 -238.273)" fill="#8ebac5"/>
      <path id="Trazado_193350" data-name="Trazado 193350" d="M108.469,345.569v-9.055a18.536,18.536,0,0,0-3.355-10.637c-5.044-7.2-14-20.232-14-20.232l-7.781,1.514v8.836a15.633,15.633,0,0,1-2.027,7.7,15.661,15.661,0,0,0-2.021,8l.012,13.877Zm0,0" transform="translate(-62.969 -244.28)" fill="#7fc733"/>
      <path id="Trazado_193351" data-name="Trazado 193351" d="M224.637,345.569v-9.055a18.536,18.536,0,0,1,3.355-10.637c5.044-7.2,13.994-20.232,14-20.232l7.781,1.514v8.836a15.641,15.641,0,0,0,2.026,7.7,15.662,15.662,0,0,1,2.022,8l-.013,13.877Zm0,0" transform="translate(-179.137 -244.28)" fill="#7fc733"/>
      <path id="Trazado_193352" data-name="Trazado 193352" d="M154.939,55.869h-1.216V51.024a16.641,16.641,0,0,0-5.636-12.645,18.279,18.279,0,0,0-24.43,0,16.641,16.641,0,0,0-5.636,12.645v4.845H116.8a3.23,3.23,0,0,0-3.23,3.231v3.58a3.23,3.23,0,0,0,3.23,3.23h1.222a16.611,16.611,0,0,0,5.631,12.267,18.279,18.279,0,0,0,24.43,0,16.61,16.61,0,0,0,5.63-12.267h1.222a3.23,3.23,0,0,0,3.23-3.23V59.1A3.23,3.23,0,0,0,154.939,55.869Zm0,0" transform="translate(-90.372 -26.933)" fill="#bb5d4c"/>
      <path id="Trazado_193353" data-name="Trazado 193353" d="M252.083,73.527h-1.216V68.682a16.641,16.641,0,0,0-5.636-12.645c-.095-.082-.192-.163-.29-.245l0,29.534a16.607,16.607,0,0,1-5.63,12.267,19.924,19.924,0,0,1-4.186,2.786,18.8,18.8,0,0,0,10.11-4.543,16.609,16.609,0,0,0,5.63-12.266h1.222a3.231,3.231,0,0,0,3.23-3.231v-3.58A3.23,3.23,0,0,0,252.083,73.527Zm0,0" transform="translate(-187.516 -44.591)" fill="#a44f3e"/>
      <path id="Trazado_193354" data-name="Trazado 193354" d="M140.84,7.5h-1.85a20.357,20.357,0,0,0-20.357,20.357v5.862H161.2V27.857A20.357,20.357,0,0,0,140.84,7.5Zm0,0" transform="translate(-94.415 -5.994)" fill="#f7ca18"/>
      <path id="Trazado_193356" data-name="Trazado 193356" d="M146.748,130.019H102.436a2.976,2.976,0,0,1,0-5.953h44.311a2.976,2.976,0,0,1,0,5.953Zm0,0" transform="translate(-79.093 -99.158)" fill="#f7ca18"/>
      <path id="Trazado_193357" data-name="Trazado 193357" d="M216.88,20.261V7.569c-.553-.045-1.112-.069-1.677-.069h-1.851c-.565,0-1.124.024-1.677.069V20.261C211.676,21.7,216.88,21.7,216.88,20.261Zm0,0" transform="translate(-168.778 -5.994)" fill="#f7ca18"/>
      <path id="Trazado_193358" data-name="Trazado 193358" d="M271.318,21.168V17.4a20.352,20.352,0,0,0-5.2-2.985v6.754C266.113,22.606,271.318,22.606,271.318,21.168Zm0,0" transform="translate(-212.286 -11.52)" fill="#ffaa5c"/>
      <path id="Trazado_193359" data-name="Trazado 193359" d="M269.622,22.185c.937-.13,1.7-.468,1.7-1.017V17.4c-.184-.145-.371-.287-.559-.426l-.081-.059q-.564-.411-1.157-.783l-.082-.051q-.6-.372-1.22-.7l-.079-.042q-.629-.329-1.283-.616l-.074-.032q-.332-.144-.67-.276v3.727A20.5,20.5,0,0,1,269.622,22.185Zm0,0" transform="translate(-212.286 -11.52)" fill="#f7ca18"/>
      <path id="Trazado_193360" data-name="Trazado 193360" d="M162.44,21.168V14.414a20.334,20.334,0,0,0-5.205,2.985v3.769C157.234,22.606,162.44,22.606,162.44,21.168Zm0,0" transform="translate(-125.267 -11.52)" fill="#f7ca18"/>
      <path id="Trazado_193361" data-name="Trazado 193361" d="M285.142,446.975h16.345l0-6.928H285.142a.852.852,0,0,0-.852.852v5.223A.853.853,0,0,0,285.142,446.975Zm0,0" transform="translate(-226.813 -351.699)" fill="#b13e8d"/>
      <path id="Trazado_193362" data-name="Trazado 193362" d="M79.289,446.975H95.635a.853.853,0,0,0,.852-.853l0-5.223a.853.853,0,0,0-.852-.852H79.289Zm0,0" transform="translate(-62.971 -351.699)" fill="#b13e8d"/>
      <path id="Trazado_193363" data-name="Trazado 193363" d="M90.5,83.944V78.426c0-6.79-3.423-11.6-10.435-14.618-4.323-1.86-6.692-1.783-23.471-5.194V54A18.056,18.056,0,0,0,64.762,40.48,4.742,4.742,0,0,0,69.3,35.747v-3.58c0-.038,0-.075,0-.113a4.483,4.483,0,0,0-1.014-8.606V21.863A21.863,21.863,0,0,0,46.425,0h-1.85A21.863,21.863,0,0,0,22.712,21.863v1.585A4.483,4.483,0,0,0,21.7,32.054c0,.038,0,.075,0,.113v3.58a4.742,4.742,0,0,0,4.541,4.732,18.026,18.026,0,0,0,8.169,13.515v4.619c-16.8,3.416-19.143,3.332-23.47,5.194C3.923,66.826.5,71.636.5,78.425V95.981a6.813,6.813,0,0,0,6.814,6.814H83.686A6.813,6.813,0,0,0,90.5,95.982V89.969a1.506,1.506,0,0,0-3.012,0v6.013a3.8,3.8,0,0,1-3.8,3.8H76.174c-.407-10.714,1.177-15.129-2.205-21.111-2.719-4.809-1.55-8.722-1.831-13.966.6.281,15.35,1.324,15.35,13.72v5.519A1.506,1.506,0,0,0,90.5,83.944ZM60.308,62.4c-5.573,8.1-5.444,8.065-6.392,8.737a1.875,1.875,0,0,1-2.28.225L48.592,69.54c2.7-1.547,6.681-4.358,7.737-7.909ZM17.829,89.854H32.012V93.77H17.832Zm.006,6.928H32.664a2.361,2.361,0,0,0,2.358-2.358c-.172-4.557.453-5.749-.689-6.891-1.212-1.212-1.445-.461-16.506-.691a14.157,14.157,0,0,1,1.827-6.688c3.255-5.758,1.9-10.465,2.221-16.034l5.595-1.089c1.161,1.7,9.421,13.692,13.441,19.43a16.956,16.956,0,0,1,3.083,9.773v7.548H17.838ZM42.408,69.541l-3.044,1.825c-1.3.779-2.687-.281-3.541-1.518-2.064-2.989-3.943-5.718-5.13-7.443l3.979-.773C35.727,65.182,39.712,67.993,42.408,69.541ZM45.5,84.6a20.084,20.084,0,0,0-2.122-3.868c-1.254-1.791-2.741-3.928-4.269-6.133,1.59-.241,2.153-.971,6.391-3.4,4.215,2.417,4.806,3.161,6.391,3.4-1.528,2.2-3.015,4.342-4.27,6.133A20.08,20.08,0,0,0,45.5,84.6ZM55.333,5.253a18.967,18.967,0,0,1,2.193,1.383V9.107a5.3,5.3,0,0,1-2.193,0ZM46.6,3.013V13.726a5.3,5.3,0,0,1-2.193,0V3.013C44.548,3.012,46.448,3.012,46.6,3.013ZM33.474,6.636a18.958,18.958,0,0,1,2.192-1.383V9.107a5.294,5.294,0,0,1-2.192,0ZM30.462,9.379v.27c0,3.479,8.217,3.486,8.217,0V3.957a18.636,18.636,0,0,1,2.713-.675V14.268c0,3.455,8.217,3.5,8.217,0V3.281a18.6,18.6,0,0,1,2.712.675V9.649c0,3.479,8.217,3.486,8.217,0v-.27A19.578,19.578,0,0,1,65.276,23.4H25.724A19.481,19.481,0,0,1,30.462,9.379Zm-1.3,29.567c-.042-1.943-2.448-1.406-2.728-1.474a1.726,1.726,0,0,1-1.724-1.725V32.368h6.415a1.506,1.506,0,0,0,0-3.012H23.345a1.47,1.47,0,0,1,0-2.94H67.655a1.47,1.47,0,0,1,0,2.94H37.148a1.506,1.506,0,0,0,0,3.012H66.291v3.379a1.727,1.727,0,0,1-1.725,1.725c-.311.075-2.686-.463-2.728,1.474-.2,9.25-8,15.373-16.339,15.473C37.188,54.319,29.359,48.219,29.161,38.946ZM45.483,57.431h.034a19.949,19.949,0,0,0,8.065-1.752v4.176c0,1.63-1.467,3.594-4.133,5.532A29.426,29.426,0,0,1,45.5,67.771a29.376,29.376,0,0,1-3.949-2.383c-2.665-1.938-4.133-3.9-4.133-5.532V55.679A19.952,19.952,0,0,0,45.483,57.431ZM3.512,95.982V78.426c0-6.574,3.715-10.609,12.044-13.078l3.306-.643c-.281,5.254.887,9.159-1.831,13.966-3.389,5.993-1.8,10.421-2.206,21.111H7.314A3.805,3.805,0,0,1,3.512,95.982ZM73.167,93.77H58.982V89.854H73.17ZM71.346,80.154a14.157,14.157,0,0,1,1.827,6.688H58.329A2.361,2.361,0,0,0,55.971,89.2v5.223a2.362,2.362,0,0,0,2.358,2.359H73.165l0,3H47.006V92.234a16.952,16.952,0,0,1,3.083-9.773c3.971-5.669,12.335-17.806,13.441-19.429l5.595,1.088C69.445,69.721,68.09,74.4,71.346,80.154Zm0,0"/>
    </g>
  </g>
</svg>
