<svg xmlns="http://www.w3.org/2000/svg" width="204" height="165" viewBox="0 0 204 165">
  <g id="Grupo_136152" data-name="Grupo 136152" transform="translate(-810 -1483)">
    <path id="Trazado_194097" data-name="Trazado 194097" d="M72,0A72,72,0,1,1,0,72,72,72,0,0,1,72,0Z" transform="translate(840 1483)" fill="#b13e8d" opacity="0.195"/>
    <path id="Trazado_194098" data-name="Trazado 194098" d="M20,0H184a20,20,0,0,1,0,40H20A20,20,0,0,1,20,0Z" transform="translate(810 1608)" fill="#6836bf"/>
    <path id="Trazado_194099" data-name="Trazado 194099" d="M47.059,12.172H42.746v2.719H47.84V17H40V5.625h7.852V7.742H42.746v2.4h4.313ZM51.613,17H48.973V5h2.641Zm5.711.156A4.345,4.345,0,0,1,54.176,16a4.006,4.006,0,0,1-1.2-3.02v-.219a5.191,5.191,0,0,1,.48-2.289,3.516,3.516,0,0,1,1.4-1.535,4.233,4.233,0,0,1,2.188-.543A3.659,3.659,0,0,1,59.855,9.5a4.344,4.344,0,0,1,1.031,3.082V13.6H55.652a1.9,1.9,0,0,0,.617,1.117,1.836,1.836,0,0,0,1.234.406,2.366,2.366,0,0,0,1.953-.875l1.2,1.422a3.363,3.363,0,0,1-1.395,1.082A4.713,4.713,0,0,1,57.324,17.156Zm-.3-6.734q-1.156,0-1.375,1.531h2.656v-.2a1.3,1.3,0,0,0-.32-.98A1.275,1.275,0,0,0,57.027,10.422Zm7.406-1.875.086.992a2.906,2.906,0,0,1,2.414-1.148A2.14,2.14,0,0,1,69.1,9.664a2.813,2.813,0,0,1,2.484-1.273q2.57,0,2.641,3.109V17H71.582V11.664a1.611,1.611,0,0,0-.219-.945.931.931,0,0,0-.8-.3,1.247,1.247,0,0,0-1.164.7l.008.109V17H66.77V11.68a1.694,1.694,0,0,0-.211-.961.928.928,0,0,0-.8-.3,1.263,1.263,0,0,0-1.156.7V17H61.965V8.547Zm15.383,8.609A4.345,4.345,0,0,1,76.668,16a4.006,4.006,0,0,1-1.2-3.02v-.219a5.191,5.191,0,0,1,.48-2.289,3.516,3.516,0,0,1,1.4-1.535,4.233,4.233,0,0,1,2.188-.543A3.659,3.659,0,0,1,82.348,9.5a4.344,4.344,0,0,1,1.031,3.082V13.6H78.145a1.9,1.9,0,0,0,.617,1.117A1.836,1.836,0,0,0,80,15.125a2.366,2.366,0,0,0,1.953-.875l1.2,1.422a3.363,3.363,0,0,1-1.395,1.082A4.713,4.713,0,0,1,79.816,17.156Zm-.3-6.734q-1.156,0-1.375,1.531H80.8v-.2a1.3,1.3,0,0,0-.32-.98A1.275,1.275,0,0,0,79.52,10.422Zm7.336-1.875.086.992a2.867,2.867,0,0,1,2.414-1.148,2.412,2.412,0,0,1,1.973.789A3.757,3.757,0,0,1,92,11.555V17H89.363V11.664a1.426,1.426,0,0,0-.258-.941,1.193,1.193,0,0,0-.937-.3,1.256,1.256,0,0,0-1.148.609V17H84.387V8.547Zm9.672-2.1v2.1h1.391v1.828H96.527v3.867a.987.987,0,0,0,.172.664.922.922,0,0,0,.68.188,3.862,3.862,0,0,0,.656-.047V16.93a4.859,4.859,0,0,1-1.484.227,2.758,2.758,0,0,1-2.008-.641,2.626,2.626,0,0,1-.648-1.945v-4.2H92.816V8.547h1.078v-2.1Zm1.859,6.25a4.989,4.989,0,0,1,.492-2.254,3.52,3.52,0,0,1,1.414-1.52,4.259,4.259,0,0,1,2.164-.531,3.887,3.887,0,0,1,2.992,1.176,4.512,4.512,0,0,1,1.094,3.2v.094a4.378,4.378,0,0,1-1.1,3.137,3.9,3.9,0,0,1-2.973,1.16,3.942,3.942,0,0,1-2.9-1.082,4.232,4.232,0,0,1-1.18-2.934Zm2.633.164a3.145,3.145,0,0,0,.367,1.719,1.223,1.223,0,0,0,1.086.547q1.406,0,1.438-2.164V12.7q0-2.273-1.453-2.273-1.32,0-1.43,1.961Zm11.109,1.766a.608.608,0,0,0-.352-.539,5.348,5.348,0,0,0-1.336-.422,6.092,6.092,0,0,1-1.625-.574,2.722,2.722,0,0,1-.977-.863,2.061,2.061,0,0,1-.336-1.164,2.336,2.336,0,0,1,.961-1.918,3.958,3.958,0,0,1,2.516-.754,4.386,4.386,0,0,1,2.688.758,2.37,2.37,0,0,1,1.016,1.992h-2.641q0-1.016-1.07-1.016a1.061,1.061,0,0,0-.7.23.714.714,0,0,0-.281.574.655.655,0,0,0,.344.57,3.248,3.248,0,0,0,1.1.359,9.486,9.486,0,0,1,1.324.336,2.406,2.406,0,0,1,1.906,2.352,2.214,2.214,0,0,1-1.027,1.883,4.505,4.505,0,0,1-2.66.727,4.6,4.6,0,0,1-1.937-.391,3.24,3.24,0,0,1-1.328-1.062,2.406,2.406,0,0,1-.477-1.414H109.7a1.017,1.017,0,0,0,.391.855,1.607,1.607,0,0,0,.961.27,1.264,1.264,0,0,0,.809-.219A.7.7,0,0,0,112.129,14.625Zm7.422-1.914a5.164,5.164,0,0,1,.867-3.164,2.854,2.854,0,0,1,2.422-1.156,2.428,2.428,0,0,1,1.906.891V5h2.641V17H125.02l-.133-.906a2.493,2.493,0,0,1-2.062,1.063A2.849,2.849,0,0,1,120.434,16,5.327,5.327,0,0,1,119.551,12.711Zm2.633.164q0,2.25,1.313,2.25a1.3,1.3,0,0,0,1.25-.734V11.172a1.261,1.261,0,0,0-1.234-.75q-1.219,0-1.32,1.969Zm10.789,4.281A4.345,4.345,0,0,1,129.824,16a4.006,4.006,0,0,1-1.2-3.02v-.219a5.191,5.191,0,0,1,.48-2.289,3.516,3.516,0,0,1,1.4-1.535,4.233,4.233,0,0,1,2.188-.543A3.659,3.659,0,0,1,135.5,9.5a4.344,4.344,0,0,1,1.031,3.082V13.6H131.3a1.9,1.9,0,0,0,.617,1.117,1.836,1.836,0,0,0,1.234.406,2.366,2.366,0,0,0,1.953-.875l1.2,1.422a3.363,3.363,0,0,1-1.395,1.082A4.713,4.713,0,0,1,132.973,17.156Zm-.3-6.734q-1.156,0-1.375,1.531h2.656v-.2a1.3,1.3,0,0,0-.32-.98A1.275,1.275,0,0,0,132.676,10.422ZM24.652,28.836a5.1,5.1,0,0,1-.887,3.145,2.843,2.843,0,0,1-2.395,1.176,2.437,2.437,0,0,1-1.914-.852V36.25H16.824v-11.7h2.461l.078.781a2.437,2.437,0,0,1,1.992-.937,2.866,2.866,0,0,1,2.43,1.152,5.16,5.16,0,0,1,.867,3.168Zm-2.633-.164q0-2.25-1.312-2.25a1.239,1.239,0,0,0-1.25.672v3.328a1.279,1.279,0,0,0,1.266.7q1.258,0,1.3-2.172Zm8.906-1.742-.867-.062a1.558,1.558,0,0,0-1.594.781V33H25.832V24.547H28.3l.086,1.086a2.039,2.039,0,0,1,1.852-1.242,2.567,2.567,0,0,1,.734.094Zm.336,1.766a4.989,4.989,0,0,1,.492-2.254,3.52,3.52,0,0,1,1.414-1.52,4.259,4.259,0,0,1,2.164-.531,3.887,3.887,0,0,1,2.992,1.176,4.512,4.512,0,0,1,1.094,3.2v.094A4.378,4.378,0,0,1,38.32,32a3.9,3.9,0,0,1-2.973,1.16,3.942,3.942,0,0,1-2.9-1.082,4.232,4.232,0,0,1-1.18-2.934Zm2.633.164a3.145,3.145,0,0,0,.367,1.719,1.223,1.223,0,0,0,1.086.547q1.406,0,1.438-2.164V28.7q0-2.273-1.453-2.273-1.32,0-1.43,1.961Zm9.75-6.414v2.1h1.391v1.828H43.645v3.867a.987.987,0,0,0,.172.664.922.922,0,0,0,.68.188,3.862,3.862,0,0,0,.656-.047V32.93a4.859,4.859,0,0,1-1.484.227,2.758,2.758,0,0,1-2.008-.641,2.626,2.626,0,0,1-.648-1.945v-4.2H39.934V24.547h1.078v-2.1ZM50.16,33.156A4.345,4.345,0,0,1,47.012,32a4.006,4.006,0,0,1-1.2-3.02v-.219a5.191,5.191,0,0,1,.48-2.289,3.516,3.516,0,0,1,1.4-1.535,4.233,4.233,0,0,1,2.188-.543A3.659,3.659,0,0,1,52.691,25.5a4.344,4.344,0,0,1,1.031,3.082V29.6H48.488a1.9,1.9,0,0,0,.617,1.117,1.836,1.836,0,0,0,1.234.406,2.366,2.366,0,0,0,1.953-.875l1.2,1.422A3.363,3.363,0,0,1,52.1,32.754,4.713,4.713,0,0,1,50.16,33.156Zm-.3-6.734q-1.156,0-1.375,1.531h2.656v-.2a1.3,1.3,0,0,0-.32-.98A1.275,1.275,0,0,0,49.863,26.422Zm8.492,4.7a1.171,1.171,0,0,0,.859-.3,1.1,1.1,0,0,0,.3-.84H61.98a2.922,2.922,0,0,1-1,2.281,3.705,3.705,0,0,1-2.566.891A3.751,3.751,0,0,1,55.512,32a4.556,4.556,0,0,1-1.062-3.2v-.109a5.149,5.149,0,0,1,.473-2.262,3.441,3.441,0,0,1,1.363-1.508,4.065,4.065,0,0,1,2.109-.527,3.658,3.658,0,0,1,2.617.914,3.242,3.242,0,0,1,.969,2.477H59.512a1.445,1.445,0,0,0-.32-1.008,1.106,1.106,0,0,0-.859-.352q-1.023,0-1.2,1.3a9.206,9.206,0,0,0-.055,1.141,3.616,3.616,0,0,0,.3,1.766A1.055,1.055,0,0,0,58.355,31.125Zm8.313,0a1.171,1.171,0,0,0,.859-.3,1.1,1.1,0,0,0,.3-.84h2.469a2.922,2.922,0,0,1-1,2.281,3.705,3.705,0,0,1-2.566.891A3.751,3.751,0,0,1,63.824,32a4.556,4.556,0,0,1-1.062-3.2v-.109a5.149,5.149,0,0,1,.473-2.262A3.441,3.441,0,0,1,64.6,24.918a4.065,4.065,0,0,1,2.109-.527,3.658,3.658,0,0,1,2.617.914,3.242,3.242,0,0,1,.969,2.477H67.824a1.445,1.445,0,0,0-.32-1.008,1.106,1.106,0,0,0-.859-.352q-1.023,0-1.2,1.3a9.206,9.206,0,0,0-.055,1.141,3.616,3.616,0,0,0,.3,1.766A1.055,1.055,0,0,0,66.668,31.125ZM74.184,33H71.543V24.547h2.641Zm-2.8-10.633a1.175,1.175,0,0,1,.406-.922,1.727,1.727,0,0,1,2.109,0,1.249,1.249,0,0,1,0,1.844,1.727,1.727,0,0,1-2.109,0A1.175,1.175,0,0,1,71.387,22.367ZM75.473,28.7a4.989,4.989,0,0,1,.492-2.254,3.52,3.52,0,0,1,1.414-1.52,4.259,4.259,0,0,1,2.164-.531,3.887,3.887,0,0,1,2.992,1.176,4.512,4.512,0,0,1,1.094,3.2v.094A4.378,4.378,0,0,1,82.531,32a3.9,3.9,0,0,1-2.973,1.16,3.942,3.942,0,0,1-2.9-1.082,4.232,4.232,0,0,1-1.18-2.934Zm2.633.164a3.145,3.145,0,0,0,.367,1.719,1.223,1.223,0,0,0,1.086.547q1.406,0,1.438-2.164V28.7q0-2.273-1.453-2.273-1.32,0-1.43,1.961ZM79.9,21h2.781l-2.172,2.453-2.148,0Zm7.3,3.547.086.992a2.867,2.867,0,0,1,2.414-1.148,2.412,2.412,0,0,1,1.973.789,3.757,3.757,0,0,1,.676,2.375V33H89.715V27.664a1.426,1.426,0,0,0-.258-.941,1.193,1.193,0,0,0-.937-.3,1.256,1.256,0,0,0-1.148.609V33H84.738V24.547Zm18.438,4.289a5.1,5.1,0,0,1-.887,3.145,2.843,2.843,0,0,1-2.395,1.176,2.437,2.437,0,0,1-1.914-.852V36.25H97.816v-11.7h2.461l.078.781a2.437,2.437,0,0,1,1.992-.937,2.866,2.866,0,0,1,2.43,1.152,5.16,5.16,0,0,1,.867,3.168Zm-2.633-.164q0-2.25-1.312-2.25a1.239,1.239,0,0,0-1.25.672v3.328a1.279,1.279,0,0,0,1.266.7q1.258,0,1.3-2.172Zm7.883,4.484A4.345,4.345,0,0,1,107.746,32a4.006,4.006,0,0,1-1.2-3.02v-.219a5.191,5.191,0,0,1,.48-2.289,3.516,3.516,0,0,1,1.4-1.535,4.233,4.233,0,0,1,2.188-.543,3.659,3.659,0,0,1,2.813,1.105,4.344,4.344,0,0,1,1.031,3.082V29.6h-5.234a1.9,1.9,0,0,0,.617,1.117,1.836,1.836,0,0,0,1.234.406,2.366,2.366,0,0,0,1.953-.875l1.2,1.422a3.363,3.363,0,0,1-1.395,1.082A4.713,4.713,0,0,1,110.895,33.156Zm-.3-6.734q-1.156,0-1.375,1.531h2.656v-.2a1.3,1.3,0,0,0-.32-.98A1.275,1.275,0,0,0,110.6,26.422Zm10.031.508-.867-.062a1.558,1.558,0,0,0-1.594.781V33h-2.633V24.547H118l.086,1.086a2.039,2.039,0,0,1,1.852-1.242,2.567,2.567,0,0,1,.734.094Zm5.375,3.7a.608.608,0,0,0-.352-.539,5.348,5.348,0,0,0-1.336-.422,6.092,6.092,0,0,1-1.625-.574,2.722,2.722,0,0,1-.977-.863,2.061,2.061,0,0,1-.336-1.164,2.336,2.336,0,0,1,.961-1.918,3.958,3.958,0,0,1,2.516-.754,4.386,4.386,0,0,1,2.688.758,2.37,2.37,0,0,1,1.016,1.992h-2.641q0-1.016-1.07-1.016a1.061,1.061,0,0,0-.7.23.714.714,0,0,0-.281.574.655.655,0,0,0,.344.57,3.248,3.248,0,0,0,1.1.359,9.486,9.486,0,0,1,1.324.336,2.406,2.406,0,0,1,1.906,2.352,2.214,2.214,0,0,1-1.027,1.883,4.505,4.505,0,0,1-2.66.727,4.6,4.6,0,0,1-1.937-.391A3.24,3.24,0,0,1,121.59,31.7a2.406,2.406,0,0,1-.477-1.414h2.461a1.017,1.017,0,0,0,.391.855,1.607,1.607,0,0,0,.961.27,1.264,1.264,0,0,0,.809-.219A.7.7,0,0,0,126,30.625Zm3.438-1.93a4.989,4.989,0,0,1,.492-2.254,3.52,3.52,0,0,1,1.414-1.52,4.259,4.259,0,0,1,2.164-.531,3.887,3.887,0,0,1,2.992,1.176,4.512,4.512,0,0,1,1.094,3.2v.094A4.378,4.378,0,0,1,136.5,32a3.9,3.9,0,0,1-2.973,1.16,3.942,3.942,0,0,1-2.9-1.082,4.232,4.232,0,0,1-1.18-2.934Zm2.633.164a3.145,3.145,0,0,0,.367,1.719,1.223,1.223,0,0,0,1.086.547q1.406,0,1.438-2.164V28.7q0-2.273-1.453-2.273-1.32,0-1.43,1.961Zm9.1-4.312.086.992a2.867,2.867,0,0,1,2.414-1.148,2.412,2.412,0,0,1,1.973.789,3.757,3.757,0,0,1,.676,2.375V33h-2.641V27.664a1.426,1.426,0,0,0-.258-.941,1.193,1.193,0,0,0-.937-.3,1.256,1.256,0,0,0-1.148.609V33h-2.633V24.547ZM152.543,33a2.973,2.973,0,0,1-.25-.758,2.448,2.448,0,0,1-2.031.914,3,3,0,0,1-2.031-.723,2.3,2.3,0,0,1-.836-1.816,2.364,2.364,0,0,1,1.016-2.078,5.174,5.174,0,0,1,2.953-.7h.813v-.448q0-1.17-1.008-1.17a.824.824,0,0,0-.937.926H147.6a2.36,2.36,0,0,1,1.043-1.99,4.383,4.383,0,0,1,2.66-.765,3.843,3.843,0,0,1,2.555.789,2.743,2.743,0,0,1,.961,2.164v3.742a3.832,3.832,0,0,0,.359,1.781V33Zm-1.648-1.719a1.469,1.469,0,0,0,.816-.211,1.322,1.322,0,0,0,.465-.477V29.242h-.766q-1.375,0-1.375,1.234a.754.754,0,0,0,.242.582A.876.876,0,0,0,150.895,31.281ZM159.051,33H156.41V21h2.641Z" transform="translate(824 1609)" fill="#fff"/>
    <g id="casco" transform="translate(867 1500)">
      <g id="Grupo_135331" data-name="Grupo 135331" transform="translate(1.5 1.5)">
        <path id="Trazado_193364" data-name="Trazado 193364" d="M83,11.39V11a3,3,0,0,0-3-3H62a3,3,0,0,0-3,3v.39A38.988,38.988,0,0,0,32,48.5h78A38.988,38.988,0,0,0,83,11.39Z" transform="translate(-27.5 -8)" fill="#f7ca18"/>
        <path id="Trazado_193365" data-name="Trazado 193365" d="M92,224H11a3,3,0,0,0-3,3v3a3,3,0,0,0,3,3H92a3,3,0,0,0,3-3v-3A3,3,0,0,0,92,224Z" transform="translate(-8 -183.5)" fill="#f7ca18"/>
      </g>
      <path id="Trazado_193366" data-name="Trazado 193366" d="M120,334a6,6,0,0,0-6-6H54a6,6,0,0,0-6,6v12a9,9,0,0,0,9,9h9a17.987,17.987,0,0,0,15.465-8.781,2.97,2.97,0,0,1,5.07,0A17.986,17.986,0,0,0,102,355h9a9,9,0,0,0,9-9h0Zm-63,0a3,3,0,0,0-3,3A3,3,0,0,1,57,334Z" transform="translate(-39 -266.5)" fill="#e6e7e8"/>
      <g id="Grupo_135332" data-name="Grupo 135332" transform="translate(1.5 67.5)">
        <path id="Trazado_193367" data-name="Trazado 193367" d="M432,384h7.5v7.5H432Z" transform="translate(-352.5 -379.5)" fill="#b13e8d"/>
        <path id="Trazado_193368" data-name="Trazado 193368" d="M432,360h7.5v4.5H432Z" transform="translate(-352.5 -360)" fill="#b13e8d"/>
        <path id="Trazado_193369" data-name="Trazado 193369" d="M8,392v7.5h7.5V392Z" transform="translate(-8 -386)" fill="#b13e8d"/>
        <path id="Trazado_193370" data-name="Trazado 193370" d="M8,368h7.5v4.5H8Z" transform="translate(-8 -366.5)" fill="#b13e8d"/>
      </g>
      <g id="Grupo_135333" data-name="Grupo 135333">
        <path id="Trazado_193371" data-name="Trazado 193371" d="M85.5,40.5h-.06A40.308,40.308,0,0,0,58.431,3.819,4.5,4.5,0,0,0,54,0H36a4.5,4.5,0,0,0-4.431,3.819A40.308,40.308,0,0,0,4.56,40.5H4.5A4.5,4.5,0,0,0,0,45v3a4.5,4.5,0,0,0,4.5,4.5h81A4.5,4.5,0,0,0,90,48V45A4.5,4.5,0,0,0,85.5,40.5ZM31.5,7.036V33a1.5,1.5,0,0,0,3,0V4.5A1.5,1.5,0,0,1,36,3h7.5V36a1.5,1.5,0,0,0,3,0V3H54a1.5,1.5,0,0,1,1.5,1.5V33a1.5,1.5,0,0,0,3,0V7.036A37.32,37.32,0,0,1,82.44,40.5H7.56A37.32,37.32,0,0,1,31.5,7.036ZM87,48a1.5,1.5,0,0,1-1.5,1.5H4.5A1.5,1.5,0,0,1,3,48V45a1.5,1.5,0,0,1,1.5-1.5h81A1.5,1.5,0,0,1,87,45Z" fill="#231f20"/>
        <path id="Trazado_193372" data-name="Trazado 193372" d="M96,352H76.5a4.5,4.5,0,0,0-4.5,4.5v6a1.5,1.5,0,0,0,3,0v-6a1.5,1.5,0,0,1,1.5-1.5H96a1.5,1.5,0,0,0,0-3Z" transform="translate(-58.5 -286)" fill="#231f20"/>
        <path id="Trazado_193373" data-name="Trazado 193373" d="M88.5,326H82.35A7.513,7.513,0,0,0,75,320H15a7.509,7.509,0,0,0-7.5,7.5h-6A1.5,1.5,0,0,0,0,329v12a1.5,1.5,0,0,0,1.5,1.5H7.95A10.513,10.513,0,0,0,18,350h9a19.606,19.606,0,0,0,16.752-9.512,1.472,1.472,0,0,1,2.5,0A19.606,19.606,0,0,0,63,350h9a10.5,10.5,0,0,0,10.38-9H88.5a1.5,1.5,0,0,0,1.5-1.5v-12A1.5,1.5,0,0,0,88.5,326ZM87,330.5H82.5V329H87Zm-79.5,0V332H3v-1.5Zm-4.5,9V335H7.5v4.5ZM72,347H63a16.6,16.6,0,0,1-14.178-8.051,4.47,4.47,0,0,0-7.65,0A16.6,16.6,0,0,1,27,347H18a7.509,7.509,0,0,1-7.5-7.5v-12A4.5,4.5,0,0,1,15,323H75a4.5,4.5,0,0,1,4.5,4.5v12A7.509,7.509,0,0,1,72,347Zm10.5-9v-4.5H87V338Z" transform="translate(0 -260)" fill="#231f20"/>
        <path id="Trazado_193374" data-name="Trazado 193374" d="M228.5,352h-3a1.5,1.5,0,0,0,0,3h3a1.5,1.5,0,0,0,0-3Z" transform="translate(-182 -286)" fill="#231f20"/>
      </g>
    </g>
  </g>
</svg>
