<svg xmlns="http://www.w3.org/2000/svg" width="164" height="150" viewBox="0 0 164 150">
  <g id="Grupo_136153" data-name="Grupo 136153" transform="translate(-617 -1674)">
    <path id="Trazado_194102" data-name="Trazado 194102" d="M72,0A72,72,0,1,1,0,72,72,72,0,0,1,72,0Z" transform="translate(627 1674)" fill="#b13e8d" opacity="0.195"/>
    <path id="Trazado_194100" data-name="Trazado 194100" d="M12.5,0h139a12.5,12.5,0,0,1,0,25H12.5a12.5,12.5,0,0,1,0-25Z" transform="translate(617 1799)" fill="#6836bf"/>
    <path id="Trazado_194101" data-name="Trazado 194101" d="M37.461,17V5.625h4.086a5.786,5.786,0,0,1,3.34.8,2.677,2.677,0,0,1,1.145,2.336,2.707,2.707,0,0,1-.406,1.508,2.367,2.367,0,0,1-1.2.922,2.4,2.4,0,0,1,1.367.875,2.544,2.544,0,0,1,.477,1.563,3.012,3.012,0,0,1-1.059,2.512A5.038,5.038,0,0,1,42.078,17ZM40.2,12.164v2.727H42a1.709,1.709,0,0,0,1.141-.34,1.189,1.189,0,0,0,.4-.957,1.261,1.261,0,0,0-1.414-1.43Zm0-1.8h1.43a2.031,2.031,0,0,0,1.281-.329A1.168,1.168,0,0,0,43.3,9.09a1.226,1.226,0,0,0-.414-1.038,2.216,2.216,0,0,0-1.336-.317H40.2ZM47.328,12.7a4.989,4.989,0,0,1,.492-2.254,3.52,3.52,0,0,1,1.414-1.52A4.259,4.259,0,0,1,51.4,8.391a3.887,3.887,0,0,1,2.992,1.176,4.512,4.512,0,0,1,1.094,3.2v.094A4.378,4.378,0,0,1,54.387,16a3.9,3.9,0,0,1-2.973,1.16,3.942,3.942,0,0,1-2.9-1.082,4.232,4.232,0,0,1-1.18-2.934Zm2.633.164a3.145,3.145,0,0,0,.367,1.719,1.223,1.223,0,0,0,1.086.547q1.406,0,1.438-2.164V12.7q0-2.273-1.453-2.273-1.32,0-1.43,1.961Zm9.75-6.414v2.1H61.1v1.828H59.711v3.867a.987.987,0,0,0,.172.664.922.922,0,0,0,.68.188,3.862,3.862,0,0,0,.656-.047V16.93a4.859,4.859,0,0,1-1.484.227,2.758,2.758,0,0,1-2.008-.641,2.626,2.626,0,0,1-.648-1.945v-4.2H56V8.547h1.078v-2.1ZM64.914,17H62.273V8.547h2.641Zm-2.8-10.633a1.175,1.175,0,0,1,.406-.922,1.727,1.727,0,0,1,2.109,0,1.175,1.175,0,0,1,.406.922,1.175,1.175,0,0,1-.406.922,1.727,1.727,0,0,1-2.109,0A1.175,1.175,0,0,1,62.117,6.367Zm4.086,6.32a5.074,5.074,0,0,1,.875-3.156,2.874,2.874,0,0,1,2.414-1.141A2.454,2.454,0,0,1,71.57,9.453l.188-.906h2.281v11.7H71.4V16.3a2.451,2.451,0,0,1-1.922.859A2.849,2.849,0,0,1,67.09,16,5.357,5.357,0,0,1,66.2,12.688Zm2.633.164q0,2.273,1.313,2.273a1.271,1.271,0,0,0,1.25-.687V11.094a1.244,1.244,0,0,0-1.234-.672q-1.227,0-1.32,1.961Zm11.727,3.234a2.714,2.714,0,0,1-2.258,1.07,2.662,2.662,0,0,1-2.105-.809,3.4,3.4,0,0,1-.715-2.324V8.547h2.633v5.492a.946.946,0,0,0,1.055,1.086,1.376,1.376,0,0,0,1.289-.648V8.547h2.648V17H80.641ZM87.422,17H84.773V8.547h2.648ZM86.438,5.156h2.781L87.047,7.609l-2.148,0Zm5.094,3.391.086.992a2.867,2.867,0,0,1,2.414-1.148A2.412,2.412,0,0,1,96,9.18a3.757,3.757,0,0,1,.676,2.375V17H94.039V11.664a1.426,1.426,0,0,0-.258-.941,1.193,1.193,0,0,0-.937-.3,1.256,1.256,0,0,0-1.148.609V17H89.063V8.547Z" transform="translate(632 1802)" fill="#fff"/>
    <g id="botiqui-n-de-primeros-auxi-lios" transform="translate(654 1691.646)">
      <path id="Trazado_193375" data-name="Trazado 193375" d="M108.941,136.045v36.784H96.152V186.24H41.583V172.828H29.016V136.045H41.583V122.453H96.152v13.591Zm0,0" transform="translate(-23.868 -100.727)" fill="#b13e8d"/>
      <g id="Grupo_135334" data-name="Grupo 135334" transform="translate(5.148 21.726)">
        <path id="Trazado_193376" data-name="Trazado 193376" d="M29.016,199.059h7.233v36.783H29.016Zm0,0" transform="translate(-29.016 -185.467)" fill="#6836bf"/>
        <path id="Trazado_193377" data-name="Trazado 193377" d="M439.762,199.059H447v36.783h-7.234Zm0,0" transform="translate(-366.886 -185.467)" fill="#6836bf"/>
        <path id="Trazado_193378" data-name="Trazado 193378" d="M99.855,122.453h54.567v6.791H99.855Zm0,0" transform="translate(-87.287 -122.453)" fill="#6836bf"/>
        <path id="Trazado_193379" data-name="Trazado 193379" d="M99.855,443.625h54.567v6.8H99.855Zm0,0" transform="translate(-87.287 -386.642)" fill="#6836bf"/>
      </g>
      <path id="Trazado_193380" data-name="Trazado 193380" d="M25.942,103.43V120.4H10V115.19a11.775,11.775,0,0,1,11.76-11.76Zm0,0" transform="translate(-8.226 -85.079)" fill="#b13e8d"/>
      <path id="Trazado_193381" data-name="Trazado 193381" d="M407.41,103.43V120.4h15.942V115.19a11.775,11.775,0,0,0-11.76-11.76Zm0,0" transform="translate(-335.127 -85.079)" fill="#b13e8d"/>
      <path id="Trazado_193382" data-name="Trazado 193382" d="M407.41,423.344V406.379h15.942v5.206a11.774,11.774,0,0,1-11.76,11.76Zm0,0" transform="translate(-335.127 -334.278)" fill="#b13e8d"/>
      <path id="Trazado_193383" data-name="Trazado 193383" d="M25.942,423.344V406.379H10v5.206a11.774,11.774,0,0,0,11.76,11.76Zm0,0" transform="translate(-8.226 -334.278)" fill="#b13e8d"/>
      <path id="Trazado_193384" data-name="Trazado 193384" d="M178.33,10H166.056a11.577,11.577,0,0,0-11.564,11.565v8.387h6.561V21.565a5,5,0,0,1,5-5H178.33a5,5,0,0,1,5,5v8.387h6.56V21.565A11.577,11.577,0,0,0,178.33,10Zm0,0" transform="translate(-127.082 -8.226)" fill="#f7ca18"/>
      <path id="Trazado_193385" data-name="Trazado 193385" d="M201.637,226.55H191.489V216.4H181.335V226.55H171.188V236.7h10.148v10.148h10.154V236.7h10.148Zm0,0" transform="translate(-140.815 -178.008)" fill="#fff"/>
      <path id="Trazado_193386" data-name="Trazado 193386" d="M88.226,37.091A1.774,1.774,0,0,0,90,35.317V30.111A13.549,13.549,0,0,0,76.465,16.576H72.283a1.774,1.774,0,0,0-1.774,1.774v1.6H64.585V13.339A13.353,13.353,0,0,0,51.248,0H38.974A13.353,13.353,0,0,0,25.636,13.339v6.612H19.491v-1.6a1.774,1.774,0,0,0-1.774-1.774H13.535A13.55,13.55,0,0,0,0,30.111v5.206a1.774,1.774,0,0,0,1.774,1.774h1.6V70.326h-1.6A1.775,1.775,0,0,0,0,72.1v5.206A13.549,13.549,0,0,0,13.535,90.84h4.182a1.774,1.774,0,0,0,1.774-1.774V87.287H70.509v1.779a1.775,1.775,0,0,0,1.774,1.774h4.182A13.55,13.55,0,0,0,90,77.305V72.1a1.774,1.774,0,0,0-1.774-1.774H86.848V37.091ZM76.465,20.126a10,10,0,0,1,9.986,9.986v3.431H74.058V21.726s0-.006,0-.009V20.126ZM29.185,13.339a9.8,9.8,0,0,1,9.789-9.791H51.248a9.8,9.8,0,0,1,9.789,9.791v6.612H58.025V13.339A6.786,6.786,0,0,0,51.248,6.56H38.974A6.786,6.786,0,0,0,32.2,13.339v6.612H29.185Zm6.56,0a3.233,3.233,0,0,1,3.229-3.23H51.248a3.233,3.233,0,0,1,3.228,3.23v6.612H35.745ZM56.25,23.5h14.26V35.317a1.775,1.775,0,0,0,1.775,1.774H76.25V70.326H72.283A1.775,1.775,0,0,0,70.509,72.1v4.833H19.491V72.1a1.774,1.774,0,0,0-1.774-1.774H14.156V37.092h3.56a1.775,1.775,0,0,0,1.775-1.775V30.291H56.87a1.774,1.774,0,0,0,0-3.548H19.491V23.5Zm-52.7,6.611a10,10,0,0,1,9.986-9.986h2.408v1.592s0,.006,0,.008V33.542H3.548Zm3.374,6.98h3.685V70.326H6.922Zm6.612,50.2a10,10,0,0,1-9.986-9.986V73.875H15.942V85.512s0,.006,0,.008v1.771Zm5.956-3.553V80.483H70.509v3.255Zm66.961-6.433a10,10,0,0,1-9.986,9.986H74.058v-1.77s0-.006,0-.009V73.875H86.452ZM79.8,70.326V37.092h3.5V70.326Zm0,0"/>
      <path id="Trazado_193387" data-name="Trazado 193387" d="M185.038,208.177a1.774,1.774,0,0,0-1.774-1.774H173.109a1.774,1.774,0,0,0-1.774,1.774v8.373h-8.373a1.774,1.774,0,0,0-1.774,1.774v10.154a1.774,1.774,0,0,0,1.774,1.774h8.373v8.373a1.774,1.774,0,0,0,1.774,1.774h10.154a1.774,1.774,0,0,0,1.774-1.774v-8.373h8.373a1.775,1.775,0,0,0,1.774-1.774V218.324a1.775,1.775,0,0,0-1.774-1.774h-8.373Zm6.6,11.922V226.7h-8.373a1.775,1.775,0,0,0-1.774,1.774v8.373h-6.605v-8.373a1.774,1.774,0,0,0-1.774-1.774h-8.373V220.1h8.373a1.775,1.775,0,0,0,1.774-1.774v-8.373h6.605v8.373a1.775,1.775,0,0,0,1.774,1.774Zm0,0" transform="translate(-132.589 -169.782)"/>
      <path id="Trazado_193388" data-name="Trazado 193388" d="M352.749,153.2a1.773,1.773,0,1,0,.7-2.185A1.792,1.792,0,0,0,352.749,153.2Zm0,0" transform="translate(-290.055 -124.005)"/>
    </g>
  </g>
</svg>
