<svg xmlns="http://www.w3.org/2000/svg" width="164" height="150" viewBox="0 0 164 150">
  <g id="Grupo_136154" data-name="Grupo 136154" transform="translate(-836 -1674)">
    <path id="Trazado_194105" data-name="Trazado 194105" d="M72,0A72,72,0,1,1,0,72,72,72,0,0,1,72,0Z" transform="translate(846 1674)" fill="#b13e8d" opacity="0.195"/>
    <path id="Trazado_194103" data-name="Trazado 194103" d="M12.5,0h139a12.5,12.5,0,0,1,0,25H12.5a12.5,12.5,0,0,1,0-25Z" transform="translate(836 1799)" fill="#6836bf"/>
    <path id="Trazado_194104" data-name="Trazado 194104" d="M26.734,17V5.625H30.82a5.786,5.786,0,0,1,3.34.8A2.677,2.677,0,0,1,35.3,8.766a2.707,2.707,0,0,1-.406,1.508,2.367,2.367,0,0,1-1.2.922,2.4,2.4,0,0,1,1.367.875,2.544,2.544,0,0,1,.477,1.563,3.012,3.012,0,0,1-1.059,2.512A5.038,5.038,0,0,1,31.352,17Zm2.742-4.836v2.727h1.8a1.709,1.709,0,0,0,1.141-.34,1.189,1.189,0,0,0,.4-.957,1.261,1.261,0,0,0-1.414-1.43Zm0-1.8h1.43a2.031,2.031,0,0,0,1.281-.329,1.168,1.168,0,0,0,.383-.948,1.226,1.226,0,0,0-.414-1.038,2.216,2.216,0,0,0-1.336-.317H29.477Zm12.57.563-.867-.062a1.558,1.558,0,0,0-1.594.781V17H36.953V8.547h2.469l.086,1.086a2.039,2.039,0,0,1,1.852-1.242,2.567,2.567,0,0,1,.734.094ZM45.773,17H43.133V8.547h2.641Zm-2.8-10.633a1.175,1.175,0,0,1,.406-.922,1.727,1.727,0,0,1,2.109,0,1.175,1.175,0,0,1,.406.922,1.175,1.175,0,0,1-.406.922,1.727,1.727,0,0,1-2.109,0A1.175,1.175,0,0,1,42.977,6.367Zm4.109,6.344a5.708,5.708,0,0,1,.422-2.266,3.4,3.4,0,0,1,1.211-1.52,3.192,3.192,0,0,1,1.836-.535,2.538,2.538,0,0,1,2.063.891l.094-.734H55.1V16.68a3.564,3.564,0,0,1-.52,1.941,3.334,3.334,0,0,1-1.5,1.266,5.528,5.528,0,0,1-2.281.441,4.769,4.769,0,0,1-1.8-.352,3.251,3.251,0,0,1-1.332-.914l1.1-1.547a2.414,2.414,0,0,0,1.938.867,1.568,1.568,0,0,0,1.75-1.8V16.32a2.472,2.472,0,0,1-1.914.836,3.055,3.055,0,0,1-2.5-1.184,4.9,4.9,0,0,1-.953-3.168Zm2.641.164a3.007,3.007,0,0,0,.391,1.645,1.232,1.232,0,0,0,1.094.605,1.4,1.4,0,0,0,1.242-.57V11a1.363,1.363,0,0,0-1.227-.578,1.241,1.241,0,0,0-1.1.629A3.429,3.429,0,0,0,49.727,12.875ZM61.359,17a2.973,2.973,0,0,1-.25-.758,2.448,2.448,0,0,1-2.031.914,3,3,0,0,1-2.031-.723,2.3,2.3,0,0,1-.836-1.816,2.364,2.364,0,0,1,1.016-2.078,5.174,5.174,0,0,1,2.953-.7h.813v-.448q0-1.17-1.008-1.17a.824.824,0,0,0-.937.926H56.414a2.36,2.36,0,0,1,1.043-1.99,4.383,4.383,0,0,1,2.66-.765,3.843,3.843,0,0,1,2.555.789,2.743,2.743,0,0,1,.961,2.164v3.742a3.832,3.832,0,0,0,.359,1.781V17Zm-1.648-1.719a1.469,1.469,0,0,0,.816-.211,1.322,1.322,0,0,0,.465-.477V13.242h-.766q-1.375,0-1.375,1.234a.754.754,0,0,0,.242.582A.876.876,0,0,0,59.711,15.281Zm5.047-2.57a5.164,5.164,0,0,1,.867-3.164,2.854,2.854,0,0,1,2.422-1.156,2.428,2.428,0,0,1,1.906.891V5h2.641V17H70.227l-.133-.906a2.493,2.493,0,0,1-2.062,1.063A2.849,2.849,0,0,1,65.641,16,5.327,5.327,0,0,1,64.758,12.711Zm2.633.164q0,2.25,1.313,2.25a1.3,1.3,0,0,0,1.25-.734V11.172a1.261,1.261,0,0,0-1.234-.75q-1.219,0-1.32,1.969ZM76.867,17H74.227V8.547h2.641ZM74.07,6.367a1.175,1.175,0,0,1,.406-.922,1.727,1.727,0,0,1,2.109,0,1.175,1.175,0,0,1,.406.922,1.175,1.175,0,0,1-.406.922,1.727,1.727,0,0,1-2.109,0A1.175,1.175,0,0,1,74.07,6.367Zm8.844,8.258a.608.608,0,0,0-.352-.539,5.348,5.348,0,0,0-1.336-.422A6.092,6.092,0,0,1,79.6,13.09a2.722,2.722,0,0,1-.977-.863,2.061,2.061,0,0,1-.336-1.164,2.336,2.336,0,0,1,.961-1.918,3.958,3.958,0,0,1,2.516-.754,4.386,4.386,0,0,1,2.688.758,2.37,2.37,0,0,1,1.016,1.992H82.828q0-1.016-1.07-1.016a1.061,1.061,0,0,0-.7.23.714.714,0,0,0-.281.574.655.655,0,0,0,.344.57,3.248,3.248,0,0,0,1.1.359,9.486,9.486,0,0,1,1.324.336,2.406,2.406,0,0,1,1.906,2.352,2.214,2.214,0,0,1-1.027,1.883,4.505,4.505,0,0,1-2.66.727,4.6,4.6,0,0,1-1.937-.391A3.24,3.24,0,0,1,78.5,15.7a2.406,2.406,0,0,1-.477-1.414h2.461a1.017,1.017,0,0,0,.391.855,1.607,1.607,0,0,0,.961.27,1.264,1.264,0,0,0,.809-.219A.7.7,0,0,0,82.914,14.625Zm6.836-8.18v2.1h1.391v1.828H89.75v3.867a.987.987,0,0,0,.172.664.922.922,0,0,0,.68.188,3.862,3.862,0,0,0,.656-.047V16.93a4.859,4.859,0,0,1-1.484.227,2.758,2.758,0,0,1-2.008-.641,2.626,2.626,0,0,1-.648-1.945v-4.2H86.039V8.547h1.078v-2.1ZM96.938,17a2.973,2.973,0,0,1-.25-.758,2.448,2.448,0,0,1-2.031.914,3,3,0,0,1-2.031-.723,2.3,2.3,0,0,1-.836-1.816A2.364,2.364,0,0,1,92.8,12.539a5.174,5.174,0,0,1,2.953-.7h.813v-.448q0-1.17-1.008-1.17a.824.824,0,0,0-.937.926H91.992a2.36,2.36,0,0,1,1.043-1.99,4.383,4.383,0,0,1,2.66-.765,3.843,3.843,0,0,1,2.555.789,2.743,2.743,0,0,1,.961,2.164v3.742a3.832,3.832,0,0,0,.359,1.781V17Zm-1.648-1.719a1.469,1.469,0,0,0,.816-.211,1.322,1.322,0,0,0,.465-.477V13.242H95.8q-1.375,0-1.375,1.234a.754.754,0,0,0,.242.582A.876.876,0,0,0,95.289,15.281Zm9.8-.656a.608.608,0,0,0-.352-.539,5.348,5.348,0,0,0-1.336-.422,6.092,6.092,0,0,1-1.625-.574,2.722,2.722,0,0,1-.977-.863,2.061,2.061,0,0,1-.336-1.164,2.336,2.336,0,0,1,.961-1.918,3.958,3.958,0,0,1,2.516-.754,4.386,4.386,0,0,1,2.688.758,2.37,2.37,0,0,1,1.016,1.992h-2.641q0-1.016-1.07-1.016a1.061,1.061,0,0,0-.7.23.714.714,0,0,0-.281.574.655.655,0,0,0,.344.57,3.248,3.248,0,0,0,1.1.359,9.486,9.486,0,0,1,1.324.336,2.406,2.406,0,0,1,1.906,2.352,2.214,2.214,0,0,1-1.027,1.883,4.505,4.505,0,0,1-2.66.727,4.6,4.6,0,0,1-1.937-.391A3.24,3.24,0,0,1,100.68,15.7a2.406,2.406,0,0,1-.477-1.414h2.461a1.017,1.017,0,0,0,.391.855,1.607,1.607,0,0,0,.961.27,1.264,1.264,0,0,0,.809-.219A.7.7,0,0,0,105.094,14.625Z" transform="translate(851 1802)" fill="#fff"/>
    <g id="filled_outline" data-name="filled outline" transform="translate(828 1664)">
      <path id="Trazado_193389" data-name="Trazado 193389" d="M152,136h5.556v8.333H152Z" transform="translate(-86.074 -95)" fill="#70400e"/>
      <path id="Trazado_193390" data-name="Trazado 193390" d="M336,136h5.556v8.333H336Z" transform="translate(-227.481 -95)" fill="#70400e"/>
      <path id="Trazado_193391" data-name="Trazado 193391" d="M153.259,178h-3.7a5.028,5.028,0,1,1,0-10h3.7Z" transform="translate(-79.926 -120.333)" fill="#bd9070"/>
      <path id="Trazado_193392" data-name="Trazado 193392" d="M328,178h3.7a5.028,5.028,0,1,0,0-10H328Z" transform="translate(-221.333 -120.333)" fill="#bd9070"/>
      <path id="Trazado_193393" data-name="Trazado 193393" d="M169.926,24c14.318,0,25.926,10.447,25.926,23.333H144C144,34.447,155.607,24,169.926,24Z" transform="translate(-79.926 -6.333)" fill="#f3af3e"/>
      <path id="Trazado_193394" data-name="Trazado 193394" d="M199.8,70.667H151.36A22.892,22.892,0,0,1,155.723,64h39.718a22.892,22.892,0,0,1,4.363,6.667Z" transform="translate(-85.582 -38)" fill="#6836bf"/>
      <path id="Trazado_193395" data-name="Trazado 193395" d="M216,24h18.519V39H216Z" transform="translate(-135.259 -6.333)" fill="#cdcdcd"/>
      <ellipse id="Elipse_5398" data-name="Elipse 5398" cx="3.704" cy="3.333" rx="3.704" ry="3.333" transform="translate(86.296 21)" fill="#fbb540"/>
      <path id="Trazado_193396" data-name="Trazado 193396" d="M142.3,275.333,133.037,272l-9.259,3.333L99.7,282,96,283.667V317h74.074V283.667L166.37,282Z" transform="translate(-43.037 -202.667)" fill="#e08122"/>
      <path id="Trazado_193397" data-name="Trazado 193397" d="M248,376h3.7v23.333H248Z" transform="translate(-159.852 -285)" fill="#c5711e"/>
      <path id="Trazado_193398" data-name="Trazado 193398" d="M139.185,387.333H105.852a1.676,1.676,0,1,1,0-3.333h33.333a1.676,1.676,0,1,1,0,3.333Z" transform="translate(-49.185 -291.333)" fill="#cdcdcd"/>
      <path id="Trazado_193399" data-name="Trazado 193399" d="M283.185,387.333H249.852a1.676,1.676,0,1,1,0-3.333h33.333a1.676,1.676,0,1,1,0,3.333Z" transform="translate(-159.852 -291.333)" fill="#cdcdcd"/>
      <path id="Trazado_193400" data-name="Trazado 193400" d="M233.12,284.265,225.259,297,217.4,284.265a9.23,9.23,0,0,1-1.4-4.856V272h18.519v7.409a9.23,9.23,0,0,1-1.4,4.856Z" transform="translate(-135.259 -202.667)" fill="#bd9070"/>
      <path id="Trazado_193401" data-name="Trazado 193401" d="M265.259,251.333,272.667,248l5.189,9.34a5.077,5.077,0,0,1-1.713,6.716L256,278l7.861-12.735a9.23,9.23,0,0,0,1.4-4.856Z" transform="translate(-166 -183.667)" fill="#fd9226"/>
      <path id="Trazado_193402" data-name="Trazado 193402" d="M172.069,251.333,164.661,248l-5.189,9.34a5.077,5.077,0,0,0,1.713,6.716L181.328,278l-7.861-12.735a9.23,9.23,0,0,1-1.4-4.856Z" transform="translate(-91.328 -183.667)" fill="#fd9226"/>
      <path id="Trazado_193403" data-name="Trazado 193403" d="M176,136h37.037v16.667c0,9.2-8.291,16.667-18.519,16.667S176,161.871,176,152.667Z" transform="translate(-104.519 -95)" fill="#cd9c7a"/>
      <path id="Trazado_193404" data-name="Trazado 193404" d="M239.407,194h-5.556A1.767,1.767,0,0,1,232,192.333v-6.667a1.862,1.862,0,0,1,3.7,0v5h3.7a1.676,1.676,0,1,1,0,3.333Z" transform="translate(-147.556 -133)" fill="#70400e"/>
      <path id="Trazado_193405" data-name="Trazado 193405" d="M236.963,243.333H225.852a1.676,1.676,0,1,1,0-3.333h11.111a1.676,1.676,0,1,1,0,3.333Z" transform="translate(-141.407 -177.333)" fill="#70400e"/>
      <path id="Trazado_193406" data-name="Trazado 193406" d="M176,136v4.378l7.558,5.949a6.421,6.421,0,0,0,3.962,1.339h14a6.421,6.421,0,0,0,3.962-1.339l7.558-5.949V136Z" transform="translate(-104.519 -95)" fill="#f3af3e"/>
      <path id="Trazado_193407" data-name="Trazado 193407" d="M62.815,320C54.351,320.952,48,327.428,48,335.1V355H62.815Z" transform="translate(-6.148 -240.667)" fill="#fd9226"/>
      <path id="Trazado_193408" data-name="Trazado 193408" d="M400,320c8.464.952,14.815,7.428,14.815,15.1V355H400Z" transform="translate(-276.667 -240.667)" fill="#fd9226"/>
      <path id="Trazado_193409" data-name="Trazado 193409" d="M204.111,109.333h-10.55a2.872,2.872,0,0,1-2.311-1.113l-1.724-2.327a1.478,1.478,0,0,0-2.311,0l-1.724,2.327a2.872,2.872,0,0,1-2.311,1.113H172.63a4.416,4.416,0,0,1-4.63-4.167v-5A4.416,4.416,0,0,1,172.63,96h31.481a4.416,4.416,0,0,1,4.63,4.167v5A4.416,4.416,0,0,1,204.111,109.333Z" transform="translate(-98.37 -63.333)" fill="#cdcdcd"/>
      <path id="Trazado_193410" data-name="Trazado 193410" d="M197.963,104.667h-10.55a4.776,4.776,0,0,1-3.852-1.855L182.222,101l-1.338,1.807a4.776,4.776,0,0,1-3.852,1.855h-10.55c-3.578,0-6.477-2.613-6.481-5.833v-5c0-3.22,2.9-5.83,6.481-5.833h31.481c3.578,0,6.477,2.613,6.481,5.833v5C204.44,102.053,201.541,104.663,197.963,104.667Zm-15.741-7.33a3.342,3.342,0,0,1,2.7,1.3l1.724,2.327a.955.955,0,0,0,.77.371h10.55a2.653,2.653,0,0,0,2.778-2.5v-5a2.653,2.653,0,0,0-2.778-2.5H166.481a2.653,2.653,0,0,0-2.778,2.5v5a2.653,2.653,0,0,0,2.778,2.5h10.55a.955.955,0,0,0,.77-.371l1.724-2.327A3.342,3.342,0,0,1,182.222,97.337Z" transform="translate(-92.222 -57)" fill="#3775a4"/>
      <path id="Trazado_193411" data-name="Trazado 193411" d="M400,400h14.815v10H400Z" transform="translate(-276.667 -304)" fill="#cdcdcd"/>
      <path id="Trazado_193412" data-name="Trazado 193412" d="M144,424h18.519v6.667H144Z" transform="translate(-79.926 -323)" fill="#fd9226"/>
      <path id="Trazado_193413" data-name="Trazado 193413" d="M288,456h18.518v6.667H288Z" transform="translate(-190.593 -348.333)" fill="#c5711e"/>
      <path id="Trazado_193414" data-name="Trazado 193414" d="M288,424h18.518v6.667H288Z" transform="translate(-190.593 -323)" fill="#fd9226"/>
      <path id="Trazado_193415" data-name="Trazado 193415" d="M48,400H62.815v10H48Z" transform="translate(-6.148 -304)" fill="#cdcdcd"/>
      <path id="Trazado_193416" data-name="Trazado 193416" d="M144,456h18.519v6.667H144Z" transform="translate(-79.926 -348.333)" fill="#c5711e"/>
      <path id="Trazado_193417" data-name="Trazado 193417" d="M208,64h1.852v5H208Z" transform="translate(-129.111 -38)" fill="#a83b32"/>
      <path id="Trazado_193418" data-name="Trazado 193418" d="M296,64h1.852v5H296Z" transform="translate(-196.741 -38)" fill="#a83b32"/>
      <path id="Trazado_193419" data-name="Trazado 193419" d="M225.852,243.333h11.111a1.676,1.676,0,1,0,0-3.333H225.852a1.676,1.676,0,1,0,0,3.333Z" transform="translate(-141.407 -177.333)"/>
      <path id="Trazado_193420" data-name="Trazado 193420" d="M123.747,77.7l-9.487-2.627a6.605,6.605,0,0,0-.748-2.15l-4.642-8.352a16.589,16.589,0,0,0,1.416-5.242h.084a7.486,7.486,0,0,0,6.751-3.919,6.149,6.149,0,0,0-1.2-7.15v-5.6A1.767,1.767,0,0,0,117.778,41a23.559,23.559,0,0,0-6.494-16.064c-.517-.557-1.068-1.1-1.641-1.614a27.9,27.9,0,0,0-8.532-5.238v-.417A1.767,1.767,0,0,0,99.259,16H80.741a1.767,1.767,0,0,0-1.852,1.667v.417a27.9,27.9,0,0,0-8.532,5.239c-.573.516-1.124,1.058-1.634,1.606A23.567,23.567,0,0,0,62.222,41a1.767,1.767,0,0,0,1.852,1.667v5.6a6.149,6.149,0,0,0-1.2,7.15,7.486,7.486,0,0,0,6.751,3.919h.084a16.592,16.592,0,0,0,1.416,5.242L66.486,72.93a6.606,6.606,0,0,0-.747,2.149L56.253,77.7C46.952,78.846,40.014,85.989,40,94.438v19.9A1.767,1.767,0,0,0,41.852,116h96.3A1.767,1.767,0,0,0,140,114.333v-19.9c-.014-8.448-6.952-15.592-16.253-16.733ZM54.815,112.667H43.7v-5H54.815Zm0-8.333H43.7V97.667H54.815Zm0-10H43.706c.061-6.075,4.6-11.374,11.109-12.977ZM110.2,74.417a3.521,3.521,0,0,1-1.187,4.652L95.966,88.1l3.514-5.693a10.8,10.8,0,0,0,1.631-5.665V73.03a19.477,19.477,0,0,0,5.6-4.882ZM77.82,52.581A8.389,8.389,0,0,0,83,54.333h1.442v5A1.767,1.767,0,0,0,86.3,61h5.556a1.676,1.676,0,1,0,0-3.333h-3.7V54.333H97a8.39,8.39,0,0,0,5.182-1.751l4.487-3.531v8.616a14.788,14.788,0,0,1-8.335,12.993,18.314,18.314,0,0,1-13.391,1.3,16.222,16.222,0,0,1-10.088-8.031,13.6,13.6,0,0,1-1.519-6.262V49.05ZM77.2,47.667H84.81a4.776,4.776,0,0,0,3.852-1.855L90,44l1.338,1.807a4.776,4.776,0,0,0,3.852,1.855H102.8l-3.058,2.407A4.442,4.442,0,0,1,97,51H83a4.442,4.442,0,0,1-2.744-.927ZM110.37,56V49.333a3.352,3.352,0,1,1,0,6.667Zm0-10v-.09a5.621,5.621,0,0,0,1.785-3.244h.067v3.544A8.172,8.172,0,0,0,110.37,46ZM112.9,34.333a19.792,19.792,0,0,1,1.1,5h-1.78v-2.5a5.322,5.322,0,0,0-.627-2.5Zm-11.793-12.56a24.178,24.178,0,0,1,4.274,2.56h-4.274Zm0,5.893h7.863A21.449,21.449,0,0,1,111.352,31H101.111ZM82.593,19.333H97.407V31H82.593Zm23.148,15a2.653,2.653,0,0,1,2.778,2.5v5a2.653,2.653,0,0,1-2.778,2.5H95.19a.955.955,0,0,1-.77-.371L92.7,41.636a3.448,3.448,0,0,0-5.394,0l-1.724,2.327a.955.955,0,0,1-.769.371H74.259a2.653,2.653,0,0,1-2.778-2.5v-5a2.653,2.653,0,0,1,2.778-2.5ZM78.889,21.774v2.56H74.615A24.178,24.178,0,0,1,78.889,21.774ZM67.1,34.333H68.4a5.322,5.322,0,0,0-.627,2.5v2.5H66a19.787,19.787,0,0,1,1.1-5ZM69.63,56a3.352,3.352,0,1,1,0-6.667Zm0-10a8.172,8.172,0,0,0-1.852.211V42.667h.067A5.621,5.621,0,0,0,69.63,45.91Zm-.981-15a21.446,21.446,0,0,1,2.377-3.333h7.863V31ZM69.8,74.419l3.485-6.271a19.478,19.478,0,0,0,5.6,4.883v3.711a10.8,10.8,0,0,0,1.631,5.666L84.034,88.1,70.989,79.069a3.522,3.522,0,0,1-1.189-4.65ZM58.519,80.564l7.593-2.1a7.161,7.161,0,0,0,2.618,3.25L84.555,92.667H58.519Zm22.222,32.1H65.926v-3.333H80.741Zm0-6.667H65.926v-3.333H80.741Zm7.407,6.667h-3.7V101a1.767,1.767,0,0,0-1.852-1.667H64.074A1.767,1.767,0,0,0,62.222,101v11.667h-3.7V96h29.63Zm-4.39-31.878a7.708,7.708,0,0,1-1.165-4.047v-2a22.481,22.481,0,0,0,14.815,0v2a7.71,7.71,0,0,1-1.165,4.047L90,90.9Zm30.316,31.878H99.259v-3.333h14.815Zm0-6.667H99.259v-3.333h14.815Zm7.407,6.667h-3.7V101a1.767,1.767,0,0,0-1.852-1.667H97.407A1.767,1.767,0,0,0,95.556,101v11.667h-3.7V96h29.63Zm0-20H95.445L111.271,81.71a7.162,7.162,0,0,0,2.618-3.248l7.593,2.1Zm14.815,20H125.185v-5H136.3Zm0-8.333H125.185V97.667H136.3Zm-11.111-10V81.356c6.511,1.6,11.047,6.9,11.109,12.977Z"/>
      <path id="Trazado_193421" data-name="Trazado 193421" d="M232,37a5.586,5.586,0,0,0,11.111,0A5.586,5.586,0,0,0,232,37Zm5.556-1.667A1.676,1.676,0,1,1,235.7,37,1.767,1.767,0,0,1,237.556,35.333Z" transform="translate(-147.556 -12.667)"/>
    </g>
  </g>
</svg>
