<svg xmlns="http://www.w3.org/2000/svg" xmlns:xlink="http://www.w3.org/1999/xlink" width="190" height="112" viewBox="0 0 190 112">
  <defs>
    <linearGradient id="linear-gradient" x1="0.5" x2="0.5" y2="1" gradientUnits="objectBoundingBox">
      <stop offset="0" stop-color="#f7ca2e" stop-opacity="0"/>
      <stop offset="0.091" stop-color="#f7ca2e" stop-opacity="0.129"/>
      <stop offset="0.283" stop-color="#f7ca2e" stop-opacity="0.388"/>
      <stop offset="0.465" stop-color="#f7ca2e" stop-opacity="0.612"/>
      <stop offset="0.633" stop-color="#f7ca2e" stop-opacity="0.78"/>
      <stop offset="0.784" stop-color="#f7ca2e" stop-opacity="0.902"/>
      <stop offset="0.911" stop-color="#f7ca2e" stop-opacity="0.969"/>
      <stop offset="1" stop-color="#f7ca2e"/>
    </linearGradient>
    <linearGradient id="linear-gradient-2" x1="0.5" x2="0.5" y2="1" gradientUnits="objectBoundingBox">
      <stop offset="0" stop-color="#b13e8d" stop-opacity="0"/>
      <stop offset="0.091" stop-color="#b13e8d" stop-opacity="0.129"/>
      <stop offset="0.283" stop-color="#b13e8d" stop-opacity="0.388"/>
      <stop offset="0.465" stop-color="#b13e8d" stop-opacity="0.612"/>
      <stop offset="0.633" stop-color="#b13e8d" stop-opacity="0.78"/>
      <stop offset="0.784" stop-color="#b13e8d"/>
      <stop offset="0.911" stop-color="#b13e8d" stop-opacity="0.969"/>
      <stop offset="1" stop-color="#b13e8d"/>
    </linearGradient>
    <filter id="Rectángulo_40720" x="41" y="4" width="108" height="108" filterUnits="userSpaceOnUse">
      <feOffset dy="3" input="SourceAlpha"/>
      <feGaussianBlur stdDeviation="3" result="blur"/>
      <feFlood flood-opacity="0.161"/>
      <feComposite operator="in" in2="blur"/>
      <feComposite in="SourceGraphic"/>
    </filter>
  </defs>
  <g id="Grupo_136156" data-name="Grupo 136156" transform="translate(-148.5 -3528.153)">
    <g id="Grupo_136154" data-name="Grupo 136154" transform="translate(-31.5 3129.153)">
      <rect id="Rectángulo_40586" data-name="Rectángulo 40586" width="190" height="20" transform="translate(180 444)" fill="none"/>
      <g id="Grupo_108405" data-name="Grupo 108405" transform="translate(209.5 463)">
        <path id="Rectángulo_5242" data-name="Rectángulo 5242" d="M0,0H12a0,0,0,0,1,0,0V43.333a3,3,0,0,1-3,3H3a3,3,0,0,1-3-3V0A0,0,0,0,1,0,0Z" transform="translate(0 0)" fill="url(#linear-gradient)"/>
      </g>
      <g id="Grupo_108406" data-name="Grupo 108406" transform="translate(340 451) rotate(180)">
        <path id="Rectángulo_5242-2" data-name="Rectángulo 5242" d="M0,0H12a0,0,0,0,1,0,0V49a3,3,0,0,1-3,3H3a3,3,0,0,1-3-3V0A0,0,0,0,1,0,0Z" transform="translate(0 0)" fill="url(#linear-gradient-2)"/>
      </g>
      <g transform="matrix(1, 0, 0, 1, 180, 399)" filter="url(#Rectángulo_40720)">
        <path id="Rectángulo_40720-2" data-name="Rectángulo 40720" d="M10,0H80A10,10,0,0,1,90,10V90a0,0,0,0,1,0,0H10A10,10,0,0,1,0,80V10A10,10,0,0,1,10,0Z" transform="translate(50 10)" fill="#f6f6f6"/>
      </g>
    </g>
    <g id="Grupo_136155" data-name="Grupo 136155" transform="translate(-162.307 1515.294)">
      <path id="Trazado_190657" data-name="Trazado 190657" d="M491.861,2217.705" transform="translate(-96.506 -153.216)" fill="#f1aa4b"/>
      <path id="Trazado_190658" data-name="Trazado 190658" d="M429.6,2034.525h-1.713a3.555,3.555,0,0,0-3.551,3.551v.117l-11.916,4.507a.981.981,0,1,0,.695,1.836l11.221-4.244v39.122l-24.759-9.364a1.052,1.052,0,0,0-.164-.05l-.017,0-.011,0h-.005a.991.991,0,0,0-.189-.015,2.876,2.876,0,0,1-2.721-2.011l-.011-.039a2.886,2.886,0,0,1-.121-.765v-14.618a2.882,2.882,0,0,1,.121-.766l.011-.04a2.877,2.877,0,0,1,2.724-2.011h.017a1,1,0,0,0,.365-.071l9.255-3.5a.981.981,0,1,0-.694-1.836l-9.116,3.447a4.843,4.843,0,0,0-4.174,2.749h-7.375v-2.929a.981.981,0,1,0-1.963,0v2.929h-3.176a5.858,5.858,0,0,0-5.851,5.851v6.971a5.858,5.858,0,0,0,5.851,5.851h.034l5.665,28.875a4.283,4.283,0,0,0,5.033,3.381l2.162-.425a4.292,4.292,0,0,0,3.382-5.033l-2.112-10.763a.982.982,0,0,0-1.926.378l2.112,10.763a2.327,2.327,0,0,1-1.833,2.729l-2.163.424a2.327,2.327,0,0,1-2.728-1.833l-5.591-28.5h6.983l2.322,11.834a.982.982,0,1,0,1.926-.378l-2.248-11.456h1.5a4.843,4.843,0,0,0,4.174,2.748l25.316,9.574v.118a3.554,3.554,0,0,0,3.551,3.55H429.6a3.554,3.554,0,0,0,3.551-3.55v-43.554a3.555,3.555,0,0,0-3.551-3.551Zm-47.267,32.7a3.893,3.893,0,0,1-3.888-3.888v-6.971a3.893,3.893,0,0,1,3.888-3.888h12.043c0,.02,0,.04,0,.06s0,.04,0,.06v14.507c0,.02,0,.04,0,.06s0,.04,0,.06Zm48.855,14.4a1.589,1.589,0,0,1-1.588,1.587h-1.713a1.589,1.589,0,0,1-1.588-1.587v-43.554a1.59,1.59,0,0,1,1.588-1.588H429.6a1.59,1.59,0,0,1,1.588,1.588Zm0,0" transform="translate(0 0)" fill="#603eb7"/>
    </g>
  </g>
</svg>
