<svg xmlns="http://www.w3.org/2000/svg" xmlns:xlink="http://www.w3.org/1999/xlink" width="108" height="108" viewBox="0 0 108 108">
  <defs>
    <filter id="Rect치ngulo_43490" x="0" y="0" width="108" height="108" filterUnits="userSpaceOnUse">
      <feOffset dy="3" input="SourceAlpha"/>
      <feGaussianBlur stdDeviation="3" result="blur"/>
      <feFlood flood-opacity="0.161"/>
      <feComposite operator="in" in2="blur"/>
      <feComposite in="SourceGraphic"/>
    </filter>
  </defs>
  <g id="Grupo_136144" data-name="Grupo 136144" transform="translate(-957 -4340)">
    <g transform="matrix(1, 0, 0, 1, 957, 4340)" filter="url(#Rect치ngulo_43490)">
      <path id="Rect치ngulo_43490-2" data-name="Rect치ngulo 43490" d="M10,0H80A10,10,0,0,1,90,10V90a0,0,0,0,1,0,0H10A10,10,0,0,1,0,80V10A10,10,0,0,1,10,0Z" transform="translate(9 6)" fill="#f6f6f6"/>
    </g>
    <g id="plan" transform="translate(974.933 4309.295)">
      <path id="Trazado_193441" data-name="Trazado 193441" d="M64.383,61.428V57.522a1.718,1.718,0,0,0-1.705-1.705H59.171a1.711,1.711,0,0,0-1.705,1.705v3.906h6.917Zm-44.17,18.99a1.056,1.056,0,0,1,1.494-1.494l.963.963,2.672-2.676a1.058,1.058,0,0,1,1.494,1.5l-3.418,3.419a1.058,1.058,0,0,1-1.494,0ZM59.866,68.225a1.056,1.056,0,1,1,2.113,0V90.4a1.056,1.056,0,1,1-2.113,0ZM43.208,103.976h6.5V99.444h-6.5Zm7.556,2.113H16.3a1.06,1.06,0,0,1-1.058-1.058V98.385A1.057,1.057,0,0,1,16.3,97.331h7.56V91.308a1.053,1.053,0,0,1,1.054-1.054h8.618a1.053,1.053,0,0,1,1.054,1.054v1.877h7.56a1.06,1.06,0,0,1,1.058,1.058v3.087h7.556a1.057,1.057,0,0,1,1.058,1.054v6.645a1.06,1.06,0,0,1-1.058,1.058ZM34.59,103.976h6.5V95.3h-6.5Zm-8.614,0h6.5V92.367h-6.5Zm-8.619,0h6.506V99.444H17.357ZM12.9,67.167H55.349V57.522A3.832,3.832,0,0,1,59.171,53.7h3.506A3.832,3.832,0,0,1,66.5,57.522v9.645H71.08a1.057,1.057,0,0,1,1.054,1.058v41.426a1.053,1.053,0,0,1-1.054,1.054H41.826a1.056,1.056,0,0,1,0-2.113h28.2V69.28H66.5v7.64a1.056,1.056,0,1,1-2.113,0V63.541H57.465V95.087h6.917V81.708a1.056,1.056,0,1,1,2.113,0V96.141a1.121,1.121,0,0,1-.18.6L61.866,105.5a1.074,1.074,0,0,1-.471.471,1.052,1.052,0,0,1-1.414-.467L55.517,96.72a1.124,1.124,0,0,1-.168-.579V69.28H12.9v8a1.056,1.056,0,1,1-2.113,0v-20.6a5.6,5.6,0,0,0-3-.854,5.672,5.672,0,0,0-5.675,5.675V97.587c.056-.06.112-.12.168-.176a7.766,7.766,0,0,1,5.507-2.28,7.886,7.886,0,0,1,2.476.4c.176.06.352.128.523.2V82.063a1.056,1.056,0,1,1,2.113,0V97.547a1.057,1.057,0,0,1-1.693.839,5.533,5.533,0,0,0-1.613-.851,5.677,5.677,0,1,0-1.805,11.058H37.042a1.056,1.056,0,0,1,0,2.113H7.788A7.786,7.786,0,0,1,0,102.918V61.492a7.788,7.788,0,0,1,12.428-6.254,1.064,1.064,0,0,1,.471.883V67.167ZM63.72,97.2h-5.6l2.8,5.507ZM49.6,73.569a1.056,1.056,0,0,1,0,2.113H35.3a1.056,1.056,0,0,1,0-2.113ZM43.651,83.657a1.056,1.056,0,1,1,0,2.113H35.3a1.056,1.056,0,0,1,0-2.113ZM49.6,78.613a1.056,1.056,0,0,1,0,2.113H35.3a1.056,1.056,0,0,1,0-2.113ZM17.472,72.558h12.1a1.057,1.057,0,0,1,1.054,1.058v12.1a1.057,1.057,0,0,1-1.054,1.058h-12.1a1.058,1.058,0,0,1-1.058-1.058v-12.1a1.058,1.058,0,0,1,1.058-1.058Zm11.047,2.117H18.527v9.992h9.992Z" fill="#6836bf"/>
    </g>
  </g>
</svg>
