<svg xmlns="http://www.w3.org/2000/svg" xmlns:xlink="http://www.w3.org/1999/xlink" width="108" height="108" viewBox="0 0 108 108">
  <defs>
    <filter id="Rect치ngulo_43491" x="0" y="0" width="108" height="108" filterUnits="userSpaceOnUse">
      <feOffset dy="3" input="SourceAlpha"/>
      <feGaussianBlur stdDeviation="3" result="blur"/>
      <feFlood flood-opacity="0.161"/>
      <feComposite operator="in" in2="blur"/>
      <feComposite in="SourceGraphic"/>
    </filter>
  </defs>
  <g id="Grupo_136145" data-name="Grupo 136145" transform="translate(-536 -4567)">
    <g transform="matrix(1, 0, 0, 1, 536, 4567)" filter="url(#Rect치ngulo_43491)">
      <path id="Rect치ngulo_43491-2" data-name="Rect치ngulo 43491" d="M10,0H80A10,10,0,0,1,90,10V90a0,0,0,0,1,0,0H10A10,10,0,0,1,0,80V10A10,10,0,0,1,10,0Z" transform="translate(9 6)" fill="#f6f6f6"/>
    </g>
    <g id="problema" transform="translate(560.385 4588.385)">
      <g id="Grupo_135346" data-name="Grupo 135346" transform="translate(1 1)">
        <path id="Trazado_193451" data-name="Trazado 193451" d="M29.461,17.461H26.916l1.8-1.8L24.8,11.746l-1.8,1.8V11H17.461v2.546l-1.8-1.8-3.917,3.916,1.8,1.8H11V23h2.545l-1.8,1.8,3.917,3.917,1.8-1.8v2.546H23V26.915l1.8,1.8L28.716,24.8l-1.8-1.8h2.545Zm-1.846,3.692h-.7A1.846,1.846,0,0,0,25.611,24.3l.495.494L24.8,26.1,24.3,25.61a1.846,1.846,0,0,0-3.151,1.305v.7H19.308v-.7a1.846,1.846,0,0,0-3.151-1.305l-.495.495L14.355,24.8l.495-.494a1.846,1.846,0,0,0-1.305-3.151h-.7V19.308h.7a1.846,1.846,0,0,0,1.305-3.151l-.495-.495,1.306-1.305.495.495a1.846,1.846,0,0,0,3.151-1.305v-.7h1.846v.7A1.846,1.846,0,0,0,24.3,14.851l.495-.495,1.306,1.305-.495.495a1.846,1.846,0,0,0,1.305,3.151h.7Z" transform="translate(-1.769 -1.769)" fill="#6836bf"/>
        <path id="Trazado_193452" data-name="Trazado 193452" d="M20.692,17a3.692,3.692,0,1,0,3.692,3.692A3.7,3.7,0,0,0,20.692,17Zm0,5.538a1.846,1.846,0,1,1,1.846-1.846A1.848,1.848,0,0,1,20.692,22.538Z" transform="translate(-2.231 -2.231)" fill="#6836bf"/>
        <path id="Trazado_193453" data-name="Trazado 193453" d="M56.383,1H47.153a1.848,1.848,0,0,0-1.846,1.846V4.692H39.768v9.231H37.06A18.456,18.456,0,1,0,13.923,37.071V55.46a2.773,2.773,0,0,0,2.769,2.769H22.23A2.773,2.773,0,0,0,25,55.46V50.845H39.768v3.692h5.538v1.846a1.848,1.848,0,0,0,1.846,1.846h9.231a1.848,1.848,0,0,0,1.846-1.846V50.845A1.848,1.848,0,0,0,56.383,49H47.153a1.848,1.848,0,0,0-1.846,1.846v1.846H41.614V49H25V45.307h7.384V41.614H34.23v3.692a1.848,1.848,0,0,0,1.846,1.846h9.231a1.848,1.848,0,0,0,1.846-1.846V39.768a1.848,1.848,0,0,0-1.846-1.846H36.076a1.848,1.848,0,0,0-1.846,1.846H30.538v3.692H25V37.07A18.314,18.314,0,0,0,37.535,23.153h2.234v9.231h5.538V34.23a1.848,1.848,0,0,0,1.846,1.846h9.231a1.848,1.848,0,0,0,1.846-1.846V28.692a1.848,1.848,0,0,0-1.846-1.846H47.153a1.848,1.848,0,0,0-1.846,1.846v1.846H41.614V21.307H30.538v1.846h1.311a12.935,12.935,0,1,1-.717-9.231h-.594v1.846H41.614V6.538h3.692V8.384a1.848,1.848,0,0,0,1.846,1.846h9.231a1.848,1.848,0,0,0,1.846-1.846V2.846A1.848,1.848,0,0,0,56.383,1ZM47.153,50.845h9.231v5.538H47.153ZM36.076,39.768h9.231v5.538H36.076ZM47.153,28.692h9.231V34.23H47.153ZM22.23,56.383H16.692a.924.924,0,0,1-.923-.923v-12h7.384v12A.924.924,0,0,1,22.23,56.383Zm.923-14.769H15.769V37.55a18.5,18.5,0,0,0,3.692.372,18.725,18.725,0,0,0,3.692-.377ZM19.461,4.692A14.769,14.769,0,1,0,33.75,23.153h1.9a16.6,16.6,0,1,1-.527-9.231H33.144A14.788,14.788,0,0,0,19.461,4.692ZM47.153,8.384V2.846h9.231V8.384Z" transform="translate(-1 -1)" fill="#6836bf"/>
        <path id="Trazado_193454" data-name="Trazado 193454" d="M53,5h1.846V6.846H53Z" transform="translate(-5.001 -1.308)" fill="#6836bf"/>
        <path id="Trazado_193455" data-name="Trazado 193455" d="M57,5h1.846V6.846H57Z" transform="translate(-5.309 -1.308)" fill="#6836bf"/>
        <path id="Trazado_193456" data-name="Trazado 193456" d="M58.846,15H49.615a1.848,1.848,0,0,0-1.846,1.846v1.846H33v1.846H47.769v1.846a1.848,1.848,0,0,0,1.846,1.846h9.231a1.848,1.848,0,0,0,1.846-1.846V16.846A1.848,1.848,0,0,0,58.846,15Zm-9.231,7.384V16.846h9.231v5.538Z" transform="translate(-3.462 -2.077)" fill="#6836bf"/>
        <path id="Trazado_193457" data-name="Trazado 193457" d="M53,19h1.846v1.846H53Z" transform="translate(-5.001 -2.385)" fill="#6836bf"/>
        <path id="Trazado_193458" data-name="Trazado 193458" d="M57,19h1.846v1.846H57Z" transform="translate(-5.309 -2.385)" fill="#6836bf"/>
        <path id="Trazado_193459" data-name="Trazado 193459" d="M53,33h1.846v1.846H53Z" transform="translate(-5.001 -3.462)" fill="#6836bf"/>
        <path id="Trazado_193460" data-name="Trazado 193460" d="M57,33h1.846v1.846H57Z" transform="translate(-5.309 -3.462)" fill="#6836bf"/>
        <path id="Trazado_193461" data-name="Trazado 193461" d="M41,45h1.846v1.846H41Z" transform="translate(-4.078 -4.386)" fill="#6836bf"/>
        <path id="Trazado_193462" data-name="Trazado 193462" d="M45,45h1.846v1.846H45Z" transform="translate(-4.386 -4.386)" fill="#6836bf"/>
        <path id="Trazado_193463" data-name="Trazado 193463" d="M53,57h1.846v1.846H53Z" transform="translate(-5.001 -5.309)" fill="#6836bf"/>
        <path id="Trazado_193464" data-name="Trazado 193464" d="M57,57h1.846v1.846H57Z" transform="translate(-5.309 -5.309)" fill="#6836bf"/>
      </g>
    </g>
  </g>
</svg>
