<svg xmlns="http://www.w3.org/2000/svg" xmlns:xlink="http://www.w3.org/1999/xlink" width="190" height="112" viewBox="0 0 190 112">
  <defs>
    <linearGradient id="linear-gradient" x1="0.5" x2="0.5" y2="1" gradientUnits="objectBoundingBox">
      <stop offset="0" stop-color="#f7ca2e" stop-opacity="0"/>
      <stop offset="0.091" stop-color="#f7ca2e" stop-opacity="0.129"/>
      <stop offset="0.283" stop-color="#f7ca2e" stop-opacity="0.388"/>
      <stop offset="0.465" stop-color="#f7ca2e" stop-opacity="0.612"/>
      <stop offset="0.633" stop-color="#f7ca2e" stop-opacity="0.78"/>
      <stop offset="0.784" stop-color="#f7ca2e" stop-opacity="0.902"/>
      <stop offset="0.911" stop-color="#f7ca2e" stop-opacity="0.969"/>
      <stop offset="1" stop-color="#f7ca2e"/>
    </linearGradient>
    <linearGradient id="linear-gradient-2" x1="0.5" x2="0.5" y2="1" gradientUnits="objectBoundingBox">
      <stop offset="0" stop-color="#b13e8d" stop-opacity="0"/>
      <stop offset="0.091" stop-color="#b13e8d" stop-opacity="0.129"/>
      <stop offset="0.283" stop-color="#b13e8d" stop-opacity="0.388"/>
      <stop offset="0.465" stop-color="#b13e8d" stop-opacity="0.612"/>
      <stop offset="0.633" stop-color="#b13e8d" stop-opacity="0.78"/>
      <stop offset="0.784" stop-color="#b13e8d"/>
      <stop offset="0.911" stop-color="#b13e8d" stop-opacity="0.969"/>
      <stop offset="1" stop-color="#b13e8d"/>
    </linearGradient>
    <filter id="Rectángulo_40720" x="41" y="4" width="108" height="108" filterUnits="userSpaceOnUse">
      <feOffset dy="3" input="SourceAlpha"/>
      <feGaussianBlur stdDeviation="3" result="blur"/>
      <feFlood flood-opacity="0.161"/>
      <feComposite operator="in" in2="blur"/>
      <feComposite in="SourceGraphic"/>
    </filter>
  </defs>
  <g id="Grupo_136142" data-name="Grupo 136142" transform="translate(-180 -6875)">
    <g id="Grupo_135040" data-name="Grupo 135040" transform="translate(0 6476)">
      <rect id="Rectángulo_40586" data-name="Rectángulo 40586" width="190" height="20" transform="translate(180 444)" fill="none"/>
      <g id="Grupo_108405" data-name="Grupo 108405" transform="translate(209.5 463)">
        <path id="Rectángulo_5242" data-name="Rectángulo 5242" d="M0,0H12a0,0,0,0,1,0,0V43.333a3,3,0,0,1-3,3H3a3,3,0,0,1-3-3V0A0,0,0,0,1,0,0Z" transform="translate(0 0)" fill="url(#linear-gradient)"/>
      </g>
      <g id="Grupo_108406" data-name="Grupo 108406" transform="translate(340 451) rotate(180)">
        <path id="Rectángulo_5242-2" data-name="Rectángulo 5242" d="M0,0H12a0,0,0,0,1,0,0V49a3,3,0,0,1-3,3H3a3,3,0,0,1-3-3V0A0,0,0,0,1,0,0Z" transform="translate(0 0)" fill="url(#linear-gradient-2)"/>
      </g>
      <g transform="matrix(1, 0, 0, 1, 180, 399)" filter="url(#Rectángulo_40720)">
        <path id="Rectángulo_40720-2" data-name="Rectángulo 40720" d="M10,0H80A10,10,0,0,1,90,10V90a0,0,0,0,1,0,0H10A10,10,0,0,1,0,80V10A10,10,0,0,1,10,0Z" transform="translate(50 10)" fill="#f6f6f6"/>
      </g>
    </g>
    <g id="escudo-seguro" transform="translate(207.471 6895.167)">
      <g id="Grupo_135352" data-name="Grupo 135352" transform="translate(37.681 0)">
        <path id="Trazado_193494" data-name="Trazado 193494" d="M96.294,12.087A116.441,116.441,0,0,1,68.278.2a1.472,1.472,0,0,0-1.5,0A113.252,113.252,0,0,1,38.764,12.087a1.472,1.472,0,0,0-1.083,1.42V28.553A43.283,43.283,0,0,0,50.825,60.177C57.28,66.5,64.8,70,67.53,70s10.249-3.5,16.7-9.823A43.283,43.283,0,0,0,97.377,28.553V13.507A1.472,1.472,0,0,0,96.294,12.087ZM94.433,28.553a40.4,40.4,0,0,1-12.259,29.52c-6.348,6.22-13.135,8.982-14.644,8.982s-8.3-2.762-14.644-8.982a40.4,40.4,0,0,1-12.26-29.52V14.625A115.966,115.966,0,0,0,67.53,3.178a119.636,119.636,0,0,0,26.9,11.446Z" transform="translate(-37.681 0)" fill="#6836bf"/>
        <path id="Trazado_193495" data-name="Trazado 193495" d="M91.293,99.876a1.472,1.472,0,0,0-1.91-.83c-2.63,1.036-5.33,1.99-8.025,2.836a1.473,1.473,0,0,0-1.032,1.4v5.686a1.472,1.472,0,0,0,2.945,0v-4.61c2.417-.782,4.831-1.647,7.191-2.577A1.472,1.472,0,0,0,91.293,99.876Z" transform="translate(-74.497 -85.416)" fill="#6836bf"/>
        <path id="Trazado_193496" data-name="Trazado 193496" d="M171.678,89.159a1.473,1.473,0,0,0,.59-.124l.027-.012a1.472,1.472,0,1,0-1.189-2.694l-.024.01a1.472,1.472,0,0,0,.6,2.819Z" transform="translate(-152.084 -74.419)" fill="#6836bf"/>
        <path id="Trazado_193497" data-name="Trazado 193497" d="M314.4,345.768a1.473,1.473,0,0,0-2.038.427,35.839,35.839,0,0,1-4.232,5.285,37.612,37.612,0,0,1-4.224,3.758,1.472,1.472,0,1,0,1.786,2.342,40.581,40.581,0,0,0,4.555-4.053,38.748,38.748,0,0,0,4.58-5.721A1.472,1.472,0,0,0,314.4,345.768Z" transform="translate(-267.012 -298.288)" fill="#6836bf"/>
        <path id="Trazado_193498" data-name="Trazado 193498" d="M277.383,432.168l-.085.05a1.472,1.472,0,1,0,1.475,2.548l.1-.057a1.472,1.472,0,1,0-1.488-2.541Z" transform="translate(-243.904 -372.908)" fill="#6836bf"/>
        <path id="Trazado_193499" data-name="Trazado 193499" d="M130.993,165.457a4.788,4.788,0,1,0-6.771,6.772l8.695,8.694a4.789,4.789,0,0,0,6.772,0l18.151-18.151A4.788,4.788,0,0,0,151.066,156L136.3,170.766Zm22.156-7.374a1.843,1.843,0,1,1,2.607,2.607l-18.151,18.151a1.845,1.845,0,0,1-2.607,0l-8.694-8.694a1.843,1.843,0,0,1,2.607-2.607l6.35,6.35a1.473,1.473,0,0,0,2.082,0Z" transform="translate(-111.181 -133.462)" fill="#6836bf"/>
      </g>
    </g>
  </g>
</svg>
