<svg xmlns="http://www.w3.org/2000/svg" width="101" height="101" viewBox="0 0 101 101">
  <g id="Grupo_136143" data-name="Grupo 136143" transform="translate(-750 -9026)">
    <circle id="Elipse_1142" data-name="Elipse 1142" cx="50.5" cy="50.5" r="50.5" transform="translate(750 9026)" fill="#6836bf"/>
    <g id="_010---Fire-Extinguisher" data-name="010---Fire-Extinguisher" transform="translate(775 9042.503)">
      <g id="Layer_2" transform="translate(0 -1)">
        <path id="Shape" d="M37.06,25.34c-3.26,2.78-3.75,6.58-1.46,11.3,1.17,2.41,1.58,4.74,1,5.68-.09.14-.37.58-1.46.58-1.54,0-2.53-.91-2.94-2.71a1.5,1.5,0,0,0-2.84-.25C28.74,41.41,28,44.13,28,48.8,28,57.23,36,61,44,61s16-3.77,16-12.2c0-4.67-.74-7.39-1.36-8.86a1.5,1.5,0,0,0-2.84.25c-.41,1.8-1.4,2.71-2.94,2.71-1.09,0-1.37-.44-1.46-.58-.58-.94-.17-3.27,1-5.68,2.29-4.72,1.8-8.52-1.46-11.3-1.87-1.59-4.43-3.51-5.65-5.6a1.49,1.49,0,0,0-2.58,0C41.48,21.84,38.92,23.75,37.06,25.34Zm2.25,25.15c3.16,1.45,6.49-1.56,5.55-4.49,6.85,2.44,4.25,13-.86,13C40.3,59,38.13,53.47,39.31,50.49Zm4.69-29a32.48,32.48,0,0,0,5.64,5.43c3.35,2.85,2.15,6.44,1,8.9C50,37,48.24,41,49.71,43.38a3.42,3.42,0,0,0,3.15,1.52,4.64,4.64,0,0,0,4.4-2.82A25.41,25.41,0,0,1,58,48.8c0,5.37-4.09,8.48-9.12,9.65A10.27,10.27,0,0,0,51,52a8.12,8.12,0,0,0-5.47-7.92,2,2,0,0,0-2.59,2.39,2,2,0,0,1-2.8,2.18,2,2,0,0,0-2.73,1.13c-1,2.74-.07,6.41,1.71,8.64-5-1.17-9.12-4.28-9.12-9.65a25.41,25.41,0,0,1,.74-6.72,4.64,4.64,0,0,0,4.4,2.82,3.42,3.42,0,0,0,3.15-1.52C39.76,41,38,37,37.4,35.77c-1.19-2.46-2.39-6.05,1-8.9,1.78-1.56,4.12-3.32,5.6-5.43Z" fill="#fff"/>
        <path id="Shape-2" data-name="Shape" d="M1,7H5.15L2.38,9.22A1,1,0,0,0,3,11c.5,0,.37,0,4.35-3.2A5.22,5.22,0,0,0,8,9v3.81A11,11,0,0,0,1,23V58a3,3,0,0,0,3,3H20a3,3,0,0,0,3-3V23a11.045,11.045,0,0,0-7-10.24V9a5.13,5.13,0,0,0,.89-2h3.18A2.93,2.93,0,0,1,23,9.93a4.92,4.92,0,0,0,3.74,4.78l1.47.37a2,2,0,0,0,1.31,2.33l6.64,2.26a2,2,0,0,0,2.6-1.47l.81-3.67a2,2,0,0,0-1.74-2.42l-7-.74a2,2,0,0,0-2.17,1.56v.2l-1.42-.36A2.92,2.92,0,0,1,25,9.93,4.93,4.93,0,0,0,20.07,5H16.9A5,5,0,0,0,7.1,5H1A1,1,0,0,0,1,7Zm29.64,6.36,7,.74-.81,3.67c-.1,0,.79.27-6.65-2.25ZM4.51,18h15A8.9,8.9,0,0,1,21,23V53H3V23a9,9,0,0,1,1.51-5ZM20,59H4a1,1,0,0,1-1-1V55H21v3A1,1,0,0,1,20,59ZM17.65,16H6.34a9,9,0,0,1,2.37-1.37A2,2,0,0,0,10,12.76V10.58a5,5,0,0,0,4,0v2.18a2,2,0,0,0,1.3,1.87A8.66,8.66,0,0,1,17.65,16ZM12,3A3,3,0,1,1,9.25,4.769,3,3,0,0,1,12,3Z" fill="#fff"/>
        <path id="Shape-3" data-name="Shape" d="M7,43H17a2,2,0,0,0,2-2V24a2,2,0,0,0-2-2H7a2,2,0,0,0-2,2V41A2,2,0,0,0,7,43ZM7,24H17V41H7Z" fill="#fff"/>
        <path id="Shape-4" data-name="Shape" d="M6,47H18a1,1,0,0,0,0-2H6a1,1,0,0,0,0,2Z" fill="#fff"/>
      </g>
    </g>
  </g>
</svg>
