<svg xmlns="http://www.w3.org/2000/svg" width="101" height="101" viewBox="0 0 101 101">
  <g id="Grupo_136145" data-name="Grupo 136145" transform="translate(-750 -9348)">
    <circle id="Elipse_1147" data-name="Elipse 1147" cx="50.5" cy="50.5" r="50.5" transform="translate(750 9348)" fill="#6836bf"/>
    <g id="chaleco" transform="translate(738.343 9365.5)">
      <path id="Trazado_193500" data-name="Trazado 193500" d="M92.629,165.076h-.971V164.1a2.079,2.079,0,0,0-2.079-2.075h-1.7A2.079,2.079,0,0,0,85.8,164.1v.971h-.971a2.081,2.081,0,0,0-2.079,2.079v1.7a2.081,2.081,0,0,0,2.079,2.079H85.8v.971a2.081,2.081,0,0,0,2.079,2.079h1.7a2.081,2.081,0,0,0,2.079-2.079v-.971h.971a2.079,2.079,0,0,0,2.075-2.079v-1.7A2.079,2.079,0,0,0,92.629,165.076Zm.256,3.781a.261.261,0,0,1-.256.259H90.748a.91.91,0,0,0-.91.91v1.881a.263.263,0,0,1-.259.259h-1.7a.263.263,0,0,1-.259-.259v-1.881a.91.91,0,0,0-.91-.91H84.827a.263.263,0,0,1-.259-.259v-1.7a.263.263,0,0,1,.259-.259h1.881a.91.91,0,0,0,.91-.91V164.1a.261.261,0,0,1,.259-.256h1.7a.261.261,0,0,1,.259.256v1.881a.91.91,0,0,0,.91.91h1.881a.261.261,0,0,1,.256.259v1.7Z" transform="translate(-42.107 -142.374)" fill="#fff"/>
      <path id="Trazado_193501" data-name="Trazado 193501" d="M87.047,19.239c-2.8-2.909-2.854-3.252-2.854-18.329a.91.91,0,0,0-.91-.91h-10a.921.921,0,0,0-.206.024,51.4,51.4,0,0,1-22.859,0,.913.913,0,0,0-.2-.021H40.035a.91.91,0,0,0-.91.91c0,15.077-.053,15.42-2.854,18.329-1.463,1.52-1.453,2.869-1.44,4.578,0,.173,0,36.776,0,36.776a1.518,1.518,0,0,0,1.518,1.515h20.7a1.517,1.517,0,0,0,1.515-1.515V57.706h6.189v2.886a1.517,1.517,0,0,0,1.515,1.515h20.7a1.517,1.517,0,0,0,1.515-1.515V54.8a.91.91,0,1,0-1.82,0v5.493H66.571V43.622h20.09v6.971a.91.91,0,0,0,1.82,0s0-26.61,0-26.786c.014-1.7.024-3.051-1.437-4.568ZM56.743,41.8H48.483a.91.91,0,1,0,0,1.82h8.261V60.288H36.653s0-8.1,0-16.666h7.629a.91.91,0,0,0,0-1.82H36.652c0-1.677,0-3.35,0-4.965H56.743Zm0-6.784H36.652c0-6.218,0-11.15,0-11.215-.012-1.59-.018-2.316.931-3.3,3.293-3.42,3.361-4.656,3.363-18.681H49.15a12.6,12.6,0,0,0,7.593,10.632Zm8.6-24.038a.91.91,0,0,0-.6.854V55.887H58.563V11.834a.91.91,0,0,0-.6-.854A10.77,10.77,0,0,1,51,2.042,55.307,55.307,0,0,0,61.815,3.129a51.524,51.524,0,0,0,10.5-1.075A10.767,10.767,0,0,1,65.348,10.98ZM86.661,41.8H66.571V36.838h20.09Zm0-18.01c0,.181,0,11.226,0,11.226H66.571V12.452A12.6,12.6,0,0,0,74.164,1.82h8.209c0,14.025.07,15.261,3.363,18.681.946.983.94,1.706.928,3.292Z" fill="#fff"/>
      <path id="Trazado_193502" data-name="Trazado 193502" d="M340.727,193.89h-7.6a.91.91,0,0,0,0,1.82h7.6a.91.91,0,0,0,0-1.82Z" transform="translate(-261.315 -170.37)" fill="#fff"/>
      <path id="Trazado_193503" data-name="Trazado 193503" d="M340.727,231.478h-7.6a.91.91,0,0,0,0,1.82h7.6a.91.91,0,0,0,0-1.82Z" transform="translate(-261.315 -203.399)" fill="#fff"/>
      <path id="Trazado_193504" data-name="Trazado 193504" d="M95.86,391.607H89.021a2.138,2.138,0,0,0-2.137,2.134v4.336a2.138,2.138,0,0,0,2.137,2.134H95.86a2.136,2.136,0,0,0,2.134-2.134v-4.336A2.136,2.136,0,0,0,95.86,391.607Zm.314,6.47a.319.319,0,0,1-.314.314H89.021a.32.32,0,0,1-.318-.314v-4.336a.32.32,0,0,1,.318-.314H95.86a.319.319,0,0,1,.314.314Z" transform="translate(-45.741 -344.104)" fill="#fff"/>
      <path id="Trazado_193505" data-name="Trazado 193505" d="M335.656,394.187a2.138,2.138,0,0,0-2.134,2.137v4.333a2.136,2.136,0,0,0,2.134,2.134H342.5a2.136,2.136,0,0,0,2.134-2.134v-4.333a2.138,2.138,0,0,0-2.134-2.137Zm7.157,2.137v4.333a.319.319,0,0,1-.314.314h-6.842a.319.319,0,0,1-.314-.314v-4.333a.32.32,0,0,1,.314-.318H342.5A.32.32,0,0,1,342.813,396.324Z" transform="translate(-262.461 -346.371)" fill="#fff"/>
      <path id="Trazado_193506" data-name="Trazado 193506" d="M119.907,419.585h-1.981a.91.91,0,1,0,0,1.82h1.981a.91.91,0,1,0,0-1.82Z" transform="translate(-72.219 -368.688)" fill="#fff"/>
      <path id="Trazado_193507" data-name="Trazado 193507" d="M366.544,422.165h-1.981a.91.91,0,1,0,0,1.82h1.981a.91.91,0,0,0,0-1.82Z" transform="translate(-288.938 -370.955)" fill="#fff"/>
    </g>
  </g>
</svg>
