<svg xmlns="http://www.w3.org/2000/svg" width="101" height="101" viewBox="0 0 101 101">
  <g id="Grupo_136146" data-name="Grupo 136146" transform="translate(-750 -9510)">
    <circle id="Elipse_1145" data-name="Elipse 1145" cx="50.5" cy="50.5" r="50.5" transform="translate(750 9510)" fill="#6836bf"/>
    <g id="rescatar" transform="translate(767.318 9523.751)">
      <g id="Grupo_135354" data-name="Grupo 135354" transform="translate(-0.765 4.52)">
        <path id="Trazado_193517" data-name="Trazado 193517" d="M68.515,51.737a3.369,3.369,0,0,0-2.811,1.5L64.42,55.167H53.8L45.919,52.3a28.308,28.308,0,0,0-9.7-1.708h-.228l8.462-7.616a3.431,3.431,0,0,0,1.137-2.55V29.984a5.682,5.682,0,0,0-4.074-5.476L34.159,22.3v-.293H47.4L50.891,15.9l1.6,6.386,2.218-.555L51.73,9.822l-5.657,9.9H34.685a6.825,6.825,0,0,0,1.761-4.574V12.861a6.861,6.861,0,0,0-13.721,0v2.287a6.841,6.841,0,0,0,2.287,5.1v1.761H11.728L8.072,29.319,6.4,24.295H1v2.287H4.749l2.9,8.7,5.492-10.984h5.224l-.712.214a5.681,5.681,0,0,0-4.075,5.476V40.427a3.43,3.43,0,0,0,1.135,2.549l9.409,8.468A28.22,28.22,0,0,0,16.947,54.3a6.866,6.866,0,0,0-6.8-6H7.861a6.861,6.861,0,1,0,0,13.721h2.287a6.84,6.84,0,0,0,2.3-.406,4,4,0,0,0,3.985,3.836H71.892V55.115A3.381,3.381,0,0,0,68.515,51.737ZM39.876,53.16v4.695a3.961,3.961,0,0,0-1.715-.4H16.608c.039-.109.079-.216.112-.328A26,26,0,0,1,30.97,52.88h5.252A25.964,25.964,0,0,1,39.876,53.16Zm3.052-11.882-9.986,8.986a1.341,1.341,0,0,1-.932.329,1.288,1.288,0,0,1-.967-2.131l8.833-7.637V36.872h3.43v3.555A1.148,1.148,0,0,1,42.928,41.278ZM25.012,12.861a4.574,4.574,0,0,1,9.147,0v2.287a4.574,4.574,0,0,1-9.147,0Zm4.574,9.147a6.833,6.833,0,0,0,2.287-.4v.932l-2.287,1.524L27.3,22.54v-.932A6.833,6.833,0,0,0,29.586,22.008ZM18.309,26.7l7.66-2.3,3.617,2.411L33.2,24.4l7.66,2.3a3.408,3.408,0,0,1,2.445,3.285v4.6h-3.43V30.012H37.59V39.78l-8,6.921L21.582,39.78V30.012H19.295v4.574h-3.43v-4.6A3.408,3.408,0,0,1,18.309,26.7ZM15.865,40.427V36.872h3.43v3.953l8.772,7.58a1.309,1.309,0,0,1-1.839,1.859l-9.986-8.986A1.148,1.148,0,0,1,15.865,40.427Zm-8,19.314a4.574,4.574,0,0,1,0-9.147h2.287a4.574,4.574,0,0,1,0,9.147Zm30.3,3.43H16.436a1.715,1.715,0,0,1,0-3.43H38.161a1.715,1.715,0,1,1,0,3.43Zm31.444,0H41.777a3.991,3.991,0,0,0,.386-1.715V53.588a26.338,26.338,0,0,1,2.975.862l8.258,3H65.643l1.963-2.944a1.091,1.091,0,0,1,2,.6Z" transform="translate(-1 -6)" fill="#fff"/>
        <path id="Trazado_193518" data-name="Trazado 193518" d="M54.3,21l-3.548,8.87-2-8-2.218.556,3.716,14.865,5.6-14h9.517V21Z" transform="translate(5.53 -3.849)" fill="#fff"/>
      </g>
    </g>
  </g>
</svg>
