<svg xmlns="http://www.w3.org/2000/svg" width="101" height="101" viewBox="0 0 101 101">
  <g id="Grupo_136147" data-name="Grupo 136147" transform="translate(-750 -9671)">
    <circle id="Elipse_1150" data-name="Elipse 1150" cx="50.5" cy="50.5" r="50.5" transform="translate(750 9671)" fill="#6836bf"/>
    <g id="escudo-seguro" transform="translate(732.471 9686.5)">
      <g id="Grupo_135352" data-name="Grupo 135352" transform="translate(37.681 0)">
        <path id="Trazado_193494" data-name="Trazado 193494" d="M96.294,12.087A116.441,116.441,0,0,1,68.278.2a1.472,1.472,0,0,0-1.5,0A113.252,113.252,0,0,1,38.764,12.087a1.472,1.472,0,0,0-1.083,1.42V28.553A43.283,43.283,0,0,0,50.825,60.177C57.28,66.5,64.8,70,67.53,70s10.249-3.5,16.7-9.823A43.283,43.283,0,0,0,97.377,28.553V13.507A1.472,1.472,0,0,0,96.294,12.087ZM94.433,28.553a40.4,40.4,0,0,1-12.259,29.52c-6.348,6.22-13.135,8.982-14.644,8.982s-8.3-2.762-14.644-8.982a40.4,40.4,0,0,1-12.26-29.52V14.625A115.966,115.966,0,0,0,67.53,3.178a119.636,119.636,0,0,0,26.9,11.446Z" transform="translate(-37.681 0)" fill="#fff"/>
        <path id="Trazado_193495" data-name="Trazado 193495" d="M91.293,99.876a1.472,1.472,0,0,0-1.91-.83c-2.63,1.036-5.33,1.99-8.025,2.836a1.473,1.473,0,0,0-1.032,1.4v5.686a1.472,1.472,0,0,0,2.945,0v-4.61c2.417-.782,4.831-1.647,7.191-2.577A1.472,1.472,0,0,0,91.293,99.876Z" transform="translate(-74.497 -85.416)" fill="#fff"/>
        <path id="Trazado_193496" data-name="Trazado 193496" d="M171.678,89.159a1.473,1.473,0,0,0,.59-.124l.027-.012a1.472,1.472,0,1,0-1.189-2.694l-.024.01a1.472,1.472,0,0,0,.6,2.819Z" transform="translate(-152.084 -74.419)" fill="#fff"/>
        <path id="Trazado_193497" data-name="Trazado 193497" d="M314.4,345.768a1.473,1.473,0,0,0-2.038.427,35.839,35.839,0,0,1-4.232,5.285,37.612,37.612,0,0,1-4.224,3.758,1.472,1.472,0,1,0,1.786,2.342,40.581,40.581,0,0,0,4.555-4.053,38.748,38.748,0,0,0,4.58-5.721A1.472,1.472,0,0,0,314.4,345.768Z" transform="translate(-267.012 -298.288)" fill="#fff"/>
        <path id="Trazado_193498" data-name="Trazado 193498" d="M277.383,432.168l-.085.05a1.472,1.472,0,1,0,1.475,2.548l.1-.057a1.472,1.472,0,1,0-1.488-2.541Z" transform="translate(-243.904 -372.908)" fill="#fff"/>
        <path id="Trazado_193499" data-name="Trazado 193499" d="M130.993,165.457a4.788,4.788,0,1,0-6.771,6.772l8.695,8.694a4.789,4.789,0,0,0,6.772,0l18.151-18.151A4.788,4.788,0,0,0,151.066,156L136.3,170.766Zm22.156-7.374a1.843,1.843,0,1,1,2.607,2.607l-18.151,18.151a1.845,1.845,0,0,1-2.607,0l-8.694-8.694a1.843,1.843,0,0,1,2.607-2.607l6.35,6.35a1.473,1.473,0,0,0,2.082,0Z" transform="translate(-111.181 -133.462)" fill="#fff"/>
      </g>
    </g>
  </g>
</svg>
