<svg xmlns="http://www.w3.org/2000/svg" xmlns:xlink="http://www.w3.org/1999/xlink" width="88" height="88" viewBox="0 0 88 88">
  <defs>
    <filter id="Trazado_188616" x="0" y="0" width="88" height="88" filterUnits="userSpaceOnUse">
      <feOffset dy="3" input="SourceAlpha"/>
      <feGaussianBlur stdDeviation="3" result="blur"/>
      <feFlood flood-opacity="0.161"/>
      <feComposite operator="in" in2="blur"/>
      <feComposite in="SourceGraphic"/>
    </filter>
  </defs>
  <g id="Grupo_128476" data-name="Grupo 128476" transform="translate(-1221.333 -118)">
    <g transform="matrix(1, 0, 0, 1, 1221.33, 118)" filter="url(#Trazado_188616)">
      <path id="Trazado_188616-2" data-name="Trazado 188616" d="M7.778,0H62.222A7.778,7.778,0,0,1,70,7.778V70H7.778A7.778,7.778,0,0,1,0,62.222V7.778A7.778,7.778,0,0,1,7.778,0Z" transform="translate(9 6)" fill="#f7ca18"/>
    </g>
    <g id="casco" transform="translate(1239.6 131.267)">
      <g id="Grupo_135333" data-name="Grupo 135333">
        <path id="Trazado_193371" data-name="Trazado 193371" d="M48.893,23.16h-.034A23.05,23.05,0,0,0,33.414,2.184,2.573,2.573,0,0,0,30.88,0H20.587a2.573,2.573,0,0,0-2.534,2.184A23.05,23.05,0,0,0,2.608,23.16H2.573A2.573,2.573,0,0,0,0,25.733v1.716a2.573,2.573,0,0,0,2.573,2.573h46.32a2.573,2.573,0,0,0,2.573-2.573V25.733A2.573,2.573,0,0,0,48.893,23.16ZM18.013,4.024V18.871a.858.858,0,1,0,1.716,0V2.573a.858.858,0,0,1,.858-.858h4.289V20.587a.858.858,0,1,0,1.716,0V1.716H30.88a.858.858,0,0,1,.858.858v16.3a.858.858,0,1,0,1.716,0V4.024A21.342,21.342,0,0,1,47.144,23.16H4.323A21.342,21.342,0,0,1,18.013,4.024ZM49.751,27.449a.858.858,0,0,1-.858.858H2.573a.858.858,0,0,1-.858-.858V25.733a.858.858,0,0,1,.858-.858h46.32a.858.858,0,0,1,.858.858Z" fill="#6836bf"/>
        <path id="Trazado_193372" data-name="Trazado 193372" d="M85.724,352H74.573A2.573,2.573,0,0,0,72,354.573V358a.858.858,0,1,0,1.716,0v-3.431a.858.858,0,0,1,.858-.858H85.724a.858.858,0,0,0,0-1.716Z" transform="translate(-64.28 -314.258)" fill="#6836bf"/>
        <path id="Trazado_193373" data-name="Trazado 193373" d="M50.609,323.431H47.092a4.3,4.3,0,0,0-4.2-3.431H8.578a4.294,4.294,0,0,0-4.289,4.289H.858a.858.858,0,0,0-.858.858v6.862a.858.858,0,0,0,.858.858H4.546a6.012,6.012,0,0,0,5.747,4.289H15.44a11.212,11.212,0,0,0,9.58-5.439.842.842,0,0,1,1.427,0,11.212,11.212,0,0,0,9.58,5.439h5.147a6,6,0,0,0,5.936-5.147h3.5a.858.858,0,0,0,.858-.858v-6.862A.858.858,0,0,0,50.609,323.431ZM49.751,326H47.178v-.858h2.573ZM4.289,326v.858H1.716V326Zm-2.573,5.147v-2.573H4.289v2.573Zm39.458,4.289H36.027a9.49,9.49,0,0,1-8.108-4.6,2.556,2.556,0,0,0-4.375,0,9.49,9.49,0,0,1-8.1,4.6H10.293A4.294,4.294,0,0,1,6,331.151v-6.862a2.573,2.573,0,0,1,2.573-2.573H42.889a2.573,2.573,0,0,1,2.573,2.573v6.862A4.294,4.294,0,0,1,41.173,335.44Zm6-5.147V327.72h2.573v2.573Z" transform="translate(0 -285.689)" fill="#6836bf"/>
        <path id="Trazado_193374" data-name="Trazado 193374" d="M226.573,352h-1.716a.858.858,0,0,0,0,1.716h1.716a.858.858,0,0,0,0-1.716Z" transform="translate(-199.982 -314.258)" fill="#6836bf"/>
      </g>
    </g>
  </g>
</svg>
