<svg xmlns="http://www.w3.org/2000/svg" xmlns:xlink="http://www.w3.org/1999/xlink" width="190" height="112" viewBox="0 0 190 112">
  <defs>
    <linearGradient id="linear-gradient" x1="0.5" x2="0.5" y2="1" gradientUnits="objectBoundingBox">
      <stop offset="0" stop-color="#f7ca2e" stop-opacity="0"/>
      <stop offset="0.091" stop-color="#f7ca2e" stop-opacity="0.129"/>
      <stop offset="0.283" stop-color="#f7ca2e" stop-opacity="0.388"/>
      <stop offset="0.465" stop-color="#f7ca2e" stop-opacity="0.612"/>
      <stop offset="0.633" stop-color="#f7ca2e" stop-opacity="0.78"/>
      <stop offset="0.784" stop-color="#f7ca2e" stop-opacity="0.902"/>
      <stop offset="0.911" stop-color="#f7ca2e" stop-opacity="0.969"/>
      <stop offset="1" stop-color="#f7ca2e"/>
    </linearGradient>
    <linearGradient id="linear-gradient-2" x1="0.5" x2="0.5" y2="1" gradientUnits="objectBoundingBox">
      <stop offset="0" stop-color="#b13e8d" stop-opacity="0"/>
      <stop offset="0.091" stop-color="#b13e8d" stop-opacity="0.129"/>
      <stop offset="0.283" stop-color="#b13e8d" stop-opacity="0.388"/>
      <stop offset="0.465" stop-color="#b13e8d" stop-opacity="0.612"/>
      <stop offset="0.633" stop-color="#b13e8d" stop-opacity="0.78"/>
      <stop offset="0.784" stop-color="#b13e8d"/>
      <stop offset="0.911" stop-color="#b13e8d" stop-opacity="0.969"/>
      <stop offset="1" stop-color="#b13e8d"/>
    </linearGradient>
    <filter id="Rectángulo_40720" x="41" y="4" width="108" height="108" filterUnits="userSpaceOnUse">
      <feOffset dy="3" input="SourceAlpha"/>
      <feGaussianBlur stdDeviation="3" result="blur"/>
      <feFlood flood-opacity="0.161"/>
      <feComposite operator="in" in2="blur"/>
      <feComposite in="SourceGraphic"/>
    </filter>
  </defs>
  <g id="Grupo_136142" data-name="Grupo 136142" transform="translate(-180 -1627)">
    <g id="Grupo_135109" data-name="Grupo 135109">
      <g id="Grupo_128321" data-name="Grupo 128321" transform="translate(0 1228)">
        <rect id="Rectángulo_40586" data-name="Rectángulo 40586" width="190" height="20" transform="translate(180 444)" fill="none"/>
        <g id="Grupo_108405" data-name="Grupo 108405" transform="translate(209.5 463)">
          <path id="Rectángulo_5242" data-name="Rectángulo 5242" d="M0,0H12a0,0,0,0,1,0,0V43.333a3,3,0,0,1-3,3H3a3,3,0,0,1-3-3V0A0,0,0,0,1,0,0Z" transform="translate(0 0)" fill="url(#linear-gradient)"/>
        </g>
        <g id="Grupo_108406" data-name="Grupo 108406" transform="translate(340 451) rotate(180)">
          <path id="Rectángulo_5242-2" data-name="Rectángulo 5242" d="M0,0H12a0,0,0,0,1,0,0V49a3,3,0,0,1-3,3H3a3,3,0,0,1-3-3V0A0,0,0,0,1,0,0Z" transform="translate(0 0)" fill="url(#linear-gradient-2)"/>
        </g>
        <g transform="matrix(1, 0, 0, 1, 180, 399)" filter="url(#Rectángulo_40720)">
          <path id="Rectángulo_40720-2" data-name="Rectángulo 40720" d="M10,0H80A10,10,0,0,1,90,10V90a0,0,0,0,1,0,0H10A10,10,0,0,1,0,80V10A10,10,0,0,1,10,0Z" transform="translate(50 10)" fill="#f6f6f6"/>
        </g>
      </g>
      <g id="salud" transform="translate(240.663 1650.963)">
        <path id="Trazado_192761" data-name="Trazado 192761" d="M50.316.5A18.086,18.086,0,0,0,38.067,5.3a.166.166,0,0,1-.227,0A18.085,18.085,0,0,0,25.592.5,18.6,18.6,0,0,0,7.233,19.3a17.4,17.4,0,0,0,2.425,8.066A12.064,12.064,0,0,0,.941,43.877L1.836,46a51.623,51.623,0,0,0,6.627,11.44q.257.334.52.665l.763.961a7.479,7.479,0,0,0,5.889,2.843,7.566,7.566,0,0,0,5.207-2.095,7.563,7.563,0,0,0,5.207,2.095,7.48,7.48,0,0,0,5.889-2.843L32.7,58.1q.262-.33.52-.665,1.286-1.669,2.437-3.467a5.243,5.243,0,0,0,5.51-.572A151.86,151.86,0,0,0,57.44,38.879C64.895,31.02,68.675,24.431,68.675,19.3A18.6,18.6,0,0,0,50.316.5ZM31.1,55.8q-.245.318-.5.633l-.763.961a4.811,4.811,0,0,1-3.788,1.829,4.863,4.863,0,0,1-3.461-1.458,2.421,2.421,0,0,0-1.746-.735h0a2.423,2.423,0,0,0-1.746.735,4.863,4.863,0,0,1-3.461,1.458A4.812,4.812,0,0,1,11.847,57.4l-.763-.961q-.25-.314-.495-.633A48.908,48.908,0,0,1,4.308,44.956l-.895-2.122A9.386,9.386,0,0,1,17.848,31.8L19.5,33.089v1.019a9.409,9.409,0,0,0,9.4,9.4h1.8a1.342,1.342,0,0,0,1.341-1.342v-1.8a9.413,9.413,0,0,0-7.344-9.17,9.327,9.327,0,0,1,11.36,1.151,9.425,9.425,0,0,1,2.217,10.485l-.895,2.122A48.95,48.95,0,0,1,31.1,55.8Zm-8.911-22.15h.455a6.723,6.723,0,0,1,6.716,6.715v.456H28.9a6.723,6.723,0,0,1-6.715-6.716Zm33.31,3.38A149.134,149.134,0,0,1,39.524,51.28a2.558,2.558,0,0,1-2.465.375A53.355,53.355,0,0,0,39.848,46l.895-2.122A12.069,12.069,0,0,0,22.182,29.683L22,29.826a8.986,8.986,0,0,0-2.467-4.574L18.1,23.822a1.342,1.342,0,0,0-1.9,1.9l1.429,1.429a6.361,6.361,0,0,1,1.442,2.217,12.08,12.08,0,0,0-6.469-2.236c-1.786-3.007-2.694-5.641-2.694-7.834A15.917,15.917,0,0,1,25.592,3.183,15.41,15.41,0,0,1,36.026,7.272a2.835,2.835,0,0,0,3.855,0A15.41,15.41,0,0,1,50.316,3.183,15.917,15.917,0,0,1,65.992,19.3C65.992,23.659,62.362,29.792,55.494,37.033Zm0,0" transform="translate(0)" fill="#6836bf"/>
        <path id="Trazado_192762" data-name="Trazado 192762" d="M233.2,88.579h-8.581a1.341,1.341,0,0,0-1.254.865l-3.039,7.988-4.942-16.018a1.342,1.342,0,0,0-2.5-.16l-3.338,7.326H201.3a1.342,1.342,0,0,0,0,2.683h9.1a1.342,1.342,0,0,0,1.221-.785l2.233-4.9,5.052,16.372a1.342,1.342,0,0,0,1.239.946h.043a1.342,1.342,0,0,0,1.254-.865l4.1-10.767H233.2a1.342,1.342,0,0,0,0-2.683Zm0,0" transform="translate(-173.14 -69.241)" fill="#6836bf"/>
        <path id="Trazado_192763" data-name="Trazado 192763" d="M154.967,140.945a1.342,1.342,0,1,0,.948.393A1.349,1.349,0,0,0,154.967,140.945Zm0,0" transform="translate(-133.019 -121.607)" fill="#6836bf"/>
      </g>
    </g>
  </g>
</svg>
