<svg xmlns="http://www.w3.org/2000/svg" width="120" height="120" viewBox="0 0 120 120">
  <g id="Grupo_136142" data-name="Grupo 136142" transform="translate(-316 -1421.06)">
    <circle id="Elipse_5389" data-name="Elipse 5389" cx="60" cy="60" r="60" transform="translate(316 1421.06)" fill="#b13e8d"/>
    <g id="expediente" transform="translate(128.186 1231.367)">
      <g id="Grupo_135382" data-name="Grupo 135382" transform="translate(217.352 212.729)">
        <g id="Grupo_135366" data-name="Grupo 135366" transform="translate(45.604 10.919)">
          <g id="Grupo_135365" data-name="Grupo 135365">
            <path id="Trazado_193524" data-name="Trazado 193524" d="M370.987,93.731a1.332,1.332,0,0,1-1.332-1.332v-9.11a1.332,1.332,0,0,1,2.665,0V92.4A1.332,1.332,0,0,1,370.987,93.731Z" transform="translate(-369.655 -81.956)" fill="#fff"/>
          </g>
        </g>
        <g id="Grupo_135368" data-name="Grupo 135368" transform="translate(45.599 6.632)">
          <g id="Grupo_135367" data-name="Grupo 135367">
            <circle id="Elipse_5401" data-name="Elipse 5401" cx="1.332" cy="1.332" r="1.332" fill="#fff"/>
          </g>
        </g>
        <g id="Grupo_135371" data-name="Grupo 135371" transform="translate(0)">
          <path id="Trazado_193525" data-name="Trazado 193525" d="M88.277,14A13.987,13.987,0,0,0,65.784,2.884H32.2a4.854,4.854,0,0,0-4.849,4.849V56.2A4.854,4.854,0,0,0,32.2,61.046h4.227v2.318a4.854,4.854,0,0,0,4.849,4.849H76.111a4.854,4.854,0,0,0,4.849-4.849V44.885a1.332,1.332,0,1,0-2.665,0V63.364a2.187,2.187,0,0,1-2.184,2.184H41.277a2.187,2.187,0,0,1-2.184-2.184V61.046H67.035A4.854,4.854,0,0,0,71.883,56.2V27.787a14.045,14.045,0,0,0,6.411-.38V32.84a1.332,1.332,0,0,0,2.665,0V26.3A14.009,14.009,0,0,0,88.277,14ZM69.219,56.2a2.187,2.187,0,0,1-2.184,2.184H32.2A2.187,2.187,0,0,1,30.017,56.2V7.732A2.187,2.187,0,0,1,32.2,5.548H63.132A13.923,13.923,0,0,0,60.3,13.405H37.614a1.332,1.332,0,0,0-1.332,1.332v5.627A1.332,1.332,0,0,0,37.614,21.7H61.621a1.327,1.327,0,0,0,.806-.271,14.076,14.076,0,0,0,6.792,5.619ZM60.289,16.07v2.962H38.946V16.07Zm13.994,9.258A11.332,11.332,0,1,1,85.612,14,11.343,11.343,0,0,1,74.283,25.328Z" transform="translate(-27.352)" fill="#fff"/>
          <g id="Grupo_135370" data-name="Grupo 135370" transform="translate(50.945 37.509)">
            <g id="Grupo_135369" data-name="Grupo 135369">
              <path id="Trazado_193526" data-name="Trazado 193526" d="M411.071,284.2a1.332,1.332,0,1,1,1.3-1.03A1.345,1.345,0,0,1,411.071,284.2Z" transform="translate(-409.742 -281.541)" fill="#fff"/>
            </g>
          </g>
        </g>
        <g id="Grupo_135381" data-name="Grupo 135381" transform="translate(8.93 26.33)">
          <g id="Grupo_135380" data-name="Grupo 135380" transform="translate(0)">
            <g id="Grupo_135373" data-name="Grupo 135373">
              <g id="Grupo_135372" data-name="Grupo 135372">
                <path id="Trazado_193527" data-name="Trazado 193527" d="M119.717,200.3H95.709a1.332,1.332,0,0,1,0-2.665h24.007a1.332,1.332,0,1,1,0,2.665Z" transform="translate(-94.377 -197.633)" fill="#fff"/>
              </g>
            </g>
            <g id="Grupo_135375" data-name="Grupo 135375" transform="translate(0 6.319)">
              <g id="Grupo_135374" data-name="Grupo 135374">
                <path id="Trazado_193528" data-name="Trazado 193528" d="M119.717,247.728H95.709a1.332,1.332,0,0,1,0-2.665h24.007a1.332,1.332,0,1,1,0,2.665Z" transform="translate(-94.377 -245.063)" fill="#fff"/>
              </g>
            </g>
            <g id="Grupo_135377" data-name="Grupo 135377" transform="translate(0 12.638)">
              <g id="Grupo_135376" data-name="Grupo 135376">
                <path id="Trazado_193529" data-name="Trazado 193529" d="M119.717,295.158H95.709a1.332,1.332,0,0,1,0-2.665h24.007a1.332,1.332,0,1,1,0,2.665Z" transform="translate(-94.377 -292.493)" fill="#fff"/>
              </g>
            </g>
            <g id="Grupo_135379" data-name="Grupo 135379" transform="translate(0 18.957)">
              <g id="Grupo_135378" data-name="Grupo 135378">
                <path id="Trazado_193530" data-name="Trazado 193530" d="M119.717,342.588H95.709a1.332,1.332,0,0,1,0-2.665h24.007a1.332,1.332,0,1,1,0,2.665Z" transform="translate(-94.377 -339.923)" fill="#fff"/>
              </g>
            </g>
          </g>
        </g>
      </g>
    </g>
  </g>
</svg>
