<svg xmlns="http://www.w3.org/2000/svg" width="120" height="120" viewBox="0 0 120 120">
  <g id="Grupo_136143" data-name="Grupo 136143" transform="translate(-735.153 -1421.06)">
    <circle id="Elipse_5390" data-name="Elipse 5390" cx="60" cy="60" r="60" transform="translate(735.153 1421.06)" fill="#b13e8d"/>
    <g id="administracion" transform="translate(757.487 1444.097)">
      <g id="Grupo_135357" data-name="Grupo 135357" transform="translate(0.009 -0.001)">
        <g id="Grupo_135356" data-name="Grupo 135356" transform="translate(0)">
          <path id="Trazado_193519" data-name="Trazado 193519" d="M65.4,25.078h0a5.915,5.915,0,0,0-5.281,3.291L45.125,23.015a9.607,9.607,0,0,0,.119-1.493,9.419,9.419,0,0,0-1.868-5.628l8.368-5.579a5.979,5.979,0,1,0-1.314-1.974l-8.715,5.809a9.43,9.43,0,0,0-11.666-.184l-3.62-4.523A6.019,6.019,0,1,0,24.713,11.1l3.628,4.534a9.44,9.44,0,0,0-1.985,4.708H11.929a5.928,5.928,0,1,0,0,2.371H26.351a9.385,9.385,0,0,0,.948,3.118L9.45,40.334A6.017,6.017,0,1,0,11.1,42.046l17.973-14.6a1.185,1.185,0,0,0,.845-1.857,7.113,7.113,0,1,1,11.678,0l1.944,1.355a9.363,9.363,0,0,0,.9-1.654L59.5,30.668c-.007.119-.034.222-.034.338A5.928,5.928,0,1,0,65.4,25.078ZM55.914,2.553A3.557,3.557,0,1,1,52.357,6.11,3.557,3.557,0,0,1,55.914,2.553ZM21.532,9.667A3.557,3.557,0,1,1,25.089,6.11,3.557,3.557,0,0,1,21.532,9.667ZM6.119,25.079a3.557,3.557,0,1,1,3.557-3.557A3.557,3.557,0,0,1,6.119,25.079Zm0,23.711a3.557,3.557,0,1,1,3.557-3.557A3.557,3.557,0,0,1,6.119,48.791ZM65.4,34.564a3.557,3.557,0,1,1,3.557-3.557A3.557,3.557,0,0,1,65.4,34.564Z" transform="translate(-0.009 0.001)" fill="#fff"/>
        </g>
      </g>
      <g id="Grupo_135359" data-name="Grupo 135359" transform="translate(23.903 19.151)">
        <g id="Grupo_135358" data-name="Grupo 135358">
          <path id="Trazado_193520" data-name="Trazado 193520" d="M194.437,148.2a4.73,4.73,0,0,0-3.557,1.609,4.737,4.737,0,0,0-7.113,0,4.735,4.735,0,0,0-5.928-.972V133.976a4.742,4.742,0,1,0-9.485,0v19.088a8.275,8.275,0,0,0-5.928-2.49,1.186,1.186,0,0,0-1.186,1.186V173.1a1.185,1.185,0,0,0,.347.838l7.461,7.461H172.4l-8.79-8.79V153.064a5.937,5.937,0,0,1,4.742,5.809v8.3a1.186,1.186,0,0,0,2.371,0v-33.2a2.371,2.371,0,0,1,4.742,0v21.34a1.186,1.186,0,1,0,2.371,0v-2.371a2.371,2.371,0,1,1,4.742,0v2.371a1.186,1.186,0,1,0,2.371,0v-2.371a2.371,2.371,0,1,1,4.742,0v2.371a1.186,1.186,0,1,0,2.371,0v-2.371a2.371,2.371,0,1,1,4.742,0V181.4h2.371V152.945A4.742,4.742,0,0,0,194.437,148.2Z" transform="translate(-161.241 -129.234)" fill="#fff"/>
        </g>
      </g>
    </g>
  </g>
</svg>
