<svg xmlns="http://www.w3.org/2000/svg" xmlns:xlink="http://www.w3.org/1999/xlink" width="108" height="108" viewBox="0 0 108 108">
  <defs>
    <filter id="Rect치ngulo_43494" x="0" y="0" width="108" height="108" filterUnits="userSpaceOnUse">
      <feOffset dy="3" input="SourceAlpha"/>
      <feGaussianBlur stdDeviation="3" result="blur"/>
      <feFlood flood-opacity="0.161"/>
      <feComposite operator="in" in2="blur"/>
      <feComposite in="SourceGraphic"/>
    </filter>
  </defs>
  <g id="Grupo_136144" data-name="Grupo 136144" transform="translate(-965 -3034)">
    <g transform="matrix(1, 0, 0, 1, 965, 3034)" filter="url(#Rect치ngulo_43494)">
      <path id="Rect치ngulo_43494-2" data-name="Rect치ngulo 43494" d="M10,0H80A10,10,0,0,1,90,10V90a0,0,0,0,1,0,0H10A10,10,0,0,1,0,80V10A10,10,0,0,1,10,0Z" transform="translate(9 6)" fill="#f6f6f6"/>
    </g>
    <g id="nina" transform="translate(988.272 3052.204)">
      <path id="Trazado_193567" data-name="Trazado 193567" d="M224.579,266.932a8.355,8.355,0,0,0,5.927-2.451,1.052,1.052,0,0,0-1.488-1.487,6.286,6.286,0,0,1-8.878,0,1.052,1.052,0,0,0-1.488,1.487A8.353,8.353,0,0,0,224.579,266.932Zm0,0" transform="translate(-187.744 -226.388)" fill="#6836bf"/>
      <path id="Trazado_193568" data-name="Trazado 193568" d="M197.544,197.736a1.052,1.052,0,0,0,1.052-1.052v-3.226a1.052,1.052,0,0,0-2.1,0v3.226A1.052,1.052,0,0,0,197.544,197.736Zm0,0" transform="translate(-168.911 -165.819)" fill="#6836bf"/>
      <path id="Trazado_193569" data-name="Trazado 193569" d="M316.263,197.736a1.052,1.052,0,0,0,1.052-1.052v-3.226a1.052,1.052,0,0,0-2.1,0v3.226A1.052,1.052,0,0,0,316.263,197.736Zm0,0" transform="translate(-271.225 -165.819)" fill="#6836bf"/>
      <path id="Trazado_193570" data-name="Trazado 193570" d="M171.158,12.467A19.662,19.662,0,0,0,165.5,5.2,26.112,26.112,0,0,0,149.192,0c-7.31,0-13.708,2.39-18.016,6.73a1.052,1.052,0,1,0,1.494,1.482C137.944,2.9,145.285,2.1,149.192,2.1c10.644,0,22.018,5.57,22.018,21.207V41.442a1.052,1.052,0,1,0,2.1,0V23.31A25.963,25.963,0,0,0,171.158,12.467Zm0,0" transform="translate(-112.356)" fill="#6836bf"/>
      <path id="Trazado_193571" data-name="Trazado 193571" d="M59.9,104.432a1.052,1.052,0,0,0-1.052,1.052V128.4H51.922V85.568a1.052,1.052,0,0,0-1.051-1.052,36.567,36.567,0,0,1-16.792-3.944,25.7,25.7,0,0,1-5.82-3.958,1.052,1.052,0,0,0-1.727.369A12.863,12.863,0,0,1,19.06,84.2v-1.7a1.052,1.052,0,0,0-.924-1.044c-.387-.048-1.51-.055-1.521-.055a7.263,7.263,0,0,0-1.757.216A21.585,21.585,0,0,1,17.933,71.04a1.052,1.052,0,1,0-1.78-1.121,24.146,24.146,0,0,0-3.43,12.615,7.207,7.207,0,0,0-1.732,1.559,2.762,2.762,0,0,0-1.216.2l-2.357.973A11.176,11.176,0,0,0,1.351,99.865l1.191,2.883a5.71,5.71,0,0,0-.433.778,5.567,5.567,0,0,0-.153,4.286l.592,1.589A5.58,5.58,0,0,0,4,111.567L6.188,126.31a5.036,5.036,0,0,0,4.952,4.271,4.973,4.973,0,0,0,3.54-1.466l2.276-2.276v2.613a1.052,1.052,0,0,0,1.052,1.052H59.9a1.052,1.052,0,0,0,1.052-1.051V105.484A1.052,1.052,0,0,0,59.9,104.432ZM27.89,79.082A31.081,31.081,0,0,0,33.027,82.4a38.49,38.49,0,0,0,16.792,4.21v18.064A17.772,17.772,0,0,1,19.06,92.536V86.357C21.8,85.768,25.8,83.089,27.89,79.082Zm16.269,31.934c-.834,1.9-3.849,3.357-7.323,3.357s-6.486-1.454-7.321-3.355a19.781,19.781,0,0,0,7.321,1.4,20.02,20.02,0,0,0,3.775-.358A19.64,19.64,0,0,0,44.158,111.016Zm-27.326,8.563a9.086,9.086,0,0,1-7.361-5.554l-.458-1.109a5.721,5.721,0,0,0,.742-.22l1.589-.593a5.579,5.579,0,0,0,1.78-1.073,4.182,4.182,0,0,0,4.159.9l3.039,7.363A9.049,9.049,0,0,1,16.832,119.579ZM10.39,99.892l-.139-.337a2.06,2.06,0,0,1,1.119-2.69l1.318-.544v4.909a5.62,5.62,0,0,0-1.564-1.063A5.7,5.7,0,0,0,10.39,99.892Zm6.6-6.173c-.125.009-.25.015-.377.015a5.171,5.171,0,0,1-.542-.029,2.752,2.752,0,0,0-.123-1.74l-.941-2.281a1.044,1.044,0,0,0,.394-.464,1.575,1.575,0,0,1,1.554-.9v4.22C16.956,92.933,16.969,93.327,16.992,93.718Zm5.3,24.829-3.059-7.411,1.386-.573a.679.679,0,0,1,.886.369l2.541,6.157a.678.678,0,0,1-.369.886Zm-.56-10a2.769,2.769,0,0,0-1.917.073l-3.07,1.267a2.064,2.064,0,0,1-2.337-.551c.025-.051.051-.1.075-.155a5.558,5.558,0,0,0,.307-3.809V95.6a7.211,7.211,0,0,0,1.824.234c.205,0,.409-.011.612-.028A19.862,19.862,0,0,0,23.21,107,19.838,19.838,0,0,0,21.731,108.547ZM16.956,83.5v2.714a3.793,3.793,0,0,0-2.882,1.2l-.666-1.613a2.778,2.778,0,0,0-.465-.755A5.1,5.1,0,0,1,16.615,83.5C16.705,83.5,16.825,83.5,16.956,83.5Zm-6.378,2.738a.679.679,0,0,1,.886.369L14,92.768a.677.677,0,0,1-.368.884l-1.386.573-3.059-7.41ZM3.3,92.119a9,9,0,0,1,3.967-4.445l3.039,7.363A4.162,4.162,0,0,0,8.1,99.7a5.66,5.66,0,0,0-1.26.31l-1.589.593a5.653,5.653,0,0,0-1.089.547L3.3,99.063A9.011,9.011,0,0,1,3.3,92.119Zm2.679,10.457,1.589-.593a3.5,3.5,0,0,1,4.5,2.057l.592,1.589a3.5,3.5,0,0,1-2.057,4.5l-1.589.593a3.5,3.5,0,0,1-4.5-2.057l-.592-1.589A3.5,3.5,0,0,1,5.983,102.577Zm7.21,25.051a2.883,2.883,0,0,1-2.053.85A2.92,2.92,0,0,1,8.269,126L6.318,112.851c.143.04.288.072.433.1l.775,1.877a11.19,11.19,0,0,0,9.065,6.841c.121.014.242.025.364.035v2.16Zm5.868-5.955a11.236,11.236,0,0,0,3.062-.779l2.357-.973a2.782,2.782,0,0,0,1.511-3.633l-2.541-6.157c-.032-.079-.069-.154-.108-.228a17.8,17.8,0,0,1,1.485-1.536,19.925,19.925,0,0,0,2.356,1.542c0,.018,0,.035,0,.053,0,3.654,4.241,6.516,9.655,6.516s9.656-2.862,9.656-6.516c0-.018,0-.036,0-.053a20.093,20.093,0,0,0,2.359-1.539c.189.173.375.351.556.533.141.141.279.284.413.429V128.4H19.06v-6.728Zm0,0" transform="translate(0 -59.834)" fill="#6836bf"/>
    </g>
  </g>
</svg>
