<svg xmlns="http://www.w3.org/2000/svg" xmlns:xlink="http://www.w3.org/1999/xlink" width="108" height="108" viewBox="0 0 108 108">
  <defs>
    <filter id="Rect치ngulo_43496" x="0" y="0" width="108" height="108" filterUnits="userSpaceOnUse">
      <feOffset dy="3" input="SourceAlpha"/>
      <feGaussianBlur stdDeviation="3" result="blur"/>
      <feFlood flood-opacity="0.161"/>
      <feComposite operator="in" in2="blur"/>
      <feComposite in="SourceGraphic"/>
    </filter>
  </defs>
  <g id="Grupo_136146" data-name="Grupo 136146" transform="translate(-965 -3325)">
    <g transform="matrix(1, 0, 0, 1, 965, 3325)" filter="url(#Rect치ngulo_43496)">
      <path id="Rect치ngulo_43496-2" data-name="Rect치ngulo 43496" d="M10,0H80A10,10,0,0,1,90,10V90a0,0,0,0,1,0,0H10A10,10,0,0,1,0,80V10A10,10,0,0,1,10,0Z" transform="translate(9 6)" fill="#f6f6f6"/>
    </g>
    <g id="_20-Receiver" data-name="20-Receiver" transform="translate(989 3345)">
      <path id="Trazado_193609" data-name="Trazado 193609" d="M5,6A1.959,1.959,0,0,1,7,4H3a1.937,1.937,0,0,0-1.36.54L5,7.371Z" fill="#6836bf"/>
      <path id="Trazado_193610" data-name="Trazado 193610" d="M54,39H43.358A4,4,0,0,0,39.5,36h-7a10.5,10.5,0,0,1-4.328-1.19A17.434,17.434,0,0,0,20.5,33c-6.1,0-8.455,6.964-8.894,8.48L9.5,43.586l-.293-.293a1,1,0,0,0-1.414,0l-4,4a1,1,0,0,0,0,1.414l.543.543L.293,53.293A1,1,0,0,0,0,54v6a1,1,0,0,0,1,1H13a1,1,0,0,0,.707-.293l1.043-1.043,1.043,1.043a1,1,0,0,0,1.414,0l4-4a1,1,0,0,0,0-1.414L19.914,54l2.972-2.972L37.434,52a1.055,1.055,0,0,0,.374-.047L54.616,46.5C56.246,46.094,58,44.824,58,43a3.641,3.641,0,0,0-4-4ZM12.586,59H2V54.414l3.75-3.75,7.586,7.586Zm3.914-.414L5.914,48,8.5,45.414,19.086,56ZM54.065,44.58l-16.69,5.409L22.566,49a1.013,1.013,0,0,0-.773.291L18.5,52.586,10.914,45l2.293-2.293a1.009,1.009,0,0,0,.263-.463C13.488,42.171,15.36,35,20.5,35a15.541,15.541,0,0,1,6.875,1.644A12.2,12.2,0,0,0,32.5,38h7a2,2,0,0,1,0,4H29v2H39.5a4,4,0,0,0,3.858-3H54c1.439,0,2,.561,2,2,0,.685-.951,1.331-1.935,1.58Z" fill="#6836bf"/>
      <path id="Trazado_193611" data-name="Trazado 193611" d="M63,11H57a1,1,0,0,0-1,1v1H53.315L43.573,6.181A1,1,0,0,0,43,6H40a3,3,0,0,0-3-3H3A3,3,0,0,0,0,6V28a3,3,0,0,0,3,3H37a3,3,0,0,0,3-3h1.126A3.788,3.788,0,0,0,45,31h5a3.916,3.916,0,0,0,3.9-3H56v2a1,1,0,0,0,1,1h6a1,1,0,0,0,1-1V12a1,1,0,0,0-1-1ZM20,18.692,3.739,5H36.261ZM2,27.586V6.15l11.637,9.8ZM37,29H3.414L15.172,17.242l4.184,3.523a1,1,0,0,0,1.288,0l4.184-3.523L30.291,22.7l1.414-1.414-5.342-5.342L38,6.15V20H36a4,4,0,0,0,0,8h2a1,1,0,0,1-1,1Zm16-3a1,1,0,0,0-1,1,1.884,1.884,0,0,1-2,2H45a1.882,1.882,0,0,1-2-2,1,1,0,0,0-1-1H36a2,2,0,0,1,0-4h6a1,1,0,0,0,.707-.293l4-4-1.414-1.414L41.586,20H40V8h2.685l9.742,6.819A1,1,0,0,0,53,15h3V26Zm9,3H58V13h4Z" fill="#6836bf"/>
    </g>
  </g>
</svg>
