<svg xmlns="http://www.w3.org/2000/svg" width="94" height="94" viewBox="0 0 94 94">
  <g id="c1" transform="translate(-281 -2543)">
    <circle id="Ellipse_5355" data-name="Ellipse 5355" cx="47" cy="47" r="47" transform="translate(281 2543)" fill="#b13e8d"/>
    <g id="dieta-equilibrada" transform="translate(294 2560)">
      <path id="Path_194088" data-name="Path 194088" d="M14.607,91.808c-5.156,0-10.312-1.293-13.793-3.88a2.008,2.008,0,0,1,1.2-3.619H7.155A12.8,12.8,0,0,1,3.783,76.12c0-4.627,2.984-7.859,7.257-7.859a13.558,13.558,0,0,1,2.323.281,6.958,6.958,0,0,1,3.025-6.137l-1.782-4.2-3.183,7.5a1,1,0,1,1-1.847-.784l3.539-8.337A19.99,19.99,0,0,1,4.805,54.1a3.011,3.011,0,1,1,3.011-5.214,1,1,0,0,1-1,1.738,1,1,0,0,0-1,1.738,18.093,18.093,0,0,0,8.8,2.275c6.48,0,10.546-2.1,14.73-5.534A11.391,11.391,0,0,1,28,47.742c-2.912,2.562-6.515,4.887-13.4,4.887a16.65,16.65,0,0,1-4.065-.525,1,1,0,1,1,.5-1.944,14.618,14.618,0,0,0,3.567.463c6.452,0,9.608-2.166,12.384-4.665a5.885,5.885,0,0,1-.307-1.944,4.6,4.6,0,0,1,6.569-4.153V32.812a1,1,0,1,1,2.007,0V39.86a4.6,4.6,0,0,1,6.569,4.153,5.888,5.888,0,0,1-.307,1.944c2.776,2.5,5.933,4.665,12.384,4.665A14.374,14.374,0,0,0,60.7,48.884,3.011,3.011,0,1,1,63.707,54.1,19.99,19.99,0,0,1,55.4,56.586l3.877,9.134a1,1,0,0,1-1.848.784l-3.521-8.3-3.521,8.3a1,1,0,0,1-1.848-.784l3.869-9.114c-6.341-.323-10.611-2.706-14.81-6.207q-.315.247-.648.505c-.513.4-1.082.841-1.687,1.327V70.476a1,1,0,1,1-2.007,0V52.231c-.605-.485-1.175-.928-1.687-1.326l-.648-.505c-4.2,3.5-8.452,5.885-14.81,6.207l2.09,4.923.094-.029a1,1,0,0,1,1.25.673A6.928,6.928,0,0,1,14.906,70.8a1,1,0,0,1-.563.011,17.911,17.911,0,0,0-3.3-.543c-3.627,0-5.25,2.939-5.25,5.851,0,3.5,2.747,8.189,5.557,8.189h6.519c2.81,0,5.557-4.689,5.557-8.189,0-2.66-1.215-4.716-3.251-5.5a1,1,0,1,1,.722-1.873c2.8,1.078,4.536,3.9,4.536,7.373a12.8,12.8,0,0,1-3.372,8.189H27.2a2.008,2.008,0,0,1,1.2,3.619c-3.48,2.587-8.636,3.88-13.792,3.88Zm-12.6-5.492c3,2.224,7.583,3.494,12.6,3.494s9.608-1.273,12.6-3.494H2.011Zm15.807-22.44a4.941,4.941,0,0,0-2.451,4.553A4.941,4.941,0,0,0,17.818,63.876ZM39.176,49.1c4.187,3.437,8.269,5.534,14.73,5.534a18.093,18.093,0,0,0,8.8-2.275,1,1,0,1,0-1-1.738,16.259,16.259,0,0,1-7.794,2.007c-6.883,0-10.486-2.325-13.4-4.887A11.4,11.4,0,0,1,39.176,49.1Zm-7.9-7.679a2.593,2.593,0,0,0-2.59,2.59c0,2.013,1.055,2.935,4.106,5.307.447.348.937.728,1.459,1.144.522-.415,1.012-.8,1.459-1.144,3.051-2.371,4.106-3.294,4.106-5.307a2.59,2.59,0,0,0-4.735-1.451,1,1,0,0,1-1.661,0A2.59,2.59,0,0,0,31.281,41.423ZM53.905,91.808c-5.156,0-10.312-1.293-13.793-3.88a2.008,2.008,0,0,1,1.2-3.619h1.916a3.546,3.546,0,0,1-.36-1.561,2.444,2.444,0,0,1,.62-1.629,3,3,0,0,1,.017-3.679,2.51,2.51,0,0,1-.637-1.674,6.611,6.611,0,0,1,2.75-5.19,13.555,13.555,0,0,1,8.289-2.316,13.555,13.555,0,0,1,8.289,2.316,6.611,6.611,0,0,1,2.75,5.19,2.511,2.511,0,0,1-.637,1.674,3,3,0,0,1,.018,3.678,2.442,2.442,0,0,1,.62,1.628,3.55,3.55,0,0,1-.36,1.562H66.5a2.008,2.008,0,0,1,1.2,3.619C64.218,90.515,59.062,91.808,53.905,91.808Zm-12.6-5.492c3,2.224,7.584,3.494,12.6,3.494s9.608-1.273,12.6-3.494H41.31Zm25.2,0h0ZM45.32,82.3a.447.447,0,0,0-.447.446,1.562,1.562,0,0,0,1.561,1.561H61.376a1.563,1.563,0,0,0,1.561-1.561.446.446,0,0,0-.445-.446Zm.557-2.007H61.934a1,1,0,1,0,0-2.007H57.92a1,1,0,1,1,0-2.007h4.5a.514.514,0,0,0,.514-.514,4.568,4.568,0,0,0-1.964-3.6,11.621,11.621,0,0,0-7.067-1.9,11.62,11.62,0,0,0-7.067,1.9,4.567,4.567,0,0,0-1.965,3.6.514.514,0,0,0,.514.514h8.518a1,1,0,1,1,0,2.007H45.877a1,1,0,0,0,0,2.007Z" transform="translate(0 -31.808)" fill="#fff"/>
    </g>
  </g>
</svg>
