<svg xmlns="http://www.w3.org/2000/svg" width="94" height="94" viewBox="0 0 94 94">
  <g id="c2" transform="translate(-596 -2543)">
    <circle id="Ellipse_5355" data-name="Ellipse 5355" cx="47" cy="47" r="47" transform="translate(596 2543)" fill="#b13e8d"/>
    <g id="Group_136192" data-name="Group 136192" transform="translate(109 47.482)">
      <g id="g1723" transform="translate(522.183 2516.518)">
        <path id="path1725" d="M-181.042-114.431a2.5,2.5,0,0,1-1.78-.737l-8.09-8.09a6.6,6.6,0,0,1-1.946-4.7,6.6,6.6,0,0,1,1.946-4.7,6.652,6.652,0,0,1,9.4,0l.474.474.474-.474a6.652,6.652,0,0,1,9.4,0,6.6,6.6,0,0,1,1.946,4.7,6.6,6.6,0,0,1-1.946,4.7l-2.358,2.358a.967.967,0,0,1-1.367,0,.967.967,0,0,1,0-1.367l2.358-2.358a4.68,4.68,0,0,0,1.38-3.331,4.68,4.68,0,0,0-1.38-3.331,4.716,4.716,0,0,0-6.662,0l-1.158,1.158a.967.967,0,0,1-1.367,0l-1.158-1.158a4.716,4.716,0,0,0-6.662,0,4.68,4.68,0,0,0-1.38,3.331,4.68,4.68,0,0,0,1.38,3.331l8.09,8.09a.581.581,0,0,0,.413.171.58.58,0,0,0,.413-.171l2.7-2.7a.967.967,0,0,1,1.367,0,.967.967,0,0,1,0,1.367l-2.7,2.695A2.5,2.5,0,0,1-181.042-114.431Z" transform="translate(192.859 134.597)" fill="#fff"/>
      </g>
      <g id="g1727" transform="translate(501 2541.772)">
        <path id="path1729" d="M-40.648.926h-2.107A2.246,2.246,0,0,1-45-1.317v-6.44A2.246,2.246,0,0,1-42.755-10h2.107a.967.967,0,0,1,.967.967.967.967,0,0,1-.967.967h-2.107a.31.31,0,0,0-.31.31v6.44a.31.31,0,0,0,.31.31h2.107a.967.967,0,0,1,.967.967A.967.967,0,0,1-40.648.926Z" transform="translate(44.999 10)" fill="#fff"/>
      </g>
      <g id="g1731" transform="translate(561.683 2541.772)">
        <path id="path1733" d="M-6.926.926H-9.033A.967.967,0,0,1-10-.041a.967.967,0,0,1,.967-.967h2.107a.31.31,0,0,0,.31-.31v-6.44a.31.31,0,0,0-.31-.31H-9.033A.967.967,0,0,1-10-9.033.967.967,0,0,1-9.033-10h2.107A2.246,2.246,0,0,1-4.683-7.757v6.44A2.246,2.246,0,0,1-6.926.926Z" transform="translate(10 10)" fill="#fff"/>
      </g>
      <g id="g1735" transform="translate(526.895 2538.017)">
        <path id="path1737" d="M-148.627-279.793a.967.967,0,0,1-.967-.967v-2.328a11.077,11.077,0,0,1,2.877-7.455,5.384,5.384,0,0,0,1.2-2.191l.6-2.2a5.36,5.36,0,0,0,.188-1.408v-8.094a1.084,1.084,0,0,0-1.082-1.083h-.853a1.084,1.084,0,0,0-1.082,1.083.967.967,0,0,1-.967.967.967.967,0,0,1-.967-.967V-306.1a1.084,1.084,0,0,0-1.083-1.083h-.853A1.084,1.084,0,0,0-152.7-306.1a.967.967,0,0,1-.967.967.967.967,0,0,1-.967-.967v-.964a1.084,1.084,0,0,0-1.083-1.082h-.853a1.084,1.084,0,0,0-1.083,1.082.967.967,0,0,1-.967.967.967.967,0,0,1-.967-.967v-.723a1.084,1.084,0,0,0-1.082-1.083h-.853a1.084,1.084,0,0,0-1.083,1.083v10.2a.967.967,0,0,1-.967.967.967.967,0,0,1-.967-.967v-10.2a3.02,3.02,0,0,1,3.016-3.016h.853a3.014,3.014,0,0,1,2.428,1.229,3,3,0,0,1,1.67-.506h.853a3.017,3.017,0,0,1,2.544,1.4,3,3,0,0,1,1.555-.433h.853a3.021,3.021,0,0,1,2.822,1.952,3,3,0,0,1,1.276-.284h.853a3.019,3.019,0,0,1,3.016,3.016v8.094a7.293,7.293,0,0,1-.256,1.917l-.6,2.2a7.328,7.328,0,0,1-1.634,2.981,9.147,9.147,0,0,0-2.376,6.156v2.328A.967.967,0,0,1-148.627-279.793Z" transform="translate(164.534 310.809)" fill="#fff"/>
      </g>
      <g id="g1739" transform="translate(519.459 2548.989)">
        <path id="path1741" d="M-76.108-8.066h-7.179a.967.967,0,0,1-.967-.967A.967.967,0,0,1-83.286-10h7.179a.967.967,0,0,1,.967.967A.967.967,0,0,1-76.108-8.066Z" transform="translate(84.253 10)" fill="#fff"/>
      </g>
      <g id="g1743" transform="translate(519.459 2543.547)">
        <path id="path1745" d="M-1.854-8.066H-9.033A.967.967,0,0,1-10-9.033.967.967,0,0,1-9.033-10h7.179a.967.967,0,0,1,.967.967A.967.967,0,0,1-1.854-8.066Z" transform="translate(10 10)" fill="#fff"/>
      </g>
      <g id="g1747" transform="translate(521.252 2548.989)">
        <path id="path1749" d="M-3.393,10.043a.967.967,0,0,1-.967-.967V2.988a8.9,8.9,0,0,0-1.5-4.961L-9.2-6.968A5.281,5.281,0,0,1-9.982-8.84a.967.967,0,0,1,.753-1.142.967.967,0,0,1,1.142.753,3.354,3.354,0,0,0,.5,1.189l3.336,4.993A10.828,10.828,0,0,1-2.426,2.988V9.076A.967.967,0,0,1-3.393,10.043Z" transform="translate(10.002 10.002)" fill="#fff"/>
      </g>
      <g id="g1751" transform="translate(510.961 2533.476)">
        <path id="path1753" d="M-3.084-112.353h-3.5A3.425,3.425,0,0,1-10-115.774v-11.287a.967.967,0,0,1,.967-.967.967.967,0,0,1,.967.967v11.287a1.489,1.489,0,0,0,1.487,1.487h3.5A1.489,1.489,0,0,0-1.6-115.774V-137.24a1.489,1.489,0,0,0-1.487-1.487h-3.5a1.489,1.489,0,0,0-1.487,1.487v5.882a.967.967,0,0,1-.967.967.967.967,0,0,1-.967-.967v-5.882a3.425,3.425,0,0,1,3.421-3.421h3.5A3.425,3.425,0,0,1,.337-137.24v21.465A3.425,3.425,0,0,1-3.084-112.353Z" transform="translate(10 140.661)" fill="#fff"/>
      </g>
      <g id="g1755" transform="translate(546.702 2533.476)">
        <path id="path1757" d="M-72.748-254.14a.973.973,0,0,1-.154-.012,3.4,3.4,0,0,1-2.878-3.375v-21.465a3.425,3.425,0,0,1,3.421-3.421h3.5a3.425,3.425,0,0,1,3.421,3.421v21.465a3.409,3.409,0,0,1-2.85,3.371.967.967,0,0,1-1.114-.792.967.967,0,0,1,.792-1.114,1.481,1.481,0,0,0,1.238-1.464v-21.465a1.489,1.489,0,0,0-1.487-1.487h-3.5a1.489,1.489,0,0,0-1.487,1.487v21.465a1.478,1.478,0,0,0,1.25,1.466.967.967,0,0,1,.8,1.108A.967.967,0,0,1-72.748-254.14Z" transform="translate(75.78 282.414)" fill="#fff"/>
      </g>
      <g id="g1759" transform="translate(555.105 2536.762)">
        <path id="path1761" d="M-46.153-185.7h-1.519a3.425,3.425,0,0,1-3.421-3.421v-14.1a3.425,3.425,0,0,1,3.421-3.421h1.519a3.425,3.425,0,0,1,3.421,3.421v14.1A3.425,3.425,0,0,1-46.153-185.7Zm-1.519-19.011a1.489,1.489,0,0,0-1.487,1.487v14.1a1.489,1.489,0,0,0,1.487,1.487h1.519a1.489,1.489,0,0,0,1.487-1.487v-14.1a1.489,1.489,0,0,0-1.487-1.487Z" transform="translate(51.093 206.641)" fill="#fff"/>
      </g>
      <g id="g1763" transform="translate(504.535 2536.762)">
        <path id="path1765" d="M-71.539-41.29h-1.519a3.425,3.425,0,0,1-3.421-3.421v-14.1a3.425,3.425,0,0,1,3.421-3.421h1.519a3.425,3.425,0,0,1,3.421,3.421v2.6a.967.967,0,0,1-.967.967.967.967,0,0,1-.967-.967v-2.6A1.489,1.489,0,0,0-71.539-60.3h-1.519a1.489,1.489,0,0,0-1.487,1.487v14.1a1.489,1.489,0,0,0,1.487,1.487h1.519a1.489,1.489,0,0,0,1.487-1.487v-7.211a.967.967,0,0,1,.967-.967.967.967,0,0,1,.967.967v7.211A3.425,3.425,0,0,1-71.539-41.29Z" transform="translate(76.478 62.235)" fill="#fff"/>
      </g>
    </g>
  </g>
</svg>
